G75*
%MOIN*%
%OFA0B0*%
%FSLAX24Y24*%
%IPPOS*%
%LPD*%
%AMOC8*
5,1,8,0,0,1.08239X$1,22.5*
%
%ADD10C,0.0000*%
%ADD11C,0.0560*%
%ADD12C,0.0560*%
%ADD13R,0.0800X0.0800*%
%ADD14C,0.0800*%
%ADD15R,0.0600X0.0600*%
%ADD16OC8,0.0600*%
%ADD17R,0.1181X0.0551*%
%ADD18C,0.1000*%
%ADD19OC8,0.1000*%
%ADD20C,0.0100*%
%ADD21C,0.0160*%
%ADD22C,0.0337*%
%ADD23C,0.0660*%
D10*
X000650Y000650D02*
X000650Y017646D01*
X013020Y017646D01*
X013020Y000650D01*
X000650Y000650D01*
X001020Y001650D02*
X001022Y001700D01*
X001028Y001750D01*
X001038Y001799D01*
X001052Y001847D01*
X001069Y001894D01*
X001090Y001939D01*
X001115Y001983D01*
X001143Y002024D01*
X001175Y002063D01*
X001209Y002100D01*
X001246Y002134D01*
X001286Y002164D01*
X001328Y002191D01*
X001372Y002215D01*
X001418Y002236D01*
X001465Y002252D01*
X001513Y002265D01*
X001563Y002274D01*
X001612Y002279D01*
X001663Y002280D01*
X001713Y002277D01*
X001762Y002270D01*
X001811Y002259D01*
X001859Y002244D01*
X001905Y002226D01*
X001950Y002204D01*
X001993Y002178D01*
X002034Y002149D01*
X002073Y002117D01*
X002109Y002082D01*
X002141Y002044D01*
X002171Y002004D01*
X002198Y001961D01*
X002221Y001917D01*
X002240Y001871D01*
X002256Y001823D01*
X002268Y001774D01*
X002276Y001725D01*
X002280Y001675D01*
X002280Y001625D01*
X002276Y001575D01*
X002268Y001526D01*
X002256Y001477D01*
X002240Y001429D01*
X002221Y001383D01*
X002198Y001339D01*
X002171Y001296D01*
X002141Y001256D01*
X002109Y001218D01*
X002073Y001183D01*
X002034Y001151D01*
X001993Y001122D01*
X001950Y001096D01*
X001905Y001074D01*
X001859Y001056D01*
X001811Y001041D01*
X001762Y001030D01*
X001713Y001023D01*
X001663Y001020D01*
X001612Y001021D01*
X001563Y001026D01*
X001513Y001035D01*
X001465Y001048D01*
X001418Y001064D01*
X001372Y001085D01*
X001328Y001109D01*
X001286Y001136D01*
X001246Y001166D01*
X001209Y001200D01*
X001175Y001237D01*
X001143Y001276D01*
X001115Y001317D01*
X001090Y001361D01*
X001069Y001406D01*
X001052Y001453D01*
X001038Y001501D01*
X001028Y001550D01*
X001022Y001600D01*
X001020Y001650D01*
X011520Y001650D02*
X011522Y001700D01*
X011528Y001750D01*
X011538Y001799D01*
X011552Y001847D01*
X011569Y001894D01*
X011590Y001939D01*
X011615Y001983D01*
X011643Y002024D01*
X011675Y002063D01*
X011709Y002100D01*
X011746Y002134D01*
X011786Y002164D01*
X011828Y002191D01*
X011872Y002215D01*
X011918Y002236D01*
X011965Y002252D01*
X012013Y002265D01*
X012063Y002274D01*
X012112Y002279D01*
X012163Y002280D01*
X012213Y002277D01*
X012262Y002270D01*
X012311Y002259D01*
X012359Y002244D01*
X012405Y002226D01*
X012450Y002204D01*
X012493Y002178D01*
X012534Y002149D01*
X012573Y002117D01*
X012609Y002082D01*
X012641Y002044D01*
X012671Y002004D01*
X012698Y001961D01*
X012721Y001917D01*
X012740Y001871D01*
X012756Y001823D01*
X012768Y001774D01*
X012776Y001725D01*
X012780Y001675D01*
X012780Y001625D01*
X012776Y001575D01*
X012768Y001526D01*
X012756Y001477D01*
X012740Y001429D01*
X012721Y001383D01*
X012698Y001339D01*
X012671Y001296D01*
X012641Y001256D01*
X012609Y001218D01*
X012573Y001183D01*
X012534Y001151D01*
X012493Y001122D01*
X012450Y001096D01*
X012405Y001074D01*
X012359Y001056D01*
X012311Y001041D01*
X012262Y001030D01*
X012213Y001023D01*
X012163Y001020D01*
X012112Y001021D01*
X012063Y001026D01*
X012013Y001035D01*
X011965Y001048D01*
X011918Y001064D01*
X011872Y001085D01*
X011828Y001109D01*
X011786Y001136D01*
X011746Y001166D01*
X011709Y001200D01*
X011675Y001237D01*
X011643Y001276D01*
X011615Y001317D01*
X011590Y001361D01*
X011569Y001406D01*
X011552Y001453D01*
X011538Y001501D01*
X011528Y001550D01*
X011522Y001600D01*
X011520Y001650D01*
X011520Y016650D02*
X011522Y016700D01*
X011528Y016750D01*
X011538Y016799D01*
X011552Y016847D01*
X011569Y016894D01*
X011590Y016939D01*
X011615Y016983D01*
X011643Y017024D01*
X011675Y017063D01*
X011709Y017100D01*
X011746Y017134D01*
X011786Y017164D01*
X011828Y017191D01*
X011872Y017215D01*
X011918Y017236D01*
X011965Y017252D01*
X012013Y017265D01*
X012063Y017274D01*
X012112Y017279D01*
X012163Y017280D01*
X012213Y017277D01*
X012262Y017270D01*
X012311Y017259D01*
X012359Y017244D01*
X012405Y017226D01*
X012450Y017204D01*
X012493Y017178D01*
X012534Y017149D01*
X012573Y017117D01*
X012609Y017082D01*
X012641Y017044D01*
X012671Y017004D01*
X012698Y016961D01*
X012721Y016917D01*
X012740Y016871D01*
X012756Y016823D01*
X012768Y016774D01*
X012776Y016725D01*
X012780Y016675D01*
X012780Y016625D01*
X012776Y016575D01*
X012768Y016526D01*
X012756Y016477D01*
X012740Y016429D01*
X012721Y016383D01*
X012698Y016339D01*
X012671Y016296D01*
X012641Y016256D01*
X012609Y016218D01*
X012573Y016183D01*
X012534Y016151D01*
X012493Y016122D01*
X012450Y016096D01*
X012405Y016074D01*
X012359Y016056D01*
X012311Y016041D01*
X012262Y016030D01*
X012213Y016023D01*
X012163Y016020D01*
X012112Y016021D01*
X012063Y016026D01*
X012013Y016035D01*
X011965Y016048D01*
X011918Y016064D01*
X011872Y016085D01*
X011828Y016109D01*
X011786Y016136D01*
X011746Y016166D01*
X011709Y016200D01*
X011675Y016237D01*
X011643Y016276D01*
X011615Y016317D01*
X011590Y016361D01*
X011569Y016406D01*
X011552Y016453D01*
X011538Y016501D01*
X011528Y016550D01*
X011522Y016600D01*
X011520Y016650D01*
X001020Y016650D02*
X001022Y016700D01*
X001028Y016750D01*
X001038Y016799D01*
X001052Y016847D01*
X001069Y016894D01*
X001090Y016939D01*
X001115Y016983D01*
X001143Y017024D01*
X001175Y017063D01*
X001209Y017100D01*
X001246Y017134D01*
X001286Y017164D01*
X001328Y017191D01*
X001372Y017215D01*
X001418Y017236D01*
X001465Y017252D01*
X001513Y017265D01*
X001563Y017274D01*
X001612Y017279D01*
X001663Y017280D01*
X001713Y017277D01*
X001762Y017270D01*
X001811Y017259D01*
X001859Y017244D01*
X001905Y017226D01*
X001950Y017204D01*
X001993Y017178D01*
X002034Y017149D01*
X002073Y017117D01*
X002109Y017082D01*
X002141Y017044D01*
X002171Y017004D01*
X002198Y016961D01*
X002221Y016917D01*
X002240Y016871D01*
X002256Y016823D01*
X002268Y016774D01*
X002276Y016725D01*
X002280Y016675D01*
X002280Y016625D01*
X002276Y016575D01*
X002268Y016526D01*
X002256Y016477D01*
X002240Y016429D01*
X002221Y016383D01*
X002198Y016339D01*
X002171Y016296D01*
X002141Y016256D01*
X002109Y016218D01*
X002073Y016183D01*
X002034Y016151D01*
X001993Y016122D01*
X001950Y016096D01*
X001905Y016074D01*
X001859Y016056D01*
X001811Y016041D01*
X001762Y016030D01*
X001713Y016023D01*
X001663Y016020D01*
X001612Y016021D01*
X001563Y016026D01*
X001513Y016035D01*
X001465Y016048D01*
X001418Y016064D01*
X001372Y016085D01*
X001328Y016109D01*
X001286Y016136D01*
X001246Y016166D01*
X001209Y016200D01*
X001175Y016237D01*
X001143Y016276D01*
X001115Y016317D01*
X001090Y016361D01*
X001069Y016406D01*
X001052Y016453D01*
X001038Y016501D01*
X001028Y016550D01*
X001022Y016600D01*
X001020Y016650D01*
D11*
X005150Y016650D03*
X005150Y015650D03*
X005150Y014650D03*
X005150Y013650D03*
X005150Y012650D03*
X005150Y011650D03*
X005150Y010650D03*
X005150Y009650D03*
X005150Y008650D03*
X005150Y007650D03*
X005150Y006650D03*
X005150Y005650D03*
X005150Y004650D03*
X005150Y003650D03*
X005150Y002650D03*
X005150Y001650D03*
D12*
X009870Y001650D02*
X010430Y001650D01*
X010430Y002650D02*
X009870Y002650D01*
X009870Y003650D02*
X010430Y003650D01*
X010430Y004650D02*
X009870Y004650D01*
X009870Y005650D02*
X010430Y005650D01*
X010430Y006650D02*
X009870Y006650D01*
X009870Y007650D02*
X010430Y007650D01*
X010430Y008650D02*
X009870Y008650D01*
X009870Y009650D02*
X010430Y009650D01*
X010430Y010650D02*
X009870Y010650D01*
X009870Y011650D02*
X010430Y011650D01*
X010430Y012650D02*
X009870Y012650D01*
X009870Y013650D02*
X010430Y013650D01*
X010430Y014650D02*
X009870Y014650D01*
X009870Y015650D02*
X010430Y015650D01*
X010430Y016650D02*
X009870Y016650D01*
D13*
X002650Y014400D03*
D14*
X002650Y012431D03*
D15*
X001900Y009150D03*
X007400Y012150D03*
X012150Y014650D03*
X012150Y006650D03*
X007400Y004150D03*
D16*
X007400Y003150D03*
X007400Y002150D03*
X006400Y002150D03*
X006400Y003150D03*
X006400Y004150D03*
X002900Y005150D03*
X002900Y006150D03*
X002900Y007150D03*
X002900Y008150D03*
X002900Y009150D03*
X001900Y008150D03*
X001900Y007150D03*
X001900Y006150D03*
X001900Y005150D03*
X006400Y010150D03*
X006400Y011150D03*
X006400Y012150D03*
X007400Y011150D03*
X007400Y010150D03*
X012150Y011650D03*
X012150Y012650D03*
X012150Y013650D03*
X012150Y005650D03*
X012150Y004650D03*
X012150Y003650D03*
D17*
X008595Y007900D03*
X006705Y007900D03*
X006705Y015900D03*
X008595Y015900D03*
D18*
X008650Y016650D03*
X008650Y008650D03*
D19*
X006650Y008650D03*
X006650Y016650D03*
D20*
X006700Y016607D02*
X008040Y016607D01*
X008040Y016529D02*
X008133Y016304D01*
X008152Y016286D01*
X007959Y016286D01*
X007894Y016221D01*
X007894Y015579D01*
X007959Y015514D01*
X008376Y015514D01*
X008507Y015460D01*
X008682Y015460D01*
X008814Y015514D01*
X009231Y015514D01*
X009295Y015579D01*
X009295Y016210D01*
X010238Y016210D01*
X010358Y016260D01*
X010508Y016260D01*
X010651Y016319D01*
X010761Y016429D01*
X010820Y016572D01*
X010820Y016728D01*
X010761Y016871D01*
X010651Y016981D01*
X010508Y017040D01*
X010358Y017040D01*
X010238Y017090D01*
X009073Y017090D01*
X008996Y017167D01*
X008771Y017260D01*
X008529Y017260D01*
X008304Y017167D01*
X008133Y016996D01*
X008040Y016771D01*
X008040Y016529D01*
X008048Y016509D02*
X007300Y016509D01*
X007300Y016600D02*
X006700Y016600D01*
X006700Y016700D01*
X007300Y016700D01*
X007300Y016919D01*
X006919Y017300D01*
X006700Y017300D01*
X006700Y016700D01*
X006600Y016700D01*
X006600Y017300D01*
X006381Y017300D01*
X006000Y016919D01*
X006000Y016700D01*
X006600Y016700D01*
X006600Y016600D01*
X006000Y016600D01*
X006000Y016381D01*
X006064Y016317D01*
X006057Y016315D01*
X006022Y016296D01*
X005995Y016268D01*
X005975Y016233D01*
X005965Y016195D01*
X005965Y015950D01*
X006655Y015950D01*
X006655Y015850D01*
X005965Y015850D01*
X005965Y015605D01*
X005975Y015567D01*
X005995Y015532D01*
X006022Y015504D01*
X006057Y015485D01*
X006095Y015474D01*
X006655Y015474D01*
X006655Y015850D01*
X006755Y015850D01*
X006755Y015474D01*
X007315Y015474D01*
X007354Y015485D01*
X007388Y015504D01*
X007416Y015532D01*
X007435Y015567D01*
X007446Y015605D01*
X007446Y015850D01*
X006755Y015850D01*
X006755Y015950D01*
X006655Y015950D01*
X006655Y016326D01*
X006600Y016326D01*
X006600Y016600D01*
X006700Y016600D01*
X006700Y016000D01*
X006755Y016000D01*
X006755Y015950D01*
X007446Y015950D01*
X007446Y016195D01*
X007435Y016233D01*
X007416Y016268D01*
X007388Y016296D01*
X007354Y016315D01*
X007315Y016326D01*
X007245Y016326D01*
X007300Y016381D01*
X007300Y016600D01*
X007300Y016706D02*
X008040Y016706D01*
X008054Y016804D02*
X007300Y016804D01*
X007300Y016903D02*
X008094Y016903D01*
X008138Y017001D02*
X007218Y017001D01*
X007120Y017100D02*
X008237Y017100D01*
X008379Y017198D02*
X007021Y017198D01*
X006923Y017297D02*
X011623Y017297D01*
X011680Y017354D02*
X011446Y017120D01*
X011320Y016815D01*
X011320Y016485D01*
X011446Y016180D01*
X011680Y015946D01*
X011985Y015820D01*
X012315Y015820D01*
X012620Y015946D01*
X012820Y016146D01*
X012820Y002154D01*
X012620Y002354D01*
X012315Y002480D01*
X011985Y002480D01*
X011680Y002354D01*
X011446Y002120D01*
X011320Y001815D01*
X011320Y001485D01*
X011446Y001180D01*
X011680Y000946D01*
X011913Y000850D01*
X001887Y000850D01*
X002120Y000946D01*
X002354Y001180D01*
X002480Y001485D01*
X002480Y001815D01*
X002354Y002120D01*
X002120Y002354D01*
X001815Y002480D01*
X001485Y002480D01*
X001180Y002354D01*
X000946Y002120D01*
X000850Y001887D01*
X000850Y016413D01*
X000946Y016180D01*
X001180Y015946D01*
X001485Y015820D01*
X001815Y015820D01*
X002120Y015946D01*
X002354Y016180D01*
X002480Y016485D01*
X002480Y016815D01*
X002354Y017120D01*
X002120Y017354D01*
X001897Y017446D01*
X011903Y017446D01*
X011680Y017354D01*
X011780Y017395D02*
X002020Y017395D01*
X002177Y017297D02*
X006377Y017297D01*
X006279Y017198D02*
X002276Y017198D01*
X002362Y017100D02*
X006180Y017100D01*
X006082Y017001D02*
X005322Y017001D01*
X005371Y016981D02*
X005228Y017040D01*
X005072Y017040D01*
X004929Y016981D01*
X004819Y016871D01*
X004807Y016840D01*
X004571Y016840D01*
X004071Y016340D01*
X003960Y016229D01*
X003960Y011729D01*
X002321Y010090D01*
X002210Y009979D01*
X002210Y009560D01*
X001554Y009560D01*
X001490Y009496D01*
X001490Y008804D01*
X001554Y008740D01*
X002210Y008740D01*
X002210Y008729D01*
X002041Y008560D01*
X001730Y008560D01*
X001490Y008320D01*
X001490Y007980D01*
X001730Y007740D01*
X002070Y007740D01*
X002310Y007980D01*
X002310Y008291D01*
X002590Y008571D01*
X002590Y008880D01*
X002730Y008740D01*
X003070Y008740D01*
X003310Y008980D01*
X003310Y009320D01*
X003070Y009560D01*
X002730Y009560D01*
X002590Y009420D01*
X002590Y009821D01*
X004340Y011571D01*
X004340Y016071D01*
X004729Y016460D01*
X004807Y016460D01*
X004819Y016429D01*
X004929Y016319D01*
X005072Y016260D01*
X005228Y016260D01*
X005371Y016319D01*
X005481Y016429D01*
X005540Y016572D01*
X005540Y016728D01*
X005481Y016871D01*
X005371Y016981D01*
X005449Y016903D02*
X006000Y016903D01*
X006000Y016804D02*
X005508Y016804D01*
X005540Y016706D02*
X006000Y016706D01*
X006000Y016509D02*
X005514Y016509D01*
X005540Y016607D02*
X006600Y016607D01*
X006600Y016509D02*
X006700Y016509D01*
X006700Y016410D02*
X006600Y016410D01*
X006655Y016312D02*
X006700Y016312D01*
X006700Y016213D02*
X006655Y016213D01*
X006655Y016115D02*
X006700Y016115D01*
X006700Y016016D02*
X006655Y016016D01*
X006655Y015918D02*
X005434Y015918D01*
X005481Y015871D02*
X005371Y015981D01*
X005228Y016040D01*
X005072Y016040D01*
X004929Y015981D01*
X004819Y015871D01*
X004760Y015728D01*
X004760Y015572D01*
X004819Y015429D01*
X004929Y015319D01*
X005072Y015260D01*
X005228Y015260D01*
X005258Y015273D01*
X006210Y014321D01*
X006210Y012540D01*
X006090Y012420D01*
X006090Y013229D01*
X005979Y013340D01*
X005840Y013479D01*
X005840Y014229D01*
X005527Y014542D01*
X005540Y014572D01*
X005540Y014728D01*
X005481Y014871D01*
X005371Y014981D01*
X005228Y015040D01*
X005072Y015040D01*
X004929Y014981D01*
X004819Y014871D01*
X004760Y014728D01*
X004760Y014572D01*
X004819Y014429D01*
X004929Y014319D01*
X005072Y014260D01*
X005228Y014260D01*
X005258Y014273D01*
X005460Y014071D01*
X005460Y013892D01*
X005371Y013981D01*
X005228Y014040D01*
X005072Y014040D01*
X004929Y013981D01*
X004819Y013871D01*
X004760Y013728D01*
X004760Y013572D01*
X004819Y013429D01*
X004929Y013319D01*
X004985Y013296D01*
X005071Y013210D01*
X005251Y013030D01*
X005228Y013040D01*
X005072Y013040D01*
X004929Y012981D01*
X004819Y012871D01*
X004760Y012728D01*
X004760Y012572D01*
X004819Y012429D01*
X004929Y012319D01*
X004960Y012307D01*
X004960Y011993D01*
X004929Y011981D01*
X004819Y011871D01*
X004760Y011728D01*
X004760Y011572D01*
X004819Y011429D01*
X004929Y011319D01*
X005072Y011260D01*
X005228Y011260D01*
X005371Y011319D01*
X005460Y011408D01*
X005460Y010892D01*
X005371Y010981D01*
X005228Y011040D01*
X005072Y011040D01*
X004929Y010981D01*
X004819Y010871D01*
X004760Y010728D01*
X004760Y010572D01*
X004773Y010542D01*
X003821Y009590D01*
X003710Y009479D01*
X003710Y009229D01*
X003041Y008560D01*
X002730Y008560D01*
X002490Y008320D01*
X002490Y007980D01*
X002630Y007840D01*
X002321Y007840D01*
X002041Y007560D01*
X001730Y007560D01*
X001490Y007320D01*
X001490Y006980D01*
X001730Y006740D01*
X002070Y006740D01*
X002310Y006980D01*
X002310Y007291D01*
X002479Y007460D01*
X002630Y007460D01*
X002490Y007320D01*
X002490Y006980D01*
X002730Y006740D01*
X003070Y006740D01*
X003290Y006960D01*
X003729Y006960D01*
X003840Y007071D01*
X003840Y007071D01*
X005042Y008273D01*
X005072Y008260D01*
X005228Y008260D01*
X005371Y008319D01*
X005481Y008429D01*
X005540Y008572D01*
X005540Y008728D01*
X005481Y008871D01*
X005371Y008981D01*
X005228Y009040D01*
X005072Y009040D01*
X004929Y008981D01*
X004819Y008871D01*
X004760Y008728D01*
X004760Y008572D01*
X004773Y008542D01*
X003571Y007340D01*
X003290Y007340D01*
X003170Y007460D01*
X003229Y007460D01*
X003340Y007571D01*
X005042Y009273D01*
X005072Y009260D01*
X005228Y009260D01*
X005371Y009319D01*
X005481Y009429D01*
X005540Y009572D01*
X005540Y009728D01*
X005481Y009871D01*
X005371Y009981D01*
X005228Y010040D01*
X005072Y010040D01*
X004929Y009981D01*
X004819Y009871D01*
X004760Y009728D01*
X004760Y009572D01*
X004773Y009542D01*
X003310Y008079D01*
X003310Y008291D01*
X004090Y009071D01*
X004090Y009321D01*
X005042Y010273D01*
X005072Y010260D01*
X005228Y010260D01*
X005371Y010319D01*
X005481Y010429D01*
X005540Y010572D01*
X005540Y010728D01*
X005530Y010751D01*
X005990Y010291D01*
X005990Y009980D01*
X006230Y009740D01*
X006570Y009740D01*
X006810Y009980D01*
X006810Y010320D01*
X006570Y010560D01*
X006259Y010560D01*
X005840Y010979D01*
X005840Y011441D01*
X005990Y011291D01*
X005990Y010980D01*
X006230Y010740D01*
X006570Y010740D01*
X006810Y010980D01*
X006810Y011320D01*
X006570Y011560D01*
X006259Y011560D01*
X006090Y011729D01*
X006090Y011880D01*
X006230Y011740D01*
X006570Y011740D01*
X006810Y011980D01*
X006810Y012320D01*
X006590Y012540D01*
X006590Y014479D01*
X006479Y014590D01*
X005527Y015542D01*
X005540Y015572D01*
X005540Y015728D01*
X005481Y015871D01*
X005502Y015819D02*
X005965Y015819D01*
X005965Y015721D02*
X005540Y015721D01*
X005540Y015622D02*
X005965Y015622D01*
X006003Y015524D02*
X005545Y015524D01*
X005644Y015425D02*
X009502Y015425D01*
X009542Y015370D01*
X009590Y015322D01*
X009645Y015282D01*
X009705Y015252D01*
X009769Y015231D01*
X009836Y015220D01*
X010121Y015220D01*
X010121Y015621D01*
X010179Y015621D01*
X010179Y015679D01*
X010121Y015679D01*
X010121Y016080D01*
X009836Y016080D01*
X009769Y016069D01*
X009705Y016048D01*
X009645Y016018D01*
X009590Y015978D01*
X009542Y015930D01*
X009502Y015875D01*
X009472Y015815D01*
X009451Y015751D01*
X009440Y015684D01*
X009440Y015679D01*
X010121Y015679D01*
X010121Y015621D01*
X009440Y015621D01*
X009440Y015616D01*
X009451Y015549D01*
X009472Y015485D01*
X009502Y015425D01*
X009459Y015524D02*
X009240Y015524D01*
X009295Y015622D02*
X010121Y015622D01*
X010179Y015621D02*
X010179Y015220D01*
X010464Y015220D01*
X010531Y015231D01*
X010595Y015252D01*
X010655Y015282D01*
X010710Y015322D01*
X010758Y015370D01*
X010798Y015425D01*
X012820Y015425D01*
X012820Y015327D02*
X010715Y015327D01*
X010798Y015425D02*
X010828Y015485D01*
X010849Y015549D01*
X010860Y015616D01*
X010860Y015621D01*
X010179Y015621D01*
X010179Y015622D02*
X012820Y015622D01*
X012820Y015524D02*
X010841Y015524D01*
X010860Y015679D02*
X010860Y015684D01*
X010849Y015751D01*
X010828Y015815D01*
X010798Y015875D01*
X010758Y015930D01*
X010710Y015978D01*
X010655Y016018D01*
X010595Y016048D01*
X010531Y016069D01*
X010464Y016080D01*
X010179Y016080D01*
X010179Y015679D01*
X010860Y015679D01*
X010854Y015721D02*
X012820Y015721D01*
X012820Y015819D02*
X010826Y015819D01*
X010767Y015918D02*
X011750Y015918D01*
X011610Y016016D02*
X010658Y016016D01*
X010632Y016312D02*
X011392Y016312D01*
X011351Y016410D02*
X010742Y016410D01*
X010794Y016509D02*
X011320Y016509D01*
X011320Y016607D02*
X010820Y016607D01*
X010820Y016706D02*
X011320Y016706D01*
X011320Y016804D02*
X010788Y016804D01*
X010729Y016903D02*
X011356Y016903D01*
X011397Y017001D02*
X010602Y017001D01*
X010245Y016213D02*
X011433Y016213D01*
X011512Y016115D02*
X009295Y016115D01*
X009295Y016016D02*
X009642Y016016D01*
X009533Y015918D02*
X009295Y015918D01*
X009295Y015819D02*
X009474Y015819D01*
X009446Y015721D02*
X009295Y015721D01*
X009585Y015327D02*
X005742Y015327D01*
X005841Y015228D02*
X009785Y015228D01*
X009792Y015040D02*
X009942Y015040D01*
X010062Y015090D01*
X012238Y015090D01*
X012310Y015060D01*
X012496Y015060D01*
X012560Y014996D01*
X012560Y014810D01*
X012590Y014738D01*
X012590Y014562D01*
X012560Y014490D01*
X012560Y014304D01*
X012496Y014240D01*
X012310Y014240D01*
X012238Y014210D01*
X010062Y014210D01*
X009942Y014260D01*
X009792Y014260D01*
X009649Y014319D01*
X009539Y014429D01*
X009480Y014572D01*
X009480Y014728D01*
X009539Y014871D01*
X009649Y014981D01*
X009792Y015040D01*
X009771Y015031D02*
X006038Y015031D01*
X006136Y014933D02*
X009601Y014933D01*
X009524Y014834D02*
X006235Y014834D01*
X006333Y014736D02*
X009483Y014736D01*
X009480Y014637D02*
X006432Y014637D01*
X006530Y014539D02*
X009494Y014539D01*
X009535Y014440D02*
X006590Y014440D01*
X006590Y014342D02*
X009627Y014342D01*
X009792Y014040D02*
X009649Y013981D01*
X009539Y013871D01*
X009480Y013728D01*
X009480Y013572D01*
X009539Y013429D01*
X009649Y013319D01*
X009792Y013260D01*
X009942Y013260D01*
X010062Y013210D01*
X012238Y013210D01*
X012310Y013240D01*
X012320Y013240D01*
X012327Y013247D01*
X012399Y013277D01*
X012523Y013401D01*
X012553Y013473D01*
X012560Y013480D01*
X012560Y013490D01*
X012590Y013562D01*
X012590Y013738D01*
X012560Y013810D01*
X012560Y013820D01*
X012553Y013827D01*
X012523Y013899D01*
X012399Y014023D01*
X012327Y014053D01*
X012320Y014060D01*
X012310Y014060D01*
X012238Y014090D01*
X010062Y014090D01*
X009942Y014040D01*
X009792Y014040D01*
X009956Y014046D02*
X006590Y014046D01*
X006590Y013948D02*
X009616Y013948D01*
X009530Y013849D02*
X006590Y013849D01*
X006590Y013751D02*
X009490Y013751D01*
X009480Y013652D02*
X006590Y013652D01*
X006590Y013554D02*
X009488Y013554D01*
X009529Y013455D02*
X006590Y013455D01*
X006590Y013357D02*
X009612Y013357D01*
X009792Y013040D02*
X009649Y012981D01*
X009539Y012871D01*
X009480Y012728D01*
X009480Y012572D01*
X009539Y012429D01*
X009649Y012319D01*
X009792Y012260D01*
X009942Y012260D01*
X010062Y012210D01*
X012238Y012210D01*
X012310Y012240D01*
X012320Y012240D01*
X012327Y012247D01*
X012399Y012277D01*
X012523Y012401D01*
X012553Y012473D01*
X012560Y012480D01*
X012560Y012490D01*
X012590Y012562D01*
X012590Y012738D01*
X012560Y012810D01*
X012560Y012820D01*
X012553Y012827D01*
X012523Y012899D01*
X012399Y013023D01*
X012327Y013053D01*
X012320Y013060D01*
X012310Y013060D01*
X012238Y013090D01*
X010062Y013090D01*
X009942Y013040D01*
X009792Y013040D01*
X009631Y012963D02*
X006590Y012963D01*
X006590Y013061D02*
X009993Y013061D01*
X009947Y013258D02*
X006590Y013258D01*
X006590Y013160D02*
X012820Y013160D01*
X012820Y013258D02*
X012353Y013258D01*
X012479Y013357D02*
X012820Y013357D01*
X012820Y013455D02*
X012545Y013455D01*
X012586Y013554D02*
X012820Y013554D01*
X012820Y013652D02*
X012590Y013652D01*
X012585Y013751D02*
X012820Y013751D01*
X012820Y013849D02*
X012544Y013849D01*
X012475Y013948D02*
X012820Y013948D01*
X012820Y014046D02*
X012344Y014046D01*
X012499Y014243D02*
X012820Y014243D01*
X012820Y014145D02*
X006590Y014145D01*
X006590Y014243D02*
X009983Y014243D01*
X010121Y015228D02*
X010179Y015228D01*
X010179Y015327D02*
X010121Y015327D01*
X010121Y015425D02*
X010179Y015425D01*
X010179Y015524D02*
X010121Y015524D01*
X010121Y015721D02*
X010179Y015721D01*
X010179Y015819D02*
X010121Y015819D01*
X010121Y015918D02*
X010179Y015918D01*
X010179Y016016D02*
X010121Y016016D01*
X010515Y015228D02*
X012820Y015228D01*
X012820Y015130D02*
X005939Y015130D01*
X005697Y014834D02*
X005496Y014834D01*
X005537Y014736D02*
X005796Y014736D01*
X005894Y014637D02*
X005540Y014637D01*
X005530Y014539D02*
X005993Y014539D01*
X006091Y014440D02*
X005629Y014440D01*
X005727Y014342D02*
X006190Y014342D01*
X006210Y014243D02*
X005826Y014243D01*
X005840Y014145D02*
X006210Y014145D01*
X006210Y014046D02*
X005840Y014046D01*
X005840Y013948D02*
X006210Y013948D01*
X006210Y013849D02*
X005840Y013849D01*
X005840Y013751D02*
X006210Y013751D01*
X006210Y013652D02*
X005840Y013652D01*
X005840Y013554D02*
X006210Y013554D01*
X006210Y013455D02*
X005864Y013455D01*
X005962Y013357D02*
X006210Y013357D01*
X006210Y013258D02*
X006061Y013258D01*
X006090Y013160D02*
X006210Y013160D01*
X006210Y013061D02*
X006090Y013061D01*
X006090Y012963D02*
X006210Y012963D01*
X006210Y012864D02*
X006090Y012864D01*
X006090Y012766D02*
X006210Y012766D01*
X006210Y012667D02*
X006090Y012667D01*
X006090Y012569D02*
X006210Y012569D01*
X006140Y012470D02*
X006090Y012470D01*
X006590Y012569D02*
X009482Y012569D01*
X009480Y012667D02*
X006590Y012667D01*
X006590Y012766D02*
X009496Y012766D01*
X009537Y012864D02*
X006590Y012864D01*
X006660Y012470D02*
X006990Y012470D01*
X006990Y012496D02*
X006990Y011804D01*
X007054Y011740D01*
X007210Y011740D01*
X007210Y011540D01*
X006990Y011320D01*
X006990Y010980D01*
X007210Y010760D01*
X007210Y010540D01*
X006990Y010320D01*
X006990Y009980D01*
X007210Y009760D01*
X007210Y009729D01*
X007160Y009678D01*
X007095Y009678D01*
X006992Y009636D01*
X006914Y009558D01*
X006872Y009455D01*
X006872Y009345D01*
X006890Y009300D01*
X006700Y009300D01*
X006700Y008700D01*
X007300Y008700D01*
X007300Y008919D01*
X007098Y009122D01*
X007205Y009122D01*
X007308Y009164D01*
X007386Y009242D01*
X007428Y009345D01*
X007428Y009410D01*
X007590Y009571D01*
X007590Y009760D01*
X007810Y009980D01*
X007810Y010291D01*
X007979Y010460D01*
X009527Y010460D01*
X009539Y010429D01*
X009649Y010319D01*
X009792Y010260D01*
X010508Y010260D01*
X010651Y010319D01*
X010761Y010429D01*
X010820Y010572D01*
X010820Y010728D01*
X010761Y010871D01*
X010651Y010981D01*
X010508Y011040D01*
X009792Y011040D01*
X009649Y010981D01*
X009539Y010871D01*
X009527Y010840D01*
X007821Y010840D01*
X007590Y010609D01*
X007590Y010760D01*
X007810Y010980D01*
X007810Y011320D01*
X007590Y011540D01*
X007590Y011740D01*
X007746Y011740D01*
X007810Y011804D01*
X007810Y012496D01*
X007746Y012560D01*
X007054Y012560D01*
X006990Y012496D01*
X006990Y012372D02*
X006758Y012372D01*
X006810Y012273D02*
X006990Y012273D01*
X006990Y012175D02*
X006810Y012175D01*
X006810Y012076D02*
X006990Y012076D01*
X006990Y011978D02*
X006807Y011978D01*
X006709Y011879D02*
X006990Y011879D01*
X007014Y011781D02*
X006610Y011781D01*
X006645Y011485D02*
X007155Y011485D01*
X007210Y011584D02*
X006235Y011584D01*
X006137Y011682D02*
X007210Y011682D01*
X007057Y011387D02*
X006743Y011387D01*
X006810Y011288D02*
X006990Y011288D01*
X006990Y011190D02*
X006810Y011190D01*
X006810Y011091D02*
X006990Y011091D01*
X006990Y010993D02*
X006810Y010993D01*
X006724Y010894D02*
X007076Y010894D01*
X007175Y010796D02*
X006625Y010796D01*
X006630Y010500D02*
X007170Y010500D01*
X007210Y010599D02*
X006220Y010599D01*
X006122Y010697D02*
X007210Y010697D01*
X007072Y010402D02*
X006728Y010402D01*
X006810Y010303D02*
X006990Y010303D01*
X006990Y010205D02*
X006810Y010205D01*
X006810Y010106D02*
X006990Y010106D01*
X006990Y010008D02*
X006810Y010008D01*
X006739Y009909D02*
X007061Y009909D01*
X007160Y009811D02*
X006640Y009811D01*
X006896Y009515D02*
X005516Y009515D01*
X005540Y009614D02*
X006970Y009614D01*
X006872Y009417D02*
X005468Y009417D01*
X005368Y009318D02*
X006883Y009318D01*
X006700Y009220D02*
X006600Y009220D01*
X006600Y009300D02*
X006381Y009300D01*
X006000Y008919D01*
X006000Y008700D01*
X006600Y008700D01*
X006600Y009300D01*
X006600Y009121D02*
X006700Y009121D01*
X006700Y009023D02*
X006600Y009023D01*
X006600Y008924D02*
X006700Y008924D01*
X006700Y008826D02*
X006600Y008826D01*
X006600Y008727D02*
X006700Y008727D01*
X006700Y008700D02*
X006600Y008700D01*
X006600Y008600D01*
X006000Y008600D01*
X006000Y008381D01*
X006064Y008317D01*
X006057Y008315D01*
X006022Y008296D01*
X005995Y008268D01*
X005975Y008233D01*
X005965Y008195D01*
X005965Y007950D01*
X006655Y007950D01*
X006655Y007850D01*
X005965Y007850D01*
X005965Y007605D01*
X005975Y007567D01*
X005995Y007532D01*
X006022Y007504D01*
X006057Y007485D01*
X006095Y007474D01*
X006655Y007474D01*
X006655Y007850D01*
X006755Y007850D01*
X006755Y007474D01*
X007315Y007474D01*
X007354Y007485D01*
X007388Y007504D01*
X007416Y007532D01*
X007435Y007567D01*
X007446Y007605D01*
X007446Y007850D01*
X006755Y007850D01*
X006755Y007950D01*
X006655Y007950D01*
X006655Y008326D01*
X006600Y008326D01*
X006600Y008600D01*
X006700Y008600D01*
X006700Y008700D01*
X006700Y008629D02*
X008040Y008629D01*
X008040Y008727D02*
X007300Y008727D01*
X007300Y008826D02*
X008062Y008826D01*
X008040Y008771D02*
X008040Y008529D01*
X008133Y008304D01*
X008152Y008286D01*
X007959Y008286D01*
X007894Y008221D01*
X007894Y007579D01*
X007959Y007514D01*
X008376Y007514D01*
X008507Y007460D01*
X008682Y007460D01*
X008814Y007514D01*
X009231Y007514D01*
X009295Y007579D01*
X009295Y008210D01*
X010238Y008210D01*
X010358Y008260D01*
X010508Y008260D01*
X010651Y008319D01*
X010761Y008429D01*
X010820Y008572D01*
X010820Y008728D01*
X010761Y008871D01*
X010651Y008981D01*
X010508Y009040D01*
X010358Y009040D01*
X010238Y009090D01*
X009073Y009090D01*
X008996Y009167D01*
X008771Y009260D01*
X008529Y009260D01*
X008304Y009167D01*
X008133Y008996D01*
X008040Y008771D01*
X008103Y008924D02*
X007295Y008924D01*
X007197Y009023D02*
X008160Y009023D01*
X008258Y009121D02*
X007098Y009121D01*
X007363Y009220D02*
X008431Y009220D01*
X008869Y009220D02*
X012820Y009220D01*
X012820Y009318D02*
X010705Y009318D01*
X010710Y009322D02*
X010758Y009370D01*
X010798Y009425D01*
X010828Y009485D01*
X010849Y009549D01*
X010860Y009616D01*
X010860Y009621D01*
X010179Y009621D01*
X010179Y009679D01*
X010121Y009679D01*
X010121Y010080D01*
X009836Y010080D01*
X009769Y010069D01*
X009705Y010048D01*
X009645Y010018D01*
X009590Y009978D01*
X009542Y009930D01*
X009502Y009875D01*
X009472Y009815D01*
X009451Y009751D01*
X009440Y009684D01*
X009440Y009679D01*
X010121Y009679D01*
X010121Y009621D01*
X010179Y009621D01*
X010179Y009220D01*
X010464Y009220D01*
X010531Y009231D01*
X010595Y009252D01*
X010655Y009282D01*
X010710Y009322D01*
X010792Y009417D02*
X012820Y009417D01*
X012820Y009515D02*
X010838Y009515D01*
X010860Y009614D02*
X012820Y009614D01*
X012820Y009712D02*
X010856Y009712D01*
X010860Y009684D02*
X010849Y009751D01*
X010828Y009815D01*
X010798Y009875D01*
X010758Y009930D01*
X010710Y009978D01*
X010655Y010018D01*
X010595Y010048D01*
X010531Y010069D01*
X010464Y010080D01*
X010179Y010080D01*
X010179Y009679D01*
X010860Y009679D01*
X010860Y009684D01*
X010830Y009811D02*
X012820Y009811D01*
X012820Y009909D02*
X010773Y009909D01*
X010669Y010008D02*
X012820Y010008D01*
X012820Y010106D02*
X007810Y010106D01*
X007810Y010008D02*
X009631Y010008D01*
X009527Y009909D02*
X007739Y009909D01*
X007640Y009811D02*
X009470Y009811D01*
X009444Y009712D02*
X007590Y009712D01*
X007590Y009614D02*
X009440Y009614D01*
X009440Y009616D02*
X009451Y009549D01*
X009472Y009485D01*
X009502Y009425D01*
X009542Y009370D01*
X009590Y009322D01*
X009645Y009282D01*
X009705Y009252D01*
X009769Y009231D01*
X009836Y009220D01*
X010121Y009220D01*
X010121Y009621D01*
X009440Y009621D01*
X009440Y009616D01*
X009462Y009515D02*
X007534Y009515D01*
X007435Y009417D02*
X009508Y009417D01*
X009595Y009318D02*
X007417Y009318D01*
X007193Y009712D02*
X005540Y009712D01*
X005506Y009811D02*
X006160Y009811D01*
X006061Y009909D02*
X005443Y009909D01*
X005306Y010008D02*
X005990Y010008D01*
X005990Y010106D02*
X004875Y010106D01*
X004973Y010205D02*
X005990Y010205D01*
X005978Y010303D02*
X005331Y010303D01*
X005453Y010402D02*
X005880Y010402D01*
X005781Y010500D02*
X005510Y010500D01*
X005540Y010599D02*
X005683Y010599D01*
X005584Y010697D02*
X005540Y010697D01*
X005460Y010894D02*
X005458Y010894D01*
X005460Y010993D02*
X005342Y010993D01*
X005460Y011091D02*
X003860Y011091D01*
X003958Y011190D02*
X005460Y011190D01*
X005460Y011288D02*
X005295Y011288D01*
X005438Y011387D02*
X005460Y011387D01*
X005840Y011387D02*
X005895Y011387D01*
X005840Y011288D02*
X005990Y011288D01*
X005990Y011190D02*
X005840Y011190D01*
X005840Y011091D02*
X005990Y011091D01*
X005990Y010993D02*
X005840Y010993D01*
X005925Y010894D02*
X006076Y010894D01*
X006023Y010796D02*
X006175Y010796D01*
X006190Y011781D02*
X006090Y011781D01*
X006090Y011879D02*
X006091Y011879D01*
X005220Y013061D02*
X004340Y013061D01*
X004340Y012963D02*
X004911Y012963D01*
X004817Y012864D02*
X004340Y012864D01*
X004340Y012766D02*
X004776Y012766D01*
X004760Y012667D02*
X004340Y012667D01*
X004340Y012569D02*
X004762Y012569D01*
X004802Y012470D02*
X004340Y012470D01*
X004340Y012372D02*
X004877Y012372D01*
X004960Y012273D02*
X004340Y012273D01*
X004340Y012175D02*
X004960Y012175D01*
X004960Y012076D02*
X004340Y012076D01*
X004340Y011978D02*
X004926Y011978D01*
X004827Y011879D02*
X004340Y011879D01*
X004340Y011781D02*
X004782Y011781D01*
X004760Y011682D02*
X004340Y011682D01*
X004340Y011584D02*
X004760Y011584D01*
X004796Y011485D02*
X004254Y011485D01*
X004155Y011387D02*
X004862Y011387D01*
X005005Y011288D02*
X004057Y011288D01*
X003815Y011584D02*
X000850Y011584D01*
X000850Y011682D02*
X003913Y011682D01*
X003960Y011781D02*
X000850Y011781D01*
X000850Y011879D02*
X003960Y011879D01*
X003960Y011978D02*
X002887Y011978D01*
X002939Y011999D02*
X003082Y012143D01*
X003160Y012330D01*
X003160Y012533D01*
X003082Y012720D01*
X002939Y012864D01*
X002751Y012941D01*
X002549Y012941D01*
X002361Y012864D01*
X002218Y012720D01*
X002140Y012533D01*
X002140Y012330D01*
X002218Y012143D01*
X002361Y011999D01*
X002549Y011921D01*
X002751Y011921D01*
X002939Y011999D01*
X003016Y012076D02*
X003960Y012076D01*
X003960Y012175D02*
X003096Y012175D01*
X003136Y012273D02*
X003960Y012273D01*
X003960Y012372D02*
X003160Y012372D01*
X003160Y012470D02*
X003960Y012470D01*
X003960Y012569D02*
X003145Y012569D01*
X003104Y012667D02*
X003960Y012667D01*
X003960Y012766D02*
X003037Y012766D01*
X002938Y012864D02*
X003960Y012864D01*
X003960Y012963D02*
X000850Y012963D01*
X000850Y013061D02*
X003960Y013061D01*
X003960Y013160D02*
X000850Y013160D01*
X000850Y013258D02*
X003960Y013258D01*
X003960Y013357D02*
X000850Y013357D01*
X000850Y013455D02*
X003960Y013455D01*
X003960Y013554D02*
X000850Y013554D01*
X000850Y013652D02*
X003960Y013652D01*
X003960Y013751D02*
X000850Y013751D01*
X000850Y013849D02*
X003960Y013849D01*
X003960Y013948D02*
X003191Y013948D01*
X003190Y013942D02*
X003200Y013980D01*
X003200Y014350D01*
X002700Y014350D01*
X002700Y014450D01*
X002600Y014450D01*
X002600Y014950D01*
X002230Y014950D01*
X002192Y014940D01*
X002158Y014920D01*
X002130Y014892D01*
X002110Y014858D01*
X002100Y014820D01*
X002100Y014450D01*
X002600Y014450D01*
X002600Y014350D01*
X002700Y014350D01*
X002700Y013850D01*
X003070Y013850D01*
X003108Y013860D01*
X003142Y013880D01*
X003170Y013908D01*
X003190Y013942D01*
X003200Y014046D02*
X003960Y014046D01*
X003960Y014145D02*
X003200Y014145D01*
X003200Y014243D02*
X003960Y014243D01*
X003960Y014342D02*
X003200Y014342D01*
X003200Y014450D02*
X003200Y014820D01*
X003190Y014858D01*
X003170Y014892D01*
X003142Y014920D01*
X003108Y014940D01*
X003070Y014950D01*
X002700Y014950D01*
X002700Y014450D01*
X003200Y014450D01*
X003200Y014539D02*
X003960Y014539D01*
X003960Y014637D02*
X003200Y014637D01*
X003200Y014736D02*
X003960Y014736D01*
X003960Y014834D02*
X003196Y014834D01*
X003120Y014933D02*
X003960Y014933D01*
X003960Y015031D02*
X000850Y015031D01*
X000850Y014933D02*
X002180Y014933D01*
X002104Y014834D02*
X000850Y014834D01*
X000850Y014736D02*
X002100Y014736D01*
X002100Y014637D02*
X000850Y014637D01*
X000850Y014539D02*
X002100Y014539D01*
X002100Y014350D02*
X002100Y013980D01*
X002110Y013942D01*
X002130Y013908D01*
X002158Y013880D01*
X002192Y013860D01*
X002230Y013850D01*
X002600Y013850D01*
X002600Y014350D01*
X002100Y014350D01*
X002100Y014342D02*
X000850Y014342D01*
X000850Y014440D02*
X002600Y014440D01*
X002600Y014342D02*
X002700Y014342D01*
X002700Y014440D02*
X003960Y014440D01*
X004340Y014440D02*
X004815Y014440D01*
X004774Y014539D02*
X004340Y014539D01*
X004340Y014637D02*
X004760Y014637D01*
X004763Y014736D02*
X004340Y014736D01*
X004340Y014834D02*
X004804Y014834D01*
X004881Y014933D02*
X004340Y014933D01*
X004340Y015031D02*
X005051Y015031D01*
X005249Y015031D02*
X005500Y015031D01*
X005419Y014933D02*
X005599Y014933D01*
X005402Y015130D02*
X004340Y015130D01*
X004340Y015228D02*
X005303Y015228D01*
X004922Y015327D02*
X004340Y015327D01*
X004340Y015425D02*
X004823Y015425D01*
X004780Y015524D02*
X004340Y015524D01*
X004340Y015622D02*
X004760Y015622D01*
X004760Y015721D02*
X004340Y015721D01*
X004340Y015819D02*
X004798Y015819D01*
X004866Y015918D02*
X004340Y015918D01*
X004340Y016016D02*
X005015Y016016D01*
X005285Y016016D02*
X005965Y016016D01*
X005965Y016115D02*
X004383Y016115D01*
X004482Y016213D02*
X005969Y016213D01*
X006050Y016312D02*
X005352Y016312D01*
X005462Y016410D02*
X006000Y016410D01*
X006600Y016706D02*
X006700Y016706D01*
X006700Y016804D02*
X006600Y016804D01*
X006600Y016903D02*
X006700Y016903D01*
X006700Y017001D02*
X006600Y017001D01*
X006600Y017100D02*
X006700Y017100D01*
X006700Y017198D02*
X006600Y017198D01*
X006600Y017297D02*
X006700Y017297D01*
X007300Y016410D02*
X008089Y016410D01*
X008130Y016312D02*
X007360Y016312D01*
X007441Y016213D02*
X007894Y016213D01*
X007894Y016115D02*
X007446Y016115D01*
X007446Y016016D02*
X007894Y016016D01*
X007894Y015918D02*
X006755Y015918D01*
X006755Y015819D02*
X006655Y015819D01*
X006655Y015721D02*
X006755Y015721D01*
X006755Y015622D02*
X006655Y015622D01*
X006655Y015524D02*
X006755Y015524D01*
X007407Y015524D02*
X007950Y015524D01*
X007894Y015622D02*
X007446Y015622D01*
X007446Y015721D02*
X007894Y015721D01*
X007894Y015819D02*
X007446Y015819D01*
X008921Y017198D02*
X011524Y017198D01*
X011438Y017100D02*
X009063Y017100D01*
X012307Y013061D02*
X012820Y013061D01*
X012820Y012963D02*
X012460Y012963D01*
X012538Y012864D02*
X012820Y012864D01*
X012820Y012766D02*
X012578Y012766D01*
X012590Y012667D02*
X012820Y012667D01*
X012820Y012569D02*
X012590Y012569D01*
X012552Y012470D02*
X012820Y012470D01*
X012820Y012372D02*
X012494Y012372D01*
X012390Y012273D02*
X012820Y012273D01*
X012820Y012175D02*
X007810Y012175D01*
X007810Y012273D02*
X009761Y012273D01*
X009597Y012372D02*
X007810Y012372D01*
X007810Y012470D02*
X009522Y012470D01*
X009649Y011981D02*
X009539Y011871D01*
X009480Y011728D01*
X009480Y011572D01*
X009539Y011429D01*
X009649Y011319D01*
X009792Y011260D01*
X009942Y011260D01*
X010062Y011210D01*
X012238Y011210D01*
X012310Y011240D01*
X012320Y011240D01*
X012327Y011247D01*
X012399Y011277D01*
X012523Y011401D01*
X012553Y011473D01*
X012560Y011480D01*
X012560Y011490D01*
X012590Y011562D01*
X012590Y011738D01*
X012560Y011810D01*
X012560Y011820D01*
X012553Y011827D01*
X012523Y011899D01*
X012399Y012023D01*
X012327Y012053D01*
X012320Y012060D01*
X012310Y012060D01*
X012238Y012090D01*
X010062Y012090D01*
X009942Y012040D01*
X009792Y012040D01*
X009649Y011981D01*
X009646Y011978D02*
X007810Y011978D01*
X007810Y012076D02*
X010029Y012076D01*
X009547Y011879D02*
X007810Y011879D01*
X007786Y011781D02*
X009502Y011781D01*
X009480Y011682D02*
X007590Y011682D01*
X007590Y011584D02*
X009480Y011584D01*
X009516Y011485D02*
X007645Y011485D01*
X007743Y011387D02*
X009582Y011387D01*
X009725Y011288D02*
X007810Y011288D01*
X007810Y011190D02*
X012820Y011190D01*
X012820Y011288D02*
X012410Y011288D01*
X012509Y011387D02*
X012820Y011387D01*
X012820Y011485D02*
X012560Y011485D01*
X012590Y011584D02*
X012820Y011584D01*
X012820Y011682D02*
X012590Y011682D01*
X012572Y011781D02*
X012820Y011781D01*
X012820Y011879D02*
X012531Y011879D01*
X012445Y011978D02*
X012820Y011978D01*
X012820Y012076D02*
X012271Y012076D01*
X012820Y011091D02*
X007810Y011091D01*
X007810Y010993D02*
X009678Y010993D01*
X009562Y010894D02*
X007724Y010894D01*
X007777Y010796D02*
X007625Y010796D01*
X007590Y010697D02*
X007678Y010697D01*
X007920Y010402D02*
X009567Y010402D01*
X009689Y010303D02*
X007822Y010303D01*
X007810Y010205D02*
X012820Y010205D01*
X012820Y010303D02*
X010611Y010303D01*
X010733Y010402D02*
X012820Y010402D01*
X012820Y010500D02*
X010790Y010500D01*
X010820Y010599D02*
X012820Y010599D01*
X012820Y010697D02*
X010820Y010697D01*
X010792Y010796D02*
X012820Y010796D01*
X012820Y010894D02*
X010738Y010894D01*
X010622Y010993D02*
X012820Y010993D01*
X012820Y009121D02*
X009042Y009121D01*
X009295Y008136D02*
X012820Y008136D01*
X012820Y008038D02*
X010617Y008038D01*
X010595Y008048D02*
X010531Y008069D01*
X010464Y008080D01*
X010179Y008080D01*
X010179Y007679D01*
X010121Y007679D01*
X010121Y008080D01*
X009836Y008080D01*
X009769Y008069D01*
X009705Y008048D01*
X009645Y008018D01*
X009590Y007978D01*
X009542Y007930D01*
X009502Y007875D01*
X009472Y007815D01*
X009451Y007751D01*
X009440Y007684D01*
X009440Y007679D01*
X010121Y007679D01*
X010121Y007621D01*
X010179Y007621D01*
X010179Y007679D01*
X010860Y007679D01*
X010860Y007684D01*
X010849Y007751D01*
X010828Y007815D01*
X010798Y007875D01*
X010758Y007930D01*
X010710Y007978D01*
X010655Y008018D01*
X010595Y008048D01*
X010749Y007939D02*
X012820Y007939D01*
X012820Y007841D02*
X010816Y007841D01*
X010851Y007742D02*
X012820Y007742D01*
X012820Y007644D02*
X010179Y007644D01*
X010179Y007621D02*
X010860Y007621D01*
X010860Y007616D01*
X010849Y007549D01*
X010828Y007485D01*
X010798Y007425D01*
X010758Y007370D01*
X010710Y007322D01*
X010655Y007282D01*
X010595Y007252D01*
X010531Y007231D01*
X010464Y007220D01*
X010179Y007220D01*
X010179Y007621D01*
X010121Y007621D02*
X010121Y007220D01*
X009836Y007220D01*
X009769Y007231D01*
X009705Y007252D01*
X009645Y007282D01*
X009590Y007322D01*
X009542Y007370D01*
X009502Y007425D01*
X009472Y007485D01*
X009451Y007549D01*
X009440Y007616D01*
X009440Y007621D01*
X010121Y007621D01*
X010121Y007644D02*
X009295Y007644D01*
X009295Y007742D02*
X009449Y007742D01*
X009484Y007841D02*
X009295Y007841D01*
X009295Y007939D02*
X009551Y007939D01*
X009683Y008038D02*
X009295Y008038D01*
X009262Y007545D02*
X009452Y007545D01*
X009491Y007447D02*
X005622Y007447D01*
X005527Y007542D02*
X005540Y007572D01*
X005540Y007728D01*
X005481Y007871D01*
X005371Y007981D01*
X005228Y008040D01*
X005072Y008040D01*
X004929Y007981D01*
X004819Y007871D01*
X004760Y007728D01*
X004760Y007572D01*
X004819Y007429D01*
X004929Y007319D01*
X005072Y007260D01*
X005228Y007260D01*
X005258Y007273D01*
X006210Y006321D01*
X006210Y004540D01*
X006090Y004420D01*
X006090Y005229D01*
X005979Y005340D01*
X005979Y005340D01*
X005840Y005479D01*
X005840Y006229D01*
X005729Y006340D01*
X005729Y006340D01*
X005527Y006542D01*
X005540Y006572D01*
X005540Y006728D01*
X005481Y006871D01*
X005371Y006981D01*
X005228Y007040D01*
X005072Y007040D01*
X004929Y006981D01*
X004819Y006871D01*
X004760Y006728D01*
X004760Y006572D01*
X004819Y006429D01*
X004929Y006319D01*
X005072Y006260D01*
X005228Y006260D01*
X005258Y006273D01*
X005460Y006071D01*
X005460Y005892D01*
X005371Y005981D01*
X005228Y006040D01*
X005072Y006040D01*
X004929Y005981D01*
X004819Y005871D01*
X004760Y005728D01*
X004760Y005572D01*
X004819Y005429D01*
X004929Y005319D01*
X004985Y005296D01*
X005071Y005210D01*
X005251Y005030D01*
X005228Y005040D01*
X005072Y005040D01*
X004929Y004981D01*
X004819Y004871D01*
X004760Y004728D01*
X004760Y004572D01*
X004819Y004429D01*
X004929Y004319D01*
X004960Y004307D01*
X004960Y003993D01*
X004929Y003981D01*
X004819Y003871D01*
X004760Y003728D01*
X004760Y003572D01*
X004819Y003429D01*
X004929Y003319D01*
X005072Y003260D01*
X005228Y003260D01*
X005371Y003319D01*
X005460Y003408D01*
X005460Y003408D01*
X005460Y002892D01*
X005371Y002981D01*
X005228Y003040D01*
X005072Y003040D01*
X005042Y003027D01*
X004340Y003729D01*
X004340Y005229D01*
X003340Y006229D01*
X003310Y006259D01*
X003310Y006320D01*
X003070Y006560D01*
X002730Y006560D01*
X002490Y006320D01*
X002490Y005980D01*
X002630Y005840D01*
X002479Y005840D01*
X002310Y006009D01*
X002310Y006320D01*
X002070Y006560D01*
X001730Y006560D01*
X001490Y006320D01*
X001490Y005980D01*
X001730Y005740D01*
X002041Y005740D01*
X002321Y005460D01*
X002630Y005460D01*
X002490Y005320D01*
X002490Y004980D01*
X002730Y004740D01*
X003070Y004740D01*
X003310Y004980D01*
X003310Y005221D01*
X003460Y005071D01*
X003460Y003071D01*
X003571Y002960D01*
X004773Y001758D01*
X004760Y001728D01*
X004760Y001572D01*
X004819Y001429D01*
X004929Y001319D01*
X005072Y001260D01*
X005228Y001260D01*
X005371Y001319D01*
X005481Y001429D01*
X005540Y001572D01*
X005540Y001728D01*
X005481Y001871D01*
X005371Y001981D01*
X005228Y002040D01*
X005072Y002040D01*
X005042Y002027D01*
X003840Y003229D01*
X003840Y005191D01*
X003960Y005071D01*
X003960Y003571D01*
X004071Y003460D01*
X004773Y002758D01*
X004760Y002728D01*
X004760Y002572D01*
X004819Y002429D01*
X004929Y002319D01*
X005072Y002260D01*
X005228Y002260D01*
X005371Y002319D01*
X005481Y002429D01*
X005540Y002572D01*
X005540Y002728D01*
X005530Y002751D01*
X005990Y002291D01*
X005990Y001980D01*
X006230Y001740D01*
X006570Y001740D01*
X006810Y001980D01*
X006810Y002320D01*
X006570Y002560D01*
X006259Y002560D01*
X005840Y002979D01*
X005840Y003441D01*
X005990Y003291D01*
X005990Y002980D01*
X006230Y002740D01*
X006570Y002740D01*
X006810Y002980D01*
X006810Y003320D01*
X006570Y003560D01*
X006259Y003560D01*
X006090Y003729D01*
X006090Y003880D01*
X006230Y003740D01*
X006570Y003740D01*
X006810Y003980D01*
X006810Y004320D01*
X006590Y004540D01*
X006590Y006479D01*
X006479Y006590D01*
X005527Y007542D01*
X005529Y007545D02*
X005987Y007545D01*
X005965Y007644D02*
X005540Y007644D01*
X005534Y007742D02*
X005965Y007742D01*
X005965Y007841D02*
X005493Y007841D01*
X005413Y007939D02*
X006655Y007939D01*
X006700Y008000D02*
X006700Y008600D01*
X007300Y008600D01*
X007300Y008381D01*
X007245Y008326D01*
X007315Y008326D01*
X007354Y008315D01*
X007388Y008296D01*
X007416Y008268D01*
X007435Y008233D01*
X007446Y008195D01*
X007446Y007950D01*
X006755Y007950D01*
X006755Y008000D01*
X006700Y008000D01*
X006700Y008038D02*
X006655Y008038D01*
X006655Y008136D02*
X006700Y008136D01*
X006700Y008235D02*
X006655Y008235D01*
X006700Y008333D02*
X006600Y008333D01*
X006600Y008432D02*
X006700Y008432D01*
X006700Y008530D02*
X006600Y008530D01*
X006600Y008629D02*
X005540Y008629D01*
X005540Y008727D02*
X006000Y008727D01*
X006000Y008826D02*
X005499Y008826D01*
X005428Y008924D02*
X006005Y008924D01*
X006103Y009023D02*
X005270Y009023D01*
X005030Y009023D02*
X004791Y009023D01*
X004872Y008924D02*
X004693Y008924D01*
X004594Y008826D02*
X004801Y008826D01*
X004760Y008727D02*
X004496Y008727D01*
X004397Y008629D02*
X004760Y008629D01*
X004761Y008530D02*
X004299Y008530D01*
X004200Y008432D02*
X004663Y008432D01*
X004564Y008333D02*
X004102Y008333D01*
X004003Y008235D02*
X004466Y008235D01*
X004367Y008136D02*
X003905Y008136D01*
X003806Y008038D02*
X004269Y008038D01*
X004170Y007939D02*
X003708Y007939D01*
X003609Y007841D02*
X004072Y007841D01*
X003973Y007742D02*
X003511Y007742D01*
X003412Y007644D02*
X003875Y007644D01*
X003776Y007545D02*
X003314Y007545D01*
X003183Y007447D02*
X003678Y007447D01*
X003579Y007348D02*
X003282Y007348D01*
X003284Y006954D02*
X004902Y006954D01*
X004813Y006856D02*
X003185Y006856D01*
X003087Y006757D02*
X004772Y006757D01*
X004760Y006659D02*
X000850Y006659D01*
X000850Y006757D02*
X001713Y006757D01*
X001615Y006856D02*
X000850Y006856D01*
X000850Y006954D02*
X001516Y006954D01*
X001490Y007053D02*
X000850Y007053D01*
X000850Y007151D02*
X001490Y007151D01*
X001490Y007250D02*
X000850Y007250D01*
X000850Y007348D02*
X001518Y007348D01*
X001617Y007447D02*
X000850Y007447D01*
X000850Y007545D02*
X001715Y007545D01*
X001728Y007742D02*
X000850Y007742D01*
X000850Y007644D02*
X002125Y007644D01*
X002072Y007742D02*
X002223Y007742D01*
X002170Y007841D02*
X002630Y007841D01*
X002531Y007939D02*
X002269Y007939D01*
X002310Y008038D02*
X002490Y008038D01*
X002490Y008136D02*
X002310Y008136D01*
X002310Y008235D02*
X002490Y008235D01*
X002503Y008333D02*
X002352Y008333D01*
X002450Y008432D02*
X002602Y008432D01*
X002549Y008530D02*
X002700Y008530D01*
X002590Y008629D02*
X003110Y008629D01*
X003208Y008727D02*
X002590Y008727D01*
X002590Y008826D02*
X002645Y008826D01*
X002208Y008727D02*
X000850Y008727D01*
X000850Y008629D02*
X002110Y008629D01*
X001700Y008530D02*
X000850Y008530D01*
X000850Y008432D02*
X001602Y008432D01*
X001503Y008333D02*
X000850Y008333D01*
X000850Y008235D02*
X001490Y008235D01*
X001490Y008136D02*
X000850Y008136D01*
X000850Y008038D02*
X001490Y008038D01*
X001531Y007939D02*
X000850Y007939D01*
X000850Y007841D02*
X001630Y007841D01*
X002367Y007348D02*
X002518Y007348D01*
X002490Y007250D02*
X002310Y007250D01*
X002310Y007151D02*
X002490Y007151D01*
X002490Y007053D02*
X002310Y007053D01*
X002284Y006954D02*
X002516Y006954D01*
X002615Y006856D02*
X002185Y006856D01*
X002087Y006757D02*
X002713Y006757D01*
X002632Y006462D02*
X002168Y006462D01*
X002267Y006363D02*
X002533Y006363D01*
X002490Y006265D02*
X002310Y006265D01*
X002310Y006166D02*
X002490Y006166D01*
X002490Y006068D02*
X002310Y006068D01*
X002350Y005969D02*
X002501Y005969D01*
X002448Y005871D02*
X002600Y005871D01*
X002305Y005477D02*
X002210Y005477D01*
X002206Y005575D02*
X002111Y005575D01*
X002086Y005600D02*
X001950Y005600D01*
X001950Y005200D01*
X001850Y005200D01*
X001850Y005600D01*
X001714Y005600D01*
X001450Y005336D01*
X001450Y005200D01*
X001850Y005200D01*
X001850Y005100D01*
X001450Y005100D01*
X001450Y004964D01*
X001714Y004700D01*
X001850Y004700D01*
X001850Y005100D01*
X001950Y005100D01*
X001950Y005200D01*
X002350Y005200D01*
X002350Y005336D01*
X002086Y005600D01*
X002108Y005674D02*
X000850Y005674D01*
X000850Y005772D02*
X001698Y005772D01*
X001600Y005871D02*
X000850Y005871D01*
X000850Y005969D02*
X001501Y005969D01*
X001490Y006068D02*
X000850Y006068D01*
X000850Y006166D02*
X001490Y006166D01*
X001490Y006265D02*
X000850Y006265D01*
X000850Y006363D02*
X001533Y006363D01*
X001632Y006462D02*
X000850Y006462D01*
X000850Y006560D02*
X004765Y006560D01*
X004806Y006462D02*
X003168Y006462D01*
X003267Y006363D02*
X004885Y006363D01*
X005062Y006265D02*
X003310Y006265D01*
X003403Y006166D02*
X005365Y006166D01*
X005460Y006068D02*
X003501Y006068D01*
X003600Y005969D02*
X004917Y005969D01*
X004819Y005871D02*
X003698Y005871D01*
X003797Y005772D02*
X004778Y005772D01*
X004760Y005674D02*
X003895Y005674D01*
X003994Y005575D02*
X004760Y005575D01*
X004800Y005477D02*
X004092Y005477D01*
X004191Y005378D02*
X004870Y005378D01*
X005002Y005280D02*
X004289Y005280D01*
X004340Y005181D02*
X005100Y005181D01*
X005199Y005083D02*
X004340Y005083D01*
X004340Y004984D02*
X004937Y004984D01*
X004834Y004886D02*
X004340Y004886D01*
X004340Y004787D02*
X004785Y004787D01*
X004760Y004689D02*
X004340Y004689D01*
X004340Y004590D02*
X004760Y004590D01*
X004794Y004492D02*
X004340Y004492D01*
X004340Y004393D02*
X004855Y004393D01*
X004960Y004295D02*
X004340Y004295D01*
X004340Y004196D02*
X004960Y004196D01*
X004960Y004098D02*
X004340Y004098D01*
X004340Y003999D02*
X004960Y003999D01*
X004849Y003901D02*
X004340Y003901D01*
X004340Y003802D02*
X004791Y003802D01*
X004760Y003704D02*
X004365Y003704D01*
X004464Y003605D02*
X004760Y003605D01*
X004787Y003507D02*
X004562Y003507D01*
X004661Y003408D02*
X004840Y003408D01*
X004759Y003310D02*
X004953Y003310D01*
X004858Y003211D02*
X005460Y003211D01*
X005460Y003113D02*
X004956Y003113D01*
X005290Y003014D02*
X005460Y003014D01*
X005460Y002916D02*
X005436Y002916D01*
X005540Y002719D02*
X005563Y002719D01*
X005540Y002620D02*
X005661Y002620D01*
X005760Y002522D02*
X005519Y002522D01*
X005475Y002423D02*
X005858Y002423D01*
X005957Y002325D02*
X005376Y002325D01*
X005254Y002029D02*
X005990Y002029D01*
X005990Y002128D02*
X004941Y002128D01*
X004843Y002226D02*
X005990Y002226D01*
X006040Y001931D02*
X005421Y001931D01*
X005497Y001832D02*
X006138Y001832D01*
X006662Y001832D02*
X007138Y001832D01*
X007230Y001740D02*
X007570Y001740D01*
X007810Y001980D01*
X007810Y002320D01*
X007590Y002540D01*
X007590Y002691D01*
X007821Y002460D01*
X009527Y002460D01*
X009539Y002429D01*
X009649Y002319D01*
X009792Y002260D01*
X010508Y002260D01*
X010651Y002319D01*
X010761Y002429D01*
X010820Y002572D01*
X010820Y002728D01*
X010761Y002871D01*
X010651Y002981D01*
X010508Y003040D01*
X009792Y003040D01*
X009649Y002981D01*
X009539Y002871D01*
X009527Y002840D01*
X007979Y002840D01*
X007810Y003009D01*
X007810Y003320D01*
X007590Y003540D01*
X007590Y003740D01*
X007746Y003740D01*
X007810Y003804D01*
X007810Y004496D01*
X007746Y004560D01*
X007054Y004560D01*
X006990Y004496D01*
X006990Y003804D01*
X007054Y003740D01*
X007210Y003740D01*
X007210Y003540D01*
X006990Y003320D01*
X006990Y002980D01*
X007210Y002760D01*
X007210Y002540D01*
X006990Y002320D01*
X006990Y001980D01*
X007230Y001740D01*
X007040Y001931D02*
X006760Y001931D01*
X006810Y002029D02*
X006990Y002029D01*
X006990Y002128D02*
X006810Y002128D01*
X006810Y002226D02*
X006990Y002226D01*
X006995Y002325D02*
X006805Y002325D01*
X006707Y002423D02*
X007093Y002423D01*
X007192Y002522D02*
X006608Y002522D01*
X006647Y002817D02*
X007153Y002817D01*
X007210Y002719D02*
X006100Y002719D01*
X006153Y002817D02*
X006002Y002817D01*
X006055Y002916D02*
X005903Y002916D01*
X005840Y003014D02*
X005990Y003014D01*
X005990Y003113D02*
X005840Y003113D01*
X005840Y003211D02*
X005990Y003211D01*
X005972Y003310D02*
X005840Y003310D01*
X005840Y003408D02*
X005873Y003408D01*
X006115Y003704D02*
X007210Y003704D01*
X007210Y003605D02*
X006214Y003605D01*
X006168Y003802D02*
X006090Y003802D01*
X006632Y003802D02*
X006992Y003802D01*
X006990Y003901D02*
X006730Y003901D01*
X006810Y003999D02*
X006990Y003999D01*
X006990Y004098D02*
X006810Y004098D01*
X006810Y004196D02*
X006990Y004196D01*
X006990Y004295D02*
X006810Y004295D01*
X006737Y004393D02*
X006990Y004393D01*
X006990Y004492D02*
X006638Y004492D01*
X006590Y004590D02*
X009480Y004590D01*
X009480Y004572D02*
X009539Y004429D01*
X009649Y004319D01*
X009792Y004260D01*
X009942Y004260D01*
X010062Y004210D01*
X012238Y004210D01*
X012310Y004240D01*
X012320Y004240D01*
X012327Y004247D01*
X012399Y004277D01*
X012523Y004401D01*
X012553Y004473D01*
X012560Y004480D01*
X012560Y004490D01*
X012590Y004562D01*
X012590Y004738D01*
X012560Y004810D01*
X012560Y004820D01*
X012553Y004827D01*
X012523Y004899D01*
X012399Y005023D01*
X012327Y005053D01*
X012320Y005060D01*
X012310Y005060D01*
X012238Y005090D01*
X010062Y005090D01*
X009942Y005040D01*
X009792Y005040D01*
X009649Y004981D01*
X009539Y004871D01*
X009480Y004728D01*
X009480Y004572D01*
X009514Y004492D02*
X007810Y004492D01*
X007810Y004393D02*
X009575Y004393D01*
X009709Y004295D02*
X007810Y004295D01*
X007810Y004196D02*
X012820Y004196D01*
X012820Y004098D02*
X007810Y004098D01*
X007810Y003999D02*
X009693Y003999D01*
X009649Y003981D02*
X009539Y003871D01*
X009480Y003728D01*
X009480Y003572D01*
X009539Y003429D01*
X009649Y003319D01*
X009792Y003260D01*
X009942Y003260D01*
X010062Y003210D01*
X012238Y003210D01*
X012310Y003240D01*
X012320Y003240D01*
X012327Y003247D01*
X012399Y003277D01*
X012523Y003401D01*
X012553Y003473D01*
X012560Y003480D01*
X012560Y003490D01*
X012590Y003562D01*
X012590Y003738D01*
X012560Y003810D01*
X012560Y003820D01*
X012553Y003827D01*
X012523Y003899D01*
X012399Y004023D01*
X012327Y004053D01*
X012320Y004060D01*
X012310Y004060D01*
X012238Y004090D01*
X010062Y004090D01*
X009942Y004040D01*
X009792Y004040D01*
X009649Y003981D01*
X009569Y003901D02*
X007810Y003901D01*
X007808Y003802D02*
X009511Y003802D01*
X009480Y003704D02*
X007590Y003704D01*
X007590Y003605D02*
X009480Y003605D01*
X009507Y003507D02*
X007623Y003507D01*
X007722Y003408D02*
X009560Y003408D01*
X009673Y003310D02*
X007810Y003310D01*
X007810Y003211D02*
X010060Y003211D01*
X009730Y003014D02*
X007810Y003014D01*
X007810Y003113D02*
X012820Y003113D01*
X012820Y003211D02*
X012240Y003211D01*
X012432Y003310D02*
X012820Y003310D01*
X012820Y003408D02*
X012526Y003408D01*
X012567Y003507D02*
X012820Y003507D01*
X012820Y003605D02*
X012590Y003605D01*
X012590Y003704D02*
X012820Y003704D01*
X012820Y003802D02*
X012563Y003802D01*
X012522Y003901D02*
X012820Y003901D01*
X012820Y003999D02*
X012423Y003999D01*
X012417Y004295D02*
X012820Y004295D01*
X012820Y004393D02*
X012515Y004393D01*
X012561Y004492D02*
X012820Y004492D01*
X012820Y004590D02*
X012590Y004590D01*
X012590Y004689D02*
X012820Y004689D01*
X012820Y004787D02*
X012570Y004787D01*
X012529Y004886D02*
X012820Y004886D01*
X012820Y004984D02*
X012438Y004984D01*
X012256Y005083D02*
X012820Y005083D01*
X012820Y005181D02*
X006590Y005181D01*
X006590Y005083D02*
X010044Y005083D01*
X010062Y005210D02*
X012238Y005210D01*
X012310Y005240D01*
X012320Y005240D01*
X012327Y005247D01*
X012399Y005277D01*
X012523Y005401D01*
X012553Y005473D01*
X012560Y005480D01*
X012560Y005490D01*
X012590Y005562D01*
X012590Y005738D01*
X012560Y005810D01*
X012560Y005820D01*
X012553Y005827D01*
X012523Y005899D01*
X012399Y006023D01*
X012327Y006053D01*
X012320Y006060D01*
X012310Y006060D01*
X012238Y006090D01*
X010062Y006090D01*
X009942Y006040D01*
X009792Y006040D01*
X009649Y005981D01*
X009539Y005871D01*
X009480Y005728D01*
X009480Y005572D01*
X009539Y005429D01*
X009649Y005319D01*
X009792Y005260D01*
X009942Y005260D01*
X010062Y005210D01*
X009745Y005280D02*
X006590Y005280D01*
X006590Y005378D02*
X009590Y005378D01*
X009520Y005477D02*
X006590Y005477D01*
X006590Y005575D02*
X009480Y005575D01*
X009480Y005674D02*
X006590Y005674D01*
X006590Y005772D02*
X009498Y005772D01*
X009539Y005871D02*
X006590Y005871D01*
X006590Y005969D02*
X009637Y005969D01*
X009782Y006265D02*
X006590Y006265D01*
X006590Y006363D02*
X009605Y006363D01*
X009649Y006319D02*
X009539Y006429D01*
X009480Y006572D01*
X009480Y006728D01*
X009539Y006871D01*
X009649Y006981D01*
X009792Y007040D01*
X009942Y007040D01*
X010062Y007090D01*
X012238Y007090D01*
X012310Y007060D01*
X012496Y007060D01*
X012560Y006996D01*
X012560Y006810D01*
X012590Y006738D01*
X012590Y006562D01*
X012560Y006490D01*
X012560Y006304D01*
X012496Y006240D01*
X012310Y006240D01*
X012238Y006210D01*
X010062Y006210D01*
X009942Y006260D01*
X009792Y006260D01*
X009649Y006319D01*
X009526Y006462D02*
X006590Y006462D01*
X006509Y006560D02*
X009485Y006560D01*
X009480Y006659D02*
X006410Y006659D01*
X006312Y006757D02*
X009492Y006757D01*
X009533Y006856D02*
X006213Y006856D01*
X006115Y006954D02*
X009622Y006954D01*
X009711Y007250D02*
X005819Y007250D01*
X005721Y007348D02*
X009564Y007348D01*
X009972Y007053D02*
X006016Y007053D01*
X005918Y007151D02*
X012820Y007151D01*
X012820Y007053D02*
X012503Y007053D01*
X012560Y006954D02*
X012820Y006954D01*
X012820Y006856D02*
X012560Y006856D01*
X012582Y006757D02*
X012820Y006757D01*
X012820Y006659D02*
X012590Y006659D01*
X012589Y006560D02*
X012820Y006560D01*
X012820Y006462D02*
X012560Y006462D01*
X012560Y006363D02*
X012820Y006363D01*
X012820Y006265D02*
X012520Y006265D01*
X012292Y006068D02*
X012820Y006068D01*
X012820Y006166D02*
X006590Y006166D01*
X006590Y006068D02*
X010008Y006068D01*
X009657Y004984D02*
X006590Y004984D01*
X006590Y004886D02*
X009554Y004886D01*
X009505Y004787D02*
X006590Y004787D01*
X006590Y004689D02*
X009480Y004689D01*
X010570Y003014D02*
X012820Y003014D01*
X012820Y002916D02*
X010716Y002916D01*
X010783Y002817D02*
X012820Y002817D01*
X012820Y002719D02*
X010820Y002719D01*
X010820Y002620D02*
X012820Y002620D01*
X012820Y002522D02*
X010799Y002522D01*
X010755Y002423D02*
X011848Y002423D01*
X011651Y002325D02*
X010656Y002325D01*
X010595Y002048D02*
X010531Y002069D01*
X010464Y002080D01*
X010179Y002080D01*
X010179Y001679D01*
X010121Y001679D01*
X010121Y002080D01*
X009836Y002080D01*
X009769Y002069D01*
X009705Y002048D01*
X009645Y002018D01*
X009590Y001978D01*
X009542Y001930D01*
X009502Y001875D01*
X009472Y001815D01*
X009451Y001751D01*
X009440Y001684D01*
X009440Y001679D01*
X010121Y001679D01*
X010121Y001621D01*
X010179Y001621D01*
X010179Y001679D01*
X010860Y001679D01*
X010860Y001684D01*
X010849Y001751D01*
X010828Y001815D01*
X010798Y001875D01*
X010758Y001930D01*
X010710Y001978D01*
X010655Y002018D01*
X010595Y002048D01*
X010633Y002029D02*
X011409Y002029D01*
X011368Y001931D02*
X010758Y001931D01*
X010820Y001832D02*
X011327Y001832D01*
X011320Y001734D02*
X010852Y001734D01*
X010860Y001621D02*
X010179Y001621D01*
X010179Y001220D01*
X010464Y001220D01*
X010531Y001231D01*
X010595Y001252D01*
X010655Y001282D01*
X010710Y001322D01*
X010758Y001370D01*
X010798Y001425D01*
X010828Y001485D01*
X010849Y001549D01*
X010860Y001616D01*
X010860Y001621D01*
X010845Y001537D02*
X011320Y001537D01*
X011320Y001635D02*
X010179Y001635D01*
X010121Y001635D02*
X005540Y001635D01*
X005538Y001734D02*
X009448Y001734D01*
X009480Y001832D02*
X007662Y001832D01*
X007760Y001931D02*
X009542Y001931D01*
X009667Y002029D02*
X007810Y002029D01*
X007810Y002128D02*
X011454Y002128D01*
X011552Y002226D02*
X007810Y002226D01*
X007805Y002325D02*
X009644Y002325D01*
X009545Y002423D02*
X007707Y002423D01*
X007760Y002522D02*
X007608Y002522D01*
X007590Y002620D02*
X007661Y002620D01*
X007903Y002916D02*
X009584Y002916D01*
X010121Y002029D02*
X010179Y002029D01*
X010179Y001931D02*
X010121Y001931D01*
X010121Y001832D02*
X010179Y001832D01*
X010179Y001734D02*
X010121Y001734D01*
X010121Y001621D02*
X009440Y001621D01*
X009440Y001616D01*
X009451Y001549D01*
X009472Y001485D01*
X009502Y001425D01*
X009542Y001370D01*
X009590Y001322D01*
X009645Y001282D01*
X009705Y001252D01*
X009769Y001231D01*
X009836Y001220D01*
X010121Y001220D01*
X010121Y001621D01*
X010121Y001537D02*
X010179Y001537D01*
X010179Y001438D02*
X010121Y001438D01*
X010121Y001340D02*
X010179Y001340D01*
X010179Y001241D02*
X010121Y001241D01*
X009737Y001241D02*
X002379Y001241D01*
X002420Y001340D02*
X004909Y001340D01*
X004816Y001438D02*
X002460Y001438D01*
X002480Y001537D02*
X004775Y001537D01*
X004760Y001635D02*
X002480Y001635D01*
X002480Y001734D02*
X004762Y001734D01*
X004699Y001832D02*
X002473Y001832D01*
X002432Y001931D02*
X004601Y001931D01*
X004502Y002029D02*
X002391Y002029D01*
X002346Y002128D02*
X004404Y002128D01*
X004305Y002226D02*
X002248Y002226D01*
X002149Y002325D02*
X004207Y002325D01*
X004108Y002423D02*
X001952Y002423D01*
X001348Y002423D02*
X000850Y002423D01*
X000850Y002325D02*
X001151Y002325D01*
X001052Y002226D02*
X000850Y002226D01*
X000850Y002128D02*
X000954Y002128D01*
X000909Y002029D02*
X000850Y002029D01*
X000850Y001931D02*
X000868Y001931D01*
X000850Y002522D02*
X004010Y002522D01*
X003911Y002620D02*
X000850Y002620D01*
X000850Y002719D02*
X003813Y002719D01*
X003714Y002817D02*
X000850Y002817D01*
X000850Y002916D02*
X003616Y002916D01*
X003517Y003014D02*
X000850Y003014D01*
X000850Y003113D02*
X003460Y003113D01*
X003460Y003211D02*
X000850Y003211D01*
X000850Y003310D02*
X003460Y003310D01*
X003460Y003408D02*
X000850Y003408D01*
X000850Y003507D02*
X003460Y003507D01*
X003460Y003605D02*
X000850Y003605D01*
X000850Y003704D02*
X003460Y003704D01*
X003460Y003802D02*
X000850Y003802D01*
X000850Y003901D02*
X003460Y003901D01*
X003460Y003999D02*
X000850Y003999D01*
X000850Y004098D02*
X003460Y004098D01*
X003460Y004196D02*
X000850Y004196D01*
X000850Y004295D02*
X003460Y004295D01*
X003460Y004393D02*
X000850Y004393D01*
X000850Y004492D02*
X003460Y004492D01*
X003460Y004590D02*
X000850Y004590D01*
X000850Y004689D02*
X003460Y004689D01*
X003460Y004787D02*
X003117Y004787D01*
X003215Y004886D02*
X003460Y004886D01*
X003460Y004984D02*
X003310Y004984D01*
X003310Y005083D02*
X003449Y005083D01*
X003350Y005181D02*
X003310Y005181D01*
X003840Y005181D02*
X003850Y005181D01*
X003840Y005083D02*
X003949Y005083D01*
X003960Y004984D02*
X003840Y004984D01*
X003840Y004886D02*
X003960Y004886D01*
X003960Y004787D02*
X003840Y004787D01*
X003840Y004689D02*
X003960Y004689D01*
X003960Y004590D02*
X003840Y004590D01*
X003840Y004492D02*
X003960Y004492D01*
X003960Y004393D02*
X003840Y004393D01*
X003840Y004295D02*
X003960Y004295D01*
X003960Y004196D02*
X003840Y004196D01*
X003840Y004098D02*
X003960Y004098D01*
X003960Y003999D02*
X003840Y003999D01*
X003840Y003901D02*
X003960Y003901D01*
X003960Y003802D02*
X003840Y003802D01*
X003840Y003704D02*
X003960Y003704D01*
X003960Y003605D02*
X003840Y003605D01*
X003840Y003507D02*
X004025Y003507D01*
X004123Y003408D02*
X003840Y003408D01*
X003840Y003310D02*
X004222Y003310D01*
X004320Y003211D02*
X003858Y003211D01*
X003956Y003113D02*
X004419Y003113D01*
X004517Y003014D02*
X004055Y003014D01*
X004153Y002916D02*
X004616Y002916D01*
X004714Y002817D02*
X004252Y002817D01*
X004350Y002719D02*
X004760Y002719D01*
X004760Y002620D02*
X004449Y002620D01*
X004547Y002522D02*
X004781Y002522D01*
X004825Y002423D02*
X004646Y002423D01*
X004744Y002325D02*
X004924Y002325D01*
X005040Y002029D02*
X005046Y002029D01*
X005525Y001537D02*
X009455Y001537D01*
X009495Y001438D02*
X005484Y001438D01*
X005391Y001340D02*
X009572Y001340D01*
X010563Y001241D02*
X011421Y001241D01*
X011380Y001340D02*
X010728Y001340D01*
X010805Y001438D02*
X011340Y001438D01*
X011484Y001143D02*
X002316Y001143D01*
X002218Y001044D02*
X011582Y001044D01*
X011682Y000946D02*
X002118Y000946D01*
X002086Y004700D02*
X001950Y004700D01*
X001950Y005100D01*
X002350Y005100D01*
X002350Y004964D01*
X002086Y004700D01*
X002173Y004787D02*
X002683Y004787D01*
X002585Y004886D02*
X002272Y004886D01*
X002350Y004984D02*
X002490Y004984D01*
X002490Y005083D02*
X002350Y005083D01*
X002490Y005181D02*
X001950Y005181D01*
X001950Y005083D02*
X001850Y005083D01*
X001850Y005181D02*
X000850Y005181D01*
X000850Y005083D02*
X001450Y005083D01*
X001450Y004984D02*
X000850Y004984D01*
X000850Y004886D02*
X001528Y004886D01*
X001627Y004787D02*
X000850Y004787D01*
X000850Y005280D02*
X001450Y005280D01*
X001492Y005378D02*
X000850Y005378D01*
X000850Y005477D02*
X001590Y005477D01*
X001689Y005575D02*
X000850Y005575D01*
X001850Y005575D02*
X001950Y005575D01*
X001950Y005477D02*
X001850Y005477D01*
X001850Y005378D02*
X001950Y005378D01*
X001950Y005280D02*
X001850Y005280D01*
X001850Y004984D02*
X001950Y004984D01*
X001950Y004886D02*
X001850Y004886D01*
X001850Y004787D02*
X001950Y004787D01*
X002350Y005280D02*
X002490Y005280D01*
X002548Y005378D02*
X002308Y005378D01*
X003821Y007053D02*
X005479Y007053D01*
X005398Y006954D02*
X005577Y006954D01*
X005487Y006856D02*
X005676Y006856D01*
X005774Y006757D02*
X005528Y006757D01*
X005540Y006659D02*
X005873Y006659D01*
X005971Y006560D02*
X005535Y006560D01*
X005607Y006462D02*
X006070Y006462D01*
X006168Y006363D02*
X005706Y006363D01*
X005804Y006265D02*
X006210Y006265D01*
X006210Y006166D02*
X005840Y006166D01*
X005840Y006068D02*
X006210Y006068D01*
X006210Y005969D02*
X005840Y005969D01*
X005840Y005871D02*
X006210Y005871D01*
X006210Y005772D02*
X005840Y005772D01*
X005840Y005674D02*
X006210Y005674D01*
X006210Y005575D02*
X005840Y005575D01*
X005842Y005477D02*
X006210Y005477D01*
X006210Y005378D02*
X005941Y005378D01*
X006039Y005280D02*
X006210Y005280D01*
X006210Y005181D02*
X006090Y005181D01*
X006090Y005083D02*
X006210Y005083D01*
X006210Y004984D02*
X006090Y004984D01*
X006090Y004886D02*
X006210Y004886D01*
X006210Y004787D02*
X006090Y004787D01*
X006090Y004689D02*
X006210Y004689D01*
X006210Y004590D02*
X006090Y004590D01*
X006090Y004492D02*
X006162Y004492D01*
X006623Y003507D02*
X007177Y003507D01*
X007078Y003408D02*
X006722Y003408D01*
X006810Y003310D02*
X006990Y003310D01*
X006990Y003211D02*
X006810Y003211D01*
X006810Y003113D02*
X006990Y003113D01*
X006990Y003014D02*
X006810Y003014D01*
X006745Y002916D02*
X007055Y002916D01*
X007210Y002620D02*
X006199Y002620D01*
X005460Y003310D02*
X005347Y003310D01*
X005383Y005969D02*
X005460Y005969D01*
X005267Y006265D02*
X005238Y006265D01*
X005380Y007151D02*
X003920Y007151D01*
X004018Y007250D02*
X005282Y007250D01*
X004900Y007348D02*
X004117Y007348D01*
X004215Y007447D02*
X004812Y007447D01*
X004771Y007545D02*
X004314Y007545D01*
X004412Y007644D02*
X004760Y007644D01*
X004766Y007742D02*
X004511Y007742D01*
X004609Y007841D02*
X004807Y007841D01*
X004887Y007939D02*
X004708Y007939D01*
X004806Y008038D02*
X005066Y008038D01*
X005234Y008038D02*
X005965Y008038D01*
X005965Y008136D02*
X004905Y008136D01*
X005003Y008235D02*
X005975Y008235D01*
X006048Y008333D02*
X005385Y008333D01*
X005482Y008432D02*
X006000Y008432D01*
X006000Y008530D02*
X005522Y008530D01*
X004890Y009121D02*
X006202Y009121D01*
X006300Y009220D02*
X004988Y009220D01*
X004746Y009515D02*
X004284Y009515D01*
X004382Y009614D02*
X004760Y009614D01*
X004760Y009712D02*
X004481Y009712D01*
X004579Y009811D02*
X004794Y009811D01*
X004857Y009909D02*
X004678Y009909D01*
X004776Y010008D02*
X004994Y010008D01*
X004633Y010402D02*
X003170Y010402D01*
X003269Y010500D02*
X004731Y010500D01*
X004760Y010599D02*
X003367Y010599D01*
X003466Y010697D02*
X004760Y010697D01*
X004788Y010796D02*
X003564Y010796D01*
X003663Y010894D02*
X004842Y010894D01*
X004958Y010993D02*
X003761Y010993D01*
X003519Y011288D02*
X000850Y011288D01*
X000850Y011190D02*
X003421Y011190D01*
X003322Y011091D02*
X000850Y011091D01*
X000850Y010993D02*
X003224Y010993D01*
X003125Y010894D02*
X000850Y010894D01*
X000850Y010796D02*
X003027Y010796D01*
X002928Y010697D02*
X000850Y010697D01*
X000850Y010599D02*
X002830Y010599D01*
X002731Y010500D02*
X000850Y010500D01*
X000850Y010402D02*
X002633Y010402D01*
X002534Y010303D02*
X000850Y010303D01*
X000850Y010205D02*
X002436Y010205D01*
X002337Y010106D02*
X000850Y010106D01*
X000850Y010008D02*
X002239Y010008D01*
X002210Y009909D02*
X000850Y009909D01*
X000850Y009811D02*
X002210Y009811D01*
X002210Y009712D02*
X000850Y009712D01*
X000850Y009614D02*
X002210Y009614D01*
X002590Y009614D02*
X003845Y009614D01*
X003943Y009712D02*
X002590Y009712D01*
X002590Y009811D02*
X004042Y009811D01*
X004140Y009909D02*
X002678Y009909D01*
X002776Y010008D02*
X004239Y010008D01*
X004337Y010106D02*
X002875Y010106D01*
X002973Y010205D02*
X004436Y010205D01*
X004534Y010303D02*
X003072Y010303D01*
X003115Y009515D02*
X003746Y009515D01*
X003710Y009417D02*
X003213Y009417D01*
X003310Y009318D02*
X003710Y009318D01*
X003701Y009220D02*
X003310Y009220D01*
X003310Y009121D02*
X003602Y009121D01*
X003504Y009023D02*
X003310Y009023D01*
X003254Y008924D02*
X003405Y008924D01*
X003307Y008826D02*
X003155Y008826D01*
X003549Y008530D02*
X003761Y008530D01*
X003663Y008432D02*
X003450Y008432D01*
X003352Y008333D02*
X003564Y008333D01*
X003466Y008235D02*
X003310Y008235D01*
X003310Y008136D02*
X003367Y008136D01*
X003647Y008629D02*
X003860Y008629D01*
X003958Y008727D02*
X003746Y008727D01*
X003844Y008826D02*
X004057Y008826D01*
X004155Y008924D02*
X003943Y008924D01*
X004041Y009023D02*
X004254Y009023D01*
X004352Y009121D02*
X004090Y009121D01*
X004090Y009220D02*
X004451Y009220D01*
X004549Y009318D02*
X004090Y009318D01*
X004185Y009417D02*
X004648Y009417D01*
X003618Y011387D02*
X000850Y011387D01*
X000850Y011485D02*
X003716Y011485D01*
X002413Y011978D02*
X000850Y011978D01*
X000850Y012076D02*
X002284Y012076D01*
X002204Y012175D02*
X000850Y012175D01*
X000850Y012273D02*
X002164Y012273D01*
X002140Y012372D02*
X000850Y012372D01*
X000850Y012470D02*
X002140Y012470D01*
X002155Y012569D02*
X000850Y012569D01*
X000850Y012667D02*
X002196Y012667D01*
X002263Y012766D02*
X000850Y012766D01*
X000850Y012864D02*
X002362Y012864D01*
X002600Y013948D02*
X002700Y013948D01*
X002700Y014046D02*
X002600Y014046D01*
X002600Y014145D02*
X002700Y014145D01*
X002700Y014243D02*
X002600Y014243D01*
X002600Y014539D02*
X002700Y014539D01*
X002700Y014637D02*
X002600Y014637D01*
X002600Y014736D02*
X002700Y014736D01*
X002700Y014834D02*
X002600Y014834D01*
X002600Y014933D02*
X002700Y014933D01*
X002100Y014243D02*
X000850Y014243D01*
X000850Y014145D02*
X002100Y014145D01*
X002100Y014046D02*
X000850Y014046D01*
X000850Y013948D02*
X002109Y013948D01*
X000850Y015130D02*
X003960Y015130D01*
X003960Y015228D02*
X000850Y015228D01*
X000850Y015327D02*
X003960Y015327D01*
X003960Y015425D02*
X000850Y015425D01*
X000850Y015524D02*
X003960Y015524D01*
X003960Y015622D02*
X000850Y015622D01*
X000850Y015721D02*
X003960Y015721D01*
X003960Y015819D02*
X000850Y015819D01*
X000850Y015918D02*
X001250Y015918D01*
X001110Y016016D02*
X000850Y016016D01*
X000850Y016115D02*
X001012Y016115D01*
X000933Y016213D02*
X000850Y016213D01*
X000850Y016312D02*
X000892Y016312D01*
X000850Y016410D02*
X000851Y016410D01*
X002050Y015918D02*
X003960Y015918D01*
X003960Y016016D02*
X002190Y016016D01*
X002288Y016115D02*
X003960Y016115D01*
X003960Y016213D02*
X002367Y016213D01*
X002408Y016312D02*
X004043Y016312D01*
X004141Y016410D02*
X002449Y016410D01*
X002480Y016509D02*
X004240Y016509D01*
X004338Y016607D02*
X002480Y016607D01*
X002480Y016706D02*
X004437Y016706D01*
X004535Y016804D02*
X002480Y016804D01*
X002444Y016903D02*
X004851Y016903D01*
X004978Y017001D02*
X002403Y017001D01*
X004580Y016312D02*
X004948Y016312D01*
X004838Y016410D02*
X004679Y016410D01*
X004907Y014342D02*
X004340Y014342D01*
X004340Y014243D02*
X005288Y014243D01*
X005387Y014145D02*
X004340Y014145D01*
X004340Y014046D02*
X005460Y014046D01*
X005460Y013948D02*
X005404Y013948D01*
X004896Y013948D02*
X004340Y013948D01*
X004340Y013849D02*
X004810Y013849D01*
X004770Y013751D02*
X004340Y013751D01*
X004340Y013652D02*
X004760Y013652D01*
X004768Y013554D02*
X004340Y013554D01*
X004340Y013455D02*
X004809Y013455D01*
X004892Y013357D02*
X004340Y013357D01*
X004340Y013258D02*
X005023Y013258D01*
X005122Y013160D02*
X004340Y013160D01*
X002685Y009515D02*
X002590Y009515D01*
X001509Y009515D02*
X000850Y009515D01*
X000850Y009417D02*
X001490Y009417D01*
X001490Y009318D02*
X000850Y009318D01*
X000850Y009220D02*
X001490Y009220D01*
X001490Y009121D02*
X000850Y009121D01*
X000850Y009023D02*
X001490Y009023D01*
X001490Y008924D02*
X000850Y008924D01*
X000850Y008826D02*
X001490Y008826D01*
X002465Y007447D02*
X002617Y007447D01*
X006655Y007545D02*
X006755Y007545D01*
X006755Y007644D02*
X006655Y007644D01*
X006655Y007742D02*
X006755Y007742D01*
X006755Y007841D02*
X006655Y007841D01*
X006755Y007939D02*
X007894Y007939D01*
X007894Y007841D02*
X007446Y007841D01*
X007446Y007742D02*
X007894Y007742D01*
X007894Y007644D02*
X007446Y007644D01*
X007423Y007545D02*
X007928Y007545D01*
X007894Y008038D02*
X007446Y008038D01*
X007446Y008136D02*
X007894Y008136D01*
X007908Y008235D02*
X007435Y008235D01*
X007252Y008333D02*
X008121Y008333D01*
X008080Y008432D02*
X007300Y008432D01*
X007300Y008530D02*
X008040Y008530D01*
X010121Y008038D02*
X010179Y008038D01*
X010179Y007939D02*
X010121Y007939D01*
X010121Y007841D02*
X010179Y007841D01*
X010179Y007742D02*
X010121Y007742D01*
X010121Y007545D02*
X010179Y007545D01*
X010179Y007447D02*
X010121Y007447D01*
X010121Y007348D02*
X010179Y007348D01*
X010179Y007250D02*
X010121Y007250D01*
X010589Y007250D02*
X012820Y007250D01*
X012820Y007348D02*
X010736Y007348D01*
X010809Y007447D02*
X012820Y007447D01*
X012820Y007545D02*
X010848Y007545D01*
X010665Y008333D02*
X012820Y008333D01*
X012820Y008235D02*
X010297Y008235D01*
X010762Y008432D02*
X012820Y008432D01*
X012820Y008530D02*
X010802Y008530D01*
X010820Y008629D02*
X012820Y008629D01*
X012820Y008727D02*
X010820Y008727D01*
X010779Y008826D02*
X012820Y008826D01*
X012820Y008924D02*
X010708Y008924D01*
X010550Y009023D02*
X012820Y009023D01*
X012820Y005969D02*
X012453Y005969D01*
X012535Y005871D02*
X012820Y005871D01*
X012820Y005772D02*
X012576Y005772D01*
X012590Y005674D02*
X012820Y005674D01*
X012820Y005575D02*
X012590Y005575D01*
X012556Y005477D02*
X012820Y005477D01*
X012820Y005378D02*
X012500Y005378D01*
X012402Y005280D02*
X012820Y005280D01*
X012820Y002423D02*
X012452Y002423D01*
X012649Y002325D02*
X012820Y002325D01*
X012820Y002226D02*
X012748Y002226D01*
X010179Y009318D02*
X010121Y009318D01*
X010121Y009417D02*
X010179Y009417D01*
X010179Y009515D02*
X010121Y009515D01*
X010121Y009614D02*
X010179Y009614D01*
X010179Y009712D02*
X010121Y009712D01*
X010121Y009811D02*
X010179Y009811D01*
X010179Y009909D02*
X010121Y009909D01*
X010121Y010008D02*
X010179Y010008D01*
X012560Y014342D02*
X012820Y014342D01*
X012820Y014440D02*
X012560Y014440D01*
X012580Y014539D02*
X012820Y014539D01*
X012820Y014637D02*
X012590Y014637D01*
X012590Y014736D02*
X012820Y014736D01*
X012820Y014834D02*
X012560Y014834D01*
X012560Y014933D02*
X012820Y014933D01*
X012820Y015031D02*
X012525Y015031D01*
X012550Y015918D02*
X012820Y015918D01*
X012820Y016016D02*
X012690Y016016D01*
X012788Y016115D02*
X012820Y016115D01*
D21*
X010150Y010650D02*
X007900Y010650D01*
X007400Y010150D01*
X007400Y009650D01*
X007150Y009400D01*
X007400Y010150D02*
X007400Y011150D01*
X007400Y012150D01*
X006400Y012150D02*
X006400Y014400D01*
X005150Y015650D01*
X005150Y016650D02*
X004650Y016650D01*
X004150Y016150D01*
X004150Y011650D01*
X002400Y009900D01*
X002400Y008650D01*
X001900Y008150D01*
X002400Y007650D02*
X001900Y007150D01*
X002400Y007650D02*
X003150Y007650D01*
X005150Y009650D01*
X005150Y010650D02*
X003900Y009400D01*
X003900Y009150D01*
X002900Y008150D01*
X002900Y007150D02*
X003650Y007150D01*
X005150Y008650D01*
X005150Y007650D02*
X006400Y006400D01*
X006400Y004150D01*
X005900Y003650D02*
X006400Y003150D01*
X005900Y003650D02*
X005900Y005150D01*
X005650Y005400D01*
X005650Y006150D01*
X005150Y006650D01*
X005150Y005650D02*
X005150Y005400D01*
X005650Y004900D01*
X005650Y002900D01*
X006400Y002150D01*
X007400Y002150D02*
X007400Y003150D01*
X007900Y002650D01*
X010150Y002650D01*
X007400Y003150D02*
X007400Y004150D01*
X005150Y003650D02*
X005150Y004650D01*
X004150Y005150D02*
X004150Y003650D01*
X005150Y002650D01*
X005150Y001650D02*
X003650Y003150D01*
X003650Y005150D01*
X003150Y005650D01*
X002400Y005650D01*
X001900Y006150D01*
X002900Y006150D02*
X003150Y006150D01*
X004150Y005150D01*
X006400Y010150D02*
X005650Y010900D01*
X005650Y012900D01*
X005150Y013400D01*
X005150Y013650D01*
X005650Y013400D02*
X005900Y013150D01*
X005900Y011650D01*
X006400Y011150D01*
X005150Y011650D02*
X005150Y012650D01*
X005650Y013400D02*
X005650Y014150D01*
X005150Y014650D01*
D22*
X007150Y009400D03*
D23*
X008650Y008650D02*
X008650Y007955D01*
X008595Y007900D01*
X008650Y008650D02*
X010150Y008650D01*
X010150Y006650D02*
X012150Y006650D01*
X012150Y005650D02*
X010150Y005650D01*
X010150Y004650D02*
X012150Y004650D01*
X012150Y003650D02*
X010150Y003650D01*
X010150Y011650D02*
X012150Y011650D01*
X012150Y012650D02*
X010150Y012650D01*
X010150Y013650D02*
X012150Y013650D01*
X012150Y014650D02*
X010150Y014650D01*
X008650Y015955D02*
X008650Y016650D01*
X010150Y016650D01*
X008650Y015955D02*
X008595Y015900D01*
M02*
