G75*
%MOIN*%
%OFA0B0*%
%FSLAX24Y24*%
%IPPOS*%
%LPD*%
%AMOC8*
5,1,8,0,0,1.08239X$1,22.5*
%
%ADD10C,0.0000*%
D10*
X000650Y000650D02*
X000650Y017646D01*
X013020Y017646D01*
X013020Y000650D01*
X000650Y000650D01*
X001020Y001650D02*
X001022Y001700D01*
X001028Y001750D01*
X001038Y001799D01*
X001052Y001847D01*
X001069Y001894D01*
X001090Y001939D01*
X001115Y001983D01*
X001143Y002024D01*
X001175Y002063D01*
X001209Y002100D01*
X001246Y002134D01*
X001286Y002164D01*
X001328Y002191D01*
X001372Y002215D01*
X001418Y002236D01*
X001465Y002252D01*
X001513Y002265D01*
X001563Y002274D01*
X001612Y002279D01*
X001663Y002280D01*
X001713Y002277D01*
X001762Y002270D01*
X001811Y002259D01*
X001859Y002244D01*
X001905Y002226D01*
X001950Y002204D01*
X001993Y002178D01*
X002034Y002149D01*
X002073Y002117D01*
X002109Y002082D01*
X002141Y002044D01*
X002171Y002004D01*
X002198Y001961D01*
X002221Y001917D01*
X002240Y001871D01*
X002256Y001823D01*
X002268Y001774D01*
X002276Y001725D01*
X002280Y001675D01*
X002280Y001625D01*
X002276Y001575D01*
X002268Y001526D01*
X002256Y001477D01*
X002240Y001429D01*
X002221Y001383D01*
X002198Y001339D01*
X002171Y001296D01*
X002141Y001256D01*
X002109Y001218D01*
X002073Y001183D01*
X002034Y001151D01*
X001993Y001122D01*
X001950Y001096D01*
X001905Y001074D01*
X001859Y001056D01*
X001811Y001041D01*
X001762Y001030D01*
X001713Y001023D01*
X001663Y001020D01*
X001612Y001021D01*
X001563Y001026D01*
X001513Y001035D01*
X001465Y001048D01*
X001418Y001064D01*
X001372Y001085D01*
X001328Y001109D01*
X001286Y001136D01*
X001246Y001166D01*
X001209Y001200D01*
X001175Y001237D01*
X001143Y001276D01*
X001115Y001317D01*
X001090Y001361D01*
X001069Y001406D01*
X001052Y001453D01*
X001038Y001501D01*
X001028Y001550D01*
X001022Y001600D01*
X001020Y001650D01*
X011520Y001650D02*
X011522Y001700D01*
X011528Y001750D01*
X011538Y001799D01*
X011552Y001847D01*
X011569Y001894D01*
X011590Y001939D01*
X011615Y001983D01*
X011643Y002024D01*
X011675Y002063D01*
X011709Y002100D01*
X011746Y002134D01*
X011786Y002164D01*
X011828Y002191D01*
X011872Y002215D01*
X011918Y002236D01*
X011965Y002252D01*
X012013Y002265D01*
X012063Y002274D01*
X012112Y002279D01*
X012163Y002280D01*
X012213Y002277D01*
X012262Y002270D01*
X012311Y002259D01*
X012359Y002244D01*
X012405Y002226D01*
X012450Y002204D01*
X012493Y002178D01*
X012534Y002149D01*
X012573Y002117D01*
X012609Y002082D01*
X012641Y002044D01*
X012671Y002004D01*
X012698Y001961D01*
X012721Y001917D01*
X012740Y001871D01*
X012756Y001823D01*
X012768Y001774D01*
X012776Y001725D01*
X012780Y001675D01*
X012780Y001625D01*
X012776Y001575D01*
X012768Y001526D01*
X012756Y001477D01*
X012740Y001429D01*
X012721Y001383D01*
X012698Y001339D01*
X012671Y001296D01*
X012641Y001256D01*
X012609Y001218D01*
X012573Y001183D01*
X012534Y001151D01*
X012493Y001122D01*
X012450Y001096D01*
X012405Y001074D01*
X012359Y001056D01*
X012311Y001041D01*
X012262Y001030D01*
X012213Y001023D01*
X012163Y001020D01*
X012112Y001021D01*
X012063Y001026D01*
X012013Y001035D01*
X011965Y001048D01*
X011918Y001064D01*
X011872Y001085D01*
X011828Y001109D01*
X011786Y001136D01*
X011746Y001166D01*
X011709Y001200D01*
X011675Y001237D01*
X011643Y001276D01*
X011615Y001317D01*
X011590Y001361D01*
X011569Y001406D01*
X011552Y001453D01*
X011538Y001501D01*
X011528Y001550D01*
X011522Y001600D01*
X011520Y001650D01*
X011520Y016650D02*
X011522Y016700D01*
X011528Y016750D01*
X011538Y016799D01*
X011552Y016847D01*
X011569Y016894D01*
X011590Y016939D01*
X011615Y016983D01*
X011643Y017024D01*
X011675Y017063D01*
X011709Y017100D01*
X011746Y017134D01*
X011786Y017164D01*
X011828Y017191D01*
X011872Y017215D01*
X011918Y017236D01*
X011965Y017252D01*
X012013Y017265D01*
X012063Y017274D01*
X012112Y017279D01*
X012163Y017280D01*
X012213Y017277D01*
X012262Y017270D01*
X012311Y017259D01*
X012359Y017244D01*
X012405Y017226D01*
X012450Y017204D01*
X012493Y017178D01*
X012534Y017149D01*
X012573Y017117D01*
X012609Y017082D01*
X012641Y017044D01*
X012671Y017004D01*
X012698Y016961D01*
X012721Y016917D01*
X012740Y016871D01*
X012756Y016823D01*
X012768Y016774D01*
X012776Y016725D01*
X012780Y016675D01*
X012780Y016625D01*
X012776Y016575D01*
X012768Y016526D01*
X012756Y016477D01*
X012740Y016429D01*
X012721Y016383D01*
X012698Y016339D01*
X012671Y016296D01*
X012641Y016256D01*
X012609Y016218D01*
X012573Y016183D01*
X012534Y016151D01*
X012493Y016122D01*
X012450Y016096D01*
X012405Y016074D01*
X012359Y016056D01*
X012311Y016041D01*
X012262Y016030D01*
X012213Y016023D01*
X012163Y016020D01*
X012112Y016021D01*
X012063Y016026D01*
X012013Y016035D01*
X011965Y016048D01*
X011918Y016064D01*
X011872Y016085D01*
X011828Y016109D01*
X011786Y016136D01*
X011746Y016166D01*
X011709Y016200D01*
X011675Y016237D01*
X011643Y016276D01*
X011615Y016317D01*
X011590Y016361D01*
X011569Y016406D01*
X011552Y016453D01*
X011538Y016501D01*
X011528Y016550D01*
X011522Y016600D01*
X011520Y016650D01*
X001020Y016650D02*
X001022Y016700D01*
X001028Y016750D01*
X001038Y016799D01*
X001052Y016847D01*
X001069Y016894D01*
X001090Y016939D01*
X001115Y016983D01*
X001143Y017024D01*
X001175Y017063D01*
X001209Y017100D01*
X001246Y017134D01*
X001286Y017164D01*
X001328Y017191D01*
X001372Y017215D01*
X001418Y017236D01*
X001465Y017252D01*
X001513Y017265D01*
X001563Y017274D01*
X001612Y017279D01*
X001663Y017280D01*
X001713Y017277D01*
X001762Y017270D01*
X001811Y017259D01*
X001859Y017244D01*
X001905Y017226D01*
X001950Y017204D01*
X001993Y017178D01*
X002034Y017149D01*
X002073Y017117D01*
X002109Y017082D01*
X002141Y017044D01*
X002171Y017004D01*
X002198Y016961D01*
X002221Y016917D01*
X002240Y016871D01*
X002256Y016823D01*
X002268Y016774D01*
X002276Y016725D01*
X002280Y016675D01*
X002280Y016625D01*
X002276Y016575D01*
X002268Y016526D01*
X002256Y016477D01*
X002240Y016429D01*
X002221Y016383D01*
X002198Y016339D01*
X002171Y016296D01*
X002141Y016256D01*
X002109Y016218D01*
X002073Y016183D01*
X002034Y016151D01*
X001993Y016122D01*
X001950Y016096D01*
X001905Y016074D01*
X001859Y016056D01*
X001811Y016041D01*
X001762Y016030D01*
X001713Y016023D01*
X001663Y016020D01*
X001612Y016021D01*
X001563Y016026D01*
X001513Y016035D01*
X001465Y016048D01*
X001418Y016064D01*
X001372Y016085D01*
X001328Y016109D01*
X001286Y016136D01*
X001246Y016166D01*
X001209Y016200D01*
X001175Y016237D01*
X001143Y016276D01*
X001115Y016317D01*
X001090Y016361D01*
X001069Y016406D01*
X001052Y016453D01*
X001038Y016501D01*
X001028Y016550D01*
X001022Y016600D01*
X001020Y016650D01*
M02*
