G75*
%MOIN*%
%OFA0B0*%
%FSLAX24Y24*%
%IPPOS*%
%LPD*%
%AMOC8*
5,1,8,0,0,1.08239X$1,22.5*
%
%ADD10C,0.0060*%
D10*
X002480Y003535D02*
X002480Y003962D01*
X002480Y003749D02*
X003121Y003749D01*
X002907Y003535D01*
X005900Y003400D02*
X005900Y002900D01*
X006150Y002650D01*
X005900Y002400D01*
X005900Y001900D01*
X006150Y001650D01*
X007650Y001650D01*
X007900Y001900D01*
X007900Y002400D01*
X007650Y002650D01*
X006150Y002650D01*
X005900Y003400D02*
X006150Y003650D01*
X007650Y003650D01*
X007900Y003400D01*
X007900Y002900D01*
X007650Y002650D01*
X007650Y003650D02*
X007900Y003900D01*
X007900Y004400D01*
X007650Y004650D01*
X006150Y004650D01*
X005900Y004400D01*
X005900Y003900D01*
X006150Y003650D01*
X006150Y009650D02*
X007650Y009650D01*
X007900Y009900D01*
X007900Y010400D01*
X007650Y010650D01*
X006150Y010650D01*
X005900Y010400D01*
X005900Y009900D01*
X006150Y009650D01*
X006150Y010650D02*
X005900Y010900D01*
X005900Y011400D01*
X006150Y011650D01*
X007650Y011650D01*
X007900Y011400D01*
X007900Y010900D01*
X007650Y010650D01*
X007650Y011650D02*
X007900Y011900D01*
X007900Y012400D01*
X007650Y012650D01*
X006150Y012650D01*
X005900Y012400D01*
X005900Y011900D01*
X006150Y011650D01*
X004121Y011642D02*
X004014Y011535D01*
X003587Y011535D01*
X003480Y011642D01*
X003480Y011856D01*
X003587Y011962D01*
X004014Y011962D02*
X004121Y011856D01*
X004121Y011642D01*
X004014Y011318D02*
X004121Y011211D01*
X004121Y010998D01*
X004014Y010891D01*
X003587Y010891D01*
X003480Y010998D01*
X003480Y011211D01*
X003587Y011318D01*
X003694Y010673D02*
X004121Y010673D01*
X004121Y010246D02*
X003694Y010246D01*
X003480Y010460D01*
X003694Y010673D01*
X003587Y013746D02*
X003480Y013853D01*
X003480Y014067D01*
X003587Y014173D01*
X003800Y014173D01*
X003800Y013960D01*
X003587Y013746D02*
X004014Y013746D01*
X004121Y013853D01*
X004121Y014067D01*
X004014Y014173D01*
X004121Y014391D02*
X003480Y014818D01*
X004121Y014818D01*
X004121Y015035D02*
X004121Y015356D01*
X004014Y015462D01*
X003587Y015462D01*
X003480Y015356D01*
X003480Y015035D01*
X004121Y015035D01*
X004121Y014391D02*
X003480Y014391D01*
M02*
