G75*
%MOIN*%
%OFA0B0*%
%FSLAX24Y24*%
%IPPOS*%
%LPD*%
%AMOC8*
5,1,8,0,0,1.08239X$1,22.5*
%
%ADD10C,0.0560*%
%ADD11C,0.0560*%
%ADD12R,0.0800X0.0800*%
%ADD13C,0.0800*%
%ADD14R,0.0600X0.0600*%
%ADD15OC8,0.0600*%
%ADD16C,0.1000*%
%ADD17OC8,0.1000*%
%ADD18C,0.0100*%
%ADD19C,0.0337*%
%ADD20C,0.0160*%
%ADD21C,0.0660*%
D10*
X005150Y001650D03*
X005150Y002650D03*
X005150Y003650D03*
X005150Y004650D03*
X005150Y005650D03*
X005150Y006650D03*
X005150Y007650D03*
X005150Y008650D03*
X005150Y009650D03*
X005150Y010650D03*
X005150Y011650D03*
X005150Y012650D03*
X005150Y013650D03*
X005150Y014650D03*
X005150Y015650D03*
X005150Y016650D03*
D11*
X009870Y016650D02*
X010430Y016650D01*
X010430Y015650D02*
X009870Y015650D01*
X009870Y014650D02*
X010430Y014650D01*
X010430Y013650D02*
X009870Y013650D01*
X009870Y012650D02*
X010430Y012650D01*
X010430Y011650D02*
X009870Y011650D01*
X009870Y010650D02*
X010430Y010650D01*
X010430Y009650D02*
X009870Y009650D01*
X009870Y008650D02*
X010430Y008650D01*
X010430Y007650D02*
X009870Y007650D01*
X009870Y006650D02*
X010430Y006650D01*
X010430Y005650D02*
X009870Y005650D01*
X009870Y004650D02*
X010430Y004650D01*
X010430Y003650D02*
X009870Y003650D01*
X009870Y002650D02*
X010430Y002650D01*
X010430Y001650D02*
X009870Y001650D01*
D12*
X002650Y014400D03*
D13*
X002650Y012431D03*
D14*
X001900Y009150D03*
X007400Y012150D03*
X012150Y014650D03*
X012150Y006650D03*
X007400Y004150D03*
D15*
X007400Y003150D03*
X007400Y002150D03*
X006400Y002150D03*
X006400Y003150D03*
X006400Y004150D03*
X002900Y005150D03*
X002900Y006150D03*
X002900Y007150D03*
X002900Y008150D03*
X002900Y009150D03*
X001900Y008150D03*
X001900Y007150D03*
X001900Y006150D03*
X001900Y005150D03*
X006400Y010150D03*
X006400Y011150D03*
X006400Y012150D03*
X007400Y011150D03*
X007400Y010150D03*
X012150Y011650D03*
X012150Y012650D03*
X012150Y013650D03*
X012150Y005650D03*
X012150Y004650D03*
X012150Y003650D03*
D16*
X008650Y008650D03*
X008650Y016650D03*
D17*
X006650Y016650D03*
X006650Y008650D03*
D18*
X000850Y001887D02*
X000850Y016413D01*
X000946Y016180D01*
X001180Y015946D01*
X001485Y015820D01*
X001815Y015820D01*
X002120Y015946D01*
X002354Y016180D01*
X002480Y016485D01*
X002480Y016815D01*
X002354Y017120D01*
X002120Y017354D01*
X001897Y017446D01*
X011903Y017446D01*
X011680Y017354D01*
X011446Y017120D01*
X011320Y016815D01*
X011320Y016485D01*
X011446Y016180D01*
X011680Y015946D01*
X011985Y015820D01*
X012315Y015820D01*
X012620Y015946D01*
X012820Y016146D01*
X012820Y002154D01*
X012620Y002354D01*
X012315Y002480D01*
X011985Y002480D01*
X011680Y002354D01*
X011446Y002120D01*
X011320Y001815D01*
X011320Y001485D01*
X011446Y001180D01*
X011680Y000946D01*
X011913Y000850D01*
X001887Y000850D01*
X002120Y000946D01*
X002354Y001180D01*
X002480Y001485D01*
X002480Y001815D01*
X002354Y002120D01*
X002120Y002354D01*
X001815Y002480D01*
X001485Y002480D01*
X001180Y002354D01*
X000946Y002120D01*
X000850Y001887D01*
X000850Y001931D02*
X000868Y001931D01*
X000850Y002029D02*
X000909Y002029D01*
X000954Y002128D02*
X000850Y002128D01*
X000850Y002226D02*
X001052Y002226D01*
X001151Y002325D02*
X000850Y002325D01*
X000850Y002423D02*
X001348Y002423D01*
X000850Y002522D02*
X004781Y002522D01*
X004760Y002572D02*
X004819Y002429D01*
X004929Y002319D01*
X005072Y002260D01*
X005228Y002260D01*
X005371Y002319D01*
X005481Y002429D01*
X005540Y002572D01*
X005540Y002728D01*
X005481Y002871D01*
X005371Y002981D01*
X005228Y003040D01*
X005072Y003040D01*
X004929Y002981D01*
X004819Y002871D01*
X004760Y002728D01*
X004760Y002572D01*
X004760Y002620D02*
X000850Y002620D01*
X000850Y002719D02*
X004760Y002719D01*
X004797Y002817D02*
X000850Y002817D01*
X000850Y002916D02*
X004864Y002916D01*
X005010Y003014D02*
X000850Y003014D01*
X000850Y003113D02*
X005990Y003113D01*
X005990Y003211D02*
X000850Y003211D01*
X000850Y003310D02*
X004953Y003310D01*
X004929Y003319D02*
X005072Y003260D01*
X005228Y003260D01*
X005371Y003319D01*
X005481Y003429D01*
X005540Y003572D01*
X005540Y003728D01*
X005481Y003871D01*
X005371Y003981D01*
X005228Y004040D01*
X005072Y004040D01*
X004929Y003981D01*
X004819Y003871D01*
X004760Y003728D01*
X004760Y003572D01*
X004819Y003429D01*
X004929Y003319D01*
X004840Y003408D02*
X000850Y003408D01*
X000850Y003507D02*
X004787Y003507D01*
X004760Y003605D02*
X000850Y003605D01*
X000850Y003704D02*
X004760Y003704D01*
X004791Y003802D02*
X000850Y003802D01*
X000850Y003901D02*
X004849Y003901D01*
X004973Y003999D02*
X000850Y003999D01*
X000850Y004098D02*
X005990Y004098D01*
X005990Y004196D02*
X000850Y004196D01*
X000850Y004295D02*
X004989Y004295D01*
X004929Y004319D02*
X005072Y004260D01*
X005228Y004260D01*
X005371Y004319D01*
X005481Y004429D01*
X005540Y004572D01*
X005540Y004728D01*
X005481Y004871D01*
X005392Y004960D01*
X007210Y004960D01*
X007210Y004560D01*
X007054Y004560D01*
X006990Y004496D01*
X006990Y003804D01*
X007054Y003740D01*
X007746Y003740D01*
X007810Y003804D01*
X007810Y004496D01*
X007746Y004560D01*
X007590Y004560D01*
X007590Y009229D01*
X007428Y009390D01*
X007428Y009455D01*
X007386Y009558D01*
X007308Y009636D01*
X007205Y009678D01*
X007095Y009678D01*
X006992Y009636D01*
X006914Y009558D01*
X006872Y009455D01*
X006872Y009345D01*
X006890Y009300D01*
X006700Y009300D01*
X006700Y008700D01*
X006600Y008700D01*
X006600Y009300D01*
X006381Y009300D01*
X006000Y008919D01*
X006000Y008700D01*
X006600Y008700D01*
X006600Y008600D01*
X006700Y008600D01*
X006700Y008000D01*
X006919Y008000D01*
X007210Y008291D01*
X007210Y005340D01*
X005392Y005340D01*
X005481Y005429D01*
X005540Y005572D01*
X005540Y005728D01*
X005481Y005871D01*
X005371Y005981D01*
X005228Y006040D01*
X005072Y006040D01*
X004929Y005981D01*
X004819Y005871D01*
X004760Y005728D01*
X004760Y005572D01*
X004819Y005429D01*
X004908Y005340D01*
X003290Y005340D01*
X003070Y005560D01*
X002730Y005560D01*
X002490Y005320D01*
X002490Y004980D01*
X002730Y004740D01*
X003070Y004740D01*
X003290Y004960D01*
X004908Y004960D01*
X004819Y004871D01*
X004760Y004728D01*
X004760Y004572D01*
X004819Y004429D01*
X004929Y004319D01*
X004855Y004393D02*
X000850Y004393D01*
X000850Y004492D02*
X004794Y004492D01*
X004760Y004590D02*
X000850Y004590D01*
X000850Y004689D02*
X004760Y004689D01*
X004785Y004787D02*
X003117Y004787D01*
X003215Y004886D02*
X004834Y004886D01*
X004870Y005378D02*
X003252Y005378D01*
X003153Y005477D02*
X004800Y005477D01*
X004760Y005575D02*
X002111Y005575D01*
X002086Y005600D02*
X001950Y005600D01*
X001950Y005200D01*
X001850Y005200D01*
X001850Y005600D01*
X001714Y005600D01*
X001450Y005336D01*
X001450Y005200D01*
X001850Y005200D01*
X001850Y005100D01*
X001450Y005100D01*
X001450Y004964D01*
X001714Y004700D01*
X001850Y004700D01*
X001850Y005100D01*
X001950Y005100D01*
X001950Y005200D01*
X002350Y005200D01*
X002350Y005336D01*
X002086Y005600D01*
X001950Y005575D02*
X001850Y005575D01*
X001850Y005477D02*
X001950Y005477D01*
X001950Y005378D02*
X001850Y005378D01*
X001850Y005280D02*
X001950Y005280D01*
X001950Y005181D02*
X002490Y005181D01*
X002490Y005083D02*
X002350Y005083D01*
X002350Y005100D02*
X001950Y005100D01*
X001950Y004700D01*
X002086Y004700D01*
X002350Y004964D01*
X002350Y005100D01*
X002350Y004984D02*
X002490Y004984D01*
X002585Y004886D02*
X002272Y004886D01*
X002173Y004787D02*
X002683Y004787D01*
X002490Y005280D02*
X002350Y005280D01*
X002308Y005378D02*
X002548Y005378D01*
X002647Y005477D02*
X002210Y005477D01*
X002070Y005740D02*
X002310Y005980D01*
X002310Y006320D01*
X002070Y006560D01*
X001730Y006560D01*
X001490Y006320D01*
X001490Y005980D01*
X001730Y005740D01*
X002070Y005740D01*
X002102Y005772D02*
X002698Y005772D01*
X002730Y005740D02*
X003070Y005740D01*
X003310Y005980D01*
X003310Y006320D01*
X003070Y006560D01*
X002730Y006560D01*
X002490Y006320D01*
X002490Y005980D01*
X002730Y005740D01*
X002600Y005871D02*
X002200Y005871D01*
X002299Y005969D02*
X002501Y005969D01*
X002490Y006068D02*
X002310Y006068D01*
X002310Y006166D02*
X002490Y006166D01*
X002490Y006265D02*
X002310Y006265D01*
X002267Y006363D02*
X002533Y006363D01*
X002632Y006462D02*
X002168Y006462D01*
X002070Y006740D02*
X002310Y006980D01*
X002310Y007320D01*
X002070Y007560D01*
X001730Y007560D01*
X001490Y007320D01*
X001490Y006980D01*
X001730Y006740D01*
X002070Y006740D01*
X002087Y006757D02*
X002713Y006757D01*
X002730Y006740D02*
X003070Y006740D01*
X003310Y006980D01*
X003310Y007320D01*
X003070Y007560D01*
X002730Y007560D01*
X002490Y007320D01*
X002490Y006980D01*
X002730Y006740D01*
X002615Y006856D02*
X002185Y006856D01*
X002284Y006954D02*
X002516Y006954D01*
X002490Y007053D02*
X002310Y007053D01*
X002310Y007151D02*
X002490Y007151D01*
X002490Y007250D02*
X002310Y007250D01*
X002282Y007348D02*
X002518Y007348D01*
X002617Y007447D02*
X002183Y007447D01*
X002085Y007545D02*
X002715Y007545D01*
X002730Y007740D02*
X003070Y007740D01*
X003310Y007980D01*
X003310Y008320D01*
X003070Y008560D01*
X002730Y008560D01*
X002490Y008320D01*
X002490Y007980D01*
X002730Y007740D01*
X002728Y007742D02*
X002072Y007742D01*
X002070Y007740D02*
X002310Y007980D01*
X002310Y008320D01*
X002070Y008560D01*
X001730Y008560D01*
X001490Y008320D01*
X001490Y007980D01*
X001730Y007740D01*
X002070Y007740D01*
X002170Y007841D02*
X002630Y007841D01*
X002531Y007939D02*
X002269Y007939D01*
X002310Y008038D02*
X002490Y008038D01*
X002490Y008136D02*
X002310Y008136D01*
X002310Y008235D02*
X002490Y008235D01*
X002503Y008333D02*
X002297Y008333D01*
X002198Y008432D02*
X002602Y008432D01*
X002700Y008530D02*
X002100Y008530D01*
X002246Y008740D02*
X002310Y008804D01*
X002310Y009496D01*
X002246Y009560D01*
X001554Y009560D01*
X001490Y009496D01*
X001490Y008804D01*
X001554Y008740D01*
X002246Y008740D01*
X002310Y008826D02*
X002645Y008826D01*
X002730Y008740D02*
X002490Y008980D01*
X002490Y009320D01*
X002730Y009560D01*
X003070Y009560D01*
X003310Y009320D01*
X003310Y008980D01*
X003070Y008740D01*
X002730Y008740D01*
X002546Y008924D02*
X002310Y008924D01*
X002310Y009023D02*
X002490Y009023D01*
X002490Y009121D02*
X002310Y009121D01*
X002310Y009220D02*
X002490Y009220D01*
X002490Y009318D02*
X002310Y009318D01*
X002310Y009417D02*
X002587Y009417D01*
X002685Y009515D02*
X002291Y009515D01*
X001509Y009515D02*
X000850Y009515D01*
X000850Y009417D02*
X001490Y009417D01*
X001490Y009318D02*
X000850Y009318D01*
X000850Y009220D02*
X001490Y009220D01*
X001490Y009121D02*
X000850Y009121D01*
X000850Y009023D02*
X001490Y009023D01*
X001490Y008924D02*
X000850Y008924D01*
X000850Y008826D02*
X001490Y008826D01*
X001700Y008530D02*
X000850Y008530D01*
X000850Y008432D02*
X001602Y008432D01*
X001503Y008333D02*
X000850Y008333D01*
X000850Y008235D02*
X001490Y008235D01*
X001490Y008136D02*
X000850Y008136D01*
X000850Y008038D02*
X001490Y008038D01*
X001531Y007939D02*
X000850Y007939D01*
X000850Y007841D02*
X001630Y007841D01*
X001728Y007742D02*
X000850Y007742D01*
X000850Y007644D02*
X004760Y007644D01*
X004760Y007572D02*
X004760Y007728D01*
X004819Y007871D01*
X004929Y007981D01*
X005072Y008040D01*
X005228Y008040D01*
X005371Y007981D01*
X005481Y007871D01*
X005540Y007728D01*
X005540Y007572D01*
X005481Y007429D01*
X005371Y007319D01*
X005228Y007260D01*
X005072Y007260D01*
X004929Y007319D01*
X004819Y007429D01*
X004760Y007572D01*
X004771Y007545D02*
X003085Y007545D01*
X003183Y007447D02*
X004812Y007447D01*
X004900Y007348D02*
X003282Y007348D01*
X003310Y007250D02*
X007210Y007250D01*
X007210Y007348D02*
X005400Y007348D01*
X005488Y007447D02*
X007210Y007447D01*
X007210Y007545D02*
X005529Y007545D01*
X005540Y007644D02*
X007210Y007644D01*
X007210Y007742D02*
X005534Y007742D01*
X005493Y007841D02*
X007210Y007841D01*
X007210Y007939D02*
X005413Y007939D01*
X005234Y008038D02*
X006343Y008038D01*
X006381Y008000D02*
X006600Y008000D01*
X006600Y008600D01*
X006000Y008600D01*
X006000Y008381D01*
X006381Y008000D01*
X006245Y008136D02*
X003310Y008136D01*
X003310Y008038D02*
X005066Y008038D01*
X004887Y007939D02*
X003269Y007939D01*
X003170Y007841D02*
X004807Y007841D01*
X004766Y007742D02*
X003072Y007742D01*
X003310Y008235D02*
X006146Y008235D01*
X006048Y008333D02*
X005385Y008333D01*
X005371Y008319D02*
X005481Y008429D01*
X005540Y008572D01*
X005540Y008728D01*
X005481Y008871D01*
X005371Y008981D01*
X005228Y009040D01*
X005072Y009040D01*
X004929Y008981D01*
X004819Y008871D01*
X004760Y008728D01*
X004760Y008572D01*
X004819Y008429D01*
X004929Y008319D01*
X005072Y008260D01*
X005228Y008260D01*
X005371Y008319D01*
X005482Y008432D02*
X006000Y008432D01*
X006000Y008530D02*
X005522Y008530D01*
X005540Y008629D02*
X006600Y008629D01*
X006600Y008727D02*
X006700Y008727D01*
X006700Y008826D02*
X006600Y008826D01*
X006600Y008924D02*
X006700Y008924D01*
X006700Y009023D02*
X006600Y009023D01*
X006600Y009121D02*
X006700Y009121D01*
X006700Y009220D02*
X006600Y009220D01*
X006883Y009318D02*
X005368Y009318D01*
X005371Y009319D02*
X005481Y009429D01*
X005540Y009572D01*
X005540Y009728D01*
X005481Y009871D01*
X005371Y009981D01*
X005348Y009990D01*
X005990Y009990D01*
X005990Y009980D01*
X006230Y009740D01*
X006570Y009740D01*
X006810Y009980D01*
X006810Y009990D01*
X006990Y009990D01*
X006990Y009980D01*
X007230Y009740D01*
X007570Y009740D01*
X007763Y009934D01*
X007777Y009901D01*
X008210Y009468D01*
X008210Y009073D01*
X008133Y008996D01*
X008040Y008771D01*
X008040Y008529D01*
X008133Y008304D01*
X008304Y008133D01*
X008529Y008040D01*
X008771Y008040D01*
X008996Y008133D01*
X009073Y008210D01*
X010238Y008210D01*
X010358Y008260D01*
X010508Y008260D01*
X010651Y008319D01*
X010761Y008429D01*
X010820Y008572D01*
X010820Y008728D01*
X010761Y008871D01*
X010651Y008981D01*
X010508Y009040D01*
X010358Y009040D01*
X010238Y009090D01*
X009090Y009090D01*
X009090Y009738D01*
X009023Y009899D01*
X008899Y010023D01*
X008590Y010332D01*
X008590Y015468D01*
X008899Y015777D01*
X009023Y015901D01*
X009090Y016062D01*
X009090Y016210D01*
X010238Y016210D01*
X010358Y016260D01*
X010508Y016260D01*
X010651Y016319D01*
X010761Y016429D01*
X010820Y016572D01*
X010820Y016728D01*
X010761Y016871D01*
X010651Y016981D01*
X010508Y017040D01*
X010358Y017040D01*
X010238Y017090D01*
X009073Y017090D01*
X008996Y017167D01*
X008771Y017260D01*
X008529Y017260D01*
X008304Y017167D01*
X008133Y016996D01*
X008040Y016771D01*
X008040Y016529D01*
X008133Y016304D01*
X008158Y016280D01*
X007777Y015899D01*
X007710Y015738D01*
X007710Y013310D01*
X005348Y013310D01*
X005371Y013319D01*
X005481Y013429D01*
X005540Y013572D01*
X005540Y013728D01*
X005481Y013871D01*
X005371Y013981D01*
X005228Y014040D01*
X005072Y014040D01*
X004929Y013981D01*
X004819Y013871D01*
X004760Y013728D01*
X004760Y013572D01*
X004819Y013429D01*
X004929Y013319D01*
X004952Y013310D01*
X004216Y013310D01*
X004060Y013466D01*
X003966Y013560D01*
X002084Y013560D01*
X001834Y013310D01*
X001740Y013216D01*
X001740Y011584D01*
X003240Y010084D01*
X003334Y009990D01*
X004952Y009990D01*
X004929Y009981D01*
X004819Y009871D01*
X004760Y009728D01*
X004760Y009572D01*
X004819Y009429D01*
X004929Y009319D01*
X005072Y009260D01*
X005228Y009260D01*
X005371Y009319D01*
X005468Y009417D02*
X006872Y009417D01*
X006896Y009515D02*
X005516Y009515D01*
X005540Y009614D02*
X006970Y009614D01*
X007160Y009811D02*
X006640Y009811D01*
X006739Y009909D02*
X007061Y009909D01*
X006990Y010150D02*
X006810Y010150D01*
X006810Y010320D01*
X006570Y010560D01*
X006230Y010560D01*
X005990Y010320D01*
X005990Y010150D01*
X003400Y010150D01*
X001900Y011650D01*
X001900Y013150D01*
X002150Y013400D01*
X003900Y013400D01*
X004150Y013150D01*
X008150Y013150D01*
X008150Y010150D01*
X007810Y010150D01*
X007810Y010320D01*
X007570Y010560D01*
X007230Y010560D01*
X006990Y010320D01*
X006990Y010150D01*
X006990Y010205D02*
X006810Y010205D01*
X006810Y010303D02*
X006990Y010303D01*
X007072Y010402D02*
X006728Y010402D01*
X006630Y010500D02*
X007170Y010500D01*
X007230Y010740D02*
X007570Y010740D01*
X007810Y010980D01*
X007810Y011320D01*
X007570Y011560D01*
X007230Y011560D01*
X006990Y011320D01*
X006990Y010980D01*
X007230Y010740D01*
X007175Y010796D02*
X006625Y010796D01*
X006570Y010740D02*
X006810Y010980D01*
X006810Y011320D01*
X006570Y011560D01*
X006230Y011560D01*
X005990Y011320D01*
X005990Y010980D01*
X006230Y010740D01*
X006570Y010740D01*
X006724Y010894D02*
X007076Y010894D01*
X006990Y010993D02*
X006810Y010993D01*
X006810Y011091D02*
X006990Y011091D01*
X006990Y011190D02*
X006810Y011190D01*
X006810Y011288D02*
X006990Y011288D01*
X007057Y011387D02*
X006743Y011387D01*
X006645Y011485D02*
X007155Y011485D01*
X007054Y011740D02*
X006990Y011804D01*
X006990Y012496D01*
X007054Y012560D01*
X007746Y012560D01*
X007810Y012496D01*
X007810Y011804D01*
X007746Y011740D01*
X007054Y011740D01*
X007014Y011781D02*
X006610Y011781D01*
X006570Y011740D02*
X006810Y011980D01*
X006810Y012320D01*
X006570Y012560D01*
X006230Y012560D01*
X005990Y012320D01*
X005990Y011980D01*
X006230Y011740D01*
X006570Y011740D01*
X006709Y011879D02*
X006990Y011879D01*
X006990Y011978D02*
X006807Y011978D01*
X006810Y012076D02*
X006990Y012076D01*
X006990Y012175D02*
X006810Y012175D01*
X006810Y012273D02*
X006990Y012273D01*
X006990Y012372D02*
X006758Y012372D01*
X006660Y012470D02*
X006990Y012470D01*
X007810Y012470D02*
X008150Y012470D01*
X008150Y012372D02*
X007810Y012372D01*
X007810Y012273D02*
X008150Y012273D01*
X008150Y012175D02*
X007810Y012175D01*
X007810Y012076D02*
X008150Y012076D01*
X008150Y011978D02*
X007810Y011978D01*
X007810Y011879D02*
X008150Y011879D01*
X008150Y011781D02*
X007786Y011781D01*
X007645Y011485D02*
X008150Y011485D01*
X008150Y011387D02*
X007743Y011387D01*
X007810Y011288D02*
X008150Y011288D01*
X008150Y011190D02*
X007810Y011190D01*
X007810Y011091D02*
X008150Y011091D01*
X008150Y010993D02*
X007810Y010993D01*
X007724Y010894D02*
X008150Y010894D01*
X008150Y010796D02*
X007625Y010796D01*
X007630Y010500D02*
X008150Y010500D01*
X008150Y010402D02*
X007728Y010402D01*
X007810Y010303D02*
X008150Y010303D01*
X008150Y010205D02*
X007810Y010205D01*
X007774Y009909D02*
X007739Y009909D01*
X007640Y009811D02*
X007867Y009811D01*
X007966Y009712D02*
X005540Y009712D01*
X005506Y009811D02*
X006160Y009811D01*
X006061Y009909D02*
X005443Y009909D01*
X005331Y010303D02*
X005990Y010303D01*
X005990Y010205D02*
X003345Y010205D01*
X003247Y010303D02*
X004969Y010303D01*
X004929Y010319D02*
X005072Y010260D01*
X005228Y010260D01*
X005371Y010319D01*
X005481Y010429D01*
X005540Y010572D01*
X005540Y010728D01*
X005481Y010871D01*
X005371Y010981D01*
X005228Y011040D01*
X005072Y011040D01*
X004929Y010981D01*
X004819Y010871D01*
X004760Y010728D01*
X004760Y010572D01*
X004819Y010429D01*
X004929Y010319D01*
X004847Y010402D02*
X003148Y010402D01*
X003050Y010500D02*
X004790Y010500D01*
X004760Y010599D02*
X002951Y010599D01*
X002853Y010697D02*
X004760Y010697D01*
X004788Y010796D02*
X002754Y010796D01*
X002656Y010894D02*
X004842Y010894D01*
X004958Y010993D02*
X002557Y010993D01*
X002459Y011091D02*
X005990Y011091D01*
X005990Y010993D02*
X005342Y010993D01*
X005458Y010894D02*
X006076Y010894D01*
X006175Y010796D02*
X005512Y010796D01*
X005540Y010697D02*
X008150Y010697D01*
X008150Y010599D02*
X005540Y010599D01*
X005510Y010500D02*
X006170Y010500D01*
X006072Y010402D02*
X005453Y010402D01*
X004857Y009909D02*
X000850Y009909D01*
X000850Y009811D02*
X004794Y009811D01*
X004760Y009712D02*
X000850Y009712D01*
X000850Y009614D02*
X004760Y009614D01*
X004784Y009515D02*
X003115Y009515D01*
X003213Y009417D02*
X004832Y009417D01*
X004932Y009318D02*
X003310Y009318D01*
X003310Y009220D02*
X006300Y009220D01*
X006202Y009121D02*
X003310Y009121D01*
X003310Y009023D02*
X005030Y009023D01*
X004872Y008924D02*
X003254Y008924D01*
X003155Y008826D02*
X004801Y008826D01*
X004760Y008727D02*
X000850Y008727D01*
X000850Y008629D02*
X004760Y008629D01*
X004778Y008530D02*
X003100Y008530D01*
X003198Y008432D02*
X004818Y008432D01*
X004915Y008333D02*
X003297Y008333D01*
X003310Y007151D02*
X007210Y007151D01*
X007210Y007053D02*
X003310Y007053D01*
X003284Y006954D02*
X004902Y006954D01*
X004929Y006981D02*
X004819Y006871D01*
X004760Y006728D01*
X004760Y006572D01*
X004819Y006429D01*
X004929Y006319D01*
X005072Y006260D01*
X005228Y006260D01*
X005371Y006319D01*
X005481Y006429D01*
X005540Y006572D01*
X005540Y006728D01*
X005481Y006871D01*
X005371Y006981D01*
X005228Y007040D01*
X005072Y007040D01*
X004929Y006981D01*
X004813Y006856D02*
X003185Y006856D01*
X003087Y006757D02*
X004772Y006757D01*
X004760Y006659D02*
X000850Y006659D01*
X000850Y006757D02*
X001713Y006757D01*
X001615Y006856D02*
X000850Y006856D01*
X000850Y006954D02*
X001516Y006954D01*
X001490Y007053D02*
X000850Y007053D01*
X000850Y007151D02*
X001490Y007151D01*
X001490Y007250D02*
X000850Y007250D01*
X000850Y007348D02*
X001518Y007348D01*
X001617Y007447D02*
X000850Y007447D01*
X000850Y007545D02*
X001715Y007545D01*
X001632Y006462D02*
X000850Y006462D01*
X000850Y006560D02*
X004765Y006560D01*
X004806Y006462D02*
X003168Y006462D01*
X003267Y006363D02*
X004885Y006363D01*
X005062Y006265D02*
X003310Y006265D01*
X003310Y006166D02*
X007210Y006166D01*
X007210Y006068D02*
X003310Y006068D01*
X003299Y005969D02*
X004917Y005969D01*
X004819Y005871D02*
X003200Y005871D01*
X003102Y005772D02*
X004778Y005772D01*
X004760Y005674D02*
X000850Y005674D01*
X000850Y005772D02*
X001698Y005772D01*
X001600Y005871D02*
X000850Y005871D01*
X000850Y005969D02*
X001501Y005969D01*
X001490Y006068D02*
X000850Y006068D01*
X000850Y006166D02*
X001490Y006166D01*
X001490Y006265D02*
X000850Y006265D01*
X000850Y006363D02*
X001533Y006363D01*
X001689Y005575D02*
X000850Y005575D01*
X000850Y005477D02*
X001590Y005477D01*
X001492Y005378D02*
X000850Y005378D01*
X000850Y005280D02*
X001450Y005280D01*
X001450Y005083D02*
X000850Y005083D01*
X000850Y005181D02*
X001850Y005181D01*
X001850Y005083D02*
X001950Y005083D01*
X001950Y004984D02*
X001850Y004984D01*
X001850Y004886D02*
X001950Y004886D01*
X001950Y004787D02*
X001850Y004787D01*
X001627Y004787D02*
X000850Y004787D01*
X000850Y004886D02*
X001528Y004886D01*
X001450Y004984D02*
X000850Y004984D01*
X001952Y002423D02*
X004825Y002423D01*
X004924Y002325D02*
X002149Y002325D01*
X002248Y002226D02*
X005990Y002226D01*
X005990Y002320D02*
X005990Y001980D01*
X006230Y001740D01*
X006570Y001740D01*
X006810Y001980D01*
X006810Y002320D01*
X006570Y002560D01*
X006230Y002560D01*
X005990Y002320D01*
X005995Y002325D02*
X005376Y002325D01*
X005475Y002423D02*
X006093Y002423D01*
X006192Y002522D02*
X005519Y002522D01*
X005540Y002620D02*
X009480Y002620D01*
X009480Y002572D02*
X009480Y002728D01*
X009539Y002871D01*
X009649Y002981D01*
X009792Y003040D01*
X010508Y003040D01*
X010651Y002981D01*
X010761Y002871D01*
X010820Y002728D01*
X010820Y002572D01*
X010761Y002429D01*
X010651Y002319D01*
X010508Y002260D01*
X009792Y002260D01*
X009649Y002319D01*
X009539Y002429D01*
X009480Y002572D01*
X009501Y002522D02*
X007608Y002522D01*
X007570Y002560D02*
X007230Y002560D01*
X006990Y002320D01*
X006990Y001980D01*
X007230Y001740D01*
X007570Y001740D01*
X007810Y001980D01*
X007810Y002320D01*
X007570Y002560D01*
X007570Y002740D02*
X007810Y002980D01*
X007810Y003320D01*
X007570Y003560D01*
X007230Y003560D01*
X006990Y003320D01*
X006990Y002980D01*
X007230Y002740D01*
X007570Y002740D01*
X007647Y002817D02*
X009517Y002817D01*
X009480Y002719D02*
X005540Y002719D01*
X005503Y002817D02*
X006153Y002817D01*
X006230Y002740D02*
X005990Y002980D01*
X005990Y003320D01*
X006230Y003560D01*
X006570Y003560D01*
X006810Y003320D01*
X006810Y002980D01*
X006570Y002740D01*
X006230Y002740D01*
X006055Y002916D02*
X005436Y002916D01*
X005290Y003014D02*
X005990Y003014D01*
X005990Y003310D02*
X005347Y003310D01*
X005460Y003408D02*
X006078Y003408D01*
X006177Y003507D02*
X005513Y003507D01*
X005540Y003605D02*
X009480Y003605D01*
X009480Y003572D02*
X009539Y003429D01*
X009649Y003319D01*
X009792Y003260D01*
X009942Y003260D01*
X010062Y003210D01*
X012238Y003210D01*
X012310Y003240D01*
X012320Y003240D01*
X012327Y003247D01*
X012399Y003277D01*
X012523Y003401D01*
X012553Y003473D01*
X012560Y003480D01*
X012560Y003490D01*
X012590Y003562D01*
X012590Y003738D01*
X012560Y003810D01*
X012560Y003820D01*
X012553Y003827D01*
X012523Y003899D01*
X012399Y004023D01*
X012327Y004053D01*
X012320Y004060D01*
X012310Y004060D01*
X012238Y004090D01*
X010062Y004090D01*
X009942Y004040D01*
X009792Y004040D01*
X009649Y003981D01*
X009539Y003871D01*
X009480Y003728D01*
X009480Y003572D01*
X009507Y003507D02*
X007623Y003507D01*
X007722Y003408D02*
X009560Y003408D01*
X009673Y003310D02*
X007810Y003310D01*
X007810Y003211D02*
X010060Y003211D01*
X009730Y003014D02*
X007810Y003014D01*
X007810Y003113D02*
X012820Y003113D01*
X012820Y003211D02*
X012240Y003211D01*
X012432Y003310D02*
X012820Y003310D01*
X012820Y003408D02*
X012526Y003408D01*
X012567Y003507D02*
X012820Y003507D01*
X012820Y003605D02*
X012590Y003605D01*
X012590Y003704D02*
X012820Y003704D01*
X012820Y003802D02*
X012563Y003802D01*
X012522Y003901D02*
X012820Y003901D01*
X012820Y003999D02*
X012423Y003999D01*
X012320Y004240D02*
X012327Y004247D01*
X012399Y004277D01*
X012523Y004401D01*
X012553Y004473D01*
X012560Y004480D01*
X012560Y004490D01*
X012590Y004562D01*
X012590Y004738D01*
X012560Y004810D01*
X012560Y004820D01*
X012553Y004827D01*
X012523Y004899D01*
X012399Y005023D01*
X012327Y005053D01*
X012320Y005060D01*
X012310Y005060D01*
X012238Y005090D01*
X010062Y005090D01*
X009942Y005040D01*
X009792Y005040D01*
X009649Y004981D01*
X009539Y004871D01*
X009480Y004728D01*
X009480Y004572D01*
X009539Y004429D01*
X009649Y004319D01*
X009792Y004260D01*
X009942Y004260D01*
X010062Y004210D01*
X012238Y004210D01*
X012310Y004240D01*
X012320Y004240D01*
X012417Y004295D02*
X012820Y004295D01*
X012820Y004393D02*
X012515Y004393D01*
X012561Y004492D02*
X012820Y004492D01*
X012820Y004590D02*
X012590Y004590D01*
X012590Y004689D02*
X012820Y004689D01*
X012820Y004787D02*
X012570Y004787D01*
X012529Y004886D02*
X012820Y004886D01*
X012820Y004984D02*
X012438Y004984D01*
X012256Y005083D02*
X012820Y005083D01*
X012820Y005181D02*
X007590Y005181D01*
X007590Y005083D02*
X010044Y005083D01*
X010062Y005210D02*
X012238Y005210D01*
X012310Y005240D01*
X012320Y005240D01*
X012327Y005247D01*
X012399Y005277D01*
X012523Y005401D01*
X012553Y005473D01*
X012560Y005480D01*
X012560Y005490D01*
X012590Y005562D01*
X012590Y005738D01*
X012560Y005810D01*
X012560Y005820D01*
X012553Y005827D01*
X012523Y005899D01*
X012399Y006023D01*
X012327Y006053D01*
X012320Y006060D01*
X012310Y006060D01*
X012238Y006090D01*
X010062Y006090D01*
X009942Y006040D01*
X009792Y006040D01*
X009649Y005981D01*
X009539Y005871D01*
X009480Y005728D01*
X009480Y005572D01*
X009539Y005429D01*
X009649Y005319D01*
X009792Y005260D01*
X009942Y005260D01*
X010062Y005210D01*
X009745Y005280D02*
X007590Y005280D01*
X007590Y005378D02*
X009590Y005378D01*
X009520Y005477D02*
X007590Y005477D01*
X007590Y005575D02*
X009480Y005575D01*
X009480Y005674D02*
X007590Y005674D01*
X007590Y005772D02*
X009498Y005772D01*
X009539Y005871D02*
X007590Y005871D01*
X007590Y005969D02*
X009637Y005969D01*
X009782Y006265D02*
X007590Y006265D01*
X007590Y006363D02*
X009605Y006363D01*
X009649Y006319D02*
X009539Y006429D01*
X009480Y006572D01*
X009480Y006728D01*
X009539Y006871D01*
X009649Y006981D01*
X009792Y007040D01*
X009942Y007040D01*
X010062Y007090D01*
X012238Y007090D01*
X012310Y007060D01*
X012496Y007060D01*
X012560Y006996D01*
X012560Y006810D01*
X012590Y006738D01*
X012590Y006562D01*
X012560Y006490D01*
X012560Y006304D01*
X012496Y006240D01*
X012310Y006240D01*
X012238Y006210D01*
X010062Y006210D01*
X009942Y006260D01*
X009792Y006260D01*
X009649Y006319D01*
X009526Y006462D02*
X007590Y006462D01*
X007590Y006560D02*
X009485Y006560D01*
X009480Y006659D02*
X007590Y006659D01*
X007590Y006757D02*
X009492Y006757D01*
X009533Y006856D02*
X007590Y006856D01*
X007590Y006954D02*
X009622Y006954D01*
X009769Y007231D02*
X009836Y007220D01*
X010121Y007220D01*
X010121Y007621D01*
X010179Y007621D01*
X010179Y007679D01*
X010121Y007679D01*
X010121Y008080D01*
X009836Y008080D01*
X009769Y008069D01*
X009705Y008048D01*
X009645Y008018D01*
X009590Y007978D01*
X009542Y007930D01*
X009502Y007875D01*
X009472Y007815D01*
X009451Y007751D01*
X009440Y007684D01*
X009440Y007679D01*
X010121Y007679D01*
X010121Y007621D01*
X009440Y007621D01*
X009440Y007616D01*
X009451Y007549D01*
X009472Y007485D01*
X009502Y007425D01*
X009542Y007370D01*
X009590Y007322D01*
X009645Y007282D01*
X009705Y007252D01*
X009769Y007231D01*
X009711Y007250D02*
X007590Y007250D01*
X007590Y007348D02*
X009564Y007348D01*
X009491Y007447D02*
X007590Y007447D01*
X007590Y007545D02*
X009452Y007545D01*
X009449Y007742D02*
X007590Y007742D01*
X007590Y007644D02*
X010121Y007644D01*
X010179Y007644D02*
X012820Y007644D01*
X012820Y007742D02*
X010851Y007742D01*
X010849Y007751D02*
X010828Y007815D01*
X010798Y007875D01*
X010758Y007930D01*
X010710Y007978D01*
X010655Y008018D01*
X010595Y008048D01*
X010531Y008069D01*
X010464Y008080D01*
X010179Y008080D01*
X010179Y007679D01*
X010860Y007679D01*
X010860Y007684D01*
X010849Y007751D01*
X010816Y007841D02*
X012820Y007841D01*
X012820Y007939D02*
X010749Y007939D01*
X010617Y008038D02*
X012820Y008038D01*
X012820Y008136D02*
X008999Y008136D01*
X009484Y007841D02*
X007590Y007841D01*
X007590Y007939D02*
X009551Y007939D01*
X009683Y008038D02*
X007590Y008038D01*
X007590Y008136D02*
X008301Y008136D01*
X008203Y008235D02*
X007590Y008235D01*
X007590Y008333D02*
X008121Y008333D01*
X008080Y008432D02*
X007590Y008432D01*
X007590Y008530D02*
X008040Y008530D01*
X008040Y008629D02*
X007590Y008629D01*
X007590Y008727D02*
X008040Y008727D01*
X008062Y008826D02*
X007590Y008826D01*
X007590Y008924D02*
X008103Y008924D01*
X008160Y009023D02*
X007590Y009023D01*
X007590Y009121D02*
X008210Y009121D01*
X008210Y009220D02*
X007590Y009220D01*
X007501Y009318D02*
X008210Y009318D01*
X008210Y009417D02*
X007428Y009417D01*
X007404Y009515D02*
X008163Y009515D01*
X008064Y009614D02*
X007330Y009614D01*
X006700Y008530D02*
X006600Y008530D01*
X006600Y008432D02*
X006700Y008432D01*
X006700Y008333D02*
X006600Y008333D01*
X006600Y008235D02*
X006700Y008235D01*
X006700Y008136D02*
X006600Y008136D01*
X006600Y008038D02*
X006700Y008038D01*
X006957Y008038D02*
X007210Y008038D01*
X007210Y008136D02*
X007055Y008136D01*
X007154Y008235D02*
X007210Y008235D01*
X007590Y007151D02*
X012820Y007151D01*
X012820Y007053D02*
X012503Y007053D01*
X012560Y006954D02*
X012820Y006954D01*
X012820Y006856D02*
X012560Y006856D01*
X012582Y006757D02*
X012820Y006757D01*
X012820Y006659D02*
X012590Y006659D01*
X012589Y006560D02*
X012820Y006560D01*
X012820Y006462D02*
X012560Y006462D01*
X012560Y006363D02*
X012820Y006363D01*
X012820Y006265D02*
X012520Y006265D01*
X012292Y006068D02*
X012820Y006068D01*
X012820Y006166D02*
X007590Y006166D01*
X007590Y006068D02*
X010008Y006068D01*
X009972Y007053D02*
X007590Y007053D01*
X007210Y006954D02*
X005398Y006954D01*
X005487Y006856D02*
X007210Y006856D01*
X007210Y006757D02*
X005528Y006757D01*
X005540Y006659D02*
X007210Y006659D01*
X007210Y006560D02*
X005535Y006560D01*
X005494Y006462D02*
X007210Y006462D01*
X007210Y006363D02*
X005415Y006363D01*
X005238Y006265D02*
X007210Y006265D01*
X007210Y005969D02*
X005383Y005969D01*
X005481Y005871D02*
X007210Y005871D01*
X007210Y005772D02*
X005522Y005772D01*
X005540Y005674D02*
X007210Y005674D01*
X007210Y005575D02*
X005540Y005575D01*
X005500Y005477D02*
X007210Y005477D01*
X007210Y005378D02*
X005430Y005378D01*
X005466Y004886D02*
X007210Y004886D01*
X007210Y004787D02*
X005515Y004787D01*
X005540Y004689D02*
X007210Y004689D01*
X007210Y004590D02*
X005540Y004590D01*
X005506Y004492D02*
X006162Y004492D01*
X006230Y004560D02*
X005990Y004320D01*
X005990Y003980D01*
X006230Y003740D01*
X006570Y003740D01*
X006810Y003980D01*
X006810Y004320D01*
X006570Y004560D01*
X006230Y004560D01*
X006063Y004393D02*
X005445Y004393D01*
X005311Y004295D02*
X005990Y004295D01*
X005990Y003999D02*
X005327Y003999D01*
X005451Y003901D02*
X006070Y003901D01*
X006168Y003802D02*
X005509Y003802D01*
X005540Y003704D02*
X009480Y003704D01*
X009511Y003802D02*
X007808Y003802D01*
X007810Y003901D02*
X009569Y003901D01*
X009693Y003999D02*
X007810Y003999D01*
X007810Y004098D02*
X012820Y004098D01*
X012820Y004196D02*
X007810Y004196D01*
X007810Y004295D02*
X009709Y004295D01*
X009575Y004393D02*
X007810Y004393D01*
X007810Y004492D02*
X009514Y004492D01*
X009480Y004590D02*
X007590Y004590D01*
X007590Y004689D02*
X009480Y004689D01*
X009505Y004787D02*
X007590Y004787D01*
X007590Y004886D02*
X009554Y004886D01*
X009657Y004984D02*
X007590Y004984D01*
X006990Y004492D02*
X006638Y004492D01*
X006737Y004393D02*
X006990Y004393D01*
X006990Y004295D02*
X006810Y004295D01*
X006810Y004196D02*
X006990Y004196D01*
X006990Y004098D02*
X006810Y004098D01*
X006810Y003999D02*
X006990Y003999D01*
X006990Y003901D02*
X006730Y003901D01*
X006632Y003802D02*
X006992Y003802D01*
X007177Y003507D02*
X006623Y003507D01*
X006722Y003408D02*
X007078Y003408D01*
X006990Y003310D02*
X006810Y003310D01*
X006810Y003211D02*
X006990Y003211D01*
X006990Y003113D02*
X006810Y003113D01*
X006810Y003014D02*
X006990Y003014D01*
X007055Y002916D02*
X006745Y002916D01*
X006647Y002817D02*
X007153Y002817D01*
X007192Y002522D02*
X006608Y002522D01*
X006707Y002423D02*
X007093Y002423D01*
X006995Y002325D02*
X006805Y002325D01*
X006810Y002226D02*
X006990Y002226D01*
X006990Y002128D02*
X006810Y002128D01*
X006810Y002029D02*
X006990Y002029D01*
X007040Y001931D02*
X006760Y001931D01*
X006662Y001832D02*
X007138Y001832D01*
X007662Y001832D02*
X009480Y001832D01*
X009472Y001815D02*
X009502Y001875D01*
X009542Y001930D01*
X009590Y001978D01*
X009645Y002018D01*
X009705Y002048D01*
X009769Y002069D01*
X009836Y002080D01*
X010121Y002080D01*
X010121Y001679D01*
X010179Y001679D01*
X010179Y002080D01*
X010464Y002080D01*
X010531Y002069D01*
X010595Y002048D01*
X010655Y002018D01*
X010710Y001978D01*
X010758Y001930D01*
X010798Y001875D01*
X010828Y001815D01*
X010849Y001751D01*
X010860Y001684D01*
X010860Y001679D01*
X010179Y001679D01*
X010179Y001621D01*
X010860Y001621D01*
X010860Y001616D01*
X010849Y001549D01*
X010828Y001485D01*
X010798Y001425D01*
X010758Y001370D01*
X010710Y001322D01*
X010655Y001282D01*
X010595Y001252D01*
X010531Y001231D01*
X010464Y001220D01*
X010179Y001220D01*
X010179Y001621D01*
X010121Y001621D01*
X010121Y001220D01*
X009836Y001220D01*
X009769Y001231D01*
X009705Y001252D01*
X009645Y001282D01*
X009590Y001322D01*
X009542Y001370D01*
X009502Y001425D01*
X009472Y001485D01*
X009451Y001549D01*
X009440Y001616D01*
X009440Y001621D01*
X010121Y001621D01*
X010121Y001679D01*
X009440Y001679D01*
X009440Y001684D01*
X009451Y001751D01*
X009472Y001815D01*
X009448Y001734D02*
X005538Y001734D01*
X005540Y001728D02*
X005481Y001871D01*
X005371Y001981D01*
X005228Y002040D01*
X005072Y002040D01*
X004929Y001981D01*
X004819Y001871D01*
X004760Y001728D01*
X004760Y001572D01*
X004819Y001429D01*
X004929Y001319D01*
X005072Y001260D01*
X005228Y001260D01*
X005371Y001319D01*
X005481Y001429D01*
X005540Y001572D01*
X005540Y001728D01*
X005540Y001635D02*
X010121Y001635D01*
X010179Y001635D02*
X011320Y001635D01*
X011320Y001537D02*
X010845Y001537D01*
X010805Y001438D02*
X011340Y001438D01*
X011380Y001340D02*
X010728Y001340D01*
X010563Y001241D02*
X011421Y001241D01*
X011484Y001143D02*
X002316Y001143D01*
X002379Y001241D02*
X009737Y001241D01*
X009572Y001340D02*
X005391Y001340D01*
X005484Y001438D02*
X009495Y001438D01*
X009455Y001537D02*
X005525Y001537D01*
X005497Y001832D02*
X006138Y001832D01*
X006040Y001931D02*
X005421Y001931D01*
X005254Y002029D02*
X005990Y002029D01*
X005990Y002128D02*
X002346Y002128D01*
X002391Y002029D02*
X005046Y002029D01*
X004879Y001931D02*
X002432Y001931D01*
X002473Y001832D02*
X004803Y001832D01*
X004762Y001734D02*
X002480Y001734D01*
X002480Y001635D02*
X004760Y001635D01*
X004775Y001537D02*
X002480Y001537D01*
X002460Y001438D02*
X004816Y001438D01*
X004909Y001340D02*
X002420Y001340D01*
X002218Y001044D02*
X011582Y001044D01*
X011682Y000946D02*
X002118Y000946D01*
X007760Y001931D02*
X009542Y001931D01*
X009667Y002029D02*
X007810Y002029D01*
X007810Y002128D02*
X011454Y002128D01*
X011409Y002029D02*
X010633Y002029D01*
X010758Y001931D02*
X011368Y001931D01*
X011327Y001832D02*
X010820Y001832D01*
X010852Y001734D02*
X011320Y001734D01*
X011552Y002226D02*
X007810Y002226D01*
X007805Y002325D02*
X009644Y002325D01*
X009545Y002423D02*
X007707Y002423D01*
X007745Y002916D02*
X009584Y002916D01*
X010121Y002029D02*
X010179Y002029D01*
X010179Y001931D02*
X010121Y001931D01*
X010121Y001832D02*
X010179Y001832D01*
X010179Y001734D02*
X010121Y001734D01*
X010121Y001537D02*
X010179Y001537D01*
X010179Y001438D02*
X010121Y001438D01*
X010121Y001340D02*
X010179Y001340D01*
X010179Y001241D02*
X010121Y001241D01*
X010656Y002325D02*
X011651Y002325D01*
X011848Y002423D02*
X010755Y002423D01*
X010799Y002522D02*
X012820Y002522D01*
X012820Y002620D02*
X010820Y002620D01*
X010820Y002719D02*
X012820Y002719D01*
X012820Y002817D02*
X010783Y002817D01*
X010716Y002916D02*
X012820Y002916D01*
X012820Y003014D02*
X010570Y003014D01*
X012402Y005280D02*
X012820Y005280D01*
X012820Y005378D02*
X012500Y005378D01*
X012556Y005477D02*
X012820Y005477D01*
X012820Y005575D02*
X012590Y005575D01*
X012590Y005674D02*
X012820Y005674D01*
X012820Y005772D02*
X012576Y005772D01*
X012535Y005871D02*
X012820Y005871D01*
X012820Y005969D02*
X012453Y005969D01*
X012820Y007250D02*
X010589Y007250D01*
X010595Y007252D02*
X010655Y007282D01*
X010710Y007322D01*
X010758Y007370D01*
X010798Y007425D01*
X010828Y007485D01*
X010849Y007549D01*
X010860Y007616D01*
X010860Y007621D01*
X010179Y007621D01*
X010179Y007220D01*
X010464Y007220D01*
X010531Y007231D01*
X010595Y007252D01*
X010736Y007348D02*
X012820Y007348D01*
X012820Y007447D02*
X010809Y007447D01*
X010848Y007545D02*
X012820Y007545D01*
X012820Y008235D02*
X010297Y008235D01*
X010179Y008038D02*
X010121Y008038D01*
X010121Y007939D02*
X010179Y007939D01*
X010179Y007841D02*
X010121Y007841D01*
X010121Y007742D02*
X010179Y007742D01*
X010179Y007545D02*
X010121Y007545D01*
X010121Y007447D02*
X010179Y007447D01*
X010179Y007348D02*
X010121Y007348D01*
X010121Y007250D02*
X010179Y007250D01*
X010665Y008333D02*
X012820Y008333D01*
X012820Y008432D02*
X010762Y008432D01*
X010802Y008530D02*
X012820Y008530D01*
X012820Y008629D02*
X010820Y008629D01*
X010820Y008727D02*
X012820Y008727D01*
X012820Y008826D02*
X010779Y008826D01*
X010708Y008924D02*
X012820Y008924D01*
X012820Y009023D02*
X010550Y009023D01*
X010531Y009231D02*
X010464Y009220D01*
X010179Y009220D01*
X010179Y009621D01*
X010179Y009679D01*
X010121Y009679D01*
X010121Y010080D01*
X009836Y010080D01*
X009769Y010069D01*
X009705Y010048D01*
X009645Y010018D01*
X009590Y009978D01*
X009542Y009930D01*
X009502Y009875D01*
X009472Y009815D01*
X009451Y009751D01*
X009440Y009684D01*
X009440Y009679D01*
X010121Y009679D01*
X010121Y009621D01*
X010179Y009621D01*
X010860Y009621D01*
X010860Y009616D01*
X010849Y009549D01*
X010828Y009485D01*
X010798Y009425D01*
X010758Y009370D01*
X010710Y009322D01*
X010655Y009282D01*
X010595Y009252D01*
X010531Y009231D01*
X010705Y009318D02*
X012820Y009318D01*
X012820Y009220D02*
X009090Y009220D01*
X009090Y009318D02*
X009595Y009318D01*
X009590Y009322D02*
X009645Y009282D01*
X009705Y009252D01*
X009769Y009231D01*
X009836Y009220D01*
X010121Y009220D01*
X010121Y009621D01*
X009440Y009621D01*
X009440Y009616D01*
X009451Y009549D01*
X009472Y009485D01*
X009502Y009425D01*
X009542Y009370D01*
X009590Y009322D01*
X009508Y009417D02*
X009090Y009417D01*
X009090Y009515D02*
X009462Y009515D01*
X009440Y009614D02*
X009090Y009614D01*
X009090Y009712D02*
X009444Y009712D01*
X009470Y009811D02*
X009060Y009811D01*
X009013Y009909D02*
X009527Y009909D01*
X009631Y010008D02*
X008915Y010008D01*
X008816Y010106D02*
X012820Y010106D01*
X012820Y010008D02*
X010669Y010008D01*
X010655Y010018D02*
X010710Y009978D01*
X010758Y009930D01*
X010798Y009875D01*
X010828Y009815D01*
X010849Y009751D01*
X010860Y009684D01*
X010860Y009679D01*
X010179Y009679D01*
X010179Y010080D01*
X010464Y010080D01*
X010531Y010069D01*
X010595Y010048D01*
X010655Y010018D01*
X010773Y009909D02*
X012820Y009909D01*
X012820Y009811D02*
X010830Y009811D01*
X010856Y009712D02*
X012820Y009712D01*
X012820Y009614D02*
X010860Y009614D01*
X010838Y009515D02*
X012820Y009515D01*
X012820Y009417D02*
X010792Y009417D01*
X010179Y009417D02*
X010121Y009417D01*
X010121Y009515D02*
X010179Y009515D01*
X010179Y009614D02*
X010121Y009614D01*
X010121Y009712D02*
X010179Y009712D01*
X010179Y009811D02*
X010121Y009811D01*
X010121Y009909D02*
X010179Y009909D01*
X010179Y010008D02*
X010121Y010008D01*
X009792Y010260D02*
X010508Y010260D01*
X010651Y010319D01*
X010761Y010429D01*
X010820Y010572D01*
X010820Y010728D01*
X010761Y010871D01*
X010651Y010981D01*
X010508Y011040D01*
X009792Y011040D01*
X009649Y010981D01*
X009539Y010871D01*
X009480Y010728D01*
X009480Y010572D01*
X009539Y010429D01*
X009649Y010319D01*
X009792Y010260D01*
X009689Y010303D02*
X008619Y010303D01*
X008590Y010402D02*
X009567Y010402D01*
X009510Y010500D02*
X008590Y010500D01*
X008590Y010599D02*
X009480Y010599D01*
X009480Y010697D02*
X008590Y010697D01*
X008590Y010796D02*
X009508Y010796D01*
X009562Y010894D02*
X008590Y010894D01*
X008590Y010993D02*
X009678Y010993D01*
X009792Y011260D02*
X009942Y011260D01*
X010062Y011210D01*
X012238Y011210D01*
X012310Y011240D01*
X012320Y011240D01*
X012327Y011247D01*
X012399Y011277D01*
X012523Y011401D01*
X012553Y011473D01*
X012560Y011480D01*
X012560Y011490D01*
X012590Y011562D01*
X012590Y011738D01*
X012560Y011810D01*
X012560Y011820D01*
X012553Y011827D01*
X012523Y011899D01*
X012399Y012023D01*
X012327Y012053D01*
X012320Y012060D01*
X012310Y012060D01*
X012238Y012090D01*
X010062Y012090D01*
X009942Y012040D01*
X009792Y012040D01*
X009649Y011981D01*
X009539Y011871D01*
X009480Y011728D01*
X009480Y011572D01*
X009539Y011429D01*
X009649Y011319D01*
X009792Y011260D01*
X009725Y011288D02*
X008590Y011288D01*
X008590Y011190D02*
X012820Y011190D01*
X012820Y011288D02*
X012410Y011288D01*
X012509Y011387D02*
X012820Y011387D01*
X012820Y011485D02*
X012560Y011485D01*
X012590Y011584D02*
X012820Y011584D01*
X012820Y011682D02*
X012590Y011682D01*
X012572Y011781D02*
X012820Y011781D01*
X012820Y011879D02*
X012531Y011879D01*
X012445Y011978D02*
X012820Y011978D01*
X012820Y012076D02*
X012271Y012076D01*
X012238Y012210D02*
X012310Y012240D01*
X012320Y012240D01*
X012327Y012247D01*
X012399Y012277D01*
X012523Y012401D01*
X012553Y012473D01*
X012560Y012480D01*
X012560Y012490D01*
X012590Y012562D01*
X012590Y012738D01*
X012560Y012810D01*
X012560Y012820D01*
X012553Y012827D01*
X012523Y012899D01*
X012399Y013023D01*
X012327Y013053D01*
X012320Y013060D01*
X012310Y013060D01*
X012238Y013090D01*
X010062Y013090D01*
X009942Y013040D01*
X009792Y013040D01*
X009649Y012981D01*
X009539Y012871D01*
X009480Y012728D01*
X009480Y012572D01*
X009539Y012429D01*
X009649Y012319D01*
X009792Y012260D01*
X009942Y012260D01*
X010062Y012210D01*
X012238Y012210D01*
X012390Y012273D02*
X012820Y012273D01*
X012820Y012175D02*
X008590Y012175D01*
X008590Y012273D02*
X009761Y012273D01*
X009597Y012372D02*
X008590Y012372D01*
X008590Y012470D02*
X009522Y012470D01*
X009482Y012569D02*
X008590Y012569D01*
X008590Y012667D02*
X009480Y012667D01*
X009496Y012766D02*
X008590Y012766D01*
X008590Y012864D02*
X009537Y012864D01*
X009631Y012963D02*
X008590Y012963D01*
X008590Y013061D02*
X009993Y013061D01*
X010062Y013210D02*
X012238Y013210D01*
X012310Y013240D01*
X012320Y013240D01*
X012327Y013247D01*
X012399Y013277D01*
X012523Y013401D01*
X012553Y013473D01*
X012560Y013480D01*
X012560Y013490D01*
X012590Y013562D01*
X012590Y013738D01*
X012560Y013810D01*
X012560Y013820D01*
X012553Y013827D01*
X012523Y013899D01*
X012399Y014023D01*
X012327Y014053D01*
X012320Y014060D01*
X012310Y014060D01*
X012238Y014090D01*
X010062Y014090D01*
X009942Y014040D01*
X009792Y014040D01*
X009649Y013981D01*
X009539Y013871D01*
X009480Y013728D01*
X009480Y013572D01*
X009539Y013429D01*
X009649Y013319D01*
X009792Y013260D01*
X009942Y013260D01*
X010062Y013210D01*
X009947Y013258D02*
X008590Y013258D01*
X008590Y013160D02*
X012820Y013160D01*
X012820Y013258D02*
X012353Y013258D01*
X012479Y013357D02*
X012820Y013357D01*
X012820Y013455D02*
X012545Y013455D01*
X012586Y013554D02*
X012820Y013554D01*
X012820Y013652D02*
X012590Y013652D01*
X012585Y013751D02*
X012820Y013751D01*
X012820Y013849D02*
X012544Y013849D01*
X012475Y013948D02*
X012820Y013948D01*
X012820Y014046D02*
X012344Y014046D01*
X012238Y014210D02*
X012310Y014240D01*
X012496Y014240D01*
X012560Y014304D01*
X012560Y014490D01*
X012590Y014562D01*
X012590Y014738D01*
X012560Y014810D01*
X012560Y014996D01*
X012496Y015060D01*
X012310Y015060D01*
X012238Y015090D01*
X010062Y015090D01*
X009942Y015040D01*
X009792Y015040D01*
X009649Y014981D01*
X009539Y014871D01*
X009480Y014728D01*
X009480Y014572D01*
X009539Y014429D01*
X009649Y014319D01*
X009792Y014260D01*
X009942Y014260D01*
X010062Y014210D01*
X012238Y014210D01*
X012499Y014243D02*
X012820Y014243D01*
X012820Y014145D02*
X008590Y014145D01*
X008590Y014243D02*
X009983Y014243D01*
X009956Y014046D02*
X008590Y014046D01*
X008590Y013948D02*
X009616Y013948D01*
X009530Y013849D02*
X008590Y013849D01*
X008590Y013751D02*
X009490Y013751D01*
X009480Y013652D02*
X008590Y013652D01*
X008590Y013554D02*
X009488Y013554D01*
X009529Y013455D02*
X008590Y013455D01*
X008590Y013357D02*
X009612Y013357D01*
X009627Y014342D02*
X008590Y014342D01*
X008590Y014440D02*
X009535Y014440D01*
X009494Y014539D02*
X008590Y014539D01*
X008590Y014637D02*
X009480Y014637D01*
X009483Y014736D02*
X008590Y014736D01*
X008590Y014834D02*
X009524Y014834D01*
X009601Y014933D02*
X008590Y014933D01*
X008590Y015031D02*
X009771Y015031D01*
X009785Y015228D02*
X008590Y015228D01*
X008590Y015130D02*
X012820Y015130D01*
X012820Y015228D02*
X010515Y015228D01*
X010531Y015231D02*
X010595Y015252D01*
X010655Y015282D01*
X010710Y015322D01*
X010758Y015370D01*
X010798Y015425D01*
X012820Y015425D01*
X012820Y015327D02*
X010715Y015327D01*
X010798Y015425D02*
X010828Y015485D01*
X010849Y015549D01*
X010860Y015616D01*
X010860Y015621D01*
X010179Y015621D01*
X010179Y015679D01*
X010121Y015679D01*
X010121Y016080D01*
X009836Y016080D01*
X009769Y016069D01*
X009705Y016048D01*
X009645Y016018D01*
X009590Y015978D01*
X009542Y015930D01*
X009502Y015875D01*
X009472Y015815D01*
X009451Y015751D01*
X009440Y015684D01*
X009440Y015679D01*
X010121Y015679D01*
X010121Y015621D01*
X010179Y015621D01*
X010179Y015220D01*
X010464Y015220D01*
X010531Y015231D01*
X010841Y015524D02*
X012820Y015524D01*
X012820Y015622D02*
X010179Y015622D01*
X010179Y015679D02*
X010860Y015679D01*
X010860Y015684D01*
X010849Y015751D01*
X010828Y015815D01*
X010798Y015875D01*
X010758Y015930D01*
X010710Y015978D01*
X010655Y016018D01*
X010595Y016048D01*
X010531Y016069D01*
X010464Y016080D01*
X010179Y016080D01*
X010179Y015679D01*
X010179Y015721D02*
X010121Y015721D01*
X010121Y015819D02*
X010179Y015819D01*
X010179Y015918D02*
X010121Y015918D01*
X010121Y016016D02*
X010179Y016016D01*
X010245Y016213D02*
X011433Y016213D01*
X011392Y016312D02*
X010632Y016312D01*
X010742Y016410D02*
X011351Y016410D01*
X011320Y016509D02*
X010794Y016509D01*
X010820Y016607D02*
X011320Y016607D01*
X011320Y016706D02*
X010820Y016706D01*
X010788Y016804D02*
X011320Y016804D01*
X011356Y016903D02*
X010729Y016903D01*
X010602Y017001D02*
X011397Y017001D01*
X011438Y017100D02*
X009063Y017100D01*
X008921Y017198D02*
X011524Y017198D01*
X011623Y017297D02*
X006923Y017297D01*
X006919Y017300D02*
X006700Y017300D01*
X006700Y016700D01*
X007300Y016700D01*
X007300Y016919D01*
X006919Y017300D01*
X007021Y017198D02*
X008379Y017198D01*
X008237Y017100D02*
X007120Y017100D01*
X007218Y017001D02*
X008138Y017001D01*
X008094Y016903D02*
X007300Y016903D01*
X007300Y016804D02*
X008054Y016804D01*
X008040Y016706D02*
X007300Y016706D01*
X007300Y016600D02*
X006700Y016600D01*
X006700Y016700D01*
X006600Y016700D01*
X006600Y017300D01*
X006381Y017300D01*
X006000Y016919D01*
X006000Y016700D01*
X006600Y016700D01*
X006600Y016600D01*
X006700Y016600D01*
X006700Y016000D01*
X006919Y016000D01*
X007300Y016381D01*
X007300Y016600D01*
X007300Y016509D02*
X008048Y016509D01*
X008040Y016607D02*
X006700Y016607D01*
X006700Y016509D02*
X006600Y016509D01*
X006600Y016600D02*
X006600Y016000D01*
X006381Y016000D01*
X006000Y016381D01*
X006000Y016600D01*
X006600Y016600D01*
X006600Y016607D02*
X005540Y016607D01*
X005540Y016572D02*
X005481Y016429D01*
X005371Y016319D01*
X005228Y016260D01*
X005072Y016260D01*
X004929Y016319D01*
X004819Y016429D01*
X004760Y016572D01*
X004760Y016728D01*
X004819Y016871D01*
X004929Y016981D01*
X005072Y017040D01*
X005228Y017040D01*
X005371Y016981D01*
X005481Y016871D01*
X005540Y016728D01*
X005540Y016572D01*
X005514Y016509D02*
X006000Y016509D01*
X006000Y016410D02*
X005462Y016410D01*
X005352Y016312D02*
X006069Y016312D01*
X006168Y016213D02*
X002367Y016213D01*
X002408Y016312D02*
X004948Y016312D01*
X004838Y016410D02*
X002449Y016410D01*
X002480Y016509D02*
X004786Y016509D01*
X004760Y016607D02*
X002480Y016607D01*
X002480Y016706D02*
X004760Y016706D01*
X004792Y016804D02*
X002480Y016804D01*
X002444Y016903D02*
X004851Y016903D01*
X004978Y017001D02*
X002403Y017001D01*
X002362Y017100D02*
X006180Y017100D01*
X006279Y017198D02*
X002276Y017198D01*
X002177Y017297D02*
X006377Y017297D01*
X006600Y017297D02*
X006700Y017297D01*
X006700Y017198D02*
X006600Y017198D01*
X006600Y017100D02*
X006700Y017100D01*
X006700Y017001D02*
X006600Y017001D01*
X006600Y016903D02*
X006700Y016903D01*
X006700Y016804D02*
X006600Y016804D01*
X006600Y016706D02*
X006700Y016706D01*
X006700Y016410D02*
X006600Y016410D01*
X006600Y016312D02*
X006700Y016312D01*
X006700Y016213D02*
X006600Y016213D01*
X006600Y016115D02*
X006700Y016115D01*
X006700Y016016D02*
X006600Y016016D01*
X006365Y016016D02*
X005285Y016016D01*
X005228Y016040D02*
X005072Y016040D01*
X004929Y015981D01*
X004819Y015871D01*
X004760Y015728D01*
X004760Y015572D01*
X004819Y015429D01*
X004929Y015319D01*
X005072Y015260D01*
X005228Y015260D01*
X005371Y015319D01*
X005481Y015429D01*
X005540Y015572D01*
X005540Y015728D01*
X005481Y015871D01*
X005371Y015981D01*
X005228Y016040D01*
X005434Y015918D02*
X007795Y015918D01*
X007744Y015819D02*
X005502Y015819D01*
X005540Y015721D02*
X007710Y015721D01*
X007710Y015622D02*
X005540Y015622D01*
X005520Y015524D02*
X007710Y015524D01*
X007710Y015425D02*
X005477Y015425D01*
X005378Y015327D02*
X007710Y015327D01*
X007710Y015228D02*
X000850Y015228D01*
X000850Y015130D02*
X007710Y015130D01*
X007710Y015031D02*
X005249Y015031D01*
X005228Y015040D02*
X005072Y015040D01*
X004929Y014981D01*
X004819Y014871D01*
X004760Y014728D01*
X004760Y014572D01*
X004819Y014429D01*
X004929Y014319D01*
X005072Y014260D01*
X005228Y014260D01*
X005371Y014319D01*
X005481Y014429D01*
X005540Y014572D01*
X005540Y014728D01*
X005481Y014871D01*
X005371Y014981D01*
X005228Y015040D01*
X005051Y015031D02*
X000850Y015031D01*
X000850Y014933D02*
X002180Y014933D01*
X002192Y014940D02*
X002158Y014920D01*
X002130Y014892D01*
X002110Y014858D01*
X002100Y014820D01*
X002100Y014450D01*
X002600Y014450D01*
X002600Y014950D01*
X002230Y014950D01*
X002192Y014940D01*
X002104Y014834D02*
X000850Y014834D01*
X000850Y014736D02*
X002100Y014736D01*
X002100Y014637D02*
X000850Y014637D01*
X000850Y014539D02*
X002100Y014539D01*
X002100Y014350D02*
X002100Y013980D01*
X002110Y013942D01*
X002130Y013908D01*
X002158Y013880D01*
X002192Y013860D01*
X002230Y013850D01*
X002600Y013850D01*
X002600Y014350D01*
X002700Y014350D01*
X002700Y014450D01*
X002600Y014450D01*
X002600Y014350D01*
X002100Y014350D01*
X002100Y014342D02*
X000850Y014342D01*
X000850Y014440D02*
X002600Y014440D01*
X002600Y014342D02*
X002700Y014342D01*
X002700Y014350D02*
X002700Y013850D01*
X003070Y013850D01*
X003108Y013860D01*
X003142Y013880D01*
X003170Y013908D01*
X003190Y013942D01*
X003200Y013980D01*
X003200Y014350D01*
X002700Y014350D01*
X002700Y014440D02*
X004815Y014440D01*
X004774Y014539D02*
X003200Y014539D01*
X003200Y014450D02*
X003200Y014820D01*
X003190Y014858D01*
X003170Y014892D01*
X003142Y014920D01*
X003108Y014940D01*
X003070Y014950D01*
X002700Y014950D01*
X002700Y014450D01*
X003200Y014450D01*
X003200Y014342D02*
X004907Y014342D01*
X004760Y014637D02*
X003200Y014637D01*
X003200Y014736D02*
X004763Y014736D01*
X004804Y014834D02*
X003196Y014834D01*
X003120Y014933D02*
X004881Y014933D01*
X004922Y015327D02*
X000850Y015327D01*
X000850Y015425D02*
X004823Y015425D01*
X004780Y015524D02*
X000850Y015524D01*
X000850Y015622D02*
X004760Y015622D01*
X004760Y015721D02*
X000850Y015721D01*
X000850Y015819D02*
X004798Y015819D01*
X004866Y015918D02*
X002050Y015918D01*
X002190Y016016D02*
X005015Y016016D01*
X005540Y016706D02*
X006000Y016706D01*
X006000Y016804D02*
X005508Y016804D01*
X005449Y016903D02*
X006000Y016903D01*
X006082Y017001D02*
X005322Y017001D01*
X006266Y016115D02*
X002288Y016115D01*
X002600Y014933D02*
X002700Y014933D01*
X002700Y014834D02*
X002600Y014834D01*
X002600Y014736D02*
X002700Y014736D01*
X002700Y014637D02*
X002600Y014637D01*
X002600Y014539D02*
X002700Y014539D01*
X002700Y014243D02*
X002600Y014243D01*
X002600Y014145D02*
X002700Y014145D01*
X002700Y014046D02*
X002600Y014046D01*
X002600Y013948D02*
X002700Y013948D01*
X003191Y013948D02*
X004896Y013948D01*
X004810Y013849D02*
X000850Y013849D01*
X000850Y013751D02*
X004770Y013751D01*
X004760Y013652D02*
X000850Y013652D01*
X000850Y013554D02*
X002077Y013554D01*
X001979Y013455D02*
X000850Y013455D01*
X000850Y013357D02*
X001880Y013357D01*
X001782Y013258D02*
X000850Y013258D01*
X000850Y013160D02*
X001740Y013160D01*
X001740Y013061D02*
X000850Y013061D01*
X000850Y012963D02*
X001740Y012963D01*
X001740Y012864D02*
X000850Y012864D01*
X000850Y012766D02*
X001740Y012766D01*
X001740Y012667D02*
X000850Y012667D01*
X000850Y012569D02*
X001740Y012569D01*
X001740Y012470D02*
X000850Y012470D01*
X000850Y012372D02*
X001740Y012372D01*
X001740Y012273D02*
X000850Y012273D01*
X000850Y012175D02*
X001740Y012175D01*
X001740Y012076D02*
X000850Y012076D01*
X000850Y011978D02*
X001740Y011978D01*
X001740Y011879D02*
X000850Y011879D01*
X000850Y011781D02*
X001740Y011781D01*
X001740Y011682D02*
X000850Y011682D01*
X000850Y011584D02*
X001740Y011584D01*
X001839Y011485D02*
X000850Y011485D01*
X000850Y011387D02*
X001937Y011387D01*
X002036Y011288D02*
X000850Y011288D01*
X000850Y011190D02*
X002134Y011190D01*
X002233Y011091D02*
X000850Y011091D01*
X000850Y010993D02*
X002331Y010993D01*
X002430Y010894D02*
X000850Y010894D01*
X000850Y010796D02*
X002528Y010796D01*
X002627Y010697D02*
X000850Y010697D01*
X000850Y010599D02*
X002725Y010599D01*
X002824Y010500D02*
X000850Y010500D01*
X000850Y010402D02*
X002922Y010402D01*
X003021Y010303D02*
X000850Y010303D01*
X000850Y010205D02*
X003119Y010205D01*
X003218Y010106D02*
X000850Y010106D01*
X000850Y010008D02*
X003316Y010008D01*
X002360Y011190D02*
X005990Y011190D01*
X005990Y011288D02*
X005295Y011288D01*
X005228Y011260D02*
X005371Y011319D01*
X005481Y011429D01*
X005540Y011572D01*
X005540Y011728D01*
X005481Y011871D01*
X005371Y011981D01*
X005228Y012040D01*
X005072Y012040D01*
X004929Y011981D01*
X004819Y011871D01*
X004760Y011728D01*
X004760Y011572D01*
X004819Y011429D01*
X004929Y011319D01*
X005072Y011260D01*
X005228Y011260D01*
X005438Y011387D02*
X006057Y011387D01*
X006155Y011485D02*
X005504Y011485D01*
X005540Y011584D02*
X008150Y011584D01*
X008150Y011682D02*
X005540Y011682D01*
X005518Y011781D02*
X006190Y011781D01*
X006091Y011879D02*
X005473Y011879D01*
X005374Y011978D02*
X005993Y011978D01*
X005990Y012076D02*
X003072Y012076D01*
X003070Y012073D02*
X003120Y012143D01*
X003160Y012220D01*
X003186Y012303D01*
X003199Y012381D01*
X002700Y012381D01*
X002700Y011883D01*
X002779Y011895D01*
X002861Y011922D01*
X002938Y011961D01*
X003008Y012012D01*
X003070Y012073D01*
X003136Y012175D02*
X005990Y012175D01*
X005990Y012273D02*
X005259Y012273D01*
X005228Y012260D02*
X005371Y012319D01*
X005481Y012429D01*
X005540Y012572D01*
X005540Y012728D01*
X005481Y012871D01*
X005371Y012981D01*
X005228Y013040D01*
X005072Y013040D01*
X004929Y012981D01*
X004819Y012871D01*
X004760Y012728D01*
X004760Y012572D01*
X004819Y012429D01*
X004929Y012319D01*
X005072Y012260D01*
X005228Y012260D01*
X005041Y012273D02*
X003177Y012273D01*
X003197Y012372D02*
X004877Y012372D01*
X004802Y012470D02*
X002700Y012470D01*
X002700Y012481D02*
X003199Y012481D01*
X003186Y012560D01*
X003160Y012643D01*
X003120Y012720D01*
X003070Y012790D01*
X003008Y012851D01*
X002938Y012902D01*
X002861Y012941D01*
X002779Y012968D01*
X002700Y012980D01*
X002700Y012482D01*
X002600Y012482D01*
X002600Y012980D01*
X002521Y012968D01*
X002439Y012941D01*
X002362Y012902D01*
X002292Y012851D01*
X002230Y012790D01*
X002180Y012720D01*
X002140Y012643D01*
X002114Y012560D01*
X002101Y012481D01*
X002600Y012481D01*
X002600Y012381D01*
X002700Y012381D01*
X002700Y012481D01*
X002700Y012569D02*
X002600Y012569D01*
X002600Y012667D02*
X002700Y012667D01*
X002700Y012766D02*
X002600Y012766D01*
X002600Y012864D02*
X002700Y012864D01*
X002700Y012963D02*
X002600Y012963D01*
X002505Y012963D02*
X001900Y012963D01*
X001900Y013061D02*
X008150Y013061D01*
X008150Y012963D02*
X005389Y012963D01*
X005483Y012864D02*
X008150Y012864D01*
X008150Y012766D02*
X005524Y012766D01*
X005540Y012667D02*
X008150Y012667D01*
X008150Y012569D02*
X005538Y012569D01*
X005498Y012470D02*
X006140Y012470D01*
X006042Y012372D02*
X005423Y012372D01*
X004926Y011978D02*
X002961Y011978D01*
X002700Y011978D02*
X002600Y011978D01*
X002600Y011883D02*
X002600Y012381D01*
X002101Y012381D01*
X002114Y012303D01*
X002140Y012220D01*
X002180Y012143D01*
X002230Y012073D01*
X002292Y012012D01*
X002362Y011961D01*
X002439Y011922D01*
X002521Y011895D01*
X002600Y011883D01*
X002600Y012076D02*
X002700Y012076D01*
X002700Y012175D02*
X002600Y012175D01*
X002600Y012273D02*
X002700Y012273D01*
X002700Y012372D02*
X002600Y012372D01*
X002600Y012470D02*
X001900Y012470D01*
X001900Y012372D02*
X002103Y012372D01*
X002123Y012273D02*
X001900Y012273D01*
X001900Y012175D02*
X002164Y012175D01*
X002228Y012076D02*
X001900Y012076D01*
X001900Y011978D02*
X002339Y011978D01*
X001966Y011584D02*
X004760Y011584D01*
X004760Y011682D02*
X001900Y011682D01*
X001900Y011781D02*
X004782Y011781D01*
X004827Y011879D02*
X001900Y011879D01*
X002065Y011485D02*
X004796Y011485D01*
X004862Y011387D02*
X002163Y011387D01*
X002262Y011288D02*
X005005Y011288D01*
X004762Y012569D02*
X003184Y012569D01*
X003147Y012667D02*
X004760Y012667D01*
X004776Y012766D02*
X003087Y012766D01*
X002990Y012864D02*
X004817Y012864D01*
X004911Y012963D02*
X002795Y012963D01*
X002310Y012864D02*
X001900Y012864D01*
X001900Y012766D02*
X002213Y012766D01*
X002153Y012667D02*
X001900Y012667D01*
X001900Y012569D02*
X002116Y012569D01*
X001910Y013160D02*
X004140Y013160D01*
X004042Y013258D02*
X002008Y013258D01*
X002107Y013357D02*
X003943Y013357D01*
X004071Y013455D02*
X004809Y013455D01*
X004768Y013554D02*
X003973Y013554D01*
X004170Y013357D02*
X004892Y013357D01*
X005408Y013357D02*
X007710Y013357D01*
X007710Y013455D02*
X005491Y013455D01*
X005532Y013554D02*
X007710Y013554D01*
X007710Y013652D02*
X005540Y013652D01*
X005530Y013751D02*
X007710Y013751D01*
X007710Y013849D02*
X005490Y013849D01*
X005404Y013948D02*
X007710Y013948D01*
X007710Y014046D02*
X003200Y014046D01*
X003200Y014145D02*
X007710Y014145D01*
X007710Y014243D02*
X003200Y014243D01*
X002100Y014243D02*
X000850Y014243D01*
X000850Y014145D02*
X002100Y014145D01*
X002100Y014046D02*
X000850Y014046D01*
X000850Y013948D02*
X002109Y013948D01*
X001250Y015918D02*
X000850Y015918D01*
X000850Y016016D02*
X001110Y016016D01*
X001012Y016115D02*
X000850Y016115D01*
X000850Y016213D02*
X000933Y016213D01*
X000892Y016312D02*
X000850Y016312D01*
X000850Y016410D02*
X000851Y016410D01*
X002020Y017395D02*
X011780Y017395D01*
X011512Y016115D02*
X009090Y016115D01*
X009071Y016016D02*
X009642Y016016D01*
X009533Y015918D02*
X009030Y015918D01*
X008941Y015819D02*
X009474Y015819D01*
X009446Y015721D02*
X008843Y015721D01*
X008744Y015622D02*
X010121Y015622D01*
X010121Y015621D02*
X009440Y015621D01*
X009440Y015616D01*
X009451Y015549D01*
X009472Y015485D01*
X009502Y015425D01*
X008590Y015425D01*
X008590Y015327D02*
X009585Y015327D01*
X009590Y015322D02*
X009645Y015282D01*
X009705Y015252D01*
X009769Y015231D01*
X009836Y015220D01*
X010121Y015220D01*
X010121Y015621D01*
X010121Y015524D02*
X010179Y015524D01*
X010179Y015425D02*
X010121Y015425D01*
X010121Y015327D02*
X010179Y015327D01*
X010179Y015228D02*
X010121Y015228D01*
X009590Y015322D02*
X009542Y015370D01*
X009502Y015425D01*
X009459Y015524D02*
X008646Y015524D01*
X007992Y016115D02*
X007034Y016115D01*
X007132Y016213D02*
X008091Y016213D01*
X008130Y016312D02*
X007231Y016312D01*
X007300Y016410D02*
X008089Y016410D01*
X007894Y016016D02*
X006935Y016016D01*
X007710Y014933D02*
X005419Y014933D01*
X005496Y014834D02*
X007710Y014834D01*
X007710Y014736D02*
X005537Y014736D01*
X005540Y014637D02*
X007710Y014637D01*
X007710Y014539D02*
X005526Y014539D01*
X005485Y014440D02*
X007710Y014440D01*
X007710Y014342D02*
X005393Y014342D01*
X008590Y012076D02*
X010029Y012076D01*
X009646Y011978D02*
X008590Y011978D01*
X008590Y011879D02*
X009547Y011879D01*
X009502Y011781D02*
X008590Y011781D01*
X008590Y011682D02*
X009480Y011682D01*
X009480Y011584D02*
X008590Y011584D01*
X008590Y011485D02*
X009516Y011485D01*
X009582Y011387D02*
X008590Y011387D01*
X008590Y011091D02*
X012820Y011091D01*
X012820Y010993D02*
X010622Y010993D01*
X010738Y010894D02*
X012820Y010894D01*
X012820Y010796D02*
X010792Y010796D01*
X010820Y010697D02*
X012820Y010697D01*
X012820Y010599D02*
X010820Y010599D01*
X010790Y010500D02*
X012820Y010500D01*
X012820Y010402D02*
X010733Y010402D01*
X010611Y010303D02*
X012820Y010303D01*
X012820Y010205D02*
X008718Y010205D01*
X009090Y009121D02*
X012820Y009121D01*
X012820Y012372D02*
X012494Y012372D01*
X012552Y012470D02*
X012820Y012470D01*
X012820Y012569D02*
X012590Y012569D01*
X012590Y012667D02*
X012820Y012667D01*
X012820Y012766D02*
X012578Y012766D01*
X012538Y012864D02*
X012820Y012864D01*
X012820Y012963D02*
X012460Y012963D01*
X012307Y013061D02*
X012820Y013061D01*
X012820Y014342D02*
X012560Y014342D01*
X012560Y014440D02*
X012820Y014440D01*
X012820Y014539D02*
X012580Y014539D01*
X012590Y014637D02*
X012820Y014637D01*
X012820Y014736D02*
X012590Y014736D01*
X012560Y014834D02*
X012820Y014834D01*
X012820Y014933D02*
X012560Y014933D01*
X012525Y015031D02*
X012820Y015031D01*
X012820Y015721D02*
X010854Y015721D01*
X010826Y015819D02*
X012820Y015819D01*
X012820Y015918D02*
X012550Y015918D01*
X012690Y016016D02*
X012820Y016016D01*
X012820Y016115D02*
X012788Y016115D01*
X011750Y015918D02*
X010767Y015918D01*
X010658Y016016D02*
X011610Y016016D01*
X010179Y009318D02*
X010121Y009318D01*
X006103Y009023D02*
X005270Y009023D01*
X005428Y008924D02*
X006005Y008924D01*
X006000Y008826D02*
X005499Y008826D01*
X005540Y008727D02*
X006000Y008727D01*
X012452Y002423D02*
X012820Y002423D01*
X012820Y002325D02*
X012649Y002325D01*
X012748Y002226D02*
X012820Y002226D01*
D19*
X007150Y009400D03*
D20*
X007400Y009150D01*
X007400Y005150D01*
X002900Y005150D01*
X007400Y005150D02*
X007400Y004150D01*
D21*
X010150Y003650D02*
X012150Y003650D01*
X012150Y004650D02*
X010150Y004650D01*
X010150Y005650D02*
X012150Y005650D01*
X012150Y006650D02*
X010150Y006650D01*
X010150Y008650D02*
X008650Y008650D01*
X008650Y009650D01*
X008150Y010150D01*
X008150Y015650D01*
X008650Y016150D01*
X008650Y016650D01*
X010150Y016650D01*
X010150Y014650D02*
X012150Y014650D01*
X012150Y013650D02*
X010150Y013650D01*
X010150Y012650D02*
X012150Y012650D01*
X012150Y011650D02*
X010150Y011650D01*
M02*
