G75*
%MOIN*%
%OFA0B0*%
%FSLAX24Y24*%
%IPPOS*%
%LPD*%
%AMOC8*
5,1,8,0,0,1.08239X$1,22.5*
%
%ADD10C,0.1340*%
%ADD11C,0.0640*%
%ADD12C,0.0640*%
%ADD13R,0.0880X0.0880*%
%ADD14C,0.0880*%
%ADD15R,0.0680X0.0680*%
%ADD16OC8,0.0680*%
%ADD17C,0.1080*%
%ADD18OC8,0.1080*%
D10*
X001650Y001650D03*
X012150Y001650D03*
X012150Y016650D03*
X001650Y016650D03*
D11*
X005150Y016650D03*
X005150Y015650D03*
X005150Y014650D03*
X005150Y013650D03*
X005150Y012650D03*
X005150Y011650D03*
X005150Y010650D03*
X005150Y009650D03*
X005150Y008650D03*
X005150Y007650D03*
X005150Y006650D03*
X005150Y005650D03*
X005150Y004650D03*
X005150Y003650D03*
X005150Y002650D03*
X005150Y001650D03*
D12*
X009870Y001650D02*
X010430Y001650D01*
X010430Y002650D02*
X009870Y002650D01*
X009870Y003650D02*
X010430Y003650D01*
X010430Y004650D02*
X009870Y004650D01*
X009870Y005650D02*
X010430Y005650D01*
X010430Y006650D02*
X009870Y006650D01*
X009870Y007650D02*
X010430Y007650D01*
X010430Y008650D02*
X009870Y008650D01*
X009870Y009650D02*
X010430Y009650D01*
X010430Y010650D02*
X009870Y010650D01*
X009870Y011650D02*
X010430Y011650D01*
X010430Y012650D02*
X009870Y012650D01*
X009870Y013650D02*
X010430Y013650D01*
X010430Y014650D02*
X009870Y014650D01*
X009870Y015650D02*
X010430Y015650D01*
X010430Y016650D02*
X009870Y016650D01*
D13*
X002650Y014400D03*
D14*
X002650Y012431D03*
D15*
X001900Y009150D03*
X007400Y012150D03*
X012150Y014650D03*
X012150Y006650D03*
X007400Y004150D03*
D16*
X007400Y003150D03*
X007400Y002150D03*
X006400Y002150D03*
X006400Y003150D03*
X006400Y004150D03*
X002900Y005150D03*
X002900Y006150D03*
X002900Y007150D03*
X002900Y008150D03*
X002900Y009150D03*
X001900Y008150D03*
X001900Y007150D03*
X001900Y006150D03*
X001900Y005150D03*
X006400Y010150D03*
X006400Y011150D03*
X006400Y012150D03*
X007400Y011150D03*
X007400Y010150D03*
X012150Y011650D03*
X012150Y012650D03*
X012150Y013650D03*
X012150Y005650D03*
X012150Y004650D03*
X012150Y003650D03*
D17*
X008650Y008650D03*
X008650Y016650D03*
D18*
X006650Y016650D03*
X006650Y008650D03*
M02*
