G75*
%MOIN*%
%OFA0B0*%
%FSLAX24Y24*%
%IPPOS*%
%LPD*%
%AMOC8*
5,1,8,0,0,1.08239X$1,22.5*
%
%ADD10C,0.0040*%
%ADD11C,0.0060*%
%ADD12C,0.0050*%
%ADD13C,0.0020*%
%ADD14C,0.0030*%
%ADD15C,0.0080*%
%ADD16R,0.0250X0.0900*%
D10*
X006370Y006620D02*
X006370Y007526D01*
X006370Y008274D02*
X006370Y009180D01*
X008260Y009180D01*
X008930Y008510D01*
X008930Y008274D01*
X008930Y007526D02*
X008930Y007290D01*
X008260Y006620D01*
X006370Y006620D01*
X006489Y008274D02*
X006511Y008338D01*
X006538Y008401D01*
X006568Y008463D01*
X006601Y008522D01*
X006637Y008580D01*
X006677Y008636D01*
X006720Y008689D01*
X006765Y008740D01*
X006813Y008788D01*
X006864Y008833D01*
X006918Y008876D01*
X006974Y008915D01*
X007031Y008952D01*
X007091Y008985D01*
X007153Y009014D01*
X007216Y009040D01*
X007280Y009063D01*
X007346Y009082D01*
X007413Y009097D01*
X007480Y009108D01*
X007548Y009116D01*
X007616Y009120D01*
X007684Y009120D01*
X007752Y009116D01*
X007820Y009108D01*
X007887Y009097D01*
X007954Y009082D01*
X008020Y009063D01*
X008084Y009040D01*
X008147Y009014D01*
X008209Y008985D01*
X008269Y008952D01*
X008326Y008915D01*
X008382Y008876D01*
X008436Y008833D01*
X008487Y008788D01*
X008535Y008740D01*
X008580Y008689D01*
X008623Y008636D01*
X008663Y008580D01*
X008699Y008522D01*
X008732Y008463D01*
X008762Y008401D01*
X008789Y008338D01*
X008811Y008274D01*
X008811Y007526D02*
X008789Y007462D01*
X008762Y007399D01*
X008732Y007337D01*
X008699Y007278D01*
X008663Y007220D01*
X008623Y007164D01*
X008580Y007111D01*
X008535Y007060D01*
X008487Y007012D01*
X008436Y006967D01*
X008382Y006924D01*
X008326Y006885D01*
X008269Y006848D01*
X008209Y006815D01*
X008147Y006786D01*
X008084Y006760D01*
X008020Y006737D01*
X007954Y006718D01*
X007887Y006703D01*
X007820Y006692D01*
X007752Y006684D01*
X007684Y006680D01*
X007616Y006680D01*
X007548Y006684D01*
X007480Y006692D01*
X007413Y006703D01*
X007346Y006718D01*
X007280Y006737D01*
X007216Y006760D01*
X007153Y006786D01*
X007091Y006815D01*
X007031Y006848D01*
X006974Y006885D01*
X006918Y006924D01*
X006864Y006967D01*
X006813Y007012D01*
X006765Y007060D01*
X006720Y007111D01*
X006677Y007164D01*
X006637Y007220D01*
X006601Y007278D01*
X006568Y007337D01*
X006538Y007399D01*
X006511Y007462D01*
X006489Y007526D01*
X007920Y009920D02*
X007920Y010440D01*
X008093Y010267D01*
X008267Y010440D01*
X008267Y009920D01*
X008436Y010007D02*
X008522Y009920D01*
X008696Y009920D01*
X008783Y010007D01*
X008783Y010093D01*
X008696Y010180D01*
X008609Y010180D01*
X008696Y010180D02*
X008783Y010267D01*
X008783Y010354D01*
X008696Y010440D01*
X008522Y010440D01*
X008436Y010354D01*
X008436Y010920D02*
X008783Y011267D01*
X008783Y011354D01*
X008696Y011440D01*
X008522Y011440D01*
X008436Y011354D01*
X008267Y011440D02*
X008267Y010920D01*
X008436Y010920D02*
X008783Y010920D01*
X008267Y011440D02*
X008093Y011267D01*
X007920Y011440D01*
X007920Y010920D01*
X007920Y011920D02*
X007920Y012440D01*
X008093Y012267D01*
X008267Y012440D01*
X008267Y011920D01*
X008436Y011920D02*
X008783Y011920D01*
X008609Y011920D02*
X008609Y012440D01*
X008436Y012267D01*
X008260Y014620D02*
X006370Y014620D01*
X006370Y015526D01*
X006370Y016274D02*
X006370Y017180D01*
X008260Y017180D01*
X008930Y016510D01*
X008930Y016274D01*
X008930Y015526D02*
X008930Y015290D01*
X008260Y014620D01*
X008811Y016274D02*
X008789Y016338D01*
X008762Y016401D01*
X008732Y016463D01*
X008699Y016522D01*
X008663Y016580D01*
X008623Y016636D01*
X008580Y016689D01*
X008535Y016740D01*
X008487Y016788D01*
X008436Y016833D01*
X008382Y016876D01*
X008326Y016915D01*
X008269Y016952D01*
X008209Y016985D01*
X008147Y017014D01*
X008084Y017040D01*
X008020Y017063D01*
X007954Y017082D01*
X007887Y017097D01*
X007820Y017108D01*
X007752Y017116D01*
X007684Y017120D01*
X007616Y017120D01*
X007548Y017116D01*
X007480Y017108D01*
X007413Y017097D01*
X007346Y017082D01*
X007280Y017063D01*
X007216Y017040D01*
X007153Y017014D01*
X007091Y016985D01*
X007031Y016952D01*
X006974Y016915D01*
X006918Y016876D01*
X006864Y016833D01*
X006813Y016788D01*
X006765Y016740D01*
X006720Y016689D01*
X006677Y016636D01*
X006637Y016580D01*
X006601Y016522D01*
X006568Y016463D01*
X006538Y016401D01*
X006511Y016338D01*
X006489Y016274D01*
X006489Y015526D02*
X006511Y015462D01*
X006538Y015399D01*
X006568Y015337D01*
X006601Y015278D01*
X006637Y015220D01*
X006677Y015164D01*
X006720Y015111D01*
X006765Y015060D01*
X006813Y015012D01*
X006864Y014967D01*
X006918Y014924D01*
X006974Y014885D01*
X007031Y014848D01*
X007091Y014815D01*
X007153Y014786D01*
X007216Y014760D01*
X007280Y014737D01*
X007346Y014718D01*
X007413Y014703D01*
X007480Y014692D01*
X007548Y014684D01*
X007616Y014680D01*
X007684Y014680D01*
X007752Y014684D01*
X007820Y014692D01*
X007887Y014703D01*
X007954Y014718D01*
X008020Y014737D01*
X008084Y014760D01*
X008147Y014786D01*
X008209Y014815D01*
X008269Y014848D01*
X008326Y014885D01*
X008382Y014924D01*
X008436Y014967D01*
X008487Y015012D01*
X008535Y015060D01*
X008580Y015111D01*
X008623Y015164D01*
X008663Y015220D01*
X008699Y015278D01*
X008732Y015337D01*
X008762Y015399D01*
X008789Y015462D01*
X008811Y015526D01*
X008609Y004440D02*
X008436Y004267D01*
X008609Y004440D02*
X008609Y003920D01*
X008436Y003920D02*
X008783Y003920D01*
X008696Y003440D02*
X008522Y003440D01*
X008436Y003354D01*
X008696Y003440D02*
X008783Y003354D01*
X008783Y003267D01*
X008436Y002920D01*
X008783Y002920D01*
X008696Y002440D02*
X008522Y002440D01*
X008436Y002354D01*
X008609Y002180D02*
X008696Y002180D01*
X008783Y002093D01*
X008783Y002007D01*
X008696Y001920D01*
X008522Y001920D01*
X008436Y002007D01*
X008696Y002180D02*
X008783Y002267D01*
X008783Y002354D01*
X008696Y002440D01*
X008267Y002440D02*
X008267Y001920D01*
X007920Y001920D02*
X007920Y002440D01*
X008093Y002267D01*
X008267Y002440D01*
X008267Y002920D02*
X008267Y003440D01*
X008093Y003267D01*
X007920Y003440D01*
X007920Y002920D01*
X007920Y003920D02*
X007920Y004440D01*
X008093Y004267D01*
X008267Y004440D01*
X008267Y003920D01*
D11*
X002893Y003535D02*
X002679Y003749D01*
X003320Y003749D01*
X003320Y003962D02*
X003320Y003535D01*
X003150Y004650D02*
X001650Y004650D01*
X001400Y004900D01*
X001400Y005400D01*
X001650Y005650D01*
X003150Y005650D01*
X003400Y005400D01*
X003400Y004900D01*
X003150Y004650D01*
X003150Y005650D02*
X003400Y005900D01*
X003400Y006400D01*
X003150Y006650D01*
X001650Y006650D01*
X001400Y006400D01*
X001400Y005900D01*
X001650Y005650D01*
X001650Y006650D02*
X001400Y006900D01*
X001400Y007400D01*
X001650Y007650D01*
X003150Y007650D01*
X003400Y007400D01*
X003400Y006900D01*
X003150Y006650D01*
X003150Y007650D02*
X003400Y007900D01*
X003400Y008400D01*
X003150Y008650D01*
X001650Y008650D01*
X001400Y008400D01*
X001400Y007900D01*
X001650Y007650D01*
X001650Y008650D02*
X001400Y008900D01*
X001400Y009400D01*
X001650Y009650D01*
X003150Y009650D01*
X003400Y009400D01*
X003400Y008900D01*
X003150Y008650D01*
X007200Y008650D02*
X007400Y008650D01*
X005900Y008650D02*
X005902Y008733D01*
X005908Y008816D01*
X005918Y008899D01*
X005932Y008981D01*
X005949Y009063D01*
X005971Y009143D01*
X005996Y009222D01*
X006025Y009300D01*
X006058Y009377D01*
X006095Y009452D01*
X006134Y009525D01*
X006178Y009596D01*
X006224Y009665D01*
X006274Y009732D01*
X006327Y009796D01*
X006383Y009858D01*
X006442Y009917D01*
X006504Y009973D01*
X006568Y010026D01*
X006635Y010076D01*
X006704Y010122D01*
X006775Y010166D01*
X006848Y010205D01*
X006923Y010242D01*
X007000Y010275D01*
X007078Y010304D01*
X007157Y010329D01*
X007237Y010351D01*
X007319Y010368D01*
X007401Y010382D01*
X007484Y010392D01*
X007567Y010398D01*
X007650Y010400D01*
X007733Y010398D01*
X007816Y010392D01*
X007899Y010382D01*
X007981Y010368D01*
X008063Y010351D01*
X008143Y010329D01*
X008222Y010304D01*
X008300Y010275D01*
X008377Y010242D01*
X008452Y010205D01*
X008525Y010166D01*
X008596Y010122D01*
X008665Y010076D01*
X008732Y010026D01*
X008796Y009973D01*
X008858Y009917D01*
X008917Y009858D01*
X008973Y009796D01*
X009026Y009732D01*
X009076Y009665D01*
X009122Y009596D01*
X009166Y009525D01*
X009205Y009452D01*
X009242Y009377D01*
X009275Y009300D01*
X009304Y009222D01*
X009329Y009143D01*
X009351Y009063D01*
X009368Y008981D01*
X009382Y008899D01*
X009392Y008816D01*
X009398Y008733D01*
X009400Y008650D01*
X009398Y008567D01*
X009392Y008484D01*
X009382Y008401D01*
X009368Y008319D01*
X009351Y008237D01*
X009329Y008157D01*
X009304Y008078D01*
X009275Y008000D01*
X009242Y007923D01*
X009205Y007848D01*
X009166Y007775D01*
X009122Y007704D01*
X009076Y007635D01*
X009026Y007568D01*
X008973Y007504D01*
X008917Y007442D01*
X008858Y007383D01*
X008796Y007327D01*
X008732Y007274D01*
X008665Y007224D01*
X008596Y007178D01*
X008525Y007134D01*
X008452Y007095D01*
X008377Y007058D01*
X008300Y007025D01*
X008222Y006996D01*
X008143Y006971D01*
X008063Y006949D01*
X007981Y006932D01*
X007899Y006918D01*
X007816Y006908D01*
X007733Y006902D01*
X007650Y006900D01*
X007567Y006902D01*
X007484Y006908D01*
X007401Y006918D01*
X007319Y006932D01*
X007237Y006949D01*
X007157Y006971D01*
X007078Y006996D01*
X007000Y007025D01*
X006923Y007058D01*
X006848Y007095D01*
X006775Y007134D01*
X006704Y007178D01*
X006635Y007224D01*
X006568Y007274D01*
X006504Y007327D01*
X006442Y007383D01*
X006383Y007442D01*
X006327Y007504D01*
X006274Y007568D01*
X006224Y007635D01*
X006178Y007704D01*
X006134Y007775D01*
X006095Y007848D01*
X006058Y007923D01*
X006025Y008000D01*
X005996Y008078D01*
X005971Y008157D01*
X005949Y008237D01*
X005932Y008319D01*
X005918Y008401D01*
X005908Y008484D01*
X005902Y008567D01*
X005900Y008650D01*
X007750Y008200D02*
X008000Y008200D01*
X008000Y008650D01*
X008000Y009100D01*
X007750Y009100D01*
X007750Y008200D01*
X008000Y008650D02*
X008100Y008650D01*
X008800Y008000D02*
X009100Y008000D01*
X008950Y007850D02*
X008950Y008150D01*
X011430Y008250D02*
X011644Y008250D01*
X011430Y007930D02*
X011857Y007930D01*
X012075Y008037D02*
X012181Y007930D01*
X012395Y007930D01*
X012502Y008037D01*
X012502Y008144D01*
X012395Y008250D01*
X012288Y008250D01*
X012395Y008250D02*
X012502Y008357D01*
X012502Y008464D01*
X012395Y008571D01*
X012181Y008571D01*
X012075Y008464D01*
X011857Y008571D02*
X011430Y008571D01*
X011430Y007930D01*
X011900Y007150D02*
X011650Y006900D01*
X011650Y006400D01*
X011900Y006150D01*
X011650Y005900D01*
X011650Y005400D01*
X011900Y005150D01*
X012400Y005150D01*
X012650Y005400D01*
X012650Y005900D01*
X012400Y006150D01*
X011900Y006150D01*
X012400Y006150D02*
X012650Y006400D01*
X012650Y006900D01*
X012400Y007150D01*
X011900Y007150D01*
X011900Y005150D02*
X011650Y004900D01*
X011650Y004400D01*
X011900Y004150D01*
X011650Y003900D01*
X011650Y003400D01*
X011900Y003150D01*
X012400Y003150D01*
X012650Y003400D01*
X012650Y003900D01*
X012400Y004150D01*
X011900Y004150D01*
X012400Y004150D02*
X012650Y004400D01*
X012650Y004900D01*
X012400Y005150D01*
X012395Y009930D02*
X012395Y010571D01*
X012075Y010250D01*
X012502Y010250D01*
X011857Y009930D02*
X011430Y009930D01*
X011430Y010571D01*
X011857Y010571D01*
X011644Y010250D02*
X011430Y010250D01*
X011900Y011150D02*
X011650Y011400D01*
X011650Y011900D01*
X011900Y012150D01*
X011650Y012400D01*
X011650Y012900D01*
X011900Y013150D01*
X011650Y013400D01*
X011650Y013900D01*
X011900Y014150D01*
X011650Y014400D01*
X011650Y014900D01*
X011900Y015150D01*
X012400Y015150D01*
X012650Y014900D01*
X012650Y014400D01*
X012400Y014150D01*
X012650Y013900D01*
X012650Y013400D01*
X012400Y013150D01*
X011900Y013150D01*
X012400Y013150D02*
X012650Y012900D01*
X012650Y012400D01*
X012400Y012150D01*
X012650Y011900D01*
X012650Y011400D01*
X012400Y011150D01*
X011900Y011150D01*
X011900Y012150D02*
X012400Y012150D01*
X012400Y014150D02*
X011900Y014150D01*
X009100Y016000D02*
X008800Y016000D01*
X008950Y015850D02*
X008950Y016150D01*
X008000Y016200D02*
X008000Y016650D01*
X008000Y017100D01*
X007750Y017100D01*
X007750Y016200D01*
X008000Y016200D01*
X008000Y016650D02*
X008100Y016650D01*
X005900Y016650D02*
X005902Y016733D01*
X005908Y016816D01*
X005918Y016899D01*
X005932Y016981D01*
X005949Y017063D01*
X005971Y017143D01*
X005996Y017222D01*
X006025Y017300D01*
X006058Y017377D01*
X006095Y017452D01*
X006134Y017525D01*
X006178Y017596D01*
X006224Y017665D01*
X006274Y017732D01*
X006327Y017796D01*
X006383Y017858D01*
X006442Y017917D01*
X006504Y017973D01*
X006568Y018026D01*
X006635Y018076D01*
X006704Y018122D01*
X006775Y018166D01*
X006848Y018205D01*
X006923Y018242D01*
X007000Y018275D01*
X007078Y018304D01*
X007157Y018329D01*
X007237Y018351D01*
X007319Y018368D01*
X007401Y018382D01*
X007484Y018392D01*
X007567Y018398D01*
X007650Y018400D01*
X007733Y018398D01*
X007816Y018392D01*
X007899Y018382D01*
X007981Y018368D01*
X008063Y018351D01*
X008143Y018329D01*
X008222Y018304D01*
X008300Y018275D01*
X008377Y018242D01*
X008452Y018205D01*
X008525Y018166D01*
X008596Y018122D01*
X008665Y018076D01*
X008732Y018026D01*
X008796Y017973D01*
X008858Y017917D01*
X008917Y017858D01*
X008973Y017796D01*
X009026Y017732D01*
X009076Y017665D01*
X009122Y017596D01*
X009166Y017525D01*
X009205Y017452D01*
X009242Y017377D01*
X009275Y017300D01*
X009304Y017222D01*
X009329Y017143D01*
X009351Y017063D01*
X009368Y016981D01*
X009382Y016899D01*
X009392Y016816D01*
X009398Y016733D01*
X009400Y016650D01*
X009398Y016567D01*
X009392Y016484D01*
X009382Y016401D01*
X009368Y016319D01*
X009351Y016237D01*
X009329Y016157D01*
X009304Y016078D01*
X009275Y016000D01*
X009242Y015923D01*
X009205Y015848D01*
X009166Y015775D01*
X009122Y015704D01*
X009076Y015635D01*
X009026Y015568D01*
X008973Y015504D01*
X008917Y015442D01*
X008858Y015383D01*
X008796Y015327D01*
X008732Y015274D01*
X008665Y015224D01*
X008596Y015178D01*
X008525Y015134D01*
X008452Y015095D01*
X008377Y015058D01*
X008300Y015025D01*
X008222Y014996D01*
X008143Y014971D01*
X008063Y014949D01*
X007981Y014932D01*
X007899Y014918D01*
X007816Y014908D01*
X007733Y014902D01*
X007650Y014900D01*
X007567Y014902D01*
X007484Y014908D01*
X007401Y014918D01*
X007319Y014932D01*
X007237Y014949D01*
X007157Y014971D01*
X007078Y014996D01*
X007000Y015025D01*
X006923Y015058D01*
X006848Y015095D01*
X006775Y015134D01*
X006704Y015178D01*
X006635Y015224D01*
X006568Y015274D01*
X006504Y015327D01*
X006442Y015383D01*
X006383Y015442D01*
X006327Y015504D01*
X006274Y015568D01*
X006224Y015635D01*
X006178Y015704D01*
X006134Y015775D01*
X006095Y015848D01*
X006058Y015923D01*
X006025Y016000D01*
X005996Y016078D01*
X005971Y016157D01*
X005949Y016237D01*
X005932Y016319D01*
X005918Y016401D01*
X005908Y016484D01*
X005902Y016567D01*
X005900Y016650D01*
X007200Y016650D02*
X007400Y016650D01*
X004396Y016464D02*
X004396Y016037D01*
X004289Y015930D01*
X003969Y015930D01*
X003969Y016571D01*
X004289Y016571D01*
X004396Y016464D01*
X003752Y016571D02*
X003752Y015930D01*
X003325Y016571D01*
X003325Y015930D01*
X003107Y016037D02*
X003107Y016250D01*
X002894Y016250D01*
X003107Y016037D02*
X003000Y015930D01*
X002787Y015930D01*
X002680Y016037D01*
X002680Y016464D01*
X002787Y016571D01*
X003000Y016571D01*
X003107Y016464D01*
D12*
X004650Y017150D02*
X004650Y009150D01*
X004650Y001150D01*
X005650Y001150D01*
X005650Y009150D01*
X004650Y009150D01*
X005650Y009150D01*
X005650Y017150D01*
X004650Y017150D01*
X009650Y017150D02*
X010650Y017150D01*
X010650Y009150D01*
X009650Y009150D01*
X009650Y001150D01*
X010650Y001150D01*
X010650Y009150D01*
X009650Y009150D01*
X009650Y017150D01*
D13*
X009336Y016640D02*
X009189Y016640D01*
X009262Y016640D02*
X009262Y016420D01*
X009115Y016457D02*
X009115Y016603D01*
X009078Y016640D01*
X009005Y016640D01*
X008968Y016603D01*
X008968Y016457D01*
X009005Y016420D01*
X009078Y016420D01*
X009115Y016457D01*
X008894Y016420D02*
X008894Y016640D01*
X008820Y016567D01*
X008747Y016640D01*
X008747Y016420D01*
X008673Y016493D02*
X008673Y016640D01*
X008673Y016493D02*
X008599Y016420D01*
X008526Y016493D01*
X008526Y016640D01*
X008784Y015640D02*
X008747Y015603D01*
X008747Y015457D01*
X008784Y015420D01*
X008857Y015420D01*
X008894Y015457D01*
X008894Y015530D01*
X008820Y015530D01*
X008894Y015603D02*
X008857Y015640D01*
X008784Y015640D01*
X008968Y015640D02*
X008968Y015420D01*
X009115Y015420D02*
X008968Y015640D01*
X009115Y015640D02*
X009115Y015420D01*
X009189Y015420D02*
X009189Y015640D01*
X009299Y015640D01*
X009336Y015603D01*
X009336Y015457D01*
X009299Y015420D01*
X009189Y015420D01*
X009189Y014640D02*
X009299Y014640D01*
X009336Y014603D01*
X009336Y014567D01*
X009299Y014530D01*
X009189Y014530D01*
X009115Y014567D02*
X009115Y014603D01*
X009078Y014640D01*
X009005Y014640D01*
X008968Y014603D01*
X009115Y014567D02*
X008968Y014420D01*
X009115Y014420D01*
X009189Y014420D02*
X009299Y014420D01*
X009336Y014457D01*
X009336Y014493D01*
X009299Y014530D01*
X009189Y014420D02*
X009189Y014640D01*
X009262Y013640D02*
X009336Y013567D01*
X009336Y013420D01*
X009336Y013530D02*
X009189Y013530D01*
X009189Y013567D02*
X009262Y013640D01*
X009189Y013567D02*
X009189Y013420D01*
X009115Y013420D02*
X008968Y013420D01*
X009115Y013567D01*
X009115Y013603D01*
X009078Y013640D01*
X009005Y013640D01*
X008968Y013603D01*
X009041Y012640D02*
X009041Y012420D01*
X008968Y012420D02*
X009115Y012420D01*
X009189Y012420D02*
X009189Y012567D01*
X009262Y012640D01*
X009336Y012567D01*
X009336Y012420D01*
X009336Y012530D02*
X009189Y012530D01*
X009041Y012640D02*
X008968Y012567D01*
X009041Y011640D02*
X008968Y011567D01*
X009041Y011640D02*
X009041Y011420D01*
X008968Y011420D02*
X009115Y011420D01*
X009189Y011420D02*
X009189Y011640D01*
X009299Y011640D01*
X009336Y011603D01*
X009336Y011567D01*
X009299Y011530D01*
X009189Y011530D01*
X009189Y011420D02*
X009299Y011420D01*
X009336Y011457D01*
X009336Y011493D01*
X009299Y011530D01*
X009299Y010640D02*
X009189Y010640D01*
X009189Y010420D01*
X009299Y010420D01*
X009336Y010457D01*
X009336Y010603D01*
X009299Y010640D01*
X009115Y010603D02*
X009115Y010457D01*
X009078Y010420D01*
X008968Y010420D01*
X008968Y010640D01*
X009078Y010640D01*
X009115Y010603D01*
X008894Y010640D02*
X008894Y010493D01*
X008820Y010420D01*
X008747Y010493D01*
X008747Y010640D01*
X008784Y009640D02*
X008747Y009603D01*
X008747Y009457D01*
X008784Y009420D01*
X008857Y009420D01*
X008894Y009457D01*
X008894Y009530D01*
X008820Y009530D01*
X008894Y009603D02*
X008857Y009640D01*
X008784Y009640D01*
X008968Y009640D02*
X009115Y009420D01*
X009115Y009640D01*
X009189Y009640D02*
X009299Y009640D01*
X009336Y009603D01*
X009336Y009457D01*
X009299Y009420D01*
X009189Y009420D01*
X009189Y009640D01*
X008968Y009640D02*
X008968Y009420D01*
X009005Y008640D02*
X008968Y008603D01*
X008968Y008457D01*
X009005Y008420D01*
X009078Y008420D01*
X009115Y008457D01*
X009115Y008603D01*
X009078Y008640D01*
X009005Y008640D01*
X008894Y008640D02*
X008894Y008420D01*
X008747Y008420D02*
X008747Y008640D01*
X008820Y008567D01*
X008894Y008640D01*
X008673Y008640D02*
X008673Y008493D01*
X008599Y008420D01*
X008526Y008493D01*
X008526Y008640D01*
X009189Y008640D02*
X009336Y008640D01*
X009262Y008640D02*
X009262Y008420D01*
X009299Y007640D02*
X009189Y007640D01*
X009189Y007420D01*
X009299Y007420D01*
X009336Y007457D01*
X009336Y007603D01*
X009299Y007640D01*
X009115Y007640D02*
X009115Y007420D01*
X008968Y007640D01*
X008968Y007420D01*
X008894Y007457D02*
X008894Y007530D01*
X008820Y007530D01*
X008747Y007457D02*
X008784Y007420D01*
X008857Y007420D01*
X008894Y007457D01*
X008894Y007603D02*
X008857Y007640D01*
X008784Y007640D01*
X008747Y007603D01*
X008747Y007457D01*
X009005Y006640D02*
X008968Y006603D01*
X009005Y006640D02*
X009078Y006640D01*
X009115Y006603D01*
X009115Y006567D01*
X008968Y006420D01*
X009115Y006420D01*
X009189Y006420D02*
X009189Y006640D01*
X009299Y006640D01*
X009336Y006603D01*
X009336Y006567D01*
X009299Y006530D01*
X009189Y006530D01*
X009189Y006420D02*
X009299Y006420D01*
X009336Y006457D01*
X009336Y006493D01*
X009299Y006530D01*
X009262Y005640D02*
X009336Y005567D01*
X009336Y005420D01*
X009336Y005530D02*
X009189Y005530D01*
X009189Y005567D02*
X009189Y005420D01*
X009115Y005420D02*
X008968Y005420D01*
X009115Y005567D01*
X009115Y005603D01*
X009078Y005640D01*
X009005Y005640D01*
X008968Y005603D01*
X009189Y005567D02*
X009262Y005640D01*
X009262Y004640D02*
X009336Y004567D01*
X009336Y004420D01*
X009336Y004530D02*
X009189Y004530D01*
X009189Y004567D02*
X009262Y004640D01*
X009189Y004567D02*
X009189Y004420D01*
X009115Y004420D02*
X008968Y004420D01*
X009041Y004420D02*
X009041Y004640D01*
X008968Y004567D01*
X009041Y003640D02*
X008968Y003567D01*
X009041Y003640D02*
X009041Y003420D01*
X008968Y003420D02*
X009115Y003420D01*
X009189Y003420D02*
X009189Y003640D01*
X009299Y003640D01*
X009336Y003603D01*
X009336Y003567D01*
X009299Y003530D01*
X009189Y003530D01*
X009189Y003420D02*
X009299Y003420D01*
X009336Y003457D01*
X009336Y003493D01*
X009299Y003530D01*
X009299Y002640D02*
X009189Y002640D01*
X009189Y002420D01*
X009299Y002420D01*
X009336Y002457D01*
X009336Y002603D01*
X009299Y002640D01*
X009115Y002603D02*
X009115Y002457D01*
X009078Y002420D01*
X008968Y002420D01*
X008968Y002640D01*
X009078Y002640D01*
X009115Y002603D01*
X008894Y002640D02*
X008894Y002493D01*
X008820Y002420D01*
X008747Y002493D01*
X008747Y002640D01*
X008784Y001640D02*
X008747Y001603D01*
X008747Y001457D01*
X008784Y001420D01*
X008857Y001420D01*
X008894Y001457D01*
X008894Y001530D01*
X008820Y001530D01*
X008894Y001603D02*
X008857Y001640D01*
X008784Y001640D01*
X008968Y001640D02*
X008968Y001420D01*
X009115Y001420D02*
X008968Y001640D01*
X009115Y001640D02*
X009115Y001420D01*
X009189Y001420D02*
X009189Y001640D01*
X009299Y001640D01*
X009336Y001603D01*
X009336Y001457D01*
X009299Y001420D01*
X009189Y001420D01*
X006720Y002770D02*
X006683Y002733D01*
X006573Y002733D01*
X006573Y002660D02*
X006573Y002880D01*
X006683Y002880D01*
X006720Y002843D01*
X006720Y002770D01*
X006499Y002660D02*
X006352Y002660D01*
X006352Y002880D01*
X006499Y002880D01*
X006425Y002770D02*
X006352Y002770D01*
X006278Y002880D02*
X006131Y002880D01*
X006204Y002880D02*
X006204Y002660D01*
X006057Y002697D02*
X006020Y002660D01*
X005947Y002660D01*
X005910Y002697D01*
X005947Y002770D02*
X005910Y002807D01*
X005910Y002843D01*
X005947Y002880D01*
X006020Y002880D01*
X006057Y002843D01*
X006020Y002770D02*
X006057Y002733D01*
X006057Y002697D01*
X006020Y002770D02*
X005947Y002770D01*
X005910Y001880D02*
X006020Y001880D01*
X006057Y001843D01*
X006057Y001697D01*
X006020Y001660D01*
X005910Y001660D01*
X005910Y001880D01*
X006131Y001880D02*
X006204Y001880D01*
X006168Y001880D02*
X006168Y001660D01*
X006204Y001660D02*
X006131Y001660D01*
X006278Y001660D02*
X006278Y001880D01*
X006388Y001880D01*
X006425Y001843D01*
X006425Y001770D01*
X006388Y001733D01*
X006278Y001733D01*
X006352Y001733D02*
X006425Y001660D01*
X006352Y003660D02*
X006352Y003880D01*
X006462Y003880D01*
X006499Y003843D01*
X006499Y003770D01*
X006462Y003733D01*
X006352Y003733D01*
X006278Y003660D02*
X006131Y003660D01*
X006131Y003880D01*
X006057Y003843D02*
X006020Y003880D01*
X005947Y003880D01*
X005910Y003843D01*
X005910Y003807D01*
X005947Y003770D01*
X006020Y003770D01*
X006057Y003733D01*
X006057Y003697D01*
X006020Y003660D01*
X005947Y003660D01*
X005910Y003697D01*
X005900Y003920D02*
X006563Y003920D01*
X006425Y004660D02*
X006425Y004880D01*
X006352Y004880D02*
X006499Y004880D01*
X006563Y004920D02*
X005900Y004920D01*
X005910Y004880D02*
X006020Y004880D01*
X006057Y004843D01*
X006057Y004770D01*
X006020Y004733D01*
X005910Y004733D01*
X005910Y004660D02*
X005910Y004880D01*
X005983Y004733D02*
X006057Y004660D01*
X006131Y004697D02*
X006168Y004660D01*
X006241Y004660D01*
X006278Y004697D01*
X006278Y004733D01*
X006241Y004770D01*
X006168Y004770D01*
X006131Y004807D01*
X006131Y004843D01*
X006168Y004880D01*
X006241Y004880D01*
X006278Y004843D01*
X006241Y005660D02*
X006168Y005660D01*
X006131Y005697D01*
X006168Y005770D02*
X006241Y005770D01*
X006278Y005733D01*
X006278Y005697D01*
X006241Y005660D01*
X006352Y005697D02*
X006389Y005660D01*
X006462Y005660D01*
X006499Y005697D01*
X006499Y005733D01*
X006462Y005770D01*
X006425Y005770D01*
X006462Y005770D02*
X006499Y005807D01*
X006499Y005843D01*
X006462Y005880D01*
X006389Y005880D01*
X006352Y005843D01*
X006278Y005843D02*
X006241Y005880D01*
X006168Y005880D01*
X006131Y005843D01*
X006131Y005807D01*
X006168Y005770D01*
X006057Y005880D02*
X006057Y005660D01*
X005910Y005660D02*
X005910Y005880D01*
X005983Y005807D01*
X006057Y005880D01*
X006057Y006660D02*
X006057Y006880D01*
X005983Y006807D01*
X005910Y006880D01*
X005910Y006660D01*
X006131Y006697D02*
X006168Y006660D01*
X006241Y006660D01*
X006278Y006697D01*
X006278Y006733D01*
X006241Y006770D01*
X006168Y006770D01*
X006131Y006807D01*
X006131Y006843D01*
X006168Y006880D01*
X006241Y006880D01*
X006278Y006843D01*
X006352Y006843D02*
X006389Y006880D01*
X006462Y006880D01*
X006499Y006843D01*
X006499Y006807D01*
X006352Y006660D01*
X006499Y006660D01*
X006499Y007660D02*
X006352Y007660D01*
X006425Y007660D02*
X006425Y007880D01*
X006352Y007807D01*
X006278Y007843D02*
X006241Y007880D01*
X006168Y007880D01*
X006131Y007843D01*
X006131Y007807D01*
X006168Y007770D01*
X006241Y007770D01*
X006278Y007733D01*
X006278Y007697D01*
X006241Y007660D01*
X006168Y007660D01*
X006131Y007697D01*
X006057Y007660D02*
X006057Y007880D01*
X005983Y007807D01*
X005910Y007880D01*
X005910Y007660D01*
X005910Y008660D02*
X006057Y008660D01*
X006131Y008660D02*
X006131Y008880D01*
X006278Y008660D01*
X006278Y008880D01*
X006342Y008920D02*
X005900Y008920D01*
X005910Y008880D02*
X005910Y008660D01*
X005910Y008770D02*
X005983Y008770D01*
X006057Y008880D02*
X005910Y008880D01*
X005910Y009660D02*
X006020Y009660D01*
X006057Y009697D01*
X006057Y009843D01*
X006020Y009880D01*
X005910Y009880D01*
X005910Y009660D01*
X006131Y009660D02*
X006204Y009660D01*
X006168Y009660D02*
X006168Y009880D01*
X006204Y009880D02*
X006131Y009880D01*
X006278Y009880D02*
X006278Y009660D01*
X006278Y009733D02*
X006388Y009733D01*
X006425Y009770D01*
X006425Y009843D01*
X006388Y009880D01*
X006278Y009880D01*
X006352Y009733D02*
X006425Y009660D01*
X006352Y010660D02*
X006499Y010660D01*
X006573Y010660D02*
X006573Y010880D01*
X006683Y010880D01*
X006720Y010843D01*
X006720Y010770D01*
X006683Y010733D01*
X006573Y010733D01*
X006425Y010770D02*
X006352Y010770D01*
X006352Y010880D02*
X006352Y010660D01*
X006204Y010660D02*
X006204Y010880D01*
X006131Y010880D02*
X006278Y010880D01*
X006352Y010880D02*
X006499Y010880D01*
X006057Y010843D02*
X006020Y010880D01*
X005947Y010880D01*
X005910Y010843D01*
X005910Y010807D01*
X005947Y010770D01*
X006020Y010770D01*
X006057Y010733D01*
X006057Y010697D01*
X006020Y010660D01*
X005947Y010660D01*
X005910Y010697D01*
X005947Y011660D02*
X005910Y011697D01*
X005947Y011660D02*
X006020Y011660D01*
X006057Y011697D01*
X006057Y011733D01*
X006020Y011770D01*
X005947Y011770D01*
X005910Y011807D01*
X005910Y011843D01*
X005947Y011880D01*
X006020Y011880D01*
X006057Y011843D01*
X006131Y011880D02*
X006131Y011660D01*
X006278Y011660D01*
X006352Y011660D02*
X006352Y011880D01*
X006462Y011880D01*
X006499Y011843D01*
X006499Y011770D01*
X006462Y011733D01*
X006352Y011733D01*
X006563Y011920D02*
X005900Y011920D01*
X005910Y012660D02*
X005910Y012880D01*
X006020Y012880D01*
X006057Y012843D01*
X006057Y012770D01*
X006020Y012733D01*
X005910Y012733D01*
X005983Y012733D02*
X006057Y012660D01*
X006131Y012697D02*
X006168Y012660D01*
X006241Y012660D01*
X006278Y012697D01*
X006278Y012733D01*
X006241Y012770D01*
X006168Y012770D01*
X006131Y012807D01*
X006131Y012843D01*
X006168Y012880D01*
X006241Y012880D01*
X006278Y012843D01*
X006352Y012880D02*
X006499Y012880D01*
X006425Y012880D02*
X006425Y012660D01*
X006563Y012920D02*
X005900Y012920D01*
X005910Y013660D02*
X005910Y013880D01*
X005983Y013807D01*
X006057Y013880D01*
X006057Y013660D01*
X006131Y013697D02*
X006168Y013660D01*
X006241Y013660D01*
X006278Y013697D01*
X006278Y013733D01*
X006241Y013770D01*
X006168Y013770D01*
X006131Y013807D01*
X006131Y013843D01*
X006168Y013880D01*
X006241Y013880D01*
X006278Y013843D01*
X006352Y013843D02*
X006389Y013880D01*
X006462Y013880D01*
X006499Y013843D01*
X006499Y013807D01*
X006462Y013770D01*
X006499Y013733D01*
X006499Y013697D01*
X006462Y013660D01*
X006389Y013660D01*
X006352Y013697D01*
X006425Y013770D02*
X006462Y013770D01*
X006499Y014660D02*
X006352Y014660D01*
X006499Y014807D01*
X006499Y014843D01*
X006462Y014880D01*
X006389Y014880D01*
X006352Y014843D01*
X006278Y014843D02*
X006241Y014880D01*
X006168Y014880D01*
X006131Y014843D01*
X006131Y014807D01*
X006168Y014770D01*
X006241Y014770D01*
X006278Y014733D01*
X006278Y014697D01*
X006241Y014660D01*
X006168Y014660D01*
X006131Y014697D01*
X006057Y014660D02*
X006057Y014880D01*
X005983Y014807D01*
X005910Y014880D01*
X005910Y014660D01*
X005910Y015660D02*
X005910Y015880D01*
X005983Y015807D01*
X006057Y015880D01*
X006057Y015660D01*
X006131Y015697D02*
X006168Y015660D01*
X006241Y015660D01*
X006278Y015697D01*
X006278Y015733D01*
X006241Y015770D01*
X006168Y015770D01*
X006131Y015807D01*
X006131Y015843D01*
X006168Y015880D01*
X006241Y015880D01*
X006278Y015843D01*
X006352Y015807D02*
X006425Y015880D01*
X006425Y015660D01*
X006352Y015660D02*
X006499Y015660D01*
X006278Y016660D02*
X006278Y016880D01*
X006342Y016920D02*
X005900Y016920D01*
X005910Y016880D02*
X005910Y016660D01*
X006057Y016660D01*
X006131Y016660D02*
X006131Y016880D01*
X006278Y016660D01*
X006057Y016880D02*
X005910Y016880D01*
X005910Y016770D02*
X005983Y016770D01*
D14*
X007099Y015508D02*
X007099Y015137D01*
X006976Y015137D02*
X007223Y015137D01*
X007344Y015199D02*
X007591Y015446D01*
X007591Y015199D01*
X007529Y015137D01*
X007406Y015137D01*
X007344Y015199D01*
X007344Y015446D01*
X007406Y015508D01*
X007529Y015508D01*
X007591Y015446D01*
X007713Y015446D02*
X007713Y015199D01*
X007960Y015446D01*
X007960Y015199D01*
X007898Y015137D01*
X007774Y015137D01*
X007713Y015199D01*
X007713Y015446D02*
X007774Y015508D01*
X007898Y015508D01*
X007960Y015446D01*
X008081Y015384D02*
X008081Y015199D01*
X008143Y015137D01*
X008328Y015137D01*
X008328Y015384D01*
X007099Y015508D02*
X006976Y015384D01*
X010845Y012332D02*
X011087Y012332D01*
X011135Y012283D01*
X011135Y012187D01*
X011087Y012138D01*
X010845Y012138D01*
X010845Y011844D02*
X011135Y011844D01*
X011135Y012037D01*
X011087Y011742D02*
X010893Y011742D01*
X010845Y011694D01*
X010845Y011597D01*
X010893Y011549D01*
X011087Y011549D01*
X011135Y011597D01*
X011135Y011694D01*
X011087Y011742D01*
X011135Y011448D02*
X011135Y011254D01*
X010845Y011254D01*
X010893Y011153D02*
X010845Y011105D01*
X010845Y011008D01*
X010893Y010960D01*
X011087Y010960D01*
X011135Y011008D01*
X011135Y011105D01*
X011087Y011153D01*
X010893Y011153D01*
X010893Y010858D02*
X010990Y010858D01*
X011038Y010810D01*
X011038Y010665D01*
X011135Y010665D02*
X010845Y010665D01*
X010845Y010810D01*
X010893Y010858D01*
X008328Y007384D02*
X008328Y007137D01*
X008143Y007137D01*
X008081Y007199D01*
X008081Y007384D01*
X007960Y007446D02*
X007960Y007199D01*
X007898Y007137D01*
X007774Y007137D01*
X007713Y007199D01*
X007960Y007446D01*
X007898Y007508D01*
X007774Y007508D01*
X007713Y007446D01*
X007713Y007199D01*
X007591Y007199D02*
X007529Y007137D01*
X007406Y007137D01*
X007344Y007199D01*
X007591Y007446D01*
X007591Y007199D01*
X007344Y007199D02*
X007344Y007446D01*
X007406Y007508D01*
X007529Y007508D01*
X007591Y007446D01*
X007223Y007137D02*
X006976Y007137D01*
X007099Y007137D02*
X007099Y007508D01*
X006976Y007384D01*
X010845Y004832D02*
X011087Y004832D01*
X011135Y004783D01*
X011135Y004687D01*
X011087Y004638D01*
X010845Y004638D01*
X010845Y004344D02*
X011135Y004344D01*
X011135Y004537D01*
X011087Y004242D02*
X010893Y004242D01*
X010845Y004194D01*
X010845Y004097D01*
X010893Y004049D01*
X011087Y004049D01*
X011135Y004097D01*
X011135Y004194D01*
X011087Y004242D01*
X011135Y003948D02*
X011135Y003754D01*
X010845Y003754D01*
X010893Y003653D02*
X010845Y003605D01*
X010845Y003508D01*
X010893Y003460D01*
X011087Y003460D01*
X011135Y003508D01*
X011135Y003605D01*
X011087Y003653D01*
X010893Y003653D01*
X010893Y003358D02*
X010990Y003358D01*
X011038Y003310D01*
X011038Y003165D01*
X011135Y003165D02*
X010845Y003165D01*
X010845Y003310D01*
X010893Y003358D01*
D15*
X004304Y011211D02*
X001744Y011211D01*
X001744Y015620D01*
X004304Y015620D01*
X004304Y011211D01*
X001744Y011211D02*
X001351Y011211D01*
X001351Y015620D01*
X001744Y015620D01*
D16*
X007425Y016650D03*
X007425Y008650D03*
M02*
