%
M48
M72
T01C0.0197
T02C0.0315
T03C0.0400
T04C0.0512
T05C0.1260
%
T01
X7150Y9400
T02
X5150Y9650
X5150Y10650
X5150Y11650
X5150Y12650
X5150Y13650
X5150Y14650
X5150Y15650
X5150Y16650
X10150Y16650
X10150Y15650
X10150Y14650
X10150Y13650
X10150Y12650
X10150Y11650
X10150Y10650
X10150Y9650
X10150Y8650
X10150Y7650
X10150Y6650
X10150Y5650
X10150Y4650
X10150Y3650
X10150Y2650
X10150Y1650
X5150Y1650
X5150Y2650
X5150Y3650
X5150Y4650
X5150Y5650
X5150Y6650
X5150Y7650
X5150Y8650
T03
X6400Y10150
X6400Y11150
X6400Y12150
X7400Y12150
X7400Y11150
X7400Y10150
X6650Y8650
X8650Y8650
X12150Y6650
X12150Y5650
X12150Y4650
X12150Y3650
X7400Y3150
X7400Y2150
X6400Y2150
X6400Y3150
X6400Y4150
X7400Y4150
X2900Y5150
X2900Y6150
X2900Y7150
X2900Y8150
X2900Y9150
X1900Y9150
X1900Y8150
X1900Y7150
X1900Y6150
X1900Y5150
X6650Y16650
X8650Y16650
X12150Y14650
X12150Y13650
X12150Y12650
X12150Y11650
T04
X2650Y12431
X2650Y14400
T05
X1650Y1650
X12150Y1650
X12150Y16650
X1650Y16650
M30
