%
M48
M72
T01C0.0197
T02C0.0315
T03C0.0400
T04C0.0472
T05C0.1260
%
T01
X7150Y9400
T02
X5150Y9650
X5150Y8650
X5150Y7650
X5150Y6650
X5150Y5650
X5150Y4650
X5150Y3650
X5150Y2650
X5150Y1650
X10150Y1650
X10150Y2650
X10150Y3650
X10150Y4650
X10150Y5650
X10150Y6650
X10150Y7650
X10150Y8650
X10150Y9650
X10150Y10650
X10150Y11650
X10150Y12650
X10150Y13650
X10150Y14650
X10150Y15650
X10150Y16650
X5150Y16650
X5150Y15650
X5150Y14650
X5150Y13650
X5150Y12650
X5150Y11650
X5150Y10650
T03
X6400Y11650
X6400Y12650
X6400Y13650
X7400Y13650
X7400Y12650
X7400Y11650
X7400Y5650
X7400Y4650
X7400Y3650
X6400Y3650
X6400Y4650
X6400Y5650
X2650Y5650
X2650Y6650
X2650Y7650
X2650Y8650
X2650Y9650
X1650Y9650
X1650Y8650
X1650Y7650
X1650Y6650
X1650Y5650
X12150Y5650
X12150Y4650
X12150Y3650
X12150Y6650
X12150Y11650
X12150Y12650
X12150Y13650
X12150Y14650
T04
X2650Y13650
X2650Y12272
T05
X1650Y1650
X12150Y1650
X12150Y16650
X1650Y16650
M30
