G75*
%MOIN*%
%OFA0B0*%
%FSLAX24Y24*%
%IPPOS*%
%LPD*%
%AMOC8*
5,1,8,0,0,1.08239X$1,22.5*
%
%ADD10C,0.0000*%
%ADD11C,0.0560*%
%ADD12C,0.0560*%
%ADD13R,0.0800X0.0800*%
%ADD14C,0.0800*%
%ADD15R,0.0600X0.0600*%
%ADD16OC8,0.0600*%
%ADD17R,0.1181X0.0551*%
%ADD18C,0.0100*%
%ADD19C,0.0160*%
%ADD20C,0.0337*%
%ADD21C,0.0660*%
D10*
X000650Y000650D02*
X000650Y017646D01*
X013020Y017646D01*
X013020Y000650D01*
X000650Y000650D01*
X001020Y001650D02*
X001022Y001700D01*
X001028Y001750D01*
X001038Y001799D01*
X001052Y001847D01*
X001069Y001894D01*
X001090Y001939D01*
X001115Y001983D01*
X001143Y002024D01*
X001175Y002063D01*
X001209Y002100D01*
X001246Y002134D01*
X001286Y002164D01*
X001328Y002191D01*
X001372Y002215D01*
X001418Y002236D01*
X001465Y002252D01*
X001513Y002265D01*
X001563Y002274D01*
X001612Y002279D01*
X001663Y002280D01*
X001713Y002277D01*
X001762Y002270D01*
X001811Y002259D01*
X001859Y002244D01*
X001905Y002226D01*
X001950Y002204D01*
X001993Y002178D01*
X002034Y002149D01*
X002073Y002117D01*
X002109Y002082D01*
X002141Y002044D01*
X002171Y002004D01*
X002198Y001961D01*
X002221Y001917D01*
X002240Y001871D01*
X002256Y001823D01*
X002268Y001774D01*
X002276Y001725D01*
X002280Y001675D01*
X002280Y001625D01*
X002276Y001575D01*
X002268Y001526D01*
X002256Y001477D01*
X002240Y001429D01*
X002221Y001383D01*
X002198Y001339D01*
X002171Y001296D01*
X002141Y001256D01*
X002109Y001218D01*
X002073Y001183D01*
X002034Y001151D01*
X001993Y001122D01*
X001950Y001096D01*
X001905Y001074D01*
X001859Y001056D01*
X001811Y001041D01*
X001762Y001030D01*
X001713Y001023D01*
X001663Y001020D01*
X001612Y001021D01*
X001563Y001026D01*
X001513Y001035D01*
X001465Y001048D01*
X001418Y001064D01*
X001372Y001085D01*
X001328Y001109D01*
X001286Y001136D01*
X001246Y001166D01*
X001209Y001200D01*
X001175Y001237D01*
X001143Y001276D01*
X001115Y001317D01*
X001090Y001361D01*
X001069Y001406D01*
X001052Y001453D01*
X001038Y001501D01*
X001028Y001550D01*
X001022Y001600D01*
X001020Y001650D01*
X011520Y001650D02*
X011522Y001700D01*
X011528Y001750D01*
X011538Y001799D01*
X011552Y001847D01*
X011569Y001894D01*
X011590Y001939D01*
X011615Y001983D01*
X011643Y002024D01*
X011675Y002063D01*
X011709Y002100D01*
X011746Y002134D01*
X011786Y002164D01*
X011828Y002191D01*
X011872Y002215D01*
X011918Y002236D01*
X011965Y002252D01*
X012013Y002265D01*
X012063Y002274D01*
X012112Y002279D01*
X012163Y002280D01*
X012213Y002277D01*
X012262Y002270D01*
X012311Y002259D01*
X012359Y002244D01*
X012405Y002226D01*
X012450Y002204D01*
X012493Y002178D01*
X012534Y002149D01*
X012573Y002117D01*
X012609Y002082D01*
X012641Y002044D01*
X012671Y002004D01*
X012698Y001961D01*
X012721Y001917D01*
X012740Y001871D01*
X012756Y001823D01*
X012768Y001774D01*
X012776Y001725D01*
X012780Y001675D01*
X012780Y001625D01*
X012776Y001575D01*
X012768Y001526D01*
X012756Y001477D01*
X012740Y001429D01*
X012721Y001383D01*
X012698Y001339D01*
X012671Y001296D01*
X012641Y001256D01*
X012609Y001218D01*
X012573Y001183D01*
X012534Y001151D01*
X012493Y001122D01*
X012450Y001096D01*
X012405Y001074D01*
X012359Y001056D01*
X012311Y001041D01*
X012262Y001030D01*
X012213Y001023D01*
X012163Y001020D01*
X012112Y001021D01*
X012063Y001026D01*
X012013Y001035D01*
X011965Y001048D01*
X011918Y001064D01*
X011872Y001085D01*
X011828Y001109D01*
X011786Y001136D01*
X011746Y001166D01*
X011709Y001200D01*
X011675Y001237D01*
X011643Y001276D01*
X011615Y001317D01*
X011590Y001361D01*
X011569Y001406D01*
X011552Y001453D01*
X011538Y001501D01*
X011528Y001550D01*
X011522Y001600D01*
X011520Y001650D01*
X011520Y016650D02*
X011522Y016700D01*
X011528Y016750D01*
X011538Y016799D01*
X011552Y016847D01*
X011569Y016894D01*
X011590Y016939D01*
X011615Y016983D01*
X011643Y017024D01*
X011675Y017063D01*
X011709Y017100D01*
X011746Y017134D01*
X011786Y017164D01*
X011828Y017191D01*
X011872Y017215D01*
X011918Y017236D01*
X011965Y017252D01*
X012013Y017265D01*
X012063Y017274D01*
X012112Y017279D01*
X012163Y017280D01*
X012213Y017277D01*
X012262Y017270D01*
X012311Y017259D01*
X012359Y017244D01*
X012405Y017226D01*
X012450Y017204D01*
X012493Y017178D01*
X012534Y017149D01*
X012573Y017117D01*
X012609Y017082D01*
X012641Y017044D01*
X012671Y017004D01*
X012698Y016961D01*
X012721Y016917D01*
X012740Y016871D01*
X012756Y016823D01*
X012768Y016774D01*
X012776Y016725D01*
X012780Y016675D01*
X012780Y016625D01*
X012776Y016575D01*
X012768Y016526D01*
X012756Y016477D01*
X012740Y016429D01*
X012721Y016383D01*
X012698Y016339D01*
X012671Y016296D01*
X012641Y016256D01*
X012609Y016218D01*
X012573Y016183D01*
X012534Y016151D01*
X012493Y016122D01*
X012450Y016096D01*
X012405Y016074D01*
X012359Y016056D01*
X012311Y016041D01*
X012262Y016030D01*
X012213Y016023D01*
X012163Y016020D01*
X012112Y016021D01*
X012063Y016026D01*
X012013Y016035D01*
X011965Y016048D01*
X011918Y016064D01*
X011872Y016085D01*
X011828Y016109D01*
X011786Y016136D01*
X011746Y016166D01*
X011709Y016200D01*
X011675Y016237D01*
X011643Y016276D01*
X011615Y016317D01*
X011590Y016361D01*
X011569Y016406D01*
X011552Y016453D01*
X011538Y016501D01*
X011528Y016550D01*
X011522Y016600D01*
X011520Y016650D01*
X001020Y016650D02*
X001022Y016700D01*
X001028Y016750D01*
X001038Y016799D01*
X001052Y016847D01*
X001069Y016894D01*
X001090Y016939D01*
X001115Y016983D01*
X001143Y017024D01*
X001175Y017063D01*
X001209Y017100D01*
X001246Y017134D01*
X001286Y017164D01*
X001328Y017191D01*
X001372Y017215D01*
X001418Y017236D01*
X001465Y017252D01*
X001513Y017265D01*
X001563Y017274D01*
X001612Y017279D01*
X001663Y017280D01*
X001713Y017277D01*
X001762Y017270D01*
X001811Y017259D01*
X001859Y017244D01*
X001905Y017226D01*
X001950Y017204D01*
X001993Y017178D01*
X002034Y017149D01*
X002073Y017117D01*
X002109Y017082D01*
X002141Y017044D01*
X002171Y017004D01*
X002198Y016961D01*
X002221Y016917D01*
X002240Y016871D01*
X002256Y016823D01*
X002268Y016774D01*
X002276Y016725D01*
X002280Y016675D01*
X002280Y016625D01*
X002276Y016575D01*
X002268Y016526D01*
X002256Y016477D01*
X002240Y016429D01*
X002221Y016383D01*
X002198Y016339D01*
X002171Y016296D01*
X002141Y016256D01*
X002109Y016218D01*
X002073Y016183D01*
X002034Y016151D01*
X001993Y016122D01*
X001950Y016096D01*
X001905Y016074D01*
X001859Y016056D01*
X001811Y016041D01*
X001762Y016030D01*
X001713Y016023D01*
X001663Y016020D01*
X001612Y016021D01*
X001563Y016026D01*
X001513Y016035D01*
X001465Y016048D01*
X001418Y016064D01*
X001372Y016085D01*
X001328Y016109D01*
X001286Y016136D01*
X001246Y016166D01*
X001209Y016200D01*
X001175Y016237D01*
X001143Y016276D01*
X001115Y016317D01*
X001090Y016361D01*
X001069Y016406D01*
X001052Y016453D01*
X001038Y016501D01*
X001028Y016550D01*
X001022Y016600D01*
X001020Y016650D01*
D11*
X005150Y016650D03*
X005150Y015650D03*
X005150Y014650D03*
X005150Y013650D03*
X005150Y012650D03*
X005150Y011650D03*
X005150Y010650D03*
X005150Y009650D03*
X005150Y008650D03*
X005150Y007650D03*
X005150Y006650D03*
X005150Y005650D03*
X005150Y004650D03*
X005150Y003650D03*
X005150Y002650D03*
X005150Y001650D03*
D12*
X009870Y001650D02*
X010430Y001650D01*
X010430Y002650D02*
X009870Y002650D01*
X009870Y003650D02*
X010430Y003650D01*
X010430Y004650D02*
X009870Y004650D01*
X009870Y005650D02*
X010430Y005650D01*
X010430Y006650D02*
X009870Y006650D01*
X009870Y007650D02*
X010430Y007650D01*
X010430Y008650D02*
X009870Y008650D01*
X009870Y009650D02*
X010430Y009650D01*
X010430Y010650D02*
X009870Y010650D01*
X009870Y011650D02*
X010430Y011650D01*
X010430Y012650D02*
X009870Y012650D01*
X009870Y013650D02*
X010430Y013650D01*
X010430Y014650D02*
X009870Y014650D01*
X009870Y015650D02*
X010430Y015650D01*
X010430Y016650D02*
X009870Y016650D01*
D13*
X002650Y013650D03*
D14*
X002650Y012272D03*
D15*
X001650Y009650D03*
X007400Y005650D03*
X012150Y006650D03*
X007400Y013650D03*
X012150Y014650D03*
D16*
X012150Y013650D03*
X012150Y012650D03*
X012150Y011650D03*
X012150Y005650D03*
X012150Y004650D03*
X012150Y003650D03*
X007400Y003650D03*
X007400Y004650D03*
X006400Y004650D03*
X006400Y005650D03*
X006400Y003650D03*
X002650Y005650D03*
X002650Y006650D03*
X002650Y007650D03*
X002650Y008650D03*
X002650Y009650D03*
X001650Y008650D03*
X001650Y007650D03*
X001650Y006650D03*
X001650Y005650D03*
X006400Y011650D03*
X006400Y012650D03*
X006400Y013650D03*
X007400Y012650D03*
X007400Y011650D03*
D17*
X006705Y007900D03*
X008595Y007900D03*
X008595Y015900D03*
X006705Y015900D03*
D18*
X006655Y015918D02*
X005434Y015918D01*
X005481Y015871D02*
X005371Y015981D01*
X005228Y016040D01*
X005072Y016040D01*
X004929Y015981D01*
X004819Y015871D01*
X004760Y015728D01*
X004760Y015572D01*
X004819Y015429D01*
X004929Y015319D01*
X005072Y015260D01*
X005228Y015260D01*
X005258Y015273D01*
X006210Y014321D01*
X006210Y014040D01*
X005990Y013820D01*
X005990Y013480D01*
X006230Y013240D01*
X006570Y013240D01*
X006810Y013480D01*
X006810Y013820D01*
X006590Y014040D01*
X006590Y014479D01*
X006479Y014590D01*
X005527Y015542D01*
X005540Y015572D01*
X005540Y015728D01*
X005481Y015871D01*
X005502Y015819D02*
X005965Y015819D01*
X005965Y015850D02*
X005965Y015605D01*
X005975Y015567D01*
X005995Y015532D01*
X006022Y015504D01*
X006057Y015485D01*
X006095Y015474D01*
X006655Y015474D01*
X006655Y015850D01*
X005965Y015850D01*
X005965Y015950D02*
X006655Y015950D01*
X006655Y015850D01*
X006755Y015850D01*
X006755Y015474D01*
X007315Y015474D01*
X007354Y015485D01*
X007388Y015504D01*
X007416Y015532D01*
X007435Y015567D01*
X007446Y015605D01*
X007446Y015850D01*
X006755Y015850D01*
X006755Y015950D01*
X006655Y015950D01*
X006655Y016326D01*
X006095Y016326D01*
X006057Y016315D01*
X006022Y016296D01*
X005995Y016268D01*
X005975Y016233D01*
X005965Y016195D01*
X005965Y015950D01*
X005965Y016016D02*
X005285Y016016D01*
X005228Y016260D02*
X005371Y016319D01*
X005481Y016429D01*
X005540Y016572D01*
X005540Y016728D01*
X005481Y016871D01*
X005371Y016981D01*
X005228Y017040D01*
X005072Y017040D01*
X004929Y016981D01*
X004819Y016871D01*
X004807Y016840D01*
X004571Y016840D01*
X004071Y016340D01*
X003960Y016229D01*
X003960Y011729D01*
X003571Y011340D01*
X003460Y011229D01*
X003460Y009979D01*
X003060Y009579D01*
X003060Y009820D01*
X002820Y010060D01*
X002480Y010060D01*
X002240Y009820D01*
X002240Y009480D01*
X002380Y009340D01*
X002071Y009340D01*
X002060Y009329D01*
X002060Y009996D01*
X001996Y010060D01*
X001304Y010060D01*
X001240Y009996D01*
X001240Y009304D01*
X001304Y009240D01*
X001971Y009240D01*
X001791Y009060D01*
X001480Y009060D01*
X001240Y008820D01*
X001240Y008480D01*
X001480Y008240D01*
X001820Y008240D01*
X002060Y008480D01*
X002060Y008791D01*
X002229Y008960D01*
X002380Y008960D01*
X002240Y008820D01*
X002240Y008480D01*
X002380Y008340D01*
X002071Y008340D01*
X001960Y008229D01*
X001791Y008060D01*
X001480Y008060D01*
X001240Y007820D01*
X001240Y007480D01*
X001480Y007240D01*
X001820Y007240D01*
X002060Y007480D01*
X002060Y007791D01*
X002229Y007960D01*
X002380Y007960D01*
X002240Y007820D01*
X002240Y007480D01*
X002480Y007240D01*
X002820Y007240D01*
X003040Y007460D01*
X004229Y007460D01*
X004340Y007571D01*
X005042Y008273D01*
X005072Y008260D01*
X005228Y008260D01*
X005371Y008319D01*
X005481Y008429D01*
X005540Y008572D01*
X005540Y008728D01*
X005481Y008871D01*
X005371Y008981D01*
X005228Y009040D01*
X005072Y009040D01*
X004929Y008981D01*
X004819Y008871D01*
X004760Y008728D01*
X004760Y008572D01*
X004773Y008542D01*
X004071Y007840D01*
X003040Y007840D01*
X002920Y007960D01*
X003729Y007960D01*
X005042Y009273D01*
X005072Y009260D01*
X005228Y009260D01*
X005371Y009319D01*
X005481Y009429D01*
X005540Y009572D01*
X005540Y009728D01*
X005481Y009871D01*
X005371Y009981D01*
X005228Y010040D01*
X005072Y010040D01*
X004929Y009981D01*
X004819Y009871D01*
X004760Y009728D01*
X004760Y009572D01*
X004773Y009542D01*
X003571Y008340D01*
X002920Y008340D01*
X003040Y008460D01*
X003229Y008460D01*
X005042Y010273D01*
X005072Y010260D01*
X005228Y010260D01*
X005371Y010319D01*
X005481Y010429D01*
X005540Y010572D01*
X005540Y010728D01*
X005481Y010871D01*
X005371Y010981D01*
X005228Y011040D01*
X005072Y011040D01*
X004929Y010981D01*
X004819Y010871D01*
X004760Y010728D01*
X004760Y010572D01*
X004773Y010542D01*
X003071Y008840D01*
X003040Y008840D01*
X002920Y008960D01*
X002979Y008960D01*
X003090Y009071D01*
X003840Y009821D01*
X003840Y011071D01*
X004340Y011571D01*
X004340Y016071D01*
X004729Y016460D01*
X004807Y016460D01*
X004819Y016429D01*
X004929Y016319D01*
X005072Y016260D01*
X005228Y016260D01*
X005352Y016312D02*
X006050Y016312D01*
X005969Y016213D02*
X004482Y016213D01*
X004580Y016312D02*
X004948Y016312D01*
X004838Y016410D02*
X004679Y016410D01*
X004437Y016706D02*
X002480Y016706D01*
X002480Y016804D02*
X004535Y016804D01*
X004338Y016607D02*
X002480Y016607D01*
X002480Y016509D02*
X004240Y016509D01*
X004141Y016410D02*
X002449Y016410D01*
X002480Y016485D02*
X002354Y016180D01*
X002120Y015946D01*
X001815Y015820D01*
X001485Y015820D01*
X001180Y015946D01*
X000946Y016180D01*
X000850Y016413D01*
X000850Y001887D01*
X000946Y002120D01*
X001180Y002354D01*
X001485Y002480D01*
X001815Y002480D01*
X002120Y002354D01*
X002354Y002120D01*
X002480Y001815D01*
X002480Y001485D01*
X002354Y001180D01*
X002120Y000946D01*
X001887Y000850D01*
X011913Y000850D01*
X011680Y000946D01*
X011446Y001180D01*
X011320Y001485D01*
X011320Y001815D01*
X011446Y002120D01*
X011680Y002354D01*
X011985Y002480D01*
X012315Y002480D01*
X012620Y002354D01*
X012820Y002154D01*
X012820Y016146D01*
X012620Y015946D01*
X012315Y015820D01*
X011985Y015820D01*
X011680Y015946D01*
X011446Y016180D01*
X011320Y016485D01*
X011320Y016815D01*
X011446Y017120D01*
X011680Y017354D01*
X011903Y017446D01*
X001897Y017446D01*
X002120Y017354D01*
X002354Y017120D01*
X002480Y016815D01*
X002480Y016485D01*
X002408Y016312D02*
X004043Y016312D01*
X003960Y016213D02*
X002367Y016213D01*
X002288Y016115D02*
X003960Y016115D01*
X003960Y016016D02*
X002190Y016016D01*
X002050Y015918D02*
X003960Y015918D01*
X003960Y015819D02*
X000850Y015819D01*
X000850Y015721D02*
X003960Y015721D01*
X003960Y015622D02*
X000850Y015622D01*
X000850Y015524D02*
X003960Y015524D01*
X003960Y015425D02*
X000850Y015425D01*
X000850Y015327D02*
X003960Y015327D01*
X003960Y015228D02*
X000850Y015228D01*
X000850Y015130D02*
X003960Y015130D01*
X003960Y015031D02*
X000850Y015031D01*
X000850Y014933D02*
X003960Y014933D01*
X003960Y014834D02*
X000850Y014834D01*
X000850Y014736D02*
X003960Y014736D01*
X003960Y014637D02*
X000850Y014637D01*
X000850Y014539D02*
X003960Y014539D01*
X003960Y014440D02*
X000850Y014440D01*
X000850Y014342D02*
X003960Y014342D01*
X003960Y014243D02*
X000850Y014243D01*
X000850Y014145D02*
X002132Y014145D01*
X002130Y014142D02*
X002110Y014108D01*
X002100Y014070D01*
X002100Y013700D01*
X002600Y013700D01*
X002600Y014200D01*
X002230Y014200D01*
X002192Y014190D01*
X002158Y014170D01*
X002130Y014142D01*
X002100Y014046D02*
X000850Y014046D01*
X000850Y013948D02*
X002100Y013948D01*
X002100Y013849D02*
X000850Y013849D01*
X000850Y013751D02*
X002100Y013751D01*
X002100Y013600D02*
X002100Y013230D01*
X002110Y013192D01*
X002130Y013158D01*
X002158Y013130D01*
X002192Y013110D01*
X002230Y013100D01*
X002600Y013100D01*
X002600Y013600D01*
X002700Y013600D01*
X002700Y013700D01*
X002600Y013700D01*
X002600Y013600D01*
X002100Y013600D01*
X002100Y013554D02*
X000850Y013554D01*
X000850Y013652D02*
X002600Y013652D01*
X002600Y013554D02*
X002700Y013554D01*
X002700Y013600D02*
X002700Y013100D01*
X003070Y013100D01*
X003108Y013110D01*
X003142Y013130D01*
X003170Y013158D01*
X003190Y013192D01*
X003200Y013230D01*
X003200Y013600D01*
X002700Y013600D01*
X002700Y013652D02*
X003960Y013652D01*
X003960Y013554D02*
X003200Y013554D01*
X003200Y013455D02*
X003960Y013455D01*
X003960Y013357D02*
X003200Y013357D01*
X003200Y013258D02*
X003960Y013258D01*
X003960Y013160D02*
X003171Y013160D01*
X002939Y012704D02*
X002751Y012782D01*
X002549Y012782D01*
X002361Y012704D01*
X002218Y012561D01*
X002140Y012373D01*
X002140Y012171D01*
X002218Y011983D01*
X002361Y011840D01*
X002549Y011762D01*
X002751Y011762D01*
X002939Y011840D01*
X003082Y011983D01*
X003160Y012171D01*
X003160Y012373D01*
X003082Y012561D01*
X002939Y012704D01*
X002976Y012667D02*
X003960Y012667D01*
X003960Y012569D02*
X003075Y012569D01*
X003120Y012470D02*
X003960Y012470D01*
X003960Y012372D02*
X003160Y012372D01*
X003160Y012273D02*
X003960Y012273D01*
X003960Y012175D02*
X003160Y012175D01*
X003121Y012076D02*
X003960Y012076D01*
X003960Y011978D02*
X003077Y011978D01*
X002978Y011879D02*
X003960Y011879D01*
X003960Y011781D02*
X002796Y011781D01*
X002504Y011781D02*
X000850Y011781D01*
X000850Y011879D02*
X002322Y011879D01*
X002223Y011978D02*
X000850Y011978D01*
X000850Y012076D02*
X002179Y012076D01*
X002140Y012175D02*
X000850Y012175D01*
X000850Y012273D02*
X002140Y012273D01*
X002140Y012372D02*
X000850Y012372D01*
X000850Y012470D02*
X002180Y012470D01*
X002225Y012569D02*
X000850Y012569D01*
X000850Y012667D02*
X002324Y012667D01*
X002509Y012766D02*
X000850Y012766D01*
X000850Y012864D02*
X003960Y012864D01*
X003960Y012766D02*
X002791Y012766D01*
X002700Y013160D02*
X002600Y013160D01*
X002600Y013258D02*
X002700Y013258D01*
X002700Y013357D02*
X002600Y013357D01*
X002600Y013455D02*
X002700Y013455D01*
X002700Y013700D02*
X003200Y013700D01*
X003200Y014070D01*
X003190Y014108D01*
X003170Y014142D01*
X003142Y014170D01*
X003108Y014190D01*
X003070Y014200D01*
X002700Y014200D01*
X002700Y013700D01*
X002700Y013751D02*
X002600Y013751D01*
X002600Y013849D02*
X002700Y013849D01*
X002700Y013948D02*
X002600Y013948D01*
X002600Y014046D02*
X002700Y014046D01*
X002700Y014145D02*
X002600Y014145D01*
X003168Y014145D02*
X003960Y014145D01*
X003960Y014046D02*
X003200Y014046D01*
X003200Y013948D02*
X003960Y013948D01*
X003960Y013849D02*
X003200Y013849D01*
X003200Y013751D02*
X003960Y013751D01*
X004340Y013751D02*
X004770Y013751D01*
X004760Y013728D02*
X004760Y013572D01*
X004819Y013429D01*
X004929Y013319D01*
X004985Y013296D01*
X005071Y013210D01*
X005251Y013030D01*
X005228Y013040D01*
X005072Y013040D01*
X004929Y012981D01*
X004819Y012871D01*
X004760Y012728D01*
X004760Y012572D01*
X004819Y012429D01*
X004929Y012319D01*
X004960Y012307D01*
X004960Y011993D01*
X004929Y011981D01*
X004819Y011871D01*
X004760Y011728D01*
X004760Y011572D01*
X004819Y011429D01*
X004929Y011319D01*
X005072Y011260D01*
X005228Y011260D01*
X005371Y011319D01*
X005481Y011429D01*
X005540Y011572D01*
X005540Y011728D01*
X005481Y011871D01*
X005371Y011981D01*
X005340Y011993D01*
X005340Y012307D01*
X005371Y012319D01*
X005460Y012408D01*
X005460Y012071D01*
X005960Y011571D01*
X005990Y011541D01*
X005990Y011480D01*
X006230Y011240D01*
X006570Y011240D01*
X006810Y011480D01*
X006810Y011820D01*
X006570Y012060D01*
X006230Y012060D01*
X006119Y011949D01*
X005840Y012229D01*
X005840Y012941D01*
X005990Y012791D01*
X005990Y012480D01*
X006230Y012240D01*
X006570Y012240D01*
X006810Y012480D01*
X006810Y012820D01*
X006570Y013060D01*
X006259Y013060D01*
X005840Y013479D01*
X005840Y014229D01*
X005527Y014542D01*
X005540Y014572D01*
X005540Y014728D01*
X005481Y014871D01*
X005371Y014981D01*
X005228Y015040D01*
X005072Y015040D01*
X004929Y014981D01*
X004819Y014871D01*
X004760Y014728D01*
X004760Y014572D01*
X004819Y014429D01*
X004929Y014319D01*
X005072Y014260D01*
X005228Y014260D01*
X005258Y014273D01*
X005460Y014071D01*
X005460Y013892D01*
X005371Y013981D01*
X005228Y014040D01*
X005072Y014040D01*
X004929Y013981D01*
X004819Y013871D01*
X004760Y013728D01*
X004760Y013652D02*
X004340Y013652D01*
X004340Y013554D02*
X004768Y013554D01*
X004809Y013455D02*
X004340Y013455D01*
X004340Y013357D02*
X004892Y013357D01*
X005023Y013258D02*
X004340Y013258D01*
X004340Y013160D02*
X005122Y013160D01*
X005220Y013061D02*
X004340Y013061D01*
X004340Y012963D02*
X004911Y012963D01*
X004817Y012864D02*
X004340Y012864D01*
X004340Y012766D02*
X004776Y012766D01*
X004760Y012667D02*
X004340Y012667D01*
X004340Y012569D02*
X004762Y012569D01*
X004802Y012470D02*
X004340Y012470D01*
X004340Y012372D02*
X004877Y012372D01*
X004960Y012273D02*
X004340Y012273D01*
X004340Y012175D02*
X004960Y012175D01*
X004960Y012076D02*
X004340Y012076D01*
X004340Y011978D02*
X004926Y011978D01*
X004827Y011879D02*
X004340Y011879D01*
X004340Y011781D02*
X004782Y011781D01*
X004760Y011682D02*
X004340Y011682D01*
X004340Y011584D02*
X004760Y011584D01*
X004796Y011485D02*
X004254Y011485D01*
X004155Y011387D02*
X004862Y011387D01*
X005005Y011288D02*
X004057Y011288D01*
X003958Y011190D02*
X007210Y011190D01*
X007210Y011260D02*
X007210Y009729D01*
X007160Y009678D01*
X007095Y009678D01*
X006992Y009636D01*
X006914Y009558D01*
X006872Y009455D01*
X006872Y009345D01*
X006914Y009242D01*
X006992Y009164D01*
X007095Y009122D01*
X007205Y009122D01*
X007308Y009164D01*
X007386Y009242D01*
X007428Y009345D01*
X007428Y009410D01*
X007590Y009571D01*
X007590Y011191D01*
X008321Y010460D01*
X009527Y010460D01*
X009539Y010429D01*
X009649Y010319D01*
X009792Y010260D01*
X010508Y010260D01*
X010651Y010319D01*
X010761Y010429D01*
X010820Y010572D01*
X010820Y010728D01*
X010761Y010871D01*
X010651Y010981D01*
X010508Y011040D01*
X009792Y011040D01*
X009649Y010981D01*
X009539Y010871D01*
X009527Y010840D01*
X008479Y010840D01*
X007810Y011509D01*
X007810Y011820D01*
X007590Y012040D01*
X007590Y012260D01*
X007810Y012480D01*
X007810Y012820D01*
X007590Y013040D01*
X007590Y013240D01*
X007746Y013240D01*
X007810Y013304D01*
X007810Y013996D01*
X007746Y014060D01*
X007054Y014060D01*
X006990Y013996D01*
X006990Y013304D01*
X007054Y013240D01*
X007210Y013240D01*
X007210Y013040D01*
X006990Y012820D01*
X006990Y012480D01*
X007210Y012260D01*
X007210Y012040D01*
X006990Y011820D01*
X006990Y011480D01*
X007210Y011260D01*
X007182Y011288D02*
X006618Y011288D01*
X006716Y011387D02*
X007084Y011387D01*
X006990Y011485D02*
X006810Y011485D01*
X006810Y011584D02*
X006990Y011584D01*
X006990Y011682D02*
X006810Y011682D01*
X006810Y011781D02*
X006990Y011781D01*
X007049Y011879D02*
X006751Y011879D01*
X006652Y011978D02*
X007148Y011978D01*
X007210Y012076D02*
X005993Y012076D01*
X006091Y011978D02*
X006148Y011978D01*
X006197Y012273D02*
X005840Y012273D01*
X005840Y012372D02*
X006099Y012372D01*
X006000Y012470D02*
X005840Y012470D01*
X005840Y012569D02*
X005990Y012569D01*
X005990Y012667D02*
X005840Y012667D01*
X005840Y012766D02*
X005990Y012766D01*
X005917Y012864D02*
X005840Y012864D01*
X006159Y013160D02*
X007210Y013160D01*
X007210Y013061D02*
X006258Y013061D01*
X006212Y013258D02*
X006061Y013258D01*
X006114Y013357D02*
X005962Y013357D01*
X006015Y013455D02*
X005864Y013455D01*
X005840Y013554D02*
X005990Y013554D01*
X005990Y013652D02*
X005840Y013652D01*
X005840Y013751D02*
X005990Y013751D01*
X006019Y013849D02*
X005840Y013849D01*
X005840Y013948D02*
X006118Y013948D01*
X006210Y014046D02*
X005840Y014046D01*
X005840Y014145D02*
X006210Y014145D01*
X006210Y014243D02*
X005826Y014243D01*
X005727Y014342D02*
X006190Y014342D01*
X006091Y014440D02*
X005629Y014440D01*
X005530Y014539D02*
X005993Y014539D01*
X005894Y014637D02*
X005540Y014637D01*
X005537Y014736D02*
X005796Y014736D01*
X005697Y014834D02*
X005496Y014834D01*
X005419Y014933D02*
X005599Y014933D01*
X005500Y015031D02*
X005249Y015031D01*
X005402Y015130D02*
X004340Y015130D01*
X004340Y015228D02*
X005303Y015228D01*
X005051Y015031D02*
X004340Y015031D01*
X004340Y014933D02*
X004881Y014933D01*
X004804Y014834D02*
X004340Y014834D01*
X004340Y014736D02*
X004763Y014736D01*
X004760Y014637D02*
X004340Y014637D01*
X004340Y014539D02*
X004774Y014539D01*
X004815Y014440D02*
X004340Y014440D01*
X004340Y014342D02*
X004907Y014342D01*
X004896Y013948D02*
X004340Y013948D01*
X004340Y014046D02*
X005460Y014046D01*
X005460Y013948D02*
X005404Y013948D01*
X005387Y014145D02*
X004340Y014145D01*
X004340Y014243D02*
X005288Y014243D01*
X004810Y013849D02*
X004340Y013849D01*
X003960Y013061D02*
X000850Y013061D01*
X000850Y012963D02*
X003960Y012963D01*
X003913Y011682D02*
X000850Y011682D01*
X000850Y011584D02*
X003815Y011584D01*
X003716Y011485D02*
X000850Y011485D01*
X000850Y011387D02*
X003618Y011387D01*
X003519Y011288D02*
X000850Y011288D01*
X000850Y011190D02*
X003460Y011190D01*
X003460Y011091D02*
X000850Y011091D01*
X000850Y010993D02*
X003460Y010993D01*
X003460Y010894D02*
X000850Y010894D01*
X000850Y010796D02*
X003460Y010796D01*
X003460Y010697D02*
X000850Y010697D01*
X000850Y010599D02*
X003460Y010599D01*
X003460Y010500D02*
X000850Y010500D01*
X000850Y010402D02*
X003460Y010402D01*
X003460Y010303D02*
X000850Y010303D01*
X000850Y010205D02*
X003460Y010205D01*
X003460Y010106D02*
X000850Y010106D01*
X000850Y010008D02*
X001252Y010008D01*
X001240Y009909D02*
X000850Y009909D01*
X000850Y009811D02*
X001240Y009811D01*
X001240Y009712D02*
X000850Y009712D01*
X000850Y009614D02*
X001240Y009614D01*
X001240Y009515D02*
X000850Y009515D01*
X000850Y009417D02*
X001240Y009417D01*
X001240Y009318D02*
X000850Y009318D01*
X000850Y009220D02*
X001951Y009220D01*
X001852Y009121D02*
X000850Y009121D01*
X000850Y009023D02*
X001443Y009023D01*
X001344Y008924D02*
X000850Y008924D01*
X000850Y008826D02*
X001246Y008826D01*
X001240Y008727D02*
X000850Y008727D01*
X000850Y008629D02*
X001240Y008629D01*
X001240Y008530D02*
X000850Y008530D01*
X000850Y008432D02*
X001289Y008432D01*
X001387Y008333D02*
X000850Y008333D01*
X000850Y008235D02*
X001966Y008235D01*
X001913Y008333D02*
X002064Y008333D01*
X002011Y008432D02*
X002289Y008432D01*
X002240Y008530D02*
X002060Y008530D01*
X002060Y008629D02*
X002240Y008629D01*
X002240Y008727D02*
X002060Y008727D01*
X002094Y008826D02*
X002246Y008826D01*
X002193Y008924D02*
X002344Y008924D01*
X002304Y009417D02*
X002060Y009417D01*
X002060Y009515D02*
X002240Y009515D01*
X002240Y009614D02*
X002060Y009614D01*
X002060Y009712D02*
X002240Y009712D01*
X002240Y009811D02*
X002060Y009811D01*
X002060Y009909D02*
X002329Y009909D01*
X002428Y010008D02*
X002048Y010008D01*
X002872Y010008D02*
X003460Y010008D01*
X003390Y009909D02*
X002971Y009909D01*
X003060Y009811D02*
X003292Y009811D01*
X003193Y009712D02*
X003060Y009712D01*
X003060Y009614D02*
X003095Y009614D01*
X003337Y009318D02*
X003549Y009318D01*
X003451Y009220D02*
X003238Y009220D01*
X003140Y009121D02*
X003352Y009121D01*
X003254Y009023D02*
X003041Y009023D01*
X002956Y008924D02*
X003155Y008924D01*
X003397Y008629D02*
X003860Y008629D01*
X003958Y008727D02*
X003496Y008727D01*
X003594Y008826D02*
X004057Y008826D01*
X004155Y008924D02*
X003693Y008924D01*
X003791Y009023D02*
X004254Y009023D01*
X004352Y009121D02*
X003890Y009121D01*
X003988Y009220D02*
X004451Y009220D01*
X004549Y009318D02*
X004087Y009318D01*
X004185Y009417D02*
X004648Y009417D01*
X004746Y009515D02*
X004284Y009515D01*
X004382Y009614D02*
X004760Y009614D01*
X004760Y009712D02*
X004481Y009712D01*
X004579Y009811D02*
X004794Y009811D01*
X004857Y009909D02*
X004678Y009909D01*
X004776Y010008D02*
X004994Y010008D01*
X004875Y010106D02*
X007210Y010106D01*
X007210Y010008D02*
X005306Y010008D01*
X005443Y009909D02*
X007210Y009909D01*
X007210Y009811D02*
X005506Y009811D01*
X005540Y009712D02*
X007193Y009712D01*
X006970Y009614D02*
X005540Y009614D01*
X005516Y009515D02*
X006896Y009515D01*
X006872Y009417D02*
X005468Y009417D01*
X005368Y009318D02*
X006883Y009318D01*
X006937Y009220D02*
X004988Y009220D01*
X004890Y009121D02*
X012820Y009121D01*
X012820Y009023D02*
X010550Y009023D01*
X010508Y009040D02*
X010651Y008981D01*
X010761Y008871D01*
X010820Y008728D01*
X010820Y008572D01*
X010761Y008429D01*
X010651Y008319D01*
X010508Y008260D01*
X010358Y008260D01*
X010238Y008210D01*
X009527Y008210D01*
X009295Y007978D01*
X009295Y007579D01*
X009231Y007514D01*
X008814Y007514D01*
X008682Y007460D01*
X008507Y007460D01*
X008376Y007514D01*
X007959Y007514D01*
X007894Y007579D01*
X007894Y008221D01*
X007959Y008286D01*
X008358Y008286D01*
X008972Y008899D01*
X009096Y009023D01*
X009257Y009090D01*
X010238Y009090D01*
X010358Y009040D01*
X010508Y009040D01*
X010464Y009220D02*
X010531Y009231D01*
X010595Y009252D01*
X010655Y009282D01*
X010710Y009322D01*
X010758Y009370D01*
X010798Y009425D01*
X010828Y009485D01*
X010849Y009549D01*
X010860Y009616D01*
X010860Y009621D01*
X010179Y009621D01*
X010179Y009679D01*
X010121Y009679D01*
X010121Y010080D01*
X009836Y010080D01*
X009769Y010069D01*
X009705Y010048D01*
X009645Y010018D01*
X009590Y009978D01*
X009542Y009930D01*
X009502Y009875D01*
X009472Y009815D01*
X009451Y009751D01*
X009440Y009684D01*
X009440Y009679D01*
X010121Y009679D01*
X010121Y009621D01*
X010179Y009621D01*
X010179Y009220D01*
X010464Y009220D01*
X010705Y009318D02*
X012820Y009318D01*
X012820Y009220D02*
X007363Y009220D01*
X007417Y009318D02*
X009595Y009318D01*
X009590Y009322D02*
X009645Y009282D01*
X009705Y009252D01*
X009769Y009231D01*
X009836Y009220D01*
X010121Y009220D01*
X010121Y009621D01*
X009440Y009621D01*
X009440Y009616D01*
X009451Y009549D01*
X009472Y009485D01*
X009502Y009425D01*
X009542Y009370D01*
X009590Y009322D01*
X009508Y009417D02*
X007435Y009417D01*
X007534Y009515D02*
X009462Y009515D01*
X009440Y009614D02*
X007590Y009614D01*
X007590Y009712D02*
X009444Y009712D01*
X009470Y009811D02*
X007590Y009811D01*
X007590Y009909D02*
X009527Y009909D01*
X009631Y010008D02*
X007590Y010008D01*
X007590Y010106D02*
X012820Y010106D01*
X012820Y010008D02*
X010669Y010008D01*
X010655Y010018D02*
X010595Y010048D01*
X010531Y010069D01*
X010464Y010080D01*
X010179Y010080D01*
X010179Y009679D01*
X010860Y009679D01*
X010860Y009684D01*
X010849Y009751D01*
X010828Y009815D01*
X010798Y009875D01*
X010758Y009930D01*
X010710Y009978D01*
X010655Y010018D01*
X010773Y009909D02*
X012820Y009909D01*
X012820Y009811D02*
X010830Y009811D01*
X010856Y009712D02*
X012820Y009712D01*
X012820Y009614D02*
X010860Y009614D01*
X010838Y009515D02*
X012820Y009515D01*
X012820Y009417D02*
X010792Y009417D01*
X010708Y008924D02*
X012820Y008924D01*
X012820Y008826D02*
X010779Y008826D01*
X010820Y008727D02*
X012820Y008727D01*
X012820Y008629D02*
X010820Y008629D01*
X010802Y008530D02*
X012820Y008530D01*
X012820Y008432D02*
X010762Y008432D01*
X010665Y008333D02*
X012820Y008333D01*
X012820Y008235D02*
X010297Y008235D01*
X010179Y008080D02*
X010179Y007679D01*
X010121Y007679D01*
X010121Y008080D01*
X009836Y008080D01*
X009769Y008069D01*
X009705Y008048D01*
X009645Y008018D01*
X009590Y007978D01*
X009542Y007930D01*
X009502Y007875D01*
X009472Y007815D01*
X009451Y007751D01*
X009440Y007684D01*
X009440Y007679D01*
X010121Y007679D01*
X010121Y007621D01*
X010179Y007621D01*
X010179Y007679D01*
X010860Y007679D01*
X010860Y007684D01*
X010849Y007751D01*
X010828Y007815D01*
X010798Y007875D01*
X010758Y007930D01*
X010710Y007978D01*
X010655Y008018D01*
X010595Y008048D01*
X010531Y008069D01*
X010464Y008080D01*
X010179Y008080D01*
X010179Y008038D02*
X010121Y008038D01*
X010121Y007939D02*
X010179Y007939D01*
X010179Y007841D02*
X010121Y007841D01*
X010121Y007742D02*
X010179Y007742D01*
X010179Y007644D02*
X012820Y007644D01*
X012820Y007742D02*
X010851Y007742D01*
X010816Y007841D02*
X012820Y007841D01*
X012820Y007939D02*
X010749Y007939D01*
X010617Y008038D02*
X012820Y008038D01*
X012820Y008136D02*
X009453Y008136D01*
X009355Y008038D02*
X009683Y008038D01*
X009551Y007939D02*
X009295Y007939D01*
X009295Y007841D02*
X009484Y007841D01*
X009449Y007742D02*
X009295Y007742D01*
X009295Y007644D02*
X010121Y007644D01*
X010121Y007621D02*
X009440Y007621D01*
X009440Y007616D01*
X009451Y007549D01*
X009472Y007485D01*
X009502Y007425D01*
X009542Y007370D01*
X009590Y007322D01*
X009645Y007282D01*
X009705Y007252D01*
X009769Y007231D01*
X009836Y007220D01*
X010121Y007220D01*
X010121Y007621D01*
X010179Y007621D02*
X010179Y007220D01*
X010464Y007220D01*
X010531Y007231D01*
X010595Y007252D01*
X010655Y007282D01*
X010710Y007322D01*
X010758Y007370D01*
X010798Y007425D01*
X010828Y007485D01*
X010849Y007549D01*
X010860Y007616D01*
X010860Y007621D01*
X010179Y007621D01*
X010179Y007545D02*
X010121Y007545D01*
X010121Y007447D02*
X010179Y007447D01*
X010179Y007348D02*
X010121Y007348D01*
X010121Y007250D02*
X010179Y007250D01*
X010062Y007090D02*
X009942Y007040D01*
X009792Y007040D01*
X009649Y006981D01*
X009539Y006871D01*
X009480Y006728D01*
X009480Y006572D01*
X009539Y006429D01*
X009649Y006319D01*
X009792Y006260D01*
X009942Y006260D01*
X010062Y006210D01*
X012238Y006210D01*
X012310Y006240D01*
X012496Y006240D01*
X012560Y006304D01*
X012560Y006490D01*
X012590Y006562D01*
X012590Y006738D01*
X012560Y006810D01*
X012560Y006996D01*
X012496Y007060D01*
X012310Y007060D01*
X012238Y007090D01*
X010062Y007090D01*
X009972Y007053D02*
X006016Y007053D01*
X005918Y007151D02*
X012820Y007151D01*
X012820Y007053D02*
X012503Y007053D01*
X012560Y006954D02*
X012820Y006954D01*
X012820Y006856D02*
X012560Y006856D01*
X012582Y006757D02*
X012820Y006757D01*
X012820Y006659D02*
X012590Y006659D01*
X012589Y006560D02*
X012820Y006560D01*
X012820Y006462D02*
X012560Y006462D01*
X012560Y006363D02*
X012820Y006363D01*
X012820Y006265D02*
X012520Y006265D01*
X012399Y006023D02*
X012327Y006053D01*
X012320Y006060D01*
X012310Y006060D01*
X012238Y006090D01*
X010062Y006090D01*
X009942Y006040D01*
X009792Y006040D01*
X009649Y005981D01*
X009539Y005871D01*
X009480Y005728D01*
X009480Y005572D01*
X009539Y005429D01*
X009649Y005319D01*
X009792Y005260D01*
X009942Y005260D01*
X010062Y005210D01*
X012238Y005210D01*
X012310Y005240D01*
X012320Y005240D01*
X012327Y005247D01*
X012399Y005277D01*
X012523Y005401D01*
X012553Y005473D01*
X012560Y005480D01*
X012560Y005490D01*
X012590Y005562D01*
X012590Y005738D01*
X012560Y005810D01*
X012560Y005820D01*
X012553Y005827D01*
X012523Y005899D01*
X012399Y006023D01*
X012453Y005969D02*
X012820Y005969D01*
X012820Y005871D02*
X012535Y005871D01*
X012576Y005772D02*
X012820Y005772D01*
X012820Y005674D02*
X012590Y005674D01*
X012590Y005575D02*
X012820Y005575D01*
X012820Y005477D02*
X012556Y005477D01*
X012500Y005378D02*
X012820Y005378D01*
X012820Y005280D02*
X012402Y005280D01*
X012320Y005060D02*
X012310Y005060D01*
X012238Y005090D01*
X010062Y005090D01*
X009942Y005040D01*
X009792Y005040D01*
X009649Y004981D01*
X009539Y004871D01*
X009480Y004728D01*
X009480Y004572D01*
X009539Y004429D01*
X009649Y004319D01*
X009792Y004260D01*
X009942Y004260D01*
X010062Y004210D01*
X012238Y004210D01*
X012310Y004240D01*
X012320Y004240D01*
X012327Y004247D01*
X012399Y004277D01*
X012523Y004401D01*
X012553Y004473D01*
X012560Y004480D01*
X012560Y004490D01*
X012590Y004562D01*
X012590Y004738D01*
X012560Y004810D01*
X012560Y004820D01*
X012553Y004827D01*
X012523Y004899D01*
X012399Y005023D01*
X012327Y005053D01*
X012320Y005060D01*
X012256Y005083D02*
X012820Y005083D01*
X012820Y005181D02*
X007590Y005181D01*
X007590Y005240D02*
X007746Y005240D01*
X007810Y005304D01*
X007810Y005996D01*
X007746Y006060D01*
X007054Y006060D01*
X006990Y005996D01*
X006990Y005304D01*
X007054Y005240D01*
X007210Y005240D01*
X007210Y005040D01*
X006990Y004820D01*
X006990Y004480D01*
X007210Y004260D01*
X007210Y004040D01*
X006990Y003820D01*
X006990Y003480D01*
X007230Y003240D01*
X007541Y003240D01*
X008321Y002460D01*
X009527Y002460D01*
X009539Y002429D01*
X009649Y002319D01*
X009792Y002260D01*
X010508Y002260D01*
X010651Y002319D01*
X010761Y002429D01*
X010820Y002572D01*
X010820Y002728D01*
X010761Y002871D01*
X010651Y002981D01*
X010508Y003040D01*
X009792Y003040D01*
X009649Y002981D01*
X009539Y002871D01*
X009527Y002840D01*
X008479Y002840D01*
X007810Y003509D01*
X007810Y003820D01*
X007590Y004040D01*
X007590Y004260D01*
X007810Y004480D01*
X007810Y004820D01*
X007590Y005040D01*
X007590Y005240D01*
X007590Y005083D02*
X010044Y005083D01*
X009745Y005280D02*
X007785Y005280D01*
X007810Y005378D02*
X009590Y005378D01*
X009520Y005477D02*
X007810Y005477D01*
X007810Y005575D02*
X009480Y005575D01*
X009480Y005674D02*
X007810Y005674D01*
X007810Y005772D02*
X009498Y005772D01*
X009539Y005871D02*
X007810Y005871D01*
X007810Y005969D02*
X009637Y005969D01*
X009782Y006265D02*
X006590Y006265D01*
X006590Y006363D02*
X009605Y006363D01*
X009526Y006462D02*
X006590Y006462D01*
X006590Y006479D02*
X006479Y006590D01*
X005527Y007542D01*
X005540Y007572D01*
X005540Y007728D01*
X005481Y007871D01*
X005371Y007981D01*
X005228Y008040D01*
X005072Y008040D01*
X004929Y007981D01*
X004819Y007871D01*
X004760Y007728D01*
X004760Y007572D01*
X004819Y007429D01*
X004929Y007319D01*
X005072Y007260D01*
X005228Y007260D01*
X005258Y007273D01*
X006210Y006321D01*
X006210Y006040D01*
X005990Y005820D01*
X005990Y005480D01*
X006230Y005240D01*
X006570Y005240D01*
X006810Y005480D01*
X006810Y005820D01*
X006590Y006040D01*
X006590Y006479D01*
X006509Y006560D02*
X009485Y006560D01*
X009480Y006659D02*
X006410Y006659D01*
X006312Y006757D02*
X009492Y006757D01*
X009533Y006856D02*
X006213Y006856D01*
X006115Y006954D02*
X009622Y006954D01*
X009711Y007250D02*
X005819Y007250D01*
X005721Y007348D02*
X009564Y007348D01*
X009491Y007447D02*
X005622Y007447D01*
X005529Y007545D02*
X005987Y007545D01*
X005995Y007532D02*
X006022Y007504D01*
X006057Y007485D01*
X006095Y007474D01*
X006655Y007474D01*
X006655Y007850D01*
X005965Y007850D01*
X005965Y007605D01*
X005975Y007567D01*
X005995Y007532D01*
X005965Y007644D02*
X005540Y007644D01*
X005534Y007742D02*
X005965Y007742D01*
X005965Y007841D02*
X005493Y007841D01*
X005413Y007939D02*
X006655Y007939D01*
X006655Y007950D02*
X006655Y007850D01*
X006755Y007850D01*
X006755Y007474D01*
X007315Y007474D01*
X007354Y007485D01*
X007388Y007504D01*
X007416Y007532D01*
X007435Y007567D01*
X007446Y007605D01*
X007446Y007850D01*
X006755Y007850D01*
X006755Y007950D01*
X006655Y007950D01*
X005965Y007950D01*
X005965Y008195D01*
X005975Y008233D01*
X005995Y008268D01*
X006022Y008296D01*
X006057Y008315D01*
X006095Y008326D01*
X006655Y008326D01*
X006655Y007950D01*
X006655Y008038D02*
X006755Y008038D01*
X006755Y007950D02*
X006755Y008326D01*
X007315Y008326D01*
X007354Y008315D01*
X007388Y008296D01*
X007416Y008268D01*
X007435Y008233D01*
X007446Y008195D01*
X007446Y007950D01*
X006755Y007950D01*
X006755Y007939D02*
X007894Y007939D01*
X007894Y007841D02*
X007446Y007841D01*
X007446Y007742D02*
X007894Y007742D01*
X007894Y007644D02*
X007446Y007644D01*
X007423Y007545D02*
X007928Y007545D01*
X007894Y008038D02*
X007446Y008038D01*
X007446Y008136D02*
X007894Y008136D01*
X007908Y008235D02*
X007435Y008235D01*
X006755Y008235D02*
X006655Y008235D01*
X006655Y008136D02*
X006755Y008136D01*
X006755Y007841D02*
X006655Y007841D01*
X006655Y007742D02*
X006755Y007742D01*
X006755Y007644D02*
X006655Y007644D01*
X006655Y007545D02*
X006755Y007545D01*
X005965Y008038D02*
X005234Y008038D01*
X005066Y008038D02*
X004806Y008038D01*
X004887Y007939D02*
X004708Y007939D01*
X004609Y007841D02*
X004807Y007841D01*
X004766Y007742D02*
X004511Y007742D01*
X004412Y007644D02*
X004760Y007644D01*
X004771Y007545D02*
X004314Y007545D01*
X004072Y007841D02*
X003039Y007841D01*
X002941Y007939D02*
X004170Y007939D01*
X004269Y008038D02*
X003806Y008038D01*
X003905Y008136D02*
X004367Y008136D01*
X004466Y008235D02*
X004003Y008235D01*
X004102Y008333D02*
X004564Y008333D01*
X004663Y008432D02*
X004200Y008432D01*
X004299Y008530D02*
X004761Y008530D01*
X004760Y008629D02*
X004397Y008629D01*
X004496Y008727D02*
X004760Y008727D01*
X004801Y008826D02*
X004594Y008826D01*
X004693Y008924D02*
X004872Y008924D01*
X004791Y009023D02*
X005030Y009023D01*
X005270Y009023D02*
X009095Y009023D01*
X008997Y008924D02*
X005428Y008924D01*
X005499Y008826D02*
X008898Y008826D01*
X008800Y008727D02*
X005540Y008727D01*
X005540Y008629D02*
X008701Y008629D01*
X008603Y008530D02*
X005522Y008530D01*
X005482Y008432D02*
X008504Y008432D01*
X008406Y008333D02*
X005385Y008333D01*
X005003Y008235D02*
X005975Y008235D01*
X005965Y008136D02*
X004905Y008136D01*
X004812Y007447D02*
X003026Y007447D01*
X002928Y007348D02*
X004900Y007348D01*
X005072Y007040D02*
X004929Y006981D01*
X004819Y006871D01*
X004760Y006728D01*
X004760Y006572D01*
X004819Y006429D01*
X004929Y006319D01*
X005072Y006260D01*
X005228Y006260D01*
X005258Y006273D01*
X005460Y006071D01*
X005460Y005892D01*
X005371Y005981D01*
X005228Y006040D01*
X005072Y006040D01*
X004929Y005981D01*
X004819Y005871D01*
X004760Y005728D01*
X004760Y005572D01*
X004819Y005429D01*
X004929Y005319D01*
X004985Y005296D01*
X005071Y005210D01*
X005251Y005030D01*
X005228Y005040D01*
X005072Y005040D01*
X004929Y004981D01*
X004819Y004871D01*
X004760Y004728D01*
X004760Y004572D01*
X004819Y004429D01*
X004929Y004319D01*
X004960Y004307D01*
X004960Y003993D01*
X004929Y003981D01*
X004819Y003871D01*
X004760Y003728D01*
X004760Y003572D01*
X004819Y003429D01*
X004929Y003319D01*
X005072Y003260D01*
X005228Y003260D01*
X005371Y003319D01*
X005481Y003429D01*
X005540Y003572D01*
X005540Y003728D01*
X005481Y003871D01*
X005371Y003981D01*
X005340Y003993D01*
X005340Y004307D01*
X005371Y004319D01*
X005460Y004408D01*
X005460Y004071D01*
X005960Y003571D01*
X005990Y003541D01*
X005990Y003480D01*
X006230Y003240D01*
X006570Y003240D01*
X006810Y003480D01*
X006810Y003820D01*
X006570Y004060D01*
X006230Y004060D01*
X006119Y003949D01*
X005840Y004229D01*
X005840Y004941D01*
X005990Y004791D01*
X005990Y004480D01*
X006230Y004240D01*
X006570Y004240D01*
X006810Y004480D01*
X006810Y004820D01*
X006570Y005060D01*
X006259Y005060D01*
X005840Y005479D01*
X005840Y006229D01*
X005527Y006542D01*
X005540Y006572D01*
X005540Y006728D01*
X005481Y006871D01*
X005371Y006981D01*
X005228Y007040D01*
X005072Y007040D01*
X004902Y006954D02*
X002926Y006954D01*
X003024Y006856D02*
X004813Y006856D01*
X004772Y006757D02*
X003812Y006757D01*
X003840Y006729D02*
X003729Y006840D01*
X003040Y006840D01*
X002820Y007060D01*
X002480Y007060D01*
X002240Y006820D01*
X002240Y006480D01*
X002380Y006340D01*
X002229Y006340D01*
X002060Y006509D01*
X002060Y006820D01*
X001820Y007060D01*
X001480Y007060D01*
X001240Y006820D01*
X001240Y006480D01*
X001480Y006240D01*
X001791Y006240D01*
X001960Y006071D01*
X002071Y005960D01*
X002380Y005960D01*
X002240Y005820D01*
X002240Y005480D01*
X002480Y005240D01*
X002820Y005240D01*
X003060Y005480D01*
X003060Y005820D01*
X002920Y005960D01*
X003071Y005960D01*
X003460Y005571D01*
X003460Y003071D01*
X004773Y001758D01*
X004760Y001728D01*
X004760Y001572D01*
X004819Y001429D01*
X004929Y001319D01*
X005072Y001260D01*
X005228Y001260D01*
X005371Y001319D01*
X005481Y001429D01*
X005540Y001572D01*
X005540Y001728D01*
X005481Y001871D01*
X005371Y001981D01*
X005228Y002040D01*
X005072Y002040D01*
X005042Y002027D01*
X003840Y003229D01*
X003840Y005729D01*
X003729Y005840D01*
X003229Y006340D01*
X002920Y006340D01*
X003040Y006460D01*
X003571Y006460D01*
X003960Y006071D01*
X003960Y003571D01*
X004071Y003460D01*
X004773Y002758D01*
X004760Y002728D01*
X004760Y002572D01*
X004819Y002429D01*
X004929Y002319D01*
X005072Y002260D01*
X005228Y002260D01*
X005371Y002319D01*
X005481Y002429D01*
X005540Y002572D01*
X005540Y002728D01*
X005481Y002871D01*
X005371Y002981D01*
X005228Y003040D01*
X005072Y003040D01*
X005042Y003027D01*
X004340Y003729D01*
X004340Y006229D01*
X003840Y006729D01*
X003910Y006659D02*
X004760Y006659D01*
X004765Y006560D02*
X004009Y006560D01*
X004107Y006462D02*
X004806Y006462D01*
X004885Y006363D02*
X004206Y006363D01*
X004304Y006265D02*
X005062Y006265D01*
X005238Y006265D02*
X005267Y006265D01*
X005365Y006166D02*
X004340Y006166D01*
X004340Y006068D02*
X005460Y006068D01*
X005460Y005969D02*
X005383Y005969D01*
X005706Y006363D02*
X006168Y006363D01*
X006210Y006265D02*
X005804Y006265D01*
X005840Y006166D02*
X006210Y006166D01*
X006210Y006068D02*
X005840Y006068D01*
X005840Y005969D02*
X006139Y005969D01*
X006041Y005871D02*
X005840Y005871D01*
X005840Y005772D02*
X005990Y005772D01*
X005990Y005674D02*
X005840Y005674D01*
X005840Y005575D02*
X005990Y005575D01*
X005994Y005477D02*
X005842Y005477D01*
X005941Y005378D02*
X006092Y005378D01*
X006039Y005280D02*
X006191Y005280D01*
X006138Y005181D02*
X007210Y005181D01*
X007210Y005083D02*
X006236Y005083D01*
X005990Y004787D02*
X005840Y004787D01*
X005840Y004689D02*
X005990Y004689D01*
X005990Y004590D02*
X005840Y004590D01*
X005840Y004492D02*
X005990Y004492D01*
X006077Y004393D02*
X005840Y004393D01*
X005840Y004295D02*
X006176Y004295D01*
X005971Y004098D02*
X007210Y004098D01*
X007210Y004196D02*
X005873Y004196D01*
X006070Y003999D02*
X006169Y003999D01*
X005828Y003704D02*
X005540Y003704D01*
X005540Y003605D02*
X005926Y003605D01*
X005990Y003507D02*
X005513Y003507D01*
X005460Y003408D02*
X006062Y003408D01*
X006161Y003310D02*
X005347Y003310D01*
X005290Y003014D02*
X007767Y003014D01*
X007669Y003113D02*
X004956Y003113D01*
X004858Y003211D02*
X007570Y003211D01*
X007812Y003507D02*
X009507Y003507D01*
X009480Y003572D02*
X009539Y003429D01*
X009649Y003319D01*
X009792Y003260D01*
X009942Y003260D01*
X010062Y003210D01*
X012238Y003210D01*
X012310Y003240D01*
X012320Y003240D01*
X012327Y003247D01*
X012399Y003277D01*
X012523Y003401D01*
X012553Y003473D01*
X012560Y003480D01*
X012560Y003490D01*
X012590Y003562D01*
X012590Y003738D01*
X012560Y003810D01*
X012560Y003820D01*
X012553Y003827D01*
X012523Y003899D01*
X012399Y004023D01*
X012327Y004053D01*
X012320Y004060D01*
X012310Y004060D01*
X012238Y004090D01*
X010062Y004090D01*
X009942Y004040D01*
X009792Y004040D01*
X009649Y003981D01*
X009539Y003871D01*
X009480Y003728D01*
X009480Y003572D01*
X009480Y003605D02*
X007810Y003605D01*
X007810Y003704D02*
X009480Y003704D01*
X009511Y003802D02*
X007810Y003802D01*
X007729Y003901D02*
X009569Y003901D01*
X009693Y003999D02*
X007631Y003999D01*
X007590Y004098D02*
X012820Y004098D01*
X012820Y004196D02*
X007590Y004196D01*
X007624Y004295D02*
X009709Y004295D01*
X009575Y004393D02*
X007723Y004393D01*
X007810Y004492D02*
X009514Y004492D01*
X009480Y004590D02*
X007810Y004590D01*
X007810Y004689D02*
X009480Y004689D01*
X009505Y004787D02*
X007810Y004787D01*
X007744Y004886D02*
X009554Y004886D01*
X009657Y004984D02*
X007646Y004984D01*
X007154Y004984D02*
X006646Y004984D01*
X006744Y004886D02*
X007056Y004886D01*
X006990Y004787D02*
X006810Y004787D01*
X006810Y004689D02*
X006990Y004689D01*
X006990Y004590D02*
X006810Y004590D01*
X006810Y004492D02*
X006990Y004492D01*
X007077Y004393D02*
X006723Y004393D01*
X006624Y004295D02*
X007176Y004295D01*
X007169Y003999D02*
X006631Y003999D01*
X006729Y003901D02*
X007071Y003901D01*
X006990Y003802D02*
X006810Y003802D01*
X006810Y003704D02*
X006990Y003704D01*
X006990Y003605D02*
X006810Y003605D01*
X006810Y003507D02*
X006990Y003507D01*
X007062Y003408D02*
X006738Y003408D01*
X006639Y003310D02*
X007161Y003310D01*
X007866Y002916D02*
X005436Y002916D01*
X005503Y002817D02*
X007964Y002817D01*
X008063Y002719D02*
X005540Y002719D01*
X005540Y002620D02*
X008161Y002620D01*
X008260Y002522D02*
X005519Y002522D01*
X005475Y002423D02*
X009545Y002423D01*
X009644Y002325D02*
X005376Y002325D01*
X005254Y002029D02*
X009667Y002029D01*
X009645Y002018D02*
X009705Y002048D01*
X009769Y002069D01*
X009836Y002080D01*
X010121Y002080D01*
X010121Y001679D01*
X010179Y001679D01*
X010179Y002080D01*
X010464Y002080D01*
X010531Y002069D01*
X010595Y002048D01*
X010655Y002018D01*
X010710Y001978D01*
X010758Y001930D01*
X010798Y001875D01*
X010828Y001815D01*
X010849Y001751D01*
X010860Y001684D01*
X010860Y001679D01*
X010179Y001679D01*
X010179Y001621D01*
X010860Y001621D01*
X010860Y001616D01*
X010849Y001549D01*
X010828Y001485D01*
X010798Y001425D01*
X010758Y001370D01*
X010710Y001322D01*
X010655Y001282D01*
X010595Y001252D01*
X010531Y001231D01*
X010464Y001220D01*
X010179Y001220D01*
X010179Y001621D01*
X010121Y001621D01*
X010121Y001220D01*
X009836Y001220D01*
X009769Y001231D01*
X009705Y001252D01*
X009645Y001282D01*
X009590Y001322D01*
X009542Y001370D01*
X009502Y001425D01*
X009472Y001485D01*
X009451Y001549D01*
X009440Y001616D01*
X009440Y001621D01*
X010121Y001621D01*
X010121Y001679D01*
X009440Y001679D01*
X009440Y001684D01*
X009451Y001751D01*
X009472Y001815D01*
X009502Y001875D01*
X009542Y001930D01*
X009590Y001978D01*
X009645Y002018D01*
X009542Y001931D02*
X005421Y001931D01*
X005497Y001832D02*
X009480Y001832D01*
X009448Y001734D02*
X005538Y001734D01*
X005540Y001635D02*
X010121Y001635D01*
X010179Y001635D02*
X011320Y001635D01*
X011320Y001537D02*
X010845Y001537D01*
X010805Y001438D02*
X011340Y001438D01*
X011380Y001340D02*
X010728Y001340D01*
X010563Y001241D02*
X011421Y001241D01*
X011484Y001143D02*
X002316Y001143D01*
X002379Y001241D02*
X009737Y001241D01*
X009572Y001340D02*
X005391Y001340D01*
X005484Y001438D02*
X009495Y001438D01*
X009455Y001537D02*
X005525Y001537D01*
X005046Y002029D02*
X005040Y002029D01*
X004941Y002128D02*
X011454Y002128D01*
X011409Y002029D02*
X010633Y002029D01*
X010758Y001931D02*
X011368Y001931D01*
X011327Y001832D02*
X010820Y001832D01*
X010852Y001734D02*
X011320Y001734D01*
X011552Y002226D02*
X004843Y002226D01*
X004924Y002325D02*
X004744Y002325D01*
X004825Y002423D02*
X004646Y002423D01*
X004547Y002522D02*
X004781Y002522D01*
X004760Y002620D02*
X004449Y002620D01*
X004350Y002719D02*
X004760Y002719D01*
X004714Y002817D02*
X004252Y002817D01*
X004153Y002916D02*
X004616Y002916D01*
X004517Y003014D02*
X004055Y003014D01*
X003956Y003113D02*
X004419Y003113D01*
X004320Y003211D02*
X003858Y003211D01*
X003840Y003310D02*
X004222Y003310D01*
X004123Y003408D02*
X003840Y003408D01*
X003840Y003507D02*
X004025Y003507D01*
X003960Y003605D02*
X003840Y003605D01*
X003840Y003704D02*
X003960Y003704D01*
X003960Y003802D02*
X003840Y003802D01*
X003840Y003901D02*
X003960Y003901D01*
X003960Y003999D02*
X003840Y003999D01*
X003840Y004098D02*
X003960Y004098D01*
X003960Y004196D02*
X003840Y004196D01*
X003840Y004295D02*
X003960Y004295D01*
X003960Y004393D02*
X003840Y004393D01*
X003840Y004492D02*
X003960Y004492D01*
X003960Y004590D02*
X003840Y004590D01*
X003840Y004689D02*
X003960Y004689D01*
X003960Y004787D02*
X003840Y004787D01*
X003840Y004886D02*
X003960Y004886D01*
X003960Y004984D02*
X003840Y004984D01*
X003840Y005083D02*
X003960Y005083D01*
X003960Y005181D02*
X003840Y005181D01*
X003840Y005280D02*
X003960Y005280D01*
X003960Y005378D02*
X003840Y005378D01*
X003840Y005477D02*
X003960Y005477D01*
X003960Y005575D02*
X003840Y005575D01*
X003840Y005674D02*
X003960Y005674D01*
X003960Y005772D02*
X003797Y005772D01*
X003698Y005871D02*
X003960Y005871D01*
X003960Y005969D02*
X003600Y005969D01*
X003501Y006068D02*
X003960Y006068D01*
X003865Y006166D02*
X003403Y006166D01*
X003304Y006265D02*
X003767Y006265D01*
X003668Y006363D02*
X002943Y006363D01*
X003009Y005871D02*
X003161Y005871D01*
X003259Y005772D02*
X003060Y005772D01*
X003060Y005674D02*
X003358Y005674D01*
X003456Y005575D02*
X003060Y005575D01*
X003056Y005477D02*
X003460Y005477D01*
X003460Y005378D02*
X002958Y005378D01*
X002859Y005280D02*
X003460Y005280D01*
X003460Y005181D02*
X000850Y005181D01*
X000850Y005083D02*
X003460Y005083D01*
X003460Y004984D02*
X000850Y004984D01*
X000850Y004886D02*
X003460Y004886D01*
X003460Y004787D02*
X000850Y004787D01*
X000850Y004689D02*
X003460Y004689D01*
X003460Y004590D02*
X000850Y004590D01*
X000850Y004492D02*
X003460Y004492D01*
X003460Y004393D02*
X000850Y004393D01*
X000850Y004295D02*
X003460Y004295D01*
X003460Y004196D02*
X000850Y004196D01*
X000850Y004098D02*
X003460Y004098D01*
X003460Y003999D02*
X000850Y003999D01*
X000850Y003901D02*
X003460Y003901D01*
X003460Y003802D02*
X000850Y003802D01*
X000850Y003704D02*
X003460Y003704D01*
X003460Y003605D02*
X000850Y003605D01*
X000850Y003507D02*
X003460Y003507D01*
X003460Y003408D02*
X000850Y003408D01*
X000850Y003310D02*
X003460Y003310D01*
X003460Y003211D02*
X000850Y003211D01*
X000850Y003113D02*
X003460Y003113D01*
X003517Y003014D02*
X000850Y003014D01*
X000850Y002916D02*
X003616Y002916D01*
X003714Y002817D02*
X000850Y002817D01*
X000850Y002719D02*
X003813Y002719D01*
X003911Y002620D02*
X000850Y002620D01*
X000850Y002522D02*
X004010Y002522D01*
X004108Y002423D02*
X001952Y002423D01*
X002149Y002325D02*
X004207Y002325D01*
X004305Y002226D02*
X002248Y002226D01*
X002346Y002128D02*
X004404Y002128D01*
X004502Y002029D02*
X002391Y002029D01*
X002432Y001931D02*
X004601Y001931D01*
X004699Y001832D02*
X002473Y001832D01*
X002480Y001734D02*
X004762Y001734D01*
X004760Y001635D02*
X002480Y001635D01*
X002480Y001537D02*
X004775Y001537D01*
X004816Y001438D02*
X002460Y001438D01*
X002420Y001340D02*
X004909Y001340D01*
X004953Y003310D02*
X004759Y003310D01*
X004840Y003408D02*
X004661Y003408D01*
X004562Y003507D02*
X004787Y003507D01*
X004760Y003605D02*
X004464Y003605D01*
X004365Y003704D02*
X004760Y003704D01*
X004791Y003802D02*
X004340Y003802D01*
X004340Y003901D02*
X004849Y003901D01*
X004960Y003999D02*
X004340Y003999D01*
X004340Y004098D02*
X004960Y004098D01*
X004960Y004196D02*
X004340Y004196D01*
X004340Y004295D02*
X004960Y004295D01*
X004855Y004393D02*
X004340Y004393D01*
X004340Y004492D02*
X004794Y004492D01*
X004760Y004590D02*
X004340Y004590D01*
X004340Y004689D02*
X004760Y004689D01*
X004785Y004787D02*
X004340Y004787D01*
X004340Y004886D02*
X004834Y004886D01*
X004937Y004984D02*
X004340Y004984D01*
X004340Y005083D02*
X005199Y005083D01*
X005100Y005181D02*
X004340Y005181D01*
X004340Y005280D02*
X005002Y005280D01*
X004870Y005378D02*
X004340Y005378D01*
X004340Y005477D02*
X004800Y005477D01*
X004760Y005575D02*
X004340Y005575D01*
X004340Y005674D02*
X004760Y005674D01*
X004778Y005772D02*
X004340Y005772D01*
X004340Y005871D02*
X004819Y005871D01*
X004917Y005969D02*
X004340Y005969D01*
X005380Y007151D02*
X000850Y007151D01*
X000850Y007053D02*
X001473Y007053D01*
X001374Y006954D02*
X000850Y006954D01*
X000850Y006856D02*
X001276Y006856D01*
X001240Y006757D02*
X000850Y006757D01*
X000850Y006659D02*
X001240Y006659D01*
X001240Y006560D02*
X000850Y006560D01*
X000850Y006462D02*
X001259Y006462D01*
X001357Y006363D02*
X000850Y006363D01*
X000850Y006265D02*
X001456Y006265D01*
X001464Y006100D02*
X001200Y005836D01*
X001200Y005700D01*
X001600Y005700D01*
X001600Y006100D01*
X001464Y006100D01*
X001431Y006068D02*
X000850Y006068D01*
X000850Y006166D02*
X001865Y006166D01*
X001836Y006100D02*
X001700Y006100D01*
X001700Y005700D01*
X001600Y005700D01*
X001600Y005600D01*
X001200Y005600D01*
X001200Y005464D01*
X001464Y005200D01*
X001600Y005200D01*
X001600Y005600D01*
X001700Y005600D01*
X001700Y005700D01*
X002100Y005700D01*
X002100Y005836D01*
X001836Y006100D01*
X001869Y006068D02*
X001964Y006068D01*
X001967Y005969D02*
X002062Y005969D01*
X002066Y005871D02*
X002291Y005871D01*
X002240Y005772D02*
X002100Y005772D01*
X002240Y005674D02*
X001700Y005674D01*
X001700Y005600D02*
X002100Y005600D01*
X002100Y005464D01*
X001836Y005200D01*
X001700Y005200D01*
X001700Y005600D01*
X001700Y005575D02*
X001600Y005575D01*
X001600Y005477D02*
X001700Y005477D01*
X001700Y005378D02*
X001600Y005378D01*
X001600Y005280D02*
X001700Y005280D01*
X001916Y005280D02*
X002441Y005280D01*
X002342Y005378D02*
X002014Y005378D01*
X002100Y005477D02*
X002244Y005477D01*
X002240Y005575D02*
X002100Y005575D01*
X001700Y005772D02*
X001600Y005772D01*
X001600Y005674D02*
X000850Y005674D01*
X000850Y005772D02*
X001200Y005772D01*
X001234Y005871D02*
X000850Y005871D01*
X000850Y005969D02*
X001333Y005969D01*
X001600Y005969D02*
X001700Y005969D01*
X001700Y005871D02*
X001600Y005871D01*
X001600Y006068D02*
X001700Y006068D01*
X002060Y006560D02*
X002240Y006560D01*
X002240Y006659D02*
X002060Y006659D01*
X002060Y006757D02*
X002240Y006757D01*
X002276Y006856D02*
X002024Y006856D01*
X001926Y006954D02*
X002374Y006954D01*
X002473Y007053D02*
X001827Y007053D01*
X001829Y007250D02*
X002471Y007250D01*
X002372Y007348D02*
X001928Y007348D01*
X002026Y007447D02*
X002274Y007447D01*
X002240Y007545D02*
X002060Y007545D01*
X002060Y007644D02*
X002240Y007644D01*
X002240Y007742D02*
X002060Y007742D01*
X002109Y007841D02*
X002261Y007841D01*
X002208Y007939D02*
X002359Y007939D01*
X001867Y008136D02*
X000850Y008136D01*
X000850Y008038D02*
X001458Y008038D01*
X001359Y007939D02*
X000850Y007939D01*
X000850Y007841D02*
X001261Y007841D01*
X001240Y007742D02*
X000850Y007742D01*
X000850Y007644D02*
X001240Y007644D01*
X001240Y007545D02*
X000850Y007545D01*
X000850Y007447D02*
X001274Y007447D01*
X001372Y007348D02*
X000850Y007348D01*
X000850Y007250D02*
X001471Y007250D01*
X002107Y006462D02*
X002259Y006462D01*
X002206Y006363D02*
X002357Y006363D01*
X002827Y007053D02*
X005479Y007053D01*
X005398Y006954D02*
X005577Y006954D01*
X005487Y006856D02*
X005676Y006856D01*
X005774Y006757D02*
X005528Y006757D01*
X005540Y006659D02*
X005873Y006659D01*
X005971Y006560D02*
X005535Y006560D01*
X005607Y006462D02*
X006070Y006462D01*
X006590Y006166D02*
X012820Y006166D01*
X012820Y006068D02*
X012292Y006068D01*
X012438Y004984D02*
X012820Y004984D01*
X012820Y004886D02*
X012529Y004886D01*
X012570Y004787D02*
X012820Y004787D01*
X012820Y004689D02*
X012590Y004689D01*
X012590Y004590D02*
X012820Y004590D01*
X012820Y004492D02*
X012561Y004492D01*
X012515Y004393D02*
X012820Y004393D01*
X012820Y004295D02*
X012417Y004295D01*
X012423Y003999D02*
X012820Y003999D01*
X012820Y003901D02*
X012522Y003901D01*
X012563Y003802D02*
X012820Y003802D01*
X012820Y003704D02*
X012590Y003704D01*
X012590Y003605D02*
X012820Y003605D01*
X012820Y003507D02*
X012567Y003507D01*
X012526Y003408D02*
X012820Y003408D01*
X012820Y003310D02*
X012432Y003310D01*
X012240Y003211D02*
X012820Y003211D01*
X012820Y003113D02*
X008206Y003113D01*
X008108Y003211D02*
X010060Y003211D01*
X009730Y003014D02*
X008305Y003014D01*
X008403Y002916D02*
X009584Y002916D01*
X009673Y003310D02*
X008009Y003310D01*
X007911Y003408D02*
X009560Y003408D01*
X010570Y003014D02*
X012820Y003014D01*
X012820Y002916D02*
X010716Y002916D01*
X010783Y002817D02*
X012820Y002817D01*
X012820Y002719D02*
X010820Y002719D01*
X010820Y002620D02*
X012820Y002620D01*
X012820Y002522D02*
X010799Y002522D01*
X010755Y002423D02*
X011848Y002423D01*
X011651Y002325D02*
X010656Y002325D01*
X010179Y002029D02*
X010121Y002029D01*
X010121Y001931D02*
X010179Y001931D01*
X010179Y001832D02*
X010121Y001832D01*
X010121Y001734D02*
X010179Y001734D01*
X010179Y001537D02*
X010121Y001537D01*
X010121Y001438D02*
X010179Y001438D01*
X010179Y001340D02*
X010121Y001340D01*
X010121Y001241D02*
X010179Y001241D01*
X011582Y001044D02*
X002218Y001044D01*
X002118Y000946D02*
X011682Y000946D01*
X012649Y002325D02*
X012820Y002325D01*
X012820Y002423D02*
X012452Y002423D01*
X012748Y002226D02*
X012820Y002226D01*
X010008Y006068D02*
X006590Y006068D01*
X006661Y005969D02*
X006990Y005969D01*
X006990Y005871D02*
X006759Y005871D01*
X006810Y005772D02*
X006990Y005772D01*
X006990Y005674D02*
X006810Y005674D01*
X006810Y005575D02*
X006990Y005575D01*
X006990Y005477D02*
X006806Y005477D01*
X006708Y005378D02*
X006990Y005378D01*
X007015Y005280D02*
X006609Y005280D01*
X005896Y004886D02*
X005840Y004886D01*
X005460Y004393D02*
X005445Y004393D01*
X005460Y004295D02*
X005340Y004295D01*
X005340Y004196D02*
X005460Y004196D01*
X005460Y004098D02*
X005340Y004098D01*
X005340Y003999D02*
X005532Y003999D01*
X005451Y003901D02*
X005631Y003901D01*
X005729Y003802D02*
X005509Y003802D01*
X005282Y007250D02*
X002829Y007250D01*
X003011Y008432D02*
X003663Y008432D01*
X003761Y008530D02*
X003299Y008530D01*
X003435Y009417D02*
X003648Y009417D01*
X003746Y009515D02*
X003534Y009515D01*
X003632Y009614D02*
X003845Y009614D01*
X003943Y009712D02*
X003731Y009712D01*
X003829Y009811D02*
X004042Y009811D01*
X004140Y009909D02*
X003840Y009909D01*
X003840Y010008D02*
X004239Y010008D01*
X004337Y010106D02*
X003840Y010106D01*
X003840Y010205D02*
X004436Y010205D01*
X004534Y010303D02*
X003840Y010303D01*
X003840Y010402D02*
X004633Y010402D01*
X004731Y010500D02*
X003840Y010500D01*
X003840Y010599D02*
X004760Y010599D01*
X004760Y010697D02*
X003840Y010697D01*
X003840Y010796D02*
X004788Y010796D01*
X004842Y010894D02*
X003840Y010894D01*
X003840Y010993D02*
X004958Y010993D01*
X005342Y010993D02*
X007210Y010993D01*
X007210Y011091D02*
X003860Y011091D01*
X004973Y010205D02*
X007210Y010205D01*
X007210Y010303D02*
X005331Y010303D01*
X005453Y010402D02*
X007210Y010402D01*
X007210Y010500D02*
X005510Y010500D01*
X005540Y010599D02*
X007210Y010599D01*
X007210Y010697D02*
X005540Y010697D01*
X005512Y010796D02*
X007210Y010796D01*
X007210Y010894D02*
X005458Y010894D01*
X005295Y011288D02*
X006182Y011288D01*
X006084Y011387D02*
X005438Y011387D01*
X005504Y011485D02*
X005990Y011485D01*
X005948Y011584D02*
X005540Y011584D01*
X005540Y011682D02*
X005849Y011682D01*
X005751Y011781D02*
X005518Y011781D01*
X005473Y011879D02*
X005652Y011879D01*
X005554Y011978D02*
X005374Y011978D01*
X005340Y012076D02*
X005460Y012076D01*
X005460Y012175D02*
X005340Y012175D01*
X005340Y012273D02*
X005460Y012273D01*
X005460Y012372D02*
X005423Y012372D01*
X005894Y012175D02*
X007210Y012175D01*
X007197Y012273D02*
X006603Y012273D01*
X006701Y012372D02*
X007099Y012372D01*
X007000Y012470D02*
X006800Y012470D01*
X006810Y012569D02*
X006990Y012569D01*
X006990Y012667D02*
X006810Y012667D01*
X006810Y012766D02*
X006990Y012766D01*
X007034Y012864D02*
X006766Y012864D01*
X006667Y012963D02*
X007133Y012963D01*
X007036Y013258D02*
X006588Y013258D01*
X006686Y013357D02*
X006990Y013357D01*
X006990Y013455D02*
X006785Y013455D01*
X006810Y013554D02*
X006990Y013554D01*
X006990Y013652D02*
X006810Y013652D01*
X006810Y013751D02*
X006990Y013751D01*
X006990Y013849D02*
X006781Y013849D01*
X006682Y013948D02*
X006990Y013948D01*
X007040Y014046D02*
X006590Y014046D01*
X006590Y014145D02*
X012820Y014145D01*
X012820Y014243D02*
X012499Y014243D01*
X012496Y014240D02*
X012560Y014304D01*
X012560Y014490D01*
X012590Y014562D01*
X012590Y014738D01*
X012560Y014810D01*
X012560Y014996D01*
X012496Y015060D01*
X012310Y015060D01*
X012238Y015090D01*
X010062Y015090D01*
X009942Y015040D01*
X009792Y015040D01*
X009649Y014981D01*
X009539Y014871D01*
X009480Y014728D01*
X009480Y014572D01*
X009539Y014429D01*
X009649Y014319D01*
X009792Y014260D01*
X009942Y014260D01*
X010062Y014210D01*
X012238Y014210D01*
X012310Y014240D01*
X012496Y014240D01*
X012560Y014342D02*
X012820Y014342D01*
X012820Y014440D02*
X012560Y014440D01*
X012580Y014539D02*
X012820Y014539D01*
X012820Y014637D02*
X012590Y014637D01*
X012590Y014736D02*
X012820Y014736D01*
X012820Y014834D02*
X012560Y014834D01*
X012560Y014933D02*
X012820Y014933D01*
X012820Y015031D02*
X012525Y015031D01*
X012820Y015130D02*
X005939Y015130D01*
X005841Y015228D02*
X009785Y015228D01*
X009769Y015231D02*
X009836Y015220D01*
X010121Y015220D01*
X010121Y015621D01*
X010179Y015621D01*
X010179Y015679D01*
X010121Y015679D01*
X010121Y016080D01*
X009836Y016080D01*
X009769Y016069D01*
X009705Y016048D01*
X009645Y016018D01*
X009590Y015978D01*
X009542Y015930D01*
X009502Y015875D01*
X009472Y015815D01*
X009451Y015751D01*
X009440Y015684D01*
X009440Y015679D01*
X010121Y015679D01*
X010121Y015621D01*
X009440Y015621D01*
X009440Y015616D01*
X009451Y015549D01*
X009472Y015485D01*
X009502Y015425D01*
X005644Y015425D01*
X005742Y015327D02*
X009585Y015327D01*
X009590Y015322D02*
X009645Y015282D01*
X009705Y015252D01*
X009769Y015231D01*
X009771Y015031D02*
X006038Y015031D01*
X006136Y014933D02*
X009601Y014933D01*
X009524Y014834D02*
X006235Y014834D01*
X006333Y014736D02*
X009483Y014736D01*
X009480Y014637D02*
X006432Y014637D01*
X006530Y014539D02*
X009494Y014539D01*
X009535Y014440D02*
X006590Y014440D01*
X006590Y014342D02*
X009627Y014342D01*
X009792Y014040D02*
X009649Y013981D01*
X009539Y013871D01*
X009480Y013728D01*
X009480Y013572D01*
X009539Y013429D01*
X009649Y013319D01*
X009792Y013260D01*
X009942Y013260D01*
X010062Y013210D01*
X012238Y013210D01*
X012310Y013240D01*
X012320Y013240D01*
X012327Y013247D01*
X012399Y013277D01*
X012523Y013401D01*
X012553Y013473D01*
X012560Y013480D01*
X012560Y013490D01*
X012590Y013562D01*
X012590Y013738D01*
X012560Y013810D01*
X012560Y013820D01*
X012553Y013827D01*
X012523Y013899D01*
X012399Y014023D01*
X012327Y014053D01*
X012320Y014060D01*
X012310Y014060D01*
X012238Y014090D01*
X010062Y014090D01*
X009942Y014040D01*
X009792Y014040D01*
X009616Y013948D02*
X007810Y013948D01*
X007810Y013849D02*
X009530Y013849D01*
X009490Y013751D02*
X007810Y013751D01*
X007810Y013652D02*
X009480Y013652D01*
X009488Y013554D02*
X007810Y013554D01*
X007810Y013455D02*
X009529Y013455D01*
X009612Y013357D02*
X007810Y013357D01*
X007764Y013258D02*
X009947Y013258D01*
X009993Y013061D02*
X007590Y013061D01*
X007590Y013160D02*
X012820Y013160D01*
X012820Y013258D02*
X012353Y013258D01*
X012479Y013357D02*
X012820Y013357D01*
X012820Y013455D02*
X012545Y013455D01*
X012586Y013554D02*
X012820Y013554D01*
X012820Y013652D02*
X012590Y013652D01*
X012585Y013751D02*
X012820Y013751D01*
X012820Y013849D02*
X012544Y013849D01*
X012475Y013948D02*
X012820Y013948D01*
X012820Y014046D02*
X012344Y014046D01*
X012238Y013090D02*
X010062Y013090D01*
X009942Y013040D01*
X009792Y013040D01*
X009649Y012981D01*
X009539Y012871D01*
X009480Y012728D01*
X009480Y012572D01*
X009539Y012429D01*
X009649Y012319D01*
X009792Y012260D01*
X009942Y012260D01*
X010062Y012210D01*
X012238Y012210D01*
X012310Y012240D01*
X012320Y012240D01*
X012327Y012247D01*
X012399Y012277D01*
X012523Y012401D01*
X012553Y012473D01*
X012560Y012480D01*
X012560Y012490D01*
X012590Y012562D01*
X012590Y012738D01*
X012560Y012810D01*
X012560Y012820D01*
X012553Y012827D01*
X012523Y012899D01*
X012399Y013023D01*
X012327Y013053D01*
X012320Y013060D01*
X012310Y013060D01*
X012238Y013090D01*
X012307Y013061D02*
X012820Y013061D01*
X012820Y012963D02*
X012460Y012963D01*
X012538Y012864D02*
X012820Y012864D01*
X012820Y012766D02*
X012578Y012766D01*
X012590Y012667D02*
X012820Y012667D01*
X012820Y012569D02*
X012590Y012569D01*
X012552Y012470D02*
X012820Y012470D01*
X012820Y012372D02*
X012494Y012372D01*
X012390Y012273D02*
X012820Y012273D01*
X012820Y012175D02*
X007590Y012175D01*
X007603Y012273D02*
X009761Y012273D01*
X009597Y012372D02*
X007701Y012372D01*
X007800Y012470D02*
X009522Y012470D01*
X009482Y012569D02*
X007810Y012569D01*
X007810Y012667D02*
X009480Y012667D01*
X009496Y012766D02*
X007810Y012766D01*
X007766Y012864D02*
X009537Y012864D01*
X009631Y012963D02*
X007667Y012963D01*
X007590Y012076D02*
X010029Y012076D01*
X010062Y012090D02*
X009942Y012040D01*
X009792Y012040D01*
X009649Y011981D01*
X009539Y011871D01*
X009480Y011728D01*
X009480Y011572D01*
X009539Y011429D01*
X009649Y011319D01*
X009792Y011260D01*
X009942Y011260D01*
X010062Y011210D01*
X012238Y011210D01*
X012310Y011240D01*
X012320Y011240D01*
X012327Y011247D01*
X012399Y011277D01*
X012523Y011401D01*
X012553Y011473D01*
X012560Y011480D01*
X012560Y011490D01*
X012590Y011562D01*
X012590Y011738D01*
X012560Y011810D01*
X012560Y011820D01*
X012553Y011827D01*
X012523Y011899D01*
X012399Y012023D01*
X012327Y012053D01*
X012320Y012060D01*
X012310Y012060D01*
X012238Y012090D01*
X010062Y012090D01*
X009646Y011978D02*
X007652Y011978D01*
X007751Y011879D02*
X009547Y011879D01*
X009502Y011781D02*
X007810Y011781D01*
X007810Y011682D02*
X009480Y011682D01*
X009480Y011584D02*
X007810Y011584D01*
X007834Y011485D02*
X009516Y011485D01*
X009582Y011387D02*
X007932Y011387D01*
X008031Y011288D02*
X009725Y011288D01*
X009678Y010993D02*
X008326Y010993D01*
X008228Y011091D02*
X012820Y011091D01*
X012820Y010993D02*
X010622Y010993D01*
X010738Y010894D02*
X012820Y010894D01*
X012820Y010796D02*
X010792Y010796D01*
X010820Y010697D02*
X012820Y010697D01*
X012820Y010599D02*
X010820Y010599D01*
X010790Y010500D02*
X012820Y010500D01*
X012820Y010402D02*
X010733Y010402D01*
X010611Y010303D02*
X012820Y010303D01*
X012820Y010205D02*
X007590Y010205D01*
X007590Y010303D02*
X009689Y010303D01*
X009567Y010402D02*
X007590Y010402D01*
X007590Y010500D02*
X008281Y010500D01*
X008183Y010599D02*
X007590Y010599D01*
X007590Y010697D02*
X008084Y010697D01*
X007986Y010796D02*
X007590Y010796D01*
X007590Y010894D02*
X007887Y010894D01*
X007789Y010993D02*
X007590Y010993D01*
X007590Y011091D02*
X007690Y011091D01*
X007592Y011190D02*
X007590Y011190D01*
X008129Y011190D02*
X012820Y011190D01*
X012820Y011288D02*
X012410Y011288D01*
X012509Y011387D02*
X012820Y011387D01*
X012820Y011485D02*
X012560Y011485D01*
X012590Y011584D02*
X012820Y011584D01*
X012820Y011682D02*
X012590Y011682D01*
X012572Y011781D02*
X012820Y011781D01*
X012820Y011879D02*
X012531Y011879D01*
X012445Y011978D02*
X012820Y011978D01*
X012820Y012076D02*
X012271Y012076D01*
X010179Y010008D02*
X010121Y010008D01*
X010121Y009909D02*
X010179Y009909D01*
X010179Y009811D02*
X010121Y009811D01*
X010121Y009712D02*
X010179Y009712D01*
X010179Y009614D02*
X010121Y009614D01*
X010121Y009515D02*
X010179Y009515D01*
X010179Y009417D02*
X010121Y009417D01*
X010121Y009318D02*
X010179Y009318D01*
X009562Y010894D02*
X008425Y010894D01*
X007760Y014046D02*
X009956Y014046D01*
X009983Y014243D02*
X006590Y014243D01*
X006655Y015524D02*
X006755Y015524D01*
X006755Y015622D02*
X006655Y015622D01*
X006655Y015721D02*
X006755Y015721D01*
X006755Y015819D02*
X006655Y015819D01*
X006755Y015918D02*
X007894Y015918D01*
X007894Y016016D02*
X007446Y016016D01*
X007446Y015950D02*
X007446Y016195D01*
X007435Y016233D01*
X007416Y016268D01*
X007388Y016296D01*
X007354Y016315D01*
X007315Y016326D01*
X006755Y016326D01*
X006755Y015950D01*
X007446Y015950D01*
X007446Y015819D02*
X007894Y015819D01*
X007894Y015721D02*
X007446Y015721D01*
X007446Y015622D02*
X007894Y015622D01*
X007894Y015579D02*
X007959Y015514D01*
X008376Y015514D01*
X008507Y015460D01*
X008682Y015460D01*
X008814Y015514D01*
X009231Y015514D01*
X009295Y015579D01*
X009295Y015978D01*
X009527Y016210D01*
X010238Y016210D01*
X010358Y016260D01*
X010508Y016260D01*
X010651Y016319D01*
X010761Y016429D01*
X010820Y016572D01*
X010820Y016728D01*
X010761Y016871D01*
X010651Y016981D01*
X010508Y017040D01*
X010358Y017040D01*
X010238Y017090D01*
X009257Y017090D01*
X009096Y017023D01*
X008972Y016899D01*
X008358Y016286D01*
X007959Y016286D01*
X007894Y016221D01*
X007894Y015579D01*
X007950Y015524D02*
X007407Y015524D01*
X007446Y016115D02*
X007894Y016115D01*
X007894Y016213D02*
X007441Y016213D01*
X007360Y016312D02*
X008384Y016312D01*
X008483Y016410D02*
X005462Y016410D01*
X005514Y016509D02*
X008581Y016509D01*
X008680Y016607D02*
X005540Y016607D01*
X005540Y016706D02*
X008778Y016706D01*
X008877Y016804D02*
X005508Y016804D01*
X005449Y016903D02*
X008975Y016903D01*
X009074Y017001D02*
X005322Y017001D01*
X004978Y017001D02*
X002403Y017001D01*
X002444Y016903D02*
X004851Y016903D01*
X004383Y016115D02*
X005965Y016115D01*
X005965Y015721D02*
X005540Y015721D01*
X005540Y015622D02*
X005965Y015622D01*
X006003Y015524D02*
X005545Y015524D01*
X005015Y016016D02*
X004340Y016016D01*
X004340Y015918D02*
X004866Y015918D01*
X004798Y015819D02*
X004340Y015819D01*
X004340Y015721D02*
X004760Y015721D01*
X004760Y015622D02*
X004340Y015622D01*
X004340Y015524D02*
X004780Y015524D01*
X004823Y015425D02*
X004340Y015425D01*
X004340Y015327D02*
X004922Y015327D01*
X006655Y016016D02*
X006755Y016016D01*
X006755Y016115D02*
X006655Y016115D01*
X006655Y016213D02*
X006755Y016213D01*
X006755Y016312D02*
X006655Y016312D01*
X009240Y015524D02*
X009459Y015524D01*
X009502Y015425D02*
X009542Y015370D01*
X009590Y015322D01*
X009295Y015622D02*
X010121Y015622D01*
X010179Y015621D02*
X010179Y015220D01*
X010464Y015220D01*
X010531Y015231D01*
X010595Y015252D01*
X010655Y015282D01*
X010710Y015322D01*
X010758Y015370D01*
X010798Y015425D01*
X012820Y015425D01*
X012820Y015327D02*
X010715Y015327D01*
X010798Y015425D02*
X010828Y015485D01*
X010849Y015549D01*
X010860Y015616D01*
X010860Y015621D01*
X010179Y015621D01*
X010179Y015622D02*
X012820Y015622D01*
X012820Y015524D02*
X010841Y015524D01*
X010860Y015679D02*
X010860Y015684D01*
X010849Y015751D01*
X010828Y015815D01*
X010798Y015875D01*
X010758Y015930D01*
X010710Y015978D01*
X010655Y016018D01*
X010595Y016048D01*
X010531Y016069D01*
X010464Y016080D01*
X010179Y016080D01*
X010179Y015679D01*
X010860Y015679D01*
X010854Y015721D02*
X012820Y015721D01*
X012820Y015819D02*
X010826Y015819D01*
X010767Y015918D02*
X011750Y015918D01*
X011610Y016016D02*
X010658Y016016D01*
X010632Y016312D02*
X011392Y016312D01*
X011351Y016410D02*
X010742Y016410D01*
X010794Y016509D02*
X011320Y016509D01*
X011320Y016607D02*
X010820Y016607D01*
X010820Y016706D02*
X011320Y016706D01*
X011320Y016804D02*
X010788Y016804D01*
X010729Y016903D02*
X011356Y016903D01*
X011397Y017001D02*
X010602Y017001D01*
X010245Y016213D02*
X011433Y016213D01*
X011512Y016115D02*
X009432Y016115D01*
X009333Y016016D02*
X009642Y016016D01*
X009533Y015918D02*
X009295Y015918D01*
X009295Y015819D02*
X009474Y015819D01*
X009446Y015721D02*
X009295Y015721D01*
X010121Y015721D02*
X010179Y015721D01*
X010179Y015819D02*
X010121Y015819D01*
X010121Y015918D02*
X010179Y015918D01*
X010179Y016016D02*
X010121Y016016D01*
X010121Y015524D02*
X010179Y015524D01*
X010179Y015425D02*
X010121Y015425D01*
X010121Y015327D02*
X010179Y015327D01*
X010179Y015228D02*
X010121Y015228D01*
X010515Y015228D02*
X012820Y015228D01*
X012820Y015918D02*
X012550Y015918D01*
X012690Y016016D02*
X012820Y016016D01*
X012820Y016115D02*
X012788Y016115D01*
X011780Y017395D02*
X002020Y017395D01*
X002177Y017297D02*
X011623Y017297D01*
X011524Y017198D02*
X002276Y017198D01*
X002362Y017100D02*
X011438Y017100D01*
X010848Y007545D02*
X012820Y007545D01*
X012820Y007447D02*
X010809Y007447D01*
X010736Y007348D02*
X012820Y007348D01*
X012820Y007250D02*
X010589Y007250D01*
X009452Y007545D02*
X009262Y007545D01*
X002129Y013160D02*
X000850Y013160D01*
X000850Y013258D02*
X002100Y013258D01*
X002100Y013357D02*
X000850Y013357D01*
X000850Y013455D02*
X002100Y013455D01*
X001250Y015918D02*
X000850Y015918D01*
X000850Y016016D02*
X001110Y016016D01*
X001012Y016115D02*
X000850Y016115D01*
X000850Y016213D02*
X000933Y016213D01*
X000892Y016312D02*
X000850Y016312D01*
X000850Y016410D02*
X000851Y016410D01*
X000850Y005575D02*
X001200Y005575D01*
X001200Y005477D02*
X000850Y005477D01*
X000850Y005378D02*
X001286Y005378D01*
X001384Y005280D02*
X000850Y005280D01*
X000850Y002423D02*
X001348Y002423D01*
X001151Y002325D02*
X000850Y002325D01*
X000850Y002226D02*
X001052Y002226D01*
X000954Y002128D02*
X000850Y002128D01*
X000850Y002029D02*
X000909Y002029D01*
X000868Y001931D02*
X000850Y001931D01*
D19*
X003650Y003150D02*
X003650Y005650D01*
X003150Y006150D01*
X002150Y006150D01*
X001650Y006650D01*
X001650Y007650D02*
X002150Y008150D01*
X003650Y008150D01*
X005150Y009650D01*
X005150Y008650D02*
X004150Y007650D01*
X002650Y007650D01*
X002650Y006650D02*
X003650Y006650D01*
X004150Y006150D01*
X004150Y003650D01*
X005150Y002650D01*
X005150Y001650D02*
X003650Y003150D01*
X005150Y003650D02*
X005150Y004650D01*
X005650Y004900D02*
X005650Y004150D01*
X006150Y003650D01*
X006400Y003650D01*
X006400Y004650D02*
X005650Y005400D01*
X005650Y006150D01*
X005150Y006650D01*
X005150Y007650D02*
X006400Y006400D01*
X006400Y005650D01*
X005650Y004900D02*
X005150Y005400D01*
X005150Y005650D01*
X007400Y005650D02*
X007400Y004650D01*
X007400Y003650D01*
X008400Y002650D01*
X010150Y002650D01*
X007150Y009400D02*
X007400Y009650D01*
X007400Y011650D01*
X008400Y010650D01*
X010150Y010650D01*
X007400Y011650D02*
X007400Y012650D01*
X007400Y013650D01*
X006400Y013650D02*
X006400Y014400D01*
X005150Y015650D01*
X005150Y016650D02*
X004650Y016650D01*
X004150Y016150D01*
X004150Y011650D01*
X003650Y011150D01*
X003650Y009900D01*
X002900Y009150D01*
X002150Y009150D01*
X001650Y008650D01*
X002650Y008650D02*
X003150Y008650D01*
X005150Y010650D01*
X005150Y011650D02*
X005150Y012650D01*
X005650Y012900D02*
X005650Y012150D01*
X006150Y011650D01*
X006400Y011650D01*
X006400Y012650D02*
X005650Y013400D01*
X005650Y014150D01*
X005150Y014650D01*
X005150Y013650D02*
X005150Y013400D01*
X005650Y012900D01*
D20*
X007150Y009400D03*
D21*
X008595Y007900D02*
X009345Y008650D01*
X010150Y008650D01*
X010150Y006650D02*
X012150Y006650D01*
X012150Y005650D02*
X010150Y005650D01*
X010150Y004650D02*
X012150Y004650D01*
X012150Y003650D02*
X010150Y003650D01*
X010150Y011650D02*
X012150Y011650D01*
X012150Y012650D02*
X010150Y012650D01*
X010150Y013650D02*
X012150Y013650D01*
X012150Y014650D02*
X010150Y014650D01*
X008595Y015900D02*
X009345Y016650D01*
X010150Y016650D01*
M02*
