G75*
%MOIN*%
%OFA0B0*%
%FSLAX24Y24*%
%IPPOS*%
%LPD*%
%AMOC8*
5,1,8,0,0,1.08239X$1,22.5*
%
%ADD10C,0.0560*%
%ADD11C,0.0560*%
%ADD12R,0.0800X0.0800*%
%ADD13C,0.0800*%
%ADD14R,0.0600X0.0600*%
%ADD15OC8,0.0600*%
%ADD16C,0.0100*%
%ADD17C,0.0160*%
%ADD18C,0.0337*%
%ADD19C,0.0660*%
%ADD20C,0.0240*%
D10*
X005150Y001650D03*
X005150Y002650D03*
X005150Y003650D03*
X005150Y004650D03*
X005150Y005650D03*
X005150Y006650D03*
X005150Y007650D03*
X005150Y008650D03*
X005150Y009650D03*
X005150Y010650D03*
X005150Y011650D03*
X005150Y012650D03*
X005150Y013650D03*
X005150Y014650D03*
X005150Y015650D03*
X005150Y016650D03*
D11*
X009870Y016650D02*
X010430Y016650D01*
X010430Y015650D02*
X009870Y015650D01*
X009870Y014650D02*
X010430Y014650D01*
X010430Y013650D02*
X009870Y013650D01*
X009870Y012650D02*
X010430Y012650D01*
X010430Y011650D02*
X009870Y011650D01*
X009870Y010650D02*
X010430Y010650D01*
X010430Y009650D02*
X009870Y009650D01*
X009870Y008650D02*
X010430Y008650D01*
X010430Y007650D02*
X009870Y007650D01*
X009870Y006650D02*
X010430Y006650D01*
X010430Y005650D02*
X009870Y005650D01*
X009870Y004650D02*
X010430Y004650D01*
X010430Y003650D02*
X009870Y003650D01*
X009870Y002650D02*
X010430Y002650D01*
X010430Y001650D02*
X009870Y001650D01*
D12*
X002650Y013650D03*
D13*
X002650Y012272D03*
D14*
X001650Y009650D03*
X007400Y005650D03*
X012150Y006650D03*
X007400Y013650D03*
X012150Y014650D03*
D15*
X012150Y013650D03*
X012150Y012650D03*
X012150Y011650D03*
X012150Y005650D03*
X012150Y004650D03*
X012150Y003650D03*
X007400Y003650D03*
X007400Y004650D03*
X006400Y004650D03*
X006400Y005650D03*
X006400Y003650D03*
X002650Y005650D03*
X002650Y006650D03*
X002650Y007650D03*
X002650Y008650D03*
X002650Y009650D03*
X001650Y008650D03*
X001650Y007650D03*
X001650Y006650D03*
X001650Y005650D03*
X006400Y011650D03*
X006400Y012650D03*
X006400Y013650D03*
X007400Y012650D03*
X007400Y011650D03*
D16*
X000850Y016413D02*
X000850Y001887D01*
X000946Y002120D01*
X001180Y002354D01*
X001485Y002480D01*
X001815Y002480D01*
X002120Y002354D01*
X002354Y002120D01*
X002480Y001815D01*
X002480Y001485D01*
X002354Y001180D01*
X002120Y000946D01*
X001887Y000850D01*
X011913Y000850D01*
X011680Y000946D01*
X011446Y001180D01*
X011320Y001485D01*
X011320Y001815D01*
X011446Y002120D01*
X011680Y002354D01*
X011985Y002480D01*
X012315Y002480D01*
X012620Y002354D01*
X012820Y002154D01*
X012820Y016146D01*
X012620Y015946D01*
X012315Y015820D01*
X011985Y015820D01*
X011680Y015946D01*
X011446Y016180D01*
X011320Y016485D01*
X011320Y016815D01*
X011446Y017120D01*
X011680Y017354D01*
X011903Y017446D01*
X001897Y017446D01*
X002120Y017354D01*
X002354Y017120D01*
X002480Y016815D01*
X002480Y016485D01*
X002354Y016180D01*
X002120Y015946D01*
X001815Y015820D01*
X001485Y015820D01*
X001180Y015946D01*
X000946Y016180D01*
X000850Y016413D01*
X000850Y016410D02*
X000851Y016410D01*
X000850Y016312D02*
X000892Y016312D01*
X000850Y016213D02*
X000933Y016213D01*
X001012Y016115D02*
X000850Y016115D01*
X000850Y016016D02*
X001110Y016016D01*
X001250Y015918D02*
X000850Y015918D01*
X000850Y015819D02*
X004798Y015819D01*
X004819Y015871D02*
X004760Y015728D01*
X004760Y015572D01*
X004819Y015429D01*
X004929Y015319D01*
X005072Y015260D01*
X005228Y015260D01*
X005371Y015319D01*
X005481Y015429D01*
X005540Y015572D01*
X005540Y015728D01*
X005481Y015871D01*
X005371Y015981D01*
X005228Y016040D01*
X005072Y016040D01*
X004929Y015981D01*
X004819Y015871D01*
X004866Y015918D02*
X002050Y015918D01*
X002190Y016016D02*
X005015Y016016D01*
X005072Y016260D02*
X005228Y016260D01*
X005371Y016319D01*
X005481Y016429D01*
X005540Y016572D01*
X005540Y016728D01*
X005481Y016871D01*
X005371Y016981D01*
X005228Y017040D01*
X005072Y017040D01*
X004929Y016981D01*
X004819Y016871D01*
X004760Y016728D01*
X004760Y016572D01*
X004819Y016429D01*
X004929Y016319D01*
X005072Y016260D01*
X004948Y016312D02*
X002408Y016312D01*
X002449Y016410D02*
X004838Y016410D01*
X004786Y016509D02*
X002480Y016509D01*
X002480Y016607D02*
X004760Y016607D01*
X004760Y016706D02*
X002480Y016706D01*
X002480Y016804D02*
X004792Y016804D01*
X004851Y016903D02*
X002444Y016903D01*
X002403Y017001D02*
X004978Y017001D01*
X005322Y017001D02*
X008879Y017001D01*
X008901Y017023D02*
X007901Y016023D01*
X007777Y015899D01*
X007710Y015738D01*
X007710Y014060D01*
X007054Y014060D01*
X006990Y013996D01*
X006990Y013380D01*
X006710Y013380D01*
X006810Y013480D01*
X006810Y013820D01*
X006570Y014060D01*
X006230Y014060D01*
X005990Y013820D01*
X005990Y013480D01*
X006090Y013380D01*
X005432Y013380D01*
X005481Y013429D01*
X005540Y013572D01*
X005540Y013728D01*
X005481Y013871D01*
X005371Y013981D01*
X005228Y014040D01*
X005072Y014040D01*
X004929Y013981D01*
X004819Y013871D01*
X004760Y013728D01*
X004760Y013572D01*
X004819Y013429D01*
X004868Y013380D01*
X003433Y013380D01*
X003298Y013245D01*
X002810Y012758D01*
X002751Y012782D01*
X002549Y012782D01*
X002361Y012704D01*
X002218Y012561D01*
X002140Y012373D01*
X002140Y012171D01*
X002218Y011983D01*
X002361Y011840D01*
X002542Y011765D01*
X002542Y010933D01*
X003420Y010055D01*
X003555Y009920D01*
X004868Y009920D01*
X004819Y009871D01*
X004760Y009728D01*
X004760Y009572D01*
X004819Y009429D01*
X004929Y009319D01*
X005072Y009260D01*
X005228Y009260D01*
X005371Y009319D01*
X005481Y009429D01*
X005540Y009572D01*
X005540Y009728D01*
X005481Y009871D01*
X005432Y009920D01*
X007710Y009920D01*
X007710Y009562D01*
X007777Y009401D01*
X007901Y009277D01*
X008777Y008401D01*
X008777Y008401D01*
X008901Y008277D01*
X009062Y008210D01*
X010238Y008210D01*
X010358Y008260D01*
X010508Y008260D01*
X010651Y008319D01*
X010761Y008429D01*
X010820Y008572D01*
X010820Y008728D01*
X010761Y008871D01*
X010651Y008981D01*
X010508Y009040D01*
X010358Y009040D01*
X010238Y009090D01*
X009332Y009090D01*
X008590Y009832D01*
X008590Y015468D01*
X009332Y016210D01*
X010238Y016210D01*
X010358Y016260D01*
X010508Y016260D01*
X010651Y016319D01*
X010761Y016429D01*
X010820Y016572D01*
X010820Y016728D01*
X010761Y016871D01*
X010651Y016981D01*
X010508Y017040D01*
X010358Y017040D01*
X010238Y017090D01*
X009062Y017090D01*
X008901Y017023D01*
X008780Y016903D02*
X005449Y016903D01*
X005508Y016804D02*
X008682Y016804D01*
X008583Y016706D02*
X005540Y016706D01*
X005540Y016607D02*
X008485Y016607D01*
X008386Y016509D02*
X005514Y016509D01*
X005462Y016410D02*
X008288Y016410D01*
X008189Y016312D02*
X005352Y016312D01*
X005285Y016016D02*
X007894Y016016D01*
X007992Y016115D02*
X002288Y016115D01*
X002367Y016213D02*
X008091Y016213D01*
X007795Y015918D02*
X005434Y015918D01*
X005502Y015819D02*
X007744Y015819D01*
X007710Y015721D02*
X005540Y015721D01*
X005540Y015622D02*
X007710Y015622D01*
X007710Y015524D02*
X005520Y015524D01*
X005477Y015425D02*
X007710Y015425D01*
X007710Y015327D02*
X005378Y015327D01*
X005249Y015031D02*
X007710Y015031D01*
X007710Y014933D02*
X005419Y014933D01*
X005371Y014981D02*
X005481Y014871D01*
X005540Y014728D01*
X005540Y014572D01*
X005481Y014429D01*
X005371Y014319D01*
X005228Y014260D01*
X005072Y014260D01*
X004929Y014319D01*
X004819Y014429D01*
X004760Y014572D01*
X004760Y014728D01*
X004819Y014871D01*
X004929Y014981D01*
X005072Y015040D01*
X005228Y015040D01*
X005371Y014981D01*
X005496Y014834D02*
X007710Y014834D01*
X007710Y014736D02*
X005537Y014736D01*
X005540Y014637D02*
X007710Y014637D01*
X007710Y014539D02*
X005526Y014539D01*
X005485Y014440D02*
X007710Y014440D01*
X007710Y014342D02*
X005393Y014342D01*
X005404Y013948D02*
X006118Y013948D01*
X006216Y014046D02*
X003200Y014046D01*
X003200Y014070D02*
X003190Y014108D01*
X003170Y014142D01*
X003142Y014170D01*
X003108Y014190D01*
X003070Y014200D01*
X002700Y014200D01*
X002700Y013700D01*
X002600Y013700D01*
X002600Y014200D01*
X002230Y014200D01*
X002192Y014190D01*
X002158Y014170D01*
X002130Y014142D01*
X002110Y014108D01*
X002100Y014070D01*
X002100Y013700D01*
X002600Y013700D01*
X002600Y013600D01*
X002700Y013600D01*
X002700Y013700D01*
X003200Y013700D01*
X003200Y014070D01*
X003168Y014145D02*
X007710Y014145D01*
X007710Y014243D02*
X000850Y014243D01*
X000850Y014145D02*
X002132Y014145D01*
X002100Y014046D02*
X000850Y014046D01*
X000850Y013948D02*
X002100Y013948D01*
X002100Y013849D02*
X000850Y013849D01*
X000850Y013751D02*
X002100Y013751D01*
X002100Y013600D02*
X002100Y013230D01*
X002110Y013192D01*
X002130Y013158D01*
X002158Y013130D01*
X002192Y013110D01*
X002230Y013100D01*
X002600Y013100D01*
X002600Y013600D01*
X002100Y013600D01*
X002100Y013554D02*
X000850Y013554D01*
X000850Y013652D02*
X002600Y013652D01*
X002600Y013554D02*
X002700Y013554D01*
X002700Y013600D02*
X002700Y013100D01*
X003070Y013100D01*
X003108Y013110D01*
X003142Y013130D01*
X003170Y013158D01*
X003190Y013192D01*
X003200Y013230D01*
X003200Y013600D01*
X002700Y013600D01*
X002700Y013652D02*
X004760Y013652D01*
X004768Y013554D02*
X003200Y013554D01*
X003200Y013455D02*
X004809Y013455D01*
X004770Y013751D02*
X003200Y013751D01*
X003200Y013849D02*
X004810Y013849D01*
X004896Y013948D02*
X003200Y013948D01*
X002700Y013948D02*
X002600Y013948D01*
X002600Y014046D02*
X002700Y014046D01*
X002700Y014145D02*
X002600Y014145D01*
X002600Y013849D02*
X002700Y013849D01*
X002700Y013751D02*
X002600Y013751D01*
X002600Y013455D02*
X002700Y013455D01*
X002700Y013357D02*
X002600Y013357D01*
X002600Y013258D02*
X002700Y013258D01*
X002700Y013160D02*
X002600Y013160D01*
X002509Y012766D02*
X000850Y012766D01*
X000850Y012864D02*
X002917Y012864D01*
X003015Y012963D02*
X000850Y012963D01*
X000850Y013061D02*
X003114Y013061D01*
X003171Y013160D02*
X003212Y013160D01*
X003200Y013258D02*
X003311Y013258D01*
X003298Y013245D02*
X003298Y013245D01*
X003200Y013357D02*
X003409Y013357D01*
X002818Y012766D02*
X002791Y012766D01*
X002324Y012667D02*
X000850Y012667D01*
X000850Y012569D02*
X002225Y012569D01*
X002180Y012470D02*
X000850Y012470D01*
X000850Y012372D02*
X002140Y012372D01*
X002140Y012273D02*
X000850Y012273D01*
X000850Y012175D02*
X002140Y012175D01*
X002179Y012076D02*
X000850Y012076D01*
X000850Y011978D02*
X002223Y011978D01*
X002322Y011879D02*
X000850Y011879D01*
X000850Y011781D02*
X002504Y011781D01*
X002542Y011682D02*
X000850Y011682D01*
X000850Y011584D02*
X002542Y011584D01*
X002542Y011485D02*
X000850Y011485D01*
X000850Y011387D02*
X002542Y011387D01*
X002542Y011288D02*
X000850Y011288D01*
X000850Y011190D02*
X002542Y011190D01*
X002542Y011091D02*
X000850Y011091D01*
X000850Y010993D02*
X002542Y010993D01*
X002581Y010894D02*
X000850Y010894D01*
X000850Y010796D02*
X002679Y010796D01*
X002778Y010697D02*
X000850Y010697D01*
X000850Y010599D02*
X002876Y010599D01*
X002975Y010500D02*
X000850Y010500D01*
X000850Y010402D02*
X003073Y010402D01*
X003172Y010303D02*
X000850Y010303D01*
X000850Y010205D02*
X003270Y010205D01*
X003369Y010106D02*
X000850Y010106D01*
X000850Y010008D02*
X001252Y010008D01*
X001240Y009996D02*
X001304Y010060D01*
X001996Y010060D01*
X002060Y009996D01*
X002060Y009304D01*
X001996Y009240D01*
X001304Y009240D01*
X001240Y009304D01*
X001240Y009996D01*
X001240Y009909D02*
X000850Y009909D01*
X000850Y009811D02*
X001240Y009811D01*
X001240Y009712D02*
X000850Y009712D01*
X000850Y009614D02*
X001240Y009614D01*
X001240Y009515D02*
X000850Y009515D01*
X000850Y009417D02*
X001240Y009417D01*
X001240Y009318D02*
X000850Y009318D01*
X000850Y009220D02*
X006937Y009220D01*
X006914Y009242D02*
X006992Y009164D01*
X007095Y009122D01*
X007160Y009122D01*
X007210Y009071D01*
X007210Y006060D01*
X007128Y006060D01*
X006771Y006298D01*
X006729Y006340D01*
X006708Y006340D01*
X006690Y006352D01*
X006631Y006340D01*
X005392Y006340D01*
X005481Y006429D01*
X005540Y006572D01*
X005540Y006728D01*
X005481Y006871D01*
X005371Y006981D01*
X005228Y007040D01*
X005072Y007040D01*
X004929Y006981D01*
X004819Y006871D01*
X004760Y006728D01*
X004760Y006572D01*
X004819Y006429D01*
X004908Y006340D01*
X003071Y006340D01*
X002960Y006229D01*
X002791Y006060D01*
X002480Y006060D01*
X002240Y005820D01*
X002240Y005480D01*
X002480Y005240D01*
X002820Y005240D01*
X003060Y005480D01*
X003060Y005791D01*
X003229Y005960D01*
X004908Y005960D01*
X004819Y005871D01*
X004760Y005728D01*
X004760Y005572D01*
X004819Y005429D01*
X004929Y005319D01*
X005072Y005260D01*
X005228Y005260D01*
X005371Y005319D01*
X005481Y005429D01*
X005540Y005572D01*
X005540Y005728D01*
X005481Y005871D01*
X005392Y005960D01*
X006130Y005960D01*
X005990Y005820D01*
X005990Y005480D01*
X006230Y005240D01*
X006570Y005240D01*
X006810Y005480D01*
X006810Y005815D01*
X006990Y005695D01*
X006990Y005304D01*
X007054Y005240D01*
X007746Y005240D01*
X007810Y005304D01*
X007810Y005996D01*
X007746Y006060D01*
X007590Y006060D01*
X007590Y009229D01*
X007428Y009390D01*
X007428Y009455D01*
X007386Y009558D01*
X007308Y009636D01*
X007205Y009678D01*
X007095Y009678D01*
X006992Y009636D01*
X006914Y009558D01*
X006872Y009455D01*
X006872Y009345D01*
X006914Y009242D01*
X006883Y009318D02*
X005368Y009318D01*
X005468Y009417D02*
X006872Y009417D01*
X006896Y009515D02*
X005516Y009515D01*
X005540Y009614D02*
X006970Y009614D01*
X007330Y009614D02*
X007710Y009614D01*
X007710Y009712D02*
X005540Y009712D01*
X005506Y009811D02*
X007710Y009811D01*
X007710Y009909D02*
X005443Y009909D01*
X004857Y009909D02*
X002971Y009909D01*
X003060Y009820D02*
X002820Y010060D01*
X002480Y010060D01*
X002240Y009820D01*
X002240Y009480D01*
X002480Y009240D01*
X002820Y009240D01*
X003060Y009480D01*
X003060Y009820D01*
X003060Y009811D02*
X004794Y009811D01*
X004760Y009712D02*
X003060Y009712D01*
X003060Y009614D02*
X004760Y009614D01*
X004784Y009515D02*
X003060Y009515D01*
X002996Y009417D02*
X004832Y009417D01*
X004932Y009318D02*
X002898Y009318D01*
X002820Y009060D02*
X002480Y009060D01*
X002240Y008820D01*
X002240Y008480D01*
X002480Y008240D01*
X002820Y008240D01*
X003060Y008480D01*
X003060Y008820D01*
X002820Y009060D01*
X002857Y009023D02*
X005030Y009023D01*
X005072Y009040D02*
X004929Y008981D01*
X004819Y008871D01*
X004760Y008728D01*
X004760Y008572D01*
X004819Y008429D01*
X004929Y008319D01*
X005072Y008260D01*
X005228Y008260D01*
X005371Y008319D01*
X005481Y008429D01*
X005540Y008572D01*
X005540Y008728D01*
X005481Y008871D01*
X005371Y008981D01*
X005228Y009040D01*
X005072Y009040D01*
X004872Y008924D02*
X002956Y008924D01*
X003054Y008826D02*
X004801Y008826D01*
X004760Y008727D02*
X003060Y008727D01*
X003060Y008629D02*
X004760Y008629D01*
X004778Y008530D02*
X003060Y008530D01*
X003011Y008432D02*
X004818Y008432D01*
X004915Y008333D02*
X002913Y008333D01*
X002820Y008060D02*
X002480Y008060D01*
X002240Y007820D01*
X002240Y007480D01*
X002480Y007240D01*
X002820Y007240D01*
X003060Y007480D01*
X003060Y007820D01*
X002820Y008060D01*
X002842Y008038D02*
X005066Y008038D01*
X005072Y008040D02*
X004929Y007981D01*
X004819Y007871D01*
X004760Y007728D01*
X004760Y007572D01*
X004819Y007429D01*
X004929Y007319D01*
X005072Y007260D01*
X005228Y007260D01*
X005371Y007319D01*
X005481Y007429D01*
X005540Y007572D01*
X005540Y007728D01*
X005481Y007871D01*
X005371Y007981D01*
X005228Y008040D01*
X005072Y008040D01*
X005234Y008038D02*
X007210Y008038D01*
X007210Y008136D02*
X000850Y008136D01*
X000850Y008038D02*
X001458Y008038D01*
X001480Y008060D02*
X001240Y007820D01*
X001240Y007480D01*
X001480Y007240D01*
X001820Y007240D01*
X002060Y007480D01*
X002060Y007820D01*
X001820Y008060D01*
X001480Y008060D01*
X001359Y007939D02*
X000850Y007939D01*
X000850Y007841D02*
X001261Y007841D01*
X001240Y007742D02*
X000850Y007742D01*
X000850Y007644D02*
X001240Y007644D01*
X001240Y007545D02*
X000850Y007545D01*
X000850Y007447D02*
X001274Y007447D01*
X001372Y007348D02*
X000850Y007348D01*
X000850Y007250D02*
X001471Y007250D01*
X001480Y007060D02*
X001240Y006820D01*
X001240Y006480D01*
X001480Y006240D01*
X001820Y006240D01*
X002060Y006480D01*
X002060Y006820D01*
X001820Y007060D01*
X001480Y007060D01*
X001473Y007053D02*
X000850Y007053D01*
X000850Y007151D02*
X007210Y007151D01*
X007210Y007053D02*
X002827Y007053D01*
X002820Y007060D02*
X002480Y007060D01*
X002240Y006820D01*
X002240Y006480D01*
X002480Y006240D01*
X002820Y006240D01*
X003060Y006480D01*
X003060Y006820D01*
X002820Y007060D01*
X002926Y006954D02*
X004902Y006954D01*
X004813Y006856D02*
X003024Y006856D01*
X003060Y006757D02*
X004772Y006757D01*
X004760Y006659D02*
X003060Y006659D01*
X003060Y006560D02*
X004765Y006560D01*
X004806Y006462D02*
X003041Y006462D01*
X002943Y006363D02*
X004885Y006363D01*
X004819Y005871D02*
X003139Y005871D01*
X003060Y005772D02*
X004778Y005772D01*
X004760Y005674D02*
X003060Y005674D01*
X003060Y005575D02*
X004760Y005575D01*
X004800Y005477D02*
X003056Y005477D01*
X002958Y005378D02*
X004870Y005378D01*
X005025Y005280D02*
X002859Y005280D01*
X002441Y005280D02*
X001916Y005280D01*
X001836Y005200D02*
X002100Y005464D01*
X002100Y005600D01*
X001700Y005600D01*
X001700Y005700D01*
X001600Y005700D01*
X001600Y006100D01*
X001464Y006100D01*
X001200Y005836D01*
X001200Y005700D01*
X001600Y005700D01*
X001600Y005600D01*
X001200Y005600D01*
X001200Y005464D01*
X001464Y005200D01*
X001600Y005200D01*
X001600Y005600D01*
X001700Y005600D01*
X001700Y005200D01*
X001836Y005200D01*
X001700Y005280D02*
X001600Y005280D01*
X001600Y005378D02*
X001700Y005378D01*
X001700Y005477D02*
X001600Y005477D01*
X001600Y005575D02*
X001700Y005575D01*
X001700Y005674D02*
X002240Y005674D01*
X002240Y005772D02*
X002100Y005772D01*
X002100Y005836D02*
X001836Y006100D01*
X001700Y006100D01*
X001700Y005700D01*
X002100Y005700D01*
X002100Y005836D01*
X002066Y005871D02*
X002291Y005871D01*
X002389Y005969D02*
X001967Y005969D01*
X001869Y006068D02*
X002799Y006068D01*
X002897Y006166D02*
X000850Y006166D01*
X000850Y006068D02*
X001431Y006068D01*
X001333Y005969D02*
X000850Y005969D01*
X000850Y005871D02*
X001234Y005871D01*
X001200Y005772D02*
X000850Y005772D01*
X000850Y005674D02*
X001600Y005674D01*
X001600Y005772D02*
X001700Y005772D01*
X001700Y005871D02*
X001600Y005871D01*
X001600Y005969D02*
X001700Y005969D01*
X001700Y006068D02*
X001600Y006068D01*
X001456Y006265D02*
X000850Y006265D01*
X000850Y006363D02*
X001357Y006363D01*
X001259Y006462D02*
X000850Y006462D01*
X000850Y006560D02*
X001240Y006560D01*
X001240Y006659D02*
X000850Y006659D01*
X000850Y006757D02*
X001240Y006757D01*
X001276Y006856D02*
X000850Y006856D01*
X000850Y006954D02*
X001374Y006954D01*
X001827Y007053D02*
X002473Y007053D01*
X002374Y006954D02*
X001926Y006954D01*
X002024Y006856D02*
X002276Y006856D01*
X002240Y006757D02*
X002060Y006757D01*
X002060Y006659D02*
X002240Y006659D01*
X002240Y006560D02*
X002060Y006560D01*
X002041Y006462D02*
X002259Y006462D01*
X002357Y006363D02*
X001943Y006363D01*
X001844Y006265D02*
X002456Y006265D01*
X002844Y006265D02*
X002996Y006265D01*
X002829Y007250D02*
X007210Y007250D01*
X007210Y007348D02*
X005400Y007348D01*
X005488Y007447D02*
X007210Y007447D01*
X007210Y007545D02*
X005529Y007545D01*
X005540Y007644D02*
X007210Y007644D01*
X007210Y007742D02*
X005534Y007742D01*
X005493Y007841D02*
X007210Y007841D01*
X007210Y007939D02*
X005413Y007939D01*
X005385Y008333D02*
X007210Y008333D01*
X007210Y008235D02*
X000850Y008235D01*
X000850Y008333D02*
X001387Y008333D01*
X001480Y008240D02*
X001820Y008240D01*
X002060Y008480D01*
X002060Y008820D01*
X001820Y009060D01*
X001480Y009060D01*
X001240Y008820D01*
X001240Y008480D01*
X001480Y008240D01*
X001289Y008432D02*
X000850Y008432D01*
X000850Y008530D02*
X001240Y008530D01*
X001240Y008629D02*
X000850Y008629D01*
X000850Y008727D02*
X001240Y008727D01*
X001246Y008826D02*
X000850Y008826D01*
X000850Y008924D02*
X001344Y008924D01*
X001443Y009023D02*
X000850Y009023D01*
X000850Y009121D02*
X007160Y009121D01*
X007210Y009023D02*
X005270Y009023D01*
X005428Y008924D02*
X007210Y008924D01*
X007210Y008826D02*
X005499Y008826D01*
X005540Y008727D02*
X007210Y008727D01*
X007210Y008629D02*
X005540Y008629D01*
X005522Y008530D02*
X007210Y008530D01*
X007210Y008432D02*
X005482Y008432D01*
X004887Y007939D02*
X002941Y007939D01*
X003039Y007841D02*
X004807Y007841D01*
X004766Y007742D02*
X003060Y007742D01*
X003060Y007644D02*
X004760Y007644D01*
X004771Y007545D02*
X003060Y007545D01*
X003026Y007447D02*
X004812Y007447D01*
X004900Y007348D02*
X002928Y007348D01*
X002471Y007250D02*
X001829Y007250D01*
X001928Y007348D02*
X002372Y007348D01*
X002274Y007447D02*
X002026Y007447D01*
X002060Y007545D02*
X002240Y007545D01*
X002240Y007644D02*
X002060Y007644D01*
X002060Y007742D02*
X002240Y007742D01*
X002261Y007841D02*
X002039Y007841D01*
X001941Y007939D02*
X002359Y007939D01*
X002458Y008038D02*
X001842Y008038D01*
X001913Y008333D02*
X002387Y008333D01*
X002289Y008432D02*
X002011Y008432D01*
X002060Y008530D02*
X002240Y008530D01*
X002240Y008629D02*
X002060Y008629D01*
X002060Y008727D02*
X002240Y008727D01*
X002246Y008826D02*
X002054Y008826D01*
X001956Y008924D02*
X002344Y008924D01*
X002443Y009023D02*
X001857Y009023D01*
X002060Y009318D02*
X002402Y009318D01*
X002304Y009417D02*
X002060Y009417D01*
X002060Y009515D02*
X002240Y009515D01*
X002240Y009614D02*
X002060Y009614D01*
X002060Y009712D02*
X002240Y009712D01*
X002240Y009811D02*
X002060Y009811D01*
X002060Y009909D02*
X002329Y009909D01*
X002428Y010008D02*
X002048Y010008D01*
X002872Y010008D02*
X003467Y010008D01*
X005398Y006954D02*
X007210Y006954D01*
X007210Y006856D02*
X005487Y006856D01*
X005528Y006757D02*
X007210Y006757D01*
X007210Y006659D02*
X005540Y006659D01*
X005535Y006560D02*
X007210Y006560D01*
X007210Y006462D02*
X005494Y006462D01*
X005415Y006363D02*
X007210Y006363D01*
X007210Y006265D02*
X006821Y006265D01*
X006969Y006166D02*
X007210Y006166D01*
X007210Y006068D02*
X007116Y006068D01*
X006874Y005772D02*
X006810Y005772D01*
X006810Y005674D02*
X006990Y005674D01*
X006990Y005575D02*
X006810Y005575D01*
X006806Y005477D02*
X006990Y005477D01*
X006990Y005378D02*
X006708Y005378D01*
X006609Y005280D02*
X007015Y005280D01*
X007154Y004984D02*
X006646Y004984D01*
X006570Y005060D02*
X006810Y004820D01*
X006810Y004480D01*
X006570Y004240D01*
X006230Y004240D01*
X005990Y004480D01*
X005990Y004820D01*
X006230Y005060D01*
X006570Y005060D01*
X006744Y004886D02*
X007056Y004886D01*
X006990Y004820D02*
X007230Y005060D01*
X007570Y005060D01*
X007810Y004820D01*
X007810Y004480D01*
X007570Y004240D01*
X007230Y004240D01*
X006990Y004480D01*
X006990Y004820D01*
X006990Y004787D02*
X006810Y004787D01*
X006810Y004689D02*
X006990Y004689D01*
X006990Y004590D02*
X006810Y004590D01*
X006810Y004492D02*
X006990Y004492D01*
X007077Y004393D02*
X006723Y004393D01*
X006624Y004295D02*
X007176Y004295D01*
X007230Y004060D02*
X006990Y003820D01*
X006990Y003480D01*
X007230Y003240D01*
X007570Y003240D01*
X007810Y003480D01*
X007810Y003820D01*
X007570Y004060D01*
X007230Y004060D01*
X007169Y003999D02*
X006631Y003999D01*
X006570Y004060D02*
X006230Y004060D01*
X005990Y003820D01*
X005990Y003480D01*
X006230Y003240D01*
X006570Y003240D01*
X006810Y003480D01*
X006810Y003820D01*
X006570Y004060D01*
X006729Y003901D02*
X007071Y003901D01*
X006990Y003802D02*
X006810Y003802D01*
X006810Y003704D02*
X006990Y003704D01*
X006990Y003605D02*
X006810Y003605D01*
X006810Y003507D02*
X006990Y003507D01*
X007062Y003408D02*
X006738Y003408D01*
X006639Y003310D02*
X007161Y003310D01*
X007639Y003310D02*
X009673Y003310D01*
X009649Y003319D02*
X009792Y003260D01*
X009942Y003260D01*
X010062Y003210D01*
X012238Y003210D01*
X012310Y003240D01*
X012320Y003240D01*
X012327Y003247D01*
X012399Y003277D01*
X012523Y003401D01*
X012553Y003473D01*
X012560Y003480D01*
X012560Y003490D01*
X012590Y003562D01*
X012590Y003738D01*
X012560Y003810D01*
X012560Y003820D01*
X012553Y003827D01*
X012523Y003899D01*
X012399Y004023D01*
X012327Y004053D01*
X012320Y004060D01*
X012310Y004060D01*
X012238Y004090D01*
X010062Y004090D01*
X009942Y004040D01*
X009792Y004040D01*
X009649Y003981D01*
X009539Y003871D01*
X009480Y003728D01*
X009480Y003572D01*
X009539Y003429D01*
X009649Y003319D01*
X009560Y003408D02*
X007738Y003408D01*
X007810Y003507D02*
X009507Y003507D01*
X009480Y003605D02*
X007810Y003605D01*
X007810Y003704D02*
X009480Y003704D01*
X009511Y003802D02*
X007810Y003802D01*
X007729Y003901D02*
X009569Y003901D01*
X009693Y003999D02*
X007631Y003999D01*
X007624Y004295D02*
X009709Y004295D01*
X009649Y004319D02*
X009792Y004260D01*
X009942Y004260D01*
X010062Y004210D01*
X012238Y004210D01*
X012310Y004240D01*
X012320Y004240D01*
X012327Y004247D01*
X012399Y004277D01*
X012523Y004401D01*
X012553Y004473D01*
X012560Y004480D01*
X012560Y004490D01*
X012590Y004562D01*
X012590Y004738D01*
X012560Y004810D01*
X012560Y004820D01*
X012553Y004827D01*
X012523Y004899D01*
X012399Y005023D01*
X012327Y005053D01*
X012320Y005060D01*
X012310Y005060D01*
X012238Y005090D01*
X010062Y005090D01*
X009942Y005040D01*
X009792Y005040D01*
X009649Y004981D01*
X009539Y004871D01*
X009480Y004728D01*
X009480Y004572D01*
X009539Y004429D01*
X009649Y004319D01*
X009575Y004393D02*
X007723Y004393D01*
X007810Y004492D02*
X009514Y004492D01*
X009480Y004590D02*
X007810Y004590D01*
X007810Y004689D02*
X009480Y004689D01*
X009505Y004787D02*
X007810Y004787D01*
X007744Y004886D02*
X009554Y004886D01*
X009657Y004984D02*
X007646Y004984D01*
X007785Y005280D02*
X009745Y005280D01*
X009792Y005260D02*
X009942Y005260D01*
X010062Y005210D01*
X012238Y005210D01*
X012310Y005240D01*
X012320Y005240D01*
X012327Y005247D01*
X012399Y005277D01*
X012523Y005401D01*
X012553Y005473D01*
X012560Y005480D01*
X012560Y005490D01*
X012590Y005562D01*
X012590Y005738D01*
X012560Y005810D01*
X012560Y005820D01*
X012553Y005827D01*
X012523Y005899D01*
X012399Y006023D01*
X012327Y006053D01*
X012320Y006060D01*
X012310Y006060D01*
X012238Y006090D01*
X010062Y006090D01*
X009942Y006040D01*
X009792Y006040D01*
X009649Y005981D01*
X009539Y005871D01*
X009480Y005728D01*
X009480Y005572D01*
X009539Y005429D01*
X009649Y005319D01*
X009792Y005260D01*
X009590Y005378D02*
X007810Y005378D01*
X007810Y005477D02*
X009520Y005477D01*
X009480Y005575D02*
X007810Y005575D01*
X007810Y005674D02*
X009480Y005674D01*
X009498Y005772D02*
X007810Y005772D01*
X007810Y005871D02*
X009539Y005871D01*
X009637Y005969D02*
X007810Y005969D01*
X007590Y006068D02*
X010008Y006068D01*
X010062Y006210D02*
X012238Y006210D01*
X012310Y006240D01*
X012496Y006240D01*
X012560Y006304D01*
X012560Y006490D01*
X012590Y006562D01*
X012590Y006738D01*
X012560Y006810D01*
X012560Y006996D01*
X012496Y007060D01*
X012310Y007060D01*
X012238Y007090D01*
X010062Y007090D01*
X009942Y007040D01*
X009792Y007040D01*
X009649Y006981D01*
X009539Y006871D01*
X009480Y006728D01*
X009480Y006572D01*
X009539Y006429D01*
X009649Y006319D01*
X009792Y006260D01*
X009942Y006260D01*
X010062Y006210D01*
X009782Y006265D02*
X007590Y006265D01*
X007590Y006363D02*
X009605Y006363D01*
X009526Y006462D02*
X007590Y006462D01*
X007590Y006560D02*
X009485Y006560D01*
X009480Y006659D02*
X007590Y006659D01*
X007590Y006757D02*
X009492Y006757D01*
X009533Y006856D02*
X007590Y006856D01*
X007590Y006954D02*
X009622Y006954D01*
X009711Y007250D02*
X007590Y007250D01*
X007590Y007348D02*
X009564Y007348D01*
X009542Y007370D02*
X009590Y007322D01*
X009645Y007282D01*
X009705Y007252D01*
X009769Y007231D01*
X009836Y007220D01*
X010121Y007220D01*
X010121Y007621D01*
X010179Y007621D01*
X010179Y007679D01*
X010121Y007679D01*
X010121Y008080D01*
X009836Y008080D01*
X009769Y008069D01*
X009705Y008048D01*
X009645Y008018D01*
X009590Y007978D01*
X009542Y007930D01*
X009502Y007875D01*
X009472Y007815D01*
X009451Y007751D01*
X009440Y007684D01*
X009440Y007679D01*
X010121Y007679D01*
X010121Y007621D01*
X009440Y007621D01*
X009440Y007616D01*
X009451Y007549D01*
X009472Y007485D01*
X009502Y007425D01*
X009542Y007370D01*
X009491Y007447D02*
X007590Y007447D01*
X007590Y007545D02*
X009452Y007545D01*
X009449Y007742D02*
X007590Y007742D01*
X007590Y007644D02*
X010121Y007644D01*
X010179Y007644D02*
X012820Y007644D01*
X012820Y007742D02*
X010851Y007742D01*
X010849Y007751D02*
X010828Y007815D01*
X010798Y007875D01*
X010758Y007930D01*
X010710Y007978D01*
X010655Y008018D01*
X010595Y008048D01*
X010531Y008069D01*
X010464Y008080D01*
X010179Y008080D01*
X010179Y007679D01*
X010860Y007679D01*
X010860Y007684D01*
X010849Y007751D01*
X010816Y007841D02*
X012820Y007841D01*
X012820Y007939D02*
X010749Y007939D01*
X010617Y008038D02*
X012820Y008038D01*
X012820Y008136D02*
X007590Y008136D01*
X007590Y008038D02*
X009683Y008038D01*
X009551Y007939D02*
X007590Y007939D01*
X007590Y007841D02*
X009484Y007841D01*
X009003Y008235D02*
X007590Y008235D01*
X007590Y008333D02*
X008845Y008333D01*
X008746Y008432D02*
X007590Y008432D01*
X007590Y008530D02*
X008648Y008530D01*
X008549Y008629D02*
X007590Y008629D01*
X007590Y008727D02*
X008451Y008727D01*
X008352Y008826D02*
X007590Y008826D01*
X007590Y008924D02*
X008254Y008924D01*
X008155Y009023D02*
X007590Y009023D01*
X007590Y009121D02*
X008057Y009121D01*
X007958Y009220D02*
X007590Y009220D01*
X007501Y009318D02*
X007860Y009318D01*
X007901Y009277D02*
X007901Y009277D01*
X007770Y009417D02*
X007428Y009417D01*
X007404Y009515D02*
X007730Y009515D01*
X008612Y009811D02*
X009470Y009811D01*
X009472Y009815D02*
X009451Y009751D01*
X009440Y009684D01*
X009440Y009679D01*
X010121Y009679D01*
X010121Y010080D01*
X009836Y010080D01*
X009769Y010069D01*
X009705Y010048D01*
X009645Y010018D01*
X009590Y009978D01*
X009542Y009930D01*
X009502Y009875D01*
X009472Y009815D01*
X009444Y009712D02*
X008710Y009712D01*
X008809Y009614D02*
X009440Y009614D01*
X009440Y009616D02*
X009451Y009549D01*
X009472Y009485D01*
X009502Y009425D01*
X009542Y009370D01*
X009590Y009322D01*
X009645Y009282D01*
X009705Y009252D01*
X009769Y009231D01*
X009836Y009220D01*
X010121Y009220D01*
X010121Y009621D01*
X010179Y009621D01*
X010179Y009679D01*
X010121Y009679D01*
X010121Y009621D01*
X009440Y009621D01*
X009440Y009616D01*
X009462Y009515D02*
X008907Y009515D01*
X009006Y009417D02*
X009508Y009417D01*
X009595Y009318D02*
X009104Y009318D01*
X009203Y009220D02*
X012820Y009220D01*
X012820Y009318D02*
X010705Y009318D01*
X010710Y009322D02*
X010758Y009370D01*
X010798Y009425D01*
X010828Y009485D01*
X010849Y009549D01*
X010860Y009616D01*
X010860Y009621D01*
X010179Y009621D01*
X010179Y009220D01*
X010464Y009220D01*
X010531Y009231D01*
X010595Y009252D01*
X010655Y009282D01*
X010710Y009322D01*
X010792Y009417D02*
X012820Y009417D01*
X012820Y009515D02*
X010838Y009515D01*
X010860Y009614D02*
X012820Y009614D01*
X012820Y009712D02*
X010856Y009712D01*
X010860Y009684D02*
X010849Y009751D01*
X010828Y009815D01*
X010798Y009875D01*
X010758Y009930D01*
X010710Y009978D01*
X010655Y010018D01*
X010595Y010048D01*
X010531Y010069D01*
X010464Y010080D01*
X010179Y010080D01*
X010179Y009679D01*
X010860Y009679D01*
X010860Y009684D01*
X010830Y009811D02*
X012820Y009811D01*
X012820Y009909D02*
X010773Y009909D01*
X010669Y010008D02*
X012820Y010008D01*
X012820Y010106D02*
X008590Y010106D01*
X008590Y010008D02*
X009631Y010008D01*
X009527Y009909D02*
X008590Y009909D01*
X008590Y010205D02*
X012820Y010205D01*
X012820Y010303D02*
X010611Y010303D01*
X010651Y010319D02*
X010508Y010260D01*
X009792Y010260D01*
X009649Y010319D01*
X009539Y010429D01*
X009480Y010572D01*
X009480Y010728D01*
X009539Y010871D01*
X009649Y010981D01*
X009792Y011040D01*
X010508Y011040D01*
X010651Y010981D01*
X010761Y010871D01*
X010820Y010728D01*
X010820Y010572D01*
X010761Y010429D01*
X010651Y010319D01*
X010733Y010402D02*
X012820Y010402D01*
X012820Y010500D02*
X010790Y010500D01*
X010820Y010599D02*
X012820Y010599D01*
X012820Y010697D02*
X010820Y010697D01*
X010792Y010796D02*
X012820Y010796D01*
X012820Y010894D02*
X010738Y010894D01*
X010622Y010993D02*
X012820Y010993D01*
X012820Y011091D02*
X008590Y011091D01*
X008590Y010993D02*
X009678Y010993D01*
X009562Y010894D02*
X008590Y010894D01*
X008590Y010796D02*
X009508Y010796D01*
X009480Y010697D02*
X008590Y010697D01*
X008590Y010599D02*
X009480Y010599D01*
X009510Y010500D02*
X008590Y010500D01*
X008590Y010402D02*
X009567Y010402D01*
X009689Y010303D02*
X008590Y010303D01*
X008590Y011190D02*
X012820Y011190D01*
X012820Y011288D02*
X012410Y011288D01*
X012399Y011277D02*
X012523Y011401D01*
X012553Y011473D01*
X012560Y011480D01*
X012560Y011490D01*
X012590Y011562D01*
X012590Y011738D01*
X012560Y011810D01*
X012560Y011820D01*
X012553Y011827D01*
X012523Y011899D01*
X012399Y012023D01*
X012327Y012053D01*
X012320Y012060D01*
X012310Y012060D01*
X012238Y012090D01*
X010062Y012090D01*
X009942Y012040D01*
X009792Y012040D01*
X009649Y011981D01*
X009539Y011871D01*
X009480Y011728D01*
X009480Y011572D01*
X009539Y011429D01*
X009649Y011319D01*
X009792Y011260D01*
X009942Y011260D01*
X010062Y011210D01*
X012238Y011210D01*
X012310Y011240D01*
X012320Y011240D01*
X012327Y011247D01*
X012399Y011277D01*
X012509Y011387D02*
X012820Y011387D01*
X012820Y011485D02*
X012560Y011485D01*
X012590Y011584D02*
X012820Y011584D01*
X012820Y011682D02*
X012590Y011682D01*
X012572Y011781D02*
X012820Y011781D01*
X012820Y011879D02*
X012531Y011879D01*
X012445Y011978D02*
X012820Y011978D01*
X012820Y012076D02*
X012271Y012076D01*
X012238Y012210D02*
X012310Y012240D01*
X012320Y012240D01*
X012327Y012247D01*
X012399Y012277D01*
X012523Y012401D01*
X012553Y012473D01*
X012560Y012480D01*
X012560Y012490D01*
X012590Y012562D01*
X012590Y012738D01*
X012560Y012810D01*
X012560Y012820D01*
X012553Y012827D01*
X012523Y012899D01*
X012399Y013023D01*
X012327Y013053D01*
X012320Y013060D01*
X012310Y013060D01*
X012238Y013090D01*
X010062Y013090D01*
X009942Y013040D01*
X009792Y013040D01*
X009649Y012981D01*
X009539Y012871D01*
X009480Y012728D01*
X009480Y012572D01*
X009539Y012429D01*
X009649Y012319D01*
X009792Y012260D01*
X009942Y012260D01*
X010062Y012210D01*
X012238Y012210D01*
X012390Y012273D02*
X012820Y012273D01*
X012820Y012175D02*
X008590Y012175D01*
X008590Y012273D02*
X009761Y012273D01*
X009597Y012372D02*
X008590Y012372D01*
X008590Y012470D02*
X009522Y012470D01*
X009482Y012569D02*
X008590Y012569D01*
X008590Y012667D02*
X009480Y012667D01*
X009496Y012766D02*
X008590Y012766D01*
X008590Y012864D02*
X009537Y012864D01*
X009631Y012963D02*
X008590Y012963D01*
X008590Y013061D02*
X009993Y013061D01*
X010062Y013210D02*
X012238Y013210D01*
X012310Y013240D01*
X012320Y013240D01*
X012327Y013247D01*
X012399Y013277D01*
X012523Y013401D01*
X012553Y013473D01*
X012560Y013480D01*
X012560Y013490D01*
X012590Y013562D01*
X012590Y013738D01*
X012560Y013810D01*
X012560Y013820D01*
X012553Y013827D01*
X012523Y013899D01*
X012399Y014023D01*
X012327Y014053D01*
X012320Y014060D01*
X012310Y014060D01*
X012238Y014090D01*
X010062Y014090D01*
X009942Y014040D01*
X009792Y014040D01*
X009649Y013981D01*
X009539Y013871D01*
X009480Y013728D01*
X009480Y013572D01*
X009539Y013429D01*
X009649Y013319D01*
X009792Y013260D01*
X009942Y013260D01*
X010062Y013210D01*
X009947Y013258D02*
X008590Y013258D01*
X008590Y013160D02*
X012820Y013160D01*
X012820Y013258D02*
X012353Y013258D01*
X012479Y013357D02*
X012820Y013357D01*
X012820Y013455D02*
X012545Y013455D01*
X012586Y013554D02*
X012820Y013554D01*
X012820Y013652D02*
X012590Y013652D01*
X012585Y013751D02*
X012820Y013751D01*
X012820Y013849D02*
X012544Y013849D01*
X012475Y013948D02*
X012820Y013948D01*
X012820Y014046D02*
X012344Y014046D01*
X012238Y014210D02*
X012310Y014240D01*
X012496Y014240D01*
X012560Y014304D01*
X012560Y014490D01*
X012590Y014562D01*
X012590Y014738D01*
X012560Y014810D01*
X012560Y014996D01*
X012496Y015060D01*
X012310Y015060D01*
X012238Y015090D01*
X010062Y015090D01*
X009942Y015040D01*
X009792Y015040D01*
X009649Y014981D01*
X009539Y014871D01*
X009480Y014728D01*
X009480Y014572D01*
X009539Y014429D01*
X009649Y014319D01*
X009792Y014260D01*
X009942Y014260D01*
X010062Y014210D01*
X012238Y014210D01*
X012499Y014243D02*
X012820Y014243D01*
X012820Y014145D02*
X008590Y014145D01*
X008590Y014243D02*
X009983Y014243D01*
X009956Y014046D02*
X008590Y014046D01*
X008590Y013948D02*
X009616Y013948D01*
X009530Y013849D02*
X008590Y013849D01*
X008590Y013751D02*
X009490Y013751D01*
X009480Y013652D02*
X008590Y013652D01*
X008590Y013554D02*
X009488Y013554D01*
X009529Y013455D02*
X008590Y013455D01*
X008590Y013357D02*
X009612Y013357D01*
X009627Y014342D02*
X008590Y014342D01*
X008590Y014440D02*
X009535Y014440D01*
X009494Y014539D02*
X008590Y014539D01*
X008590Y014637D02*
X009480Y014637D01*
X009483Y014736D02*
X008590Y014736D01*
X008590Y014834D02*
X009524Y014834D01*
X009601Y014933D02*
X008590Y014933D01*
X008590Y015031D02*
X009771Y015031D01*
X009785Y015228D02*
X008590Y015228D01*
X008590Y015130D02*
X012820Y015130D01*
X012820Y015228D02*
X010515Y015228D01*
X010531Y015231D02*
X010595Y015252D01*
X010655Y015282D01*
X010710Y015322D01*
X010758Y015370D01*
X010798Y015425D01*
X012820Y015425D01*
X012820Y015327D02*
X010715Y015327D01*
X010798Y015425D02*
X010828Y015485D01*
X010849Y015549D01*
X010860Y015616D01*
X010860Y015621D01*
X010179Y015621D01*
X010179Y015679D01*
X010121Y015679D01*
X010121Y016080D01*
X009836Y016080D01*
X009769Y016069D01*
X009705Y016048D01*
X009645Y016018D01*
X009590Y015978D01*
X009542Y015930D01*
X009502Y015875D01*
X009472Y015815D01*
X009451Y015751D01*
X009440Y015684D01*
X009440Y015679D01*
X010121Y015679D01*
X010121Y015621D01*
X010179Y015621D01*
X010179Y015220D01*
X010464Y015220D01*
X010531Y015231D01*
X010841Y015524D02*
X012820Y015524D01*
X012820Y015622D02*
X010179Y015622D01*
X010179Y015679D02*
X010860Y015679D01*
X010860Y015684D01*
X010849Y015751D01*
X010828Y015815D01*
X010798Y015875D01*
X010758Y015930D01*
X010710Y015978D01*
X010655Y016018D01*
X010595Y016048D01*
X010531Y016069D01*
X010464Y016080D01*
X010179Y016080D01*
X010179Y015679D01*
X010179Y015721D02*
X010121Y015721D01*
X010121Y015819D02*
X010179Y015819D01*
X010179Y015918D02*
X010121Y015918D01*
X010121Y016016D02*
X010179Y016016D01*
X010245Y016213D02*
X011433Y016213D01*
X011392Y016312D02*
X010632Y016312D01*
X010742Y016410D02*
X011351Y016410D01*
X011320Y016509D02*
X010794Y016509D01*
X010820Y016607D02*
X011320Y016607D01*
X011320Y016706D02*
X010820Y016706D01*
X010788Y016804D02*
X011320Y016804D01*
X011356Y016903D02*
X010729Y016903D01*
X010602Y017001D02*
X011397Y017001D01*
X011438Y017100D02*
X002362Y017100D01*
X002276Y017198D02*
X011524Y017198D01*
X011623Y017297D02*
X002177Y017297D01*
X002020Y017395D02*
X011780Y017395D01*
X011512Y016115D02*
X009237Y016115D01*
X009138Y016016D02*
X009642Y016016D01*
X009533Y015918D02*
X009040Y015918D01*
X008941Y015819D02*
X009474Y015819D01*
X009446Y015721D02*
X008843Y015721D01*
X008744Y015622D02*
X010121Y015622D01*
X010121Y015621D02*
X009440Y015621D01*
X009440Y015616D01*
X009451Y015549D01*
X009472Y015485D01*
X009502Y015425D01*
X008590Y015425D01*
X008590Y015327D02*
X009585Y015327D01*
X009590Y015322D02*
X009645Y015282D01*
X009705Y015252D01*
X009769Y015231D01*
X009836Y015220D01*
X010121Y015220D01*
X010121Y015621D01*
X010121Y015524D02*
X010179Y015524D01*
X010179Y015425D02*
X010121Y015425D01*
X010121Y015327D02*
X010179Y015327D01*
X010179Y015228D02*
X010121Y015228D01*
X009590Y015322D02*
X009542Y015370D01*
X009502Y015425D01*
X009459Y015524D02*
X008646Y015524D01*
X007710Y015228D02*
X000850Y015228D01*
X000850Y015130D02*
X007710Y015130D01*
X007040Y014046D02*
X006584Y014046D01*
X006682Y013948D02*
X006990Y013948D01*
X006990Y013849D02*
X006781Y013849D01*
X006810Y013751D02*
X006990Y013751D01*
X006990Y013652D02*
X006810Y013652D01*
X006810Y013554D02*
X006990Y013554D01*
X006990Y013455D02*
X006785Y013455D01*
X006015Y013455D02*
X005491Y013455D01*
X005532Y013554D02*
X005990Y013554D01*
X005990Y013652D02*
X005540Y013652D01*
X005530Y013751D02*
X005990Y013751D01*
X006019Y013849D02*
X005490Y013849D01*
X004907Y014342D02*
X000850Y014342D01*
X000850Y014440D02*
X004815Y014440D01*
X004774Y014539D02*
X000850Y014539D01*
X000850Y014637D02*
X004760Y014637D01*
X004763Y014736D02*
X000850Y014736D01*
X000850Y014834D02*
X004804Y014834D01*
X004881Y014933D02*
X000850Y014933D01*
X000850Y015031D02*
X005051Y015031D01*
X004922Y015327D02*
X000850Y015327D01*
X000850Y015425D02*
X004823Y015425D01*
X004780Y015524D02*
X000850Y015524D01*
X000850Y015622D02*
X004760Y015622D01*
X004760Y015721D02*
X000850Y015721D01*
X000850Y013455D02*
X002100Y013455D01*
X002100Y013357D02*
X000850Y013357D01*
X000850Y013258D02*
X002100Y013258D01*
X002129Y013160D02*
X000850Y013160D01*
X005481Y005871D02*
X006041Y005871D01*
X005990Y005772D02*
X005522Y005772D01*
X005540Y005674D02*
X005990Y005674D01*
X005990Y005575D02*
X005540Y005575D01*
X005500Y005477D02*
X005994Y005477D01*
X006092Y005378D02*
X005430Y005378D01*
X005275Y005280D02*
X006191Y005280D01*
X006154Y004984D02*
X005363Y004984D01*
X005371Y004981D02*
X005228Y005040D01*
X005072Y005040D01*
X004929Y004981D01*
X004819Y004871D01*
X004760Y004728D01*
X004760Y004572D01*
X004819Y004429D01*
X004929Y004319D01*
X005072Y004260D01*
X005228Y004260D01*
X005371Y004319D01*
X005481Y004429D01*
X005540Y004572D01*
X005540Y004728D01*
X005481Y004871D01*
X005371Y004981D01*
X005466Y004886D02*
X006056Y004886D01*
X005990Y004787D02*
X005515Y004787D01*
X005540Y004689D02*
X005990Y004689D01*
X005990Y004590D02*
X005540Y004590D01*
X005506Y004492D02*
X005990Y004492D01*
X006077Y004393D02*
X005445Y004393D01*
X005311Y004295D02*
X006176Y004295D01*
X006169Y003999D02*
X005327Y003999D01*
X005371Y003981D02*
X005228Y004040D01*
X005072Y004040D01*
X004929Y003981D01*
X004819Y003871D01*
X004760Y003728D01*
X004760Y003572D01*
X004819Y003429D01*
X004929Y003319D01*
X005072Y003260D01*
X005228Y003260D01*
X005371Y003319D01*
X005481Y003429D01*
X005540Y003572D01*
X005540Y003728D01*
X005481Y003871D01*
X005371Y003981D01*
X005451Y003901D02*
X006071Y003901D01*
X005990Y003802D02*
X005509Y003802D01*
X005540Y003704D02*
X005990Y003704D01*
X005990Y003605D02*
X005540Y003605D01*
X005513Y003507D02*
X005990Y003507D01*
X006062Y003408D02*
X005460Y003408D01*
X005347Y003310D02*
X006161Y003310D01*
X005481Y002871D02*
X005540Y002728D01*
X005540Y002572D01*
X005481Y002429D01*
X005371Y002319D01*
X005228Y002260D01*
X005072Y002260D01*
X004929Y002319D01*
X004819Y002429D01*
X004760Y002572D01*
X004760Y002728D01*
X004819Y002871D01*
X004929Y002981D01*
X005072Y003040D01*
X005228Y003040D01*
X005371Y002981D01*
X005481Y002871D01*
X005503Y002817D02*
X009517Y002817D01*
X009539Y002871D02*
X009480Y002728D01*
X009480Y002572D01*
X009539Y002429D01*
X009649Y002319D01*
X009792Y002260D01*
X010508Y002260D01*
X010651Y002319D01*
X010761Y002429D01*
X010820Y002572D01*
X010820Y002728D01*
X010761Y002871D01*
X010651Y002981D01*
X010508Y003040D01*
X009792Y003040D01*
X009649Y002981D01*
X009539Y002871D01*
X009584Y002916D02*
X005436Y002916D01*
X005290Y003014D02*
X009730Y003014D01*
X010060Y003211D02*
X000850Y003211D01*
X000850Y003113D02*
X012820Y003113D01*
X012820Y003211D02*
X012240Y003211D01*
X012432Y003310D02*
X012820Y003310D01*
X012820Y003408D02*
X012526Y003408D01*
X012567Y003507D02*
X012820Y003507D01*
X012820Y003605D02*
X012590Y003605D01*
X012590Y003704D02*
X012820Y003704D01*
X012820Y003802D02*
X012563Y003802D01*
X012522Y003901D02*
X012820Y003901D01*
X012820Y003999D02*
X012423Y003999D01*
X012417Y004295D02*
X012820Y004295D01*
X012820Y004393D02*
X012515Y004393D01*
X012561Y004492D02*
X012820Y004492D01*
X012820Y004590D02*
X012590Y004590D01*
X012590Y004689D02*
X012820Y004689D01*
X012820Y004787D02*
X012570Y004787D01*
X012529Y004886D02*
X012820Y004886D01*
X012820Y004984D02*
X012438Y004984D01*
X012402Y005280D02*
X012820Y005280D01*
X012820Y005378D02*
X012500Y005378D01*
X012556Y005477D02*
X012820Y005477D01*
X012820Y005575D02*
X012590Y005575D01*
X012590Y005674D02*
X012820Y005674D01*
X012820Y005772D02*
X012576Y005772D01*
X012535Y005871D02*
X012820Y005871D01*
X012820Y005969D02*
X012453Y005969D01*
X012292Y006068D02*
X012820Y006068D01*
X012820Y006166D02*
X007590Y006166D01*
X007590Y007053D02*
X009972Y007053D01*
X010121Y007250D02*
X010179Y007250D01*
X010179Y007220D02*
X010464Y007220D01*
X010531Y007231D01*
X010595Y007252D01*
X010655Y007282D01*
X010710Y007322D01*
X010758Y007370D01*
X010798Y007425D01*
X010828Y007485D01*
X010849Y007549D01*
X010860Y007616D01*
X010860Y007621D01*
X010179Y007621D01*
X010179Y007220D01*
X010179Y007348D02*
X010121Y007348D01*
X010121Y007447D02*
X010179Y007447D01*
X010179Y007545D02*
X010121Y007545D01*
X010121Y007742D02*
X010179Y007742D01*
X010179Y007841D02*
X010121Y007841D01*
X010121Y007939D02*
X010179Y007939D01*
X010179Y008038D02*
X010121Y008038D01*
X010297Y008235D02*
X012820Y008235D01*
X012820Y008333D02*
X010665Y008333D01*
X010762Y008432D02*
X012820Y008432D01*
X012820Y008530D02*
X010802Y008530D01*
X010820Y008629D02*
X012820Y008629D01*
X012820Y008727D02*
X010820Y008727D01*
X010779Y008826D02*
X012820Y008826D01*
X012820Y008924D02*
X010708Y008924D01*
X010550Y009023D02*
X012820Y009023D01*
X012820Y009121D02*
X009301Y009121D01*
X010121Y009318D02*
X010179Y009318D01*
X010179Y009417D02*
X010121Y009417D01*
X010121Y009515D02*
X010179Y009515D01*
X010179Y009614D02*
X010121Y009614D01*
X010121Y009712D02*
X010179Y009712D01*
X010179Y009811D02*
X010121Y009811D01*
X010121Y009909D02*
X010179Y009909D01*
X010179Y010008D02*
X010121Y010008D01*
X009725Y011288D02*
X008590Y011288D01*
X008590Y011387D02*
X009582Y011387D01*
X009516Y011485D02*
X008590Y011485D01*
X008590Y011584D02*
X009480Y011584D01*
X009480Y011682D02*
X008590Y011682D01*
X008590Y011781D02*
X009502Y011781D01*
X009547Y011879D02*
X008590Y011879D01*
X008590Y011978D02*
X009646Y011978D01*
X010029Y012076D02*
X008590Y012076D01*
X010854Y015721D02*
X012820Y015721D01*
X012820Y015819D02*
X010826Y015819D01*
X010767Y015918D02*
X011750Y015918D01*
X011610Y016016D02*
X010658Y016016D01*
X012550Y015918D02*
X012820Y015918D01*
X012820Y016016D02*
X012690Y016016D01*
X012788Y016115D02*
X012820Y016115D01*
X012820Y015031D02*
X012525Y015031D01*
X012560Y014933D02*
X012820Y014933D01*
X012820Y014834D02*
X012560Y014834D01*
X012590Y014736D02*
X012820Y014736D01*
X012820Y014637D02*
X012590Y014637D01*
X012580Y014539D02*
X012820Y014539D01*
X012820Y014440D02*
X012560Y014440D01*
X012560Y014342D02*
X012820Y014342D01*
X012820Y013061D02*
X012307Y013061D01*
X012460Y012963D02*
X012820Y012963D01*
X012820Y012864D02*
X012538Y012864D01*
X012578Y012766D02*
X012820Y012766D01*
X012820Y012667D02*
X012590Y012667D01*
X012590Y012569D02*
X012820Y012569D01*
X012820Y012470D02*
X012552Y012470D01*
X012494Y012372D02*
X012820Y012372D01*
X012820Y007545D02*
X010848Y007545D01*
X010809Y007447D02*
X012820Y007447D01*
X012820Y007348D02*
X010736Y007348D01*
X010589Y007250D02*
X012820Y007250D01*
X012820Y007151D02*
X007590Y007151D01*
X010044Y005083D02*
X000850Y005083D01*
X000850Y005181D02*
X012820Y005181D01*
X012820Y005083D02*
X012256Y005083D01*
X012820Y004196D02*
X000850Y004196D01*
X000850Y004098D02*
X012820Y004098D01*
X012820Y003014D02*
X010570Y003014D01*
X010716Y002916D02*
X012820Y002916D01*
X012820Y002817D02*
X010783Y002817D01*
X010820Y002719D02*
X012820Y002719D01*
X012820Y002620D02*
X010820Y002620D01*
X010799Y002522D02*
X012820Y002522D01*
X012820Y002423D02*
X012452Y002423D01*
X012649Y002325D02*
X012820Y002325D01*
X012820Y002226D02*
X012748Y002226D01*
X011848Y002423D02*
X010755Y002423D01*
X010656Y002325D02*
X011651Y002325D01*
X011552Y002226D02*
X002248Y002226D01*
X002346Y002128D02*
X011454Y002128D01*
X011409Y002029D02*
X010633Y002029D01*
X010655Y002018D02*
X010595Y002048D01*
X010531Y002069D01*
X010464Y002080D01*
X010179Y002080D01*
X010179Y001679D01*
X010121Y001679D01*
X010121Y002080D01*
X009836Y002080D01*
X009769Y002069D01*
X009705Y002048D01*
X009645Y002018D01*
X009590Y001978D01*
X009542Y001930D01*
X009502Y001875D01*
X009472Y001815D01*
X009451Y001751D01*
X009440Y001684D01*
X009440Y001679D01*
X010121Y001679D01*
X010121Y001621D01*
X010179Y001621D01*
X010179Y001679D01*
X010860Y001679D01*
X010860Y001684D01*
X010849Y001751D01*
X010828Y001815D01*
X010798Y001875D01*
X010758Y001930D01*
X010710Y001978D01*
X010655Y002018D01*
X010758Y001931D02*
X011368Y001931D01*
X011327Y001832D02*
X010820Y001832D01*
X010852Y001734D02*
X011320Y001734D01*
X011320Y001635D02*
X010179Y001635D01*
X010179Y001621D02*
X010860Y001621D01*
X010860Y001616D01*
X010849Y001549D01*
X010828Y001485D01*
X010798Y001425D01*
X010758Y001370D01*
X010710Y001322D01*
X010655Y001282D01*
X010595Y001252D01*
X010531Y001231D01*
X010464Y001220D01*
X010179Y001220D01*
X010179Y001621D01*
X010121Y001621D02*
X010121Y001220D01*
X009836Y001220D01*
X009769Y001231D01*
X009705Y001252D01*
X009645Y001282D01*
X009590Y001322D01*
X009542Y001370D01*
X009502Y001425D01*
X009472Y001485D01*
X009451Y001549D01*
X009440Y001616D01*
X009440Y001621D01*
X010121Y001621D01*
X010121Y001635D02*
X005540Y001635D01*
X005540Y001572D02*
X005481Y001429D01*
X005371Y001319D01*
X005228Y001260D01*
X005072Y001260D01*
X004929Y001319D01*
X004819Y001429D01*
X004760Y001572D01*
X004760Y001728D01*
X004819Y001871D01*
X004929Y001981D01*
X005072Y002040D01*
X005228Y002040D01*
X005371Y001981D01*
X005481Y001871D01*
X005540Y001728D01*
X005540Y001572D01*
X005525Y001537D02*
X009455Y001537D01*
X009495Y001438D02*
X005484Y001438D01*
X005391Y001340D02*
X009572Y001340D01*
X009737Y001241D02*
X002379Y001241D01*
X002420Y001340D02*
X004909Y001340D01*
X004816Y001438D02*
X002460Y001438D01*
X002480Y001537D02*
X004775Y001537D01*
X004760Y001635D02*
X002480Y001635D01*
X002480Y001734D02*
X004762Y001734D01*
X004803Y001832D02*
X002473Y001832D01*
X002432Y001931D02*
X004879Y001931D01*
X005046Y002029D02*
X002391Y002029D01*
X002149Y002325D02*
X004924Y002325D01*
X004825Y002423D02*
X001952Y002423D01*
X001348Y002423D02*
X000850Y002423D01*
X000850Y002325D02*
X001151Y002325D01*
X001052Y002226D02*
X000850Y002226D01*
X000850Y002128D02*
X000954Y002128D01*
X000909Y002029D02*
X000850Y002029D01*
X000850Y001931D02*
X000868Y001931D01*
X000850Y002522D02*
X004781Y002522D01*
X004760Y002620D02*
X000850Y002620D01*
X000850Y002719D02*
X004760Y002719D01*
X004797Y002817D02*
X000850Y002817D01*
X000850Y002916D02*
X004864Y002916D01*
X005010Y003014D02*
X000850Y003014D01*
X000850Y003310D02*
X004953Y003310D01*
X004840Y003408D02*
X000850Y003408D01*
X000850Y003507D02*
X004787Y003507D01*
X004760Y003605D02*
X000850Y003605D01*
X000850Y003704D02*
X004760Y003704D01*
X004791Y003802D02*
X000850Y003802D01*
X000850Y003901D02*
X004849Y003901D01*
X004973Y003999D02*
X000850Y003999D01*
X000850Y004295D02*
X004989Y004295D01*
X004855Y004393D02*
X000850Y004393D01*
X000850Y004492D02*
X004794Y004492D01*
X004760Y004590D02*
X000850Y004590D01*
X000850Y004689D02*
X004760Y004689D01*
X004785Y004787D02*
X000850Y004787D01*
X000850Y004886D02*
X004834Y004886D01*
X004937Y004984D02*
X000850Y004984D01*
X000850Y005280D02*
X001384Y005280D01*
X001286Y005378D02*
X000850Y005378D01*
X000850Y005477D02*
X001200Y005477D01*
X001200Y005575D02*
X000850Y005575D01*
X002014Y005378D02*
X002342Y005378D01*
X002244Y005477D02*
X002100Y005477D01*
X002100Y005575D02*
X002240Y005575D01*
X005376Y002325D02*
X009644Y002325D01*
X009545Y002423D02*
X005475Y002423D01*
X005519Y002522D02*
X009501Y002522D01*
X009480Y002620D02*
X005540Y002620D01*
X005540Y002719D02*
X009480Y002719D01*
X009667Y002029D02*
X005254Y002029D01*
X005421Y001931D02*
X009542Y001931D01*
X009480Y001832D02*
X005497Y001832D01*
X005538Y001734D02*
X009448Y001734D01*
X010121Y001734D02*
X010179Y001734D01*
X010179Y001832D02*
X010121Y001832D01*
X010121Y001931D02*
X010179Y001931D01*
X010179Y002029D02*
X010121Y002029D01*
X010121Y001537D02*
X010179Y001537D01*
X010179Y001438D02*
X010121Y001438D01*
X010121Y001340D02*
X010179Y001340D01*
X010179Y001241D02*
X010121Y001241D01*
X010563Y001241D02*
X011421Y001241D01*
X011380Y001340D02*
X010728Y001340D01*
X010805Y001438D02*
X011340Y001438D01*
X011320Y001537D02*
X010845Y001537D01*
X011484Y001143D02*
X002316Y001143D01*
X002218Y001044D02*
X011582Y001044D01*
X011682Y000946D02*
X002118Y000946D01*
X012520Y006265D02*
X012820Y006265D01*
X012820Y006363D02*
X012560Y006363D01*
X012560Y006462D02*
X012820Y006462D01*
X012820Y006560D02*
X012589Y006560D01*
X012590Y006659D02*
X012820Y006659D01*
X012820Y006757D02*
X012582Y006757D01*
X012560Y006856D02*
X012820Y006856D01*
X012820Y006954D02*
X012560Y006954D01*
X012503Y007053D02*
X012820Y007053D01*
D17*
X007400Y005650D02*
X007400Y009150D01*
X007150Y009400D01*
X006650Y006150D02*
X007400Y005650D01*
X006650Y006150D02*
X003150Y006150D01*
X002650Y005650D01*
D18*
X007150Y009400D03*
D19*
X008150Y009650D02*
X009150Y008650D01*
X010150Y008650D01*
X010150Y006650D02*
X012150Y006650D01*
X012150Y005650D02*
X010150Y005650D01*
X010150Y004650D02*
X012150Y004650D01*
X012150Y003650D02*
X010150Y003650D01*
X008150Y009650D02*
X008150Y010150D01*
X008150Y011150D01*
X008150Y012150D01*
X008150Y013150D01*
X008150Y015650D01*
X009150Y016650D01*
X010150Y016650D01*
X010150Y014650D02*
X012150Y014650D01*
X012150Y013650D02*
X010150Y013650D01*
X010150Y012650D02*
X012150Y012650D01*
X012150Y011650D02*
X010150Y011650D01*
D20*
X008150Y011150D02*
X003650Y011150D01*
X002650Y012150D01*
X002772Y012150D02*
X002650Y012272D01*
X003528Y013150D01*
X008150Y013150D01*
X008150Y012150D02*
X002772Y012150D01*
X002772Y011028D01*
X003650Y010150D01*
X008150Y010150D01*
M02*
